<svg xmlns="http://www.w3.org/2000/svg" xmlns:xlink="http://www.w3.org/1999/xlink" viewBox="0 0 598.51 403.2"><defs><style>.cls-1{fill:none;}.cls-2{fill:#1c1c1c;}.cls-3{clip-path:url(#clip-path);}.cls-4{clip-path:url(#clip-path-2);}.cls-5{fill:#4861d8;}.cls-6{fill:url(#New_Pattern_2);}.cls-7{fill:url(#radial-gradient);}.cls-8{fill:#3654c1;opacity:0.71;}</style><clipPath id="clip-path"><rect class="cls-1" x="-5.55" y="3.09" width="604.06" height="400.11"/></clipPath><clipPath id="clip-path-2"><rect class="cls-1" y="-9.75" width="598.51" height="1393.59"/></clipPath><pattern id="New_Pattern_2" data-name="New Pattern 2" width="27.19" height="27.19" patternTransform="translate(-14.04 -14.04)" patternUnits="userSpaceOnUse" viewBox="0 0 27.19 27.19"><rect class="cls-1" width="27.19" height="27.19"/><polygon class="cls-2" points="13.6 17.23 9.71 13.34 13.6 9.45 17.48 13.34 13.6 17.23"/><path d="M18.19,13.34,13.6,8.74,9,13.34l4.6,4.6ZM13.6,10.16l3.18,3.18L13.6,16.52l-3.19-3.18Z"/><path class="cls-2" d="M9.19,13.6,4.6,9,0,13.6l4.6,4.59ZM4.6,10.41,7.78,13.6,4.6,16.78,1.41,13.6Z"/><path class="cls-2" d="M18.19,4.6,13.6,0,9,4.6l4.6,4.59ZM13.6,1.41,16.78,4.6,13.6,7.78,10.41,4.6Z"/><path class="cls-2" d="M27.19,13.6,22.6,9,18,13.6l4.6,4.59ZM22.6,10.41l3.18,3.19L22.6,16.78,19.41,13.6Z"/><path class="cls-2" d="M18.19,22.6,13.6,18,9,22.6l4.6,4.59ZM13.6,19.41l3.18,3.19L13.6,25.78,10.41,22.6Z"/></pattern><radialGradient id="radial-gradient" cx="4895.03" cy="3574.31" r="250.77" gradientTransform="translate(-13166.08 -9235.84) scale(2.78 2.78)" gradientUnits="userSpaceOnUse"><stop offset="0" stop-color="#787878" stop-opacity="0.12"/><stop offset="0.14" stop-color="#636363" stop-opacity="0.17"/><stop offset="1" stop-opacity="0.42"/></radialGradient></defs><title>cgo-1.1</title><g id="OBJECTS"><g class="cls-3"><rect class="cls-1" x="-213.23" y="173.24" width="1253.84" height="329.3"/><g class="cls-4"><rect class="cls-5" x="-248.93" y="-9.75" width="1393.59" height="1393.59"/><rect class="cls-6" x="-249.8" y="-9.75" width="1395.33" height="1393.59"/><rect class="cls-7" x="-249.8" y="-9.75" width="1393.59" height="1393.59"/><rect class="cls-8" x="-248.93" y="-9.75" width="1393.59" height="1393.59"/></g><path class="cls-5" d="M-12.44,49.87C-9,67.32,5.57,82.05,23,85.58s36.61-4.35,46.53-19.11a50,50,0,0,0,41.29,26.4,50,50,0,0,0,43.51-22.56c17.93,22.89,56.72,24.86,76.88,3.9,1.08-1.12,2.23-2.36,3.76-2.61,2.94-.47,4.94,2.72,6.63,5.16,9.55,13.81,29.92,12.78,46.52,10.24,13.42-2,29.12-5.82,34.16-18.42,11.09,14.78,31.53,18.08,49.88,20.24,4.41.51,9,1,13.22-.22C394,86.08,399,77.31,403.13,69.3,428.2,92.19,469.76,94.24,497,73.93c6.87,14.19,23.65,20.36,39.14,23.31,11.41,2.17,23.53,3.27,34.4-.85s20-14.76,19-26.34a64.44,64.44,0,0,0,21.13,25.38l6.87-86.1c.19-2.44.34-5.07-1-7.15-1.68-2.69-5.16-3.52-8.3-4.05-25.42-4.28-51.33-4.45-77.1-4.52C356.31-6.9,181.49-3.67,6.69-.43,2.32-.35-2.54-.07-5.55,3.09c-2.06,2.17-2.8,5.25-3.35,8.19a128.07,128.07,0,0,0,.7,50.41"/></g></g></svg>