<svg xmlns="http://www.w3.org/2000/svg" xmlns:xlink="http://www.w3.org/1999/xlink" viewBox="0 0 1096.57 288"><defs><style>.cls-1{fill:none;}.cls-2{fill:#1c1c1c;}.cls-3{clip-path:url(#clip-path);}.cls-4{fill:#4861d8;}.cls-5{fill:url(#New_Pattern_2);}.cls-6{fill:url(#radial-gradient);}.cls-7{fill:#3654c1;opacity:0.71;}.cls-8{opacity:0.25;font-size:32.28px;fill:#fff;font-family:SancoaleSoftenedBlack, Sancoale Softened;}.cls-9{letter-spacing:-0.02em;}.cls-10{letter-spacing:-0.02em;}.cls-11{letter-spacing:0em;}.cls-12{letter-spacing:-0.02em;}</style><clipPath id="clip-path"><rect class="cls-1" width="1096.57" height="288"/></clipPath><pattern id="New_Pattern_2" data-name="New Pattern 2" width="27.19" height="27.19" patternTransform="translate(-14.04 -14.04)" patternUnits="userSpaceOnUse" viewBox="0 0 27.19 27.19"><rect class="cls-1" width="27.19" height="27.19"/><polygon class="cls-2" points="13.6 17.23 9.71 13.34 13.6 9.45 17.48 13.34 13.6 17.23"/><path d="M18.19,13.34,13.6,8.74,9,13.34l4.6,4.6ZM13.6,10.16l3.18,3.18L13.6,16.52l-3.19-3.18Z"/><path class="cls-2" d="M9.19,13.6,4.6,9,0,13.6l4.6,4.59ZM4.6,10.41,7.78,13.6,4.6,16.78,1.41,13.6Z"/><path class="cls-2" d="M18.19,4.6,13.6,0,9,4.6l4.6,4.59ZM13.6,1.41,16.78,4.6,13.6,7.78,10.41,4.6Z"/><path class="cls-2" d="M27.19,13.6,22.6,9,18,13.6l4.6,4.59ZM22.6,10.41l3.18,3.19L22.6,16.78,19.41,13.6Z"/><path class="cls-2" d="M18.19,22.6,13.6,18,9,22.6l4.6,4.59ZM13.6,19.41l3.18,3.19L13.6,25.78,10.41,22.6Z"/></pattern><radialGradient id="radial-gradient" cx="4937.29" cy="3496.72" r="208.58" gradientTransform="translate(-13166.08 -9235.84) scale(2.78 2.78)" gradientUnits="userSpaceOnUse"><stop offset="0" stop-color="#787878" stop-opacity="0.12"/><stop offset="0.14" stop-color="#636363" stop-opacity="0.17"/><stop offset="1" stop-opacity="0.42"/></radialGradient></defs><title>cgo-1</title><g id="OBJECTS"><g class="cls-3"><rect class="cls-4" x="-14.31" y="-107.9" width="1159.1" height="1159.1"/><rect class="cls-5" x="-15.03" y="-107.9" width="1160.55" height="1159.1"/><rect class="cls-6" x="-15.03" y="-107.9" width="1159.1" height="1159.1"/><rect class="cls-7" x="-14.31" y="-107.9" width="1159.1" height="1159.1"/></g><rect class="cls-4" width="1096.57" height="43.56"/><text class="cls-8" transform="translate(8.45 34.53)">G<tspan class="cls-9" x="18.8" y="0">C</tspan><tspan x="35.25" y="0">O</tspan></text><text class="cls-8" transform="translate(76.88 34.53)">G<tspan class="cls-9" x="18.8" y="0">C</tspan><tspan x="35.25" y="0">O</tspan></text><text class="cls-8" transform="translate(145.3 34.53)">G<tspan class="cls-10" x="18.8" y="0">C</tspan><tspan class="cls-11" x="35.25" y="0">O</tspan></text><text class="cls-8" transform="translate(213.72 34.53)">G<tspan class="cls-10" x="18.8" y="0">C</tspan><tspan x="35.25" y="0">O</tspan></text><text class="cls-8" transform="translate(282.15 34.53)">G<tspan class="cls-12" x="18.8" y="0">C</tspan><tspan x="35.25" y="0">O</tspan></text><text class="cls-8" transform="translate(350.57 34.53)">G<tspan class="cls-12" x="18.8" y="0">C</tspan><tspan x="35.25" y="0">O</tspan></text><text class="cls-8" transform="translate(418.99 34.53)">G<tspan class="cls-12" x="18.8" y="0">C</tspan><tspan x="35.25" y="0">O</tspan></text><text class="cls-8" transform="translate(487.41 34.53)">G<tspan class="cls-12" x="18.8" y="0">C</tspan><tspan x="35.25" y="0">O</tspan></text><text class="cls-8" transform="translate(557.06 34.53)">G<tspan class="cls-10" x="18.8" y="0">C</tspan><tspan x="35.25" y="0">O</tspan></text><text class="cls-8" transform="translate(625.48 34.53)">G<tspan class="cls-10" x="18.8" y="0">C</tspan><tspan x="35.25" y="0">O</tspan></text><text class="cls-8" transform="translate(693.91 34.53)">G<tspan class="cls-10" x="18.8" y="0">C</tspan><tspan x="35.25" y="0">O</tspan></text><text class="cls-8" transform="translate(762.33 34.53)">G<tspan class="cls-10" x="18.8" y="0">C</tspan><tspan x="35.25" y="0">O</tspan></text><text class="cls-8" transform="translate(830.75 34.53)">G<tspan class="cls-10" x="18.8" y="0">C</tspan><tspan x="35.25" y="0">O</tspan></text><text class="cls-8" transform="translate(899.18 34.53)">G<tspan class="cls-10" x="18.8" y="0">C</tspan><tspan x="35.25" y="0">O</tspan></text><text class="cls-8" transform="translate(967.6 34.53)">G<tspan class="cls-10" x="18.8" y="0">C</tspan><tspan x="35.25" y="0">O</tspan></text><text class="cls-8" transform="translate(1036.02 34.53)">G<tspan class="cls-10" x="18.8" y="0">C</tspan><tspan x="35.25" y="0">O</tspan></text><path class="cls-4" d="M-12.17,77.62c19.67-13.8,46.94-7.8,68.66,2.48s42.62,24.54,66.59,26.22c43.71,3.08,83.83-36.58,126.73-27.69,28,5.82,49.31,31.41,77.68,35.3,43.55,6,80.08-41,124-38.36,33.61,2,59.85,32.75,93.32,36.4,47.76,5.21,91.39-46,137.53-32.59,23.5,6.82,40,29.13,63.52,36,36.7,10.77,71.88-19.07,109.09-27.91a103,103,0,0,1,88.29,20.75c6.89,5.75,13.45,12.64,22.16,14.78,19.62,4.81,35-15.77,52-26.58,26.17-16.57,65.15-7.48,81.29,19a623,623,0,0,0,7-110.51c-.14-5.48-.54-11.46-4.24-15.49-4.45-4.86-11.89-5.1-18.47-5Q547.41-7.21,11.76-19.25C6.1-19.38-.32-19.19-4.09-15-7.55-11.1-7.41-5.3-7.07-.11l5.38,82.23"/></g></svg>