<svg xmlns="http://www.w3.org/2000/svg" xmlns:xlink="http://www.w3.org/1999/xlink" viewBox="0 0 200.84 785.54"><defs><style>.cls-1{isolation:isolate;}.cls-2{fill:#303030;}.cls-3{fill:url(#Degradado_sin_nombre_96);}.cls-4{fill:#636363;}.cls-4,.cls-6{mix-blend-mode:overlay;}.cls-5{fill:url(#Degradado_sin_nombre_96-2);}.cls-7{fill:#fff;}.cls-8{fill:url(#Degradado_sin_nombre_96-3);}.cls-9{mix-blend-mode:color-dodge;}.cls-10{fill:url(#linear-gradient);}.cls-11{fill:url(#linear-gradient-2);}.cls-12{fill:url(#linear-gradient-3);}.cls-13{fill:url(#linear-gradient-4);}</style><linearGradient id="Degradado_sin_nombre_96" x1="32.72" y1="21.98" x2="54.08" y2="53.97" gradientUnits="userSpaceOnUse"><stop offset="0" stop-color="#898989" stop-opacity="0.2"/><stop offset="1" stop-color="#898989"/></linearGradient><linearGradient id="Degradado_sin_nombre_96-2" x1="12.88" y1="480.02" x2="37.16" y2="516.39" xlink:href="#Degradado_sin_nombre_96"/><linearGradient id="Degradado_sin_nombre_96-3" x1="134.3" y1="508.62" x2="159.7" y2="578.7" xlink:href="#Degradado_sin_nombre_96"/><linearGradient id="linear-gradient" x1="26.98" y1="345.61" x2="50.22" y2="345.61" gradientTransform="translate(255.69 73.93) rotate(45)" gradientUnits="userSpaceOnUse"><stop offset="0"/><stop offset="0.11" stop-color="#060606"/><stop offset="0.25" stop-color="#161616"/><stop offset="0.41" stop-color="#323232"/><stop offset="0.59" stop-color="#575757"/><stop offset="0.78" stop-color="#888"/><stop offset="0.97" stop-color="#c3c3c3"/><stop offset="1" stop-color="#ccc"/></linearGradient><linearGradient id="linear-gradient-2" x1="8.76" y1="384.49" x2="44.51" y2="384.49" gradientTransform="translate(279.68 93.78) rotate(45)" xlink:href="#linear-gradient"/><linearGradient id="linear-gradient-3" x1="122.09" y1="432.26" x2="162.24" y2="432.26" gradientTransform="translate(347.3 26.08) rotate(45)" gradientUnits="userSpaceOnUse"><stop offset="0" stop-color="#ccc"/><stop offset="0.03" stop-color="#c3c3c3"/><stop offset="0.22" stop-color="#888"/><stop offset="0.41" stop-color="#575757"/><stop offset="0.59" stop-color="#323232"/><stop offset="0.75" stop-color="#161616"/><stop offset="0.89" stop-color="#060606"/><stop offset="1"/></linearGradient><linearGradient id="linear-gradient-4" x1="145.02" y1="448.9" x2="193.42" y2="448.9" gradientTransform="translate(366.98 11.82) rotate(45)" xlink:href="#linear-gradient-3"/></defs><title>fondo-onstar-8</title><g class="cls-1"><g id="OBJECTS"><rect class="cls-2" x="0.02" y="-0.98" width="200.84" height="787.72"/><path class="cls-3" d="M10.88,46.92c-1.15-3.8.79-7.78,3.81-10.07,3.42-2.58,6.47-3.81,6.78-8.18a19,19,0,0,1,.79-4.74c1.85-4.91,7.43-4.11,11.52-4.45,3.85-.31,6.11-2.76,9.64-6.3,0,0,7-11.16,11.79-1.37a42.58,42.58,0,0,1,1.63,4.35c1.59,3.95,5.29,3.41,11.18,5.21,7.44,2.27,10.63,10.33,3.29,13.92-2.82,1.38-5.35,1.81-8,3.49C57.84,42.22,59,48,54.32,51a10.06,10.06,0,0,1-6.2,1.75C41,52.36,37.92,49.87,33,51.94a43.22,43.22,0,0,1-6.26,2.6C20.2,56.28,12.68,52.88,10.88,46.92Z"/><path class="cls-4" d="M5.86,28c12-4.52,9.27-4.61,16.14-10.74,7.11-6.35,10.17-2.17,16.54-3.15C46.42,12.87,41.87.57,47.91,1.85c2.25.47,2.83,1.23,5.65.92,1.22-.13,4.1-1.66,8-.14A7.57,7.57,0,0,1,65.63,13c-1.45,2.86-3.23,4.44-2.45,7,1.14,3.72,4.14,8.92-.37,11-5,2.37-11-1.61-13.74,4.27s-2.16,12.34-8,17.37c-4.8,4.13-9.3,1.46-14.5-1.94-3.15-2.05-5.81-1.65-9.36-.81A20.78,20.78,0,0,1,3.41,48.11c-4.54-2.45-5.94-8.72-4.36-13.69C.08,31.19,2.7,29.17,5.86,28Z"/><path class="cls-5" d="M-12,508.37c-1.3-4.31.9-8.85,4.34-11.45,3.88-2.94,7.36-4.33,7.7-9.3A21.34,21.34,0,0,1,1,482.23c2.09-5.58,8.44-4.67,13.1-5.06C18.45,476.81,21,474,25,470c0,0,8-12.68,13.41-1.55a45.85,45.85,0,0,1,1.84,4.95c1.82,4.49,6,3.88,12.72,5.92,8.47,2.58,12.09,11.74,3.74,15.83-3.21,1.57-6.08,2.05-9.11,4C41.44,503,42.81,509.54,37.43,513a11.51,11.51,0,0,1-7,2c-8.15-.43-11.6-3.26-17.21-.9A48.68,48.68,0,0,1,6.07,517C-1.36,519-9.91,515.15-12,508.37Z"/><path class="cls-4" d="M-17.66,486.83C-4,481.7-7.12,481.59.69,474.62c8.08-7.21,11.56-2.46,18.81-3.58,9-1.38,3.78-15.37,10.65-13.92,2.55.54,3.21,1.4,6.42,1.05,1.39-.15,4.66-1.88,9-.16a8.61,8.61,0,0,1,4.68,11.84c-1.65,3.25-3.68,5-2.79,7.91,1.3,4.23,4.71,10.14-.43,12.56-5.72,2.69-12.5-1.84-15.61,4.85s-2.46,14-9.12,19.75c-5.46,4.69-10.58,1.66-16.5-2.2-3.57-2.33-6.59-1.88-10.63-.93a23.67,23.67,0,0,1-15.67-2.06c-5.16-2.79-6.75-9.92-5-15.58C-24.24,490.49-21.26,488.19-17.66,486.83Z"/><g class="cls-6"><path class="cls-7" d="M126.17,420.18c-10.64,0-21.34-7.13-24.54-17.42a55,55,0,0,1-1.32-5.71c-.8-4.11-1.62-8.37-4.44-11.44-4.34-4.72-11.51-4.88-18.61-4.35l-3.45.27c-10.64.83-21.63,1.69-32.17-.56a44.27,44.27,0,0,1-16.47-7.14,30.2,30.2,0,0,1-10.89-13.66c-3.53-9.39-1.4-19.87.85-27.95,4-14.54,10.25-23.11,19-26.18,7.62-2.69,15.72-.48,23.56,1.65a103.33,103.33,0,0,0,10.1,2.38A47.28,47.28,0,0,0,111,294a93,93,0,0,0,5.62-7.75c1.6-2.37,3.25-4.82,5.07-7.09,4.66-5.78,9.68-9.15,14.94-10,10.19-1.68,19.11,5.9,27,12.59,18.08,15.36,33.14,21.46,47.42,19.2,13.82-2.18,25.86-13.72,28.63-27.44s-3.86-29-15.75-36.4l.14-.21a35.14,35.14,0,0,1-13,64.3c-8,1.26-16.47-.19-25.33-4.3-7-3.24-14.26-8.13-22.29-15-7.83-6.65-16.69-14.19-26.77-12.53-5.19.85-10.17,4.19-14.78,9.92-1.82,2.26-3.47,4.7-5.06,7.07a93.07,93.07,0,0,1-5.64,7.78A47.71,47.71,0,0,1,75,310.91a44.38,44.38,0,0,1-7.27-.59,103.28,103.28,0,0,1-10.13-2.39c-7.79-2.12-15.86-4.31-23.4-1.65-8.63,3-14.78,11.55-18.81,26-2.24,8-4.36,18.47-.85,27.79,4.48,11.9,17,18.46,27.17,20.64,10.5,2.24,21.48,1.38,32.1.55l3.46-.26c7.16-.54,14.39-.37,18.81,4.43,2.86,3.12,3.69,7.41,4.5,11.56a51.61,51.61,0,0,0,1.31,5.69C105.7,415,120.41,422.76,132.74,419l.07.24A22.39,22.39,0,0,1,126.17,420.18Z"/></g><g class="cls-6"><path class="cls-7" d="M103.18,769C94,769,84.79,762.86,82,754a45.76,45.76,0,0,1-1.14-4.93c-.69-3.54-1.4-7.21-3.83-9.85-3.74-4.07-9.92-4.21-16-3.75l-3,.23c-9.16.71-18.64,1.45-27.72-.49a38,38,0,0,1-14.19-6.15,25.89,25.89,0,0,1-9.38-11.77c-3-8.09-1.21-17.12.73-24.08,3.49-12.54,8.83-19.91,16.34-22.56,6.56-2.32,13.54-.42,20.3,1.42a88.48,88.48,0,0,0,8.7,2A40.76,40.76,0,0,0,90.1,660.28a81.58,81.58,0,0,0,4.84-6.69c1.38-2,2.8-4.15,4.38-6.11,4-5,8.33-7.88,12.87-8.62,8.78-1.45,16.46,5.08,23.24,10.84C151,662.94,164,668.2,176.29,666.26a29.94,29.94,0,0,0,11.1-55l.12-.18a30.29,30.29,0,0,1-11.19,55.41c-6.84,1.08-14.19-.16-21.82-3.71-6-2.79-12.29-7-19.21-12.89-6.74-5.73-14.38-12.22-23.07-10.8-4.47.74-8.76,3.61-12.74,8.55-1.56,2-3,4-4.35,6.09a80.3,80.3,0,0,1-4.86,6.7,41.12,41.12,0,0,1-31.2,14.44,38.9,38.9,0,0,1-6.27-.51,88.91,88.91,0,0,1-8.72-2.06c-6.72-1.83-13.67-3.72-20.17-1.43-7.43,2.63-12.73,10-16.2,22.42C5.78,700.2,4,709.19,7,717.21,10.84,727.46,21.6,733.12,30.39,735c9,1.93,18.51,1.19,27.66.48l3-.23c6.17-.46,12.41-.32,16.21,3.82,2.47,2.69,3.19,6.39,3.88,10a46.5,46.5,0,0,0,1.13,4.9c3.3,10.62,16,17.3,26.6,14l.07.21A19.63,19.63,0,0,1,103.18,769Z"/></g><g class="cls-6"><path class="cls-7" d="M152.2,204.2c-5.65-4.13-6.29-12.34-4.49-18.22,1.6-5.21,4.79-9.78,7.89-14.21.67-1,1.36-2,2-2.93,3.3-4.87,7-11.34,6.74-18.21-.16-3.6-1.42-7.08-2.64-10.44a54.21,54.21,0,0,1-2.22-7.14,27,27,0,0,1,8-25,54.41,54.41,0,0,1,8-5.77c4.14-2.6,8.42-5.29,11.12-9.39,5.41-8.21,2.53-18.94-2.44-25.44-5.91-7.73-15.1-12.11-22.44-15.07-2.24-.9-4.54-1.76-6.77-2.6-6.22-2.33-12.66-4.74-18.42-8.25-9-5.48-14.86-13.23-16.14-21.27a20.2,20.2,0,0,1,2.7-13.37A15.48,15.48,0,0,1,133.78-.74l.05.29c-9.15,1.5-14.46,12.18-13.1,20.72,1.27,8,7.1,15.64,16,21.07,5.74,3.5,12.16,5.9,18.37,8.23,2.23.83,4.53,1.69,6.78,2.6,7.37,3,16.6,7.37,22.56,15.16,5,6.57,7.93,17.44,2.45,25.77-2.74,4.15-7,6.85-11.21,9.47a55.36,55.36,0,0,0-8,5.74A26.67,26.67,0,0,0,159.79,133,54.7,54.7,0,0,0,162,140.1c1.23,3.38,2.49,6.87,2.65,10.52.31,6.95-3.46,13.47-6.79,18.38-.66,1-1.36,2-2,2.94-3.08,4.4-6.26,9-7.85,14.13-1.77,5.78-1.15,13.85,4.38,17.9Z"/></g><path class="cls-8" d="M198,572.44c-3.84,5.08-9.84,7.36-10.81,15.12-.76,6,.34,14.18-7.64,17.48-3.27,1.35-5.18,1.32-9,1.76-7.14.81-7.9.86-15.69,6.59-11.82,8.68-18.6-6.51-29.26-15.17-4.65-3.78-7.2-5.88-8.94-8.65-4.55-7.22,2.19-12.92,4.61-17,3.11-5.18-1.65-9.39-1.21-14.13,1-11.15,13.58,3.85,24-15.52a12.37,12.37,0,0,1,14.65-5.84c8.46,2.41,10.53,10.49,19.81,11.63,1.63.19,6.28.53,9.18,1C198.37,551.44,205,563.25,198,572.44Z"/><path class="cls-4" d="M130.58,569.23C148,562.68,144,562.55,154,553.67c10.3-9.2,14.74-3.15,24-4.57,11.41-1.76,4.82-19.58,13.57-17.74,3.26.69,4.1,1.79,8.18,1.34,1.78-.19,5.95-2.4,11.54-.21s9.1,8.92,6,15.1c-2.1,4.13-4.68,6.42-3.55,10.07,1.65,5.4,6,12.93-.54,16-7.29,3.44-15.94-2.34-19.9,6.18s-3.13,17.89-11.62,25.17c-7,6-13.49,2.12-21-2.8-4.55-3-8.4-2.4-13.55-1.19a30.08,30.08,0,0,1-20-2.62c-6.58-3.55-8.61-12.64-6.32-19.85C122.2,573.89,126,571,130.58,569.23Z"/><g class="cls-9"><rect class="cls-10" x="22.41" y="345.36" width="32.37" height="0.5" transform="translate(-233.08 128.52) rotate(-45)"/></g><g class="cls-9"><rect class="cls-11" x="1.61" y="384.24" width="50.06" height="0.5" transform="translate(-264.08 131.45) rotate(-45)"/></g><g class="cls-9"><rect class="cls-12" x="113.94" y="432.09" width="56.45" height="0.34" transform="translate(-264.02 227.13) rotate(-45)"/></g><g class="cls-9"><rect class="cls-13" x="135.2" y="448.69" width="68.04" height="0.42" transform="translate(-267.85 251.13) rotate(-45)"/></g><g class="cls-6"><path class="cls-7" d="M4.6,600.36a.85.85,0,1,0-.85-.85A.85.85,0,0,0,4.6,600.36Z"/><path class="cls-7" d="M10.37,600.36a.85.85,0,1,0-.84-.85A.85.85,0,0,0,10.37,600.36Z"/><path class="cls-7" d="M16.15,600.36a.85.85,0,1,0-.85-.85A.85.85,0,0,0,16.15,600.36Z"/><path class="cls-7" d="M21.92,600.36a.85.85,0,1,0-.85-.85A.85.85,0,0,0,21.92,600.36Z"/><path class="cls-7" d="M27.69,600.36a.85.85,0,1,0-.85-.85A.85.85,0,0,0,27.69,600.36Z"/><path class="cls-7" d="M33.46,600.36a.85.85,0,1,0-.84-.85A.85.85,0,0,0,33.46,600.36Z"/><path class="cls-7" d="M39.24,600.36a.85.85,0,1,0-.85-.85A.85.85,0,0,0,39.24,600.36Z"/><path class="cls-7" d="M45,600.36a.85.85,0,1,0-.85-.85A.85.85,0,0,0,45,600.36Z"/><path class="cls-7" d="M50.78,600.36a.85.85,0,1,0-.85-.85A.85.85,0,0,0,50.78,600.36Z"/><path class="cls-7" d="M56.55,600.36a.85.85,0,1,0-.84-.85A.85.85,0,0,0,56.55,600.36Z"/><path class="cls-7" d="M62.33,600.36a.85.85,0,1,0-.85-.85A.85.85,0,0,0,62.33,600.36Z"/><path class="cls-7" d="M68.1,600.36a.85.85,0,1,0-.85-.85A.85.85,0,0,0,68.1,600.36Z"/><path class="cls-7" d="M73.87,600.36a.85.85,0,1,0-.85-.85A.85.85,0,0,0,73.87,600.36Z"/><path class="cls-7" d="M79.65,600.36a.85.85,0,1,0-.85-.85A.85.85,0,0,0,79.65,600.36Z"/><path class="cls-7" d="M85.42,600.36a.85.85,0,1,0-.85-.85A.85.85,0,0,0,85.42,600.36Z"/><path class="cls-7" d="M91.19,600.36a.85.85,0,1,0-.85-.85A.85.85,0,0,0,91.19,600.36Z"/><path class="cls-7" d="M97,600.36a.85.85,0,1,0-.85-.85A.85.85,0,0,0,97,600.36Z"/><path class="cls-7" d="M102.74,600.36a.85.85,0,1,0-.85-.85A.85.85,0,0,0,102.74,600.36Z"/><path class="cls-7" d="M108.51,600.36a.85.85,0,1,0-.85-.85A.85.85,0,0,0,108.51,600.36Z"/><path class="cls-7" d="M114.28,600.36a.85.85,0,1,0-.85-.85A.85.85,0,0,0,114.28,600.36Z"/><path class="cls-7" d="M120.05,600.36a.85.85,0,1,0-.85-.85A.85.85,0,0,0,120.05,600.36Z"/><path class="cls-7" d="M125.83,600.36a.85.85,0,1,0-.85-.85A.85.85,0,0,0,125.83,600.36Z"/><path class="cls-7" d="M131.6,600.36a.85.85,0,1,0-.85-.85A.85.85,0,0,0,131.6,600.36Z"/><path class="cls-7" d="M137.37,600.36a.85.85,0,1,0-.85-.85A.85.85,0,0,0,137.37,600.36Z"/><path class="cls-7" d="M143.14,600.36a.85.85,0,1,0-.85-.85A.85.85,0,0,0,143.14,600.36Z"/><path class="cls-7" d="M148.92,600.36a.85.85,0,1,0-.85-.85A.85.85,0,0,0,148.92,600.36Z"/><path class="cls-7" d="M154.69,600.36a.85.85,0,1,0-.85-.85A.85.85,0,0,0,154.69,600.36Z"/><path class="cls-7" d="M160.46,600.36a.85.85,0,1,0-.85-.85A.85.85,0,0,0,160.46,600.36Z"/><path class="cls-7" d="M166.23,600.36a.85.85,0,1,0,0-1.7.85.85,0,0,0,0,1.7Z"/><path class="cls-7" d="M172,600.36a.85.85,0,1,0-.85-.85A.85.85,0,0,0,172,600.36Z"/><path class="cls-7" d="M177.78,600.36a.85.85,0,1,0-.85-.85A.85.85,0,0,0,177.78,600.36Z"/><path class="cls-7" d="M183.55,600.36a.85.85,0,1,0-.85-.85A.85.85,0,0,0,183.55,600.36Z"/><path class="cls-7" d="M189.32,600.36a.85.85,0,1,0-.84-.85A.85.85,0,0,0,189.32,600.36Z"/><path class="cls-7" d="M195.1,600.36a.85.85,0,1,0-.85-.85A.85.85,0,0,0,195.1,600.36Z"/><path class="cls-7" d="M200.87,600.36a.85.85,0,1,0-.85-.85A.85.85,0,0,0,200.87,600.36Z"/><path class="cls-7" d="M4.6,606.13a.85.85,0,1,0-.85-.85A.85.85,0,0,0,4.6,606.13Z"/><path class="cls-7" d="M10.37,606.13a.85.85,0,1,0-.84-.85A.85.85,0,0,0,10.37,606.13Z"/><path class="cls-7" d="M16.15,606.13a.85.85,0,1,0-.85-.85A.85.85,0,0,0,16.15,606.13Z"/><path class="cls-7" d="M21.92,606.13a.85.85,0,1,0-.85-.85A.85.85,0,0,0,21.92,606.13Z"/><path class="cls-7" d="M27.69,606.13a.85.85,0,1,0-.85-.85A.85.85,0,0,0,27.69,606.13Z"/><path class="cls-7" d="M33.46,606.13a.85.85,0,1,0-.84-.85A.85.85,0,0,0,33.46,606.13Z"/><path class="cls-7" d="M39.24,606.13a.85.85,0,1,0-.85-.85A.85.85,0,0,0,39.24,606.13Z"/><path class="cls-7" d="M45,606.13a.85.85,0,1,0-.85-.85A.85.85,0,0,0,45,606.13Z"/><path class="cls-7" d="M50.78,606.13a.85.85,0,1,0-.85-.85A.85.85,0,0,0,50.78,606.13Z"/><path class="cls-7" d="M56.55,606.13a.85.85,0,1,0-.84-.85A.85.85,0,0,0,56.55,606.13Z"/><path class="cls-7" d="M62.33,606.13a.85.85,0,1,0-.85-.85A.85.85,0,0,0,62.33,606.13Z"/><path class="cls-7" d="M68.1,606.13a.85.85,0,1,0-.85-.85A.85.85,0,0,0,68.1,606.13Z"/><path class="cls-7" d="M73.87,606.13a.85.85,0,1,0-.85-.85A.85.85,0,0,0,73.87,606.13Z"/><path class="cls-7" d="M79.65,606.13a.85.85,0,1,0-.85-.85A.85.85,0,0,0,79.65,606.13Z"/><path class="cls-7" d="M85.42,606.13a.85.85,0,1,0-.85-.85A.85.85,0,0,0,85.42,606.13Z"/><path class="cls-7" d="M91.19,606.13a.85.85,0,1,0-.85-.85A.85.85,0,0,0,91.19,606.13Z"/><path class="cls-7" d="M97,606.13a.85.85,0,1,0-.85-.85A.85.85,0,0,0,97,606.13Z"/><path class="cls-7" d="M102.74,606.13a.85.85,0,1,0-.85-.85A.85.85,0,0,0,102.74,606.13Z"/><path class="cls-7" d="M108.51,606.13a.85.85,0,1,0-.85-.85A.85.85,0,0,0,108.51,606.13Z"/><path class="cls-7" d="M114.28,606.13a.85.85,0,1,0-.85-.85A.85.85,0,0,0,114.28,606.13Z"/><path class="cls-7" d="M120.05,606.13a.85.85,0,1,0-.85-.85A.85.85,0,0,0,120.05,606.13Z"/><path class="cls-7" d="M125.83,606.13a.85.85,0,1,0-.85-.85A.85.85,0,0,0,125.83,606.13Z"/><path class="cls-7" d="M131.6,606.13a.85.85,0,1,0-.85-.85A.85.85,0,0,0,131.6,606.13Z"/><path class="cls-7" d="M137.37,606.13a.85.85,0,1,0-.85-.85A.85.85,0,0,0,137.37,606.13Z"/><path class="cls-7" d="M143.14,606.13a.85.85,0,1,0-.85-.85A.85.85,0,0,0,143.14,606.13Z"/><path class="cls-7" d="M148.92,606.13a.85.85,0,1,0-.85-.85A.85.85,0,0,0,148.92,606.13Z"/><path class="cls-7" d="M154.69,606.13a.85.85,0,1,0-.85-.85A.85.85,0,0,0,154.69,606.13Z"/><path class="cls-7" d="M160.46,606.13a.85.85,0,1,0-.85-.85A.85.85,0,0,0,160.46,606.13Z"/><path class="cls-7" d="M166.23,606.13a.85.85,0,1,0,0-1.7.85.85,0,0,0,0,1.7Z"/><path class="cls-7" d="M172,606.13a.85.85,0,1,0-.85-.85A.85.85,0,0,0,172,606.13Z"/><path class="cls-7" d="M177.78,606.13a.85.85,0,1,0-.85-.85A.85.85,0,0,0,177.78,606.13Z"/><path class="cls-7" d="M183.55,606.13a.85.85,0,1,0-.85-.85A.85.85,0,0,0,183.55,606.13Z"/><path class="cls-7" d="M189.32,606.13a.85.85,0,1,0-.84-.85A.85.85,0,0,0,189.32,606.13Z"/><path class="cls-7" d="M195.1,606.13a.85.85,0,1,0-.85-.85A.85.85,0,0,0,195.1,606.13Z"/><path class="cls-7" d="M200.87,606.13a.85.85,0,1,0-.85-.85A.85.85,0,0,0,200.87,606.13Z"/><path class="cls-7" d="M4.6,611.9a.85.85,0,1,0-.85-.84A.85.85,0,0,0,4.6,611.9Z"/><path class="cls-7" d="M10.37,611.9a.85.85,0,1,0-.84-.84A.85.85,0,0,0,10.37,611.9Z"/><path class="cls-7" d="M16.15,611.9a.85.85,0,1,0-.85-.84A.85.85,0,0,0,16.15,611.9Z"/><path class="cls-7" d="M21.92,611.9a.85.85,0,1,0-.85-.84A.85.85,0,0,0,21.92,611.9Z"/><path class="cls-7" d="M27.69,611.9a.85.85,0,1,0-.85-.84A.85.85,0,0,0,27.69,611.9Z"/><path class="cls-7" d="M33.46,611.9a.85.85,0,1,0-.84-.84A.85.85,0,0,0,33.46,611.9Z"/><path class="cls-7" d="M39.24,611.9a.85.85,0,1,0-.85-.84A.85.85,0,0,0,39.24,611.9Z"/><path class="cls-7" d="M45,611.9a.85.85,0,1,0-.85-.84A.85.85,0,0,0,45,611.9Z"/><path class="cls-7" d="M50.78,611.9a.85.85,0,1,0-.85-.84A.85.85,0,0,0,50.78,611.9Z"/><path class="cls-7" d="M56.55,611.9a.85.85,0,1,0-.84-.84A.85.85,0,0,0,56.55,611.9Z"/><path class="cls-7" d="M62.33,611.9a.85.85,0,1,0-.85-.84A.85.85,0,0,0,62.33,611.9Z"/><path class="cls-7" d="M68.1,611.9a.85.85,0,1,0-.85-.84A.85.85,0,0,0,68.1,611.9Z"/><path class="cls-7" d="M73.87,611.9a.85.85,0,1,0-.85-.84A.85.85,0,0,0,73.87,611.9Z"/><path class="cls-7" d="M79.65,611.9a.85.85,0,1,0-.85-.84A.85.85,0,0,0,79.65,611.9Z"/><path class="cls-7" d="M85.42,611.9a.85.85,0,1,0-.85-.84A.85.85,0,0,0,85.42,611.9Z"/><path class="cls-7" d="M91.19,611.9a.85.85,0,1,0-.85-.84A.85.85,0,0,0,91.19,611.9Z"/><path class="cls-7" d="M97,611.9a.85.85,0,1,0-.85-.84A.85.85,0,0,0,97,611.9Z"/><path class="cls-7" d="M102.74,611.9a.85.85,0,1,0-.85-.84A.85.85,0,0,0,102.74,611.9Z"/><path class="cls-7" d="M108.51,611.9a.85.85,0,1,0-.85-.84A.85.85,0,0,0,108.51,611.9Z"/><path class="cls-7" d="M114.28,611.9a.85.85,0,1,0-.85-.84A.85.85,0,0,0,114.28,611.9Z"/><path class="cls-7" d="M120.05,611.9a.85.85,0,1,0-.85-.84A.85.85,0,0,0,120.05,611.9Z"/><path class="cls-7" d="M125.83,611.9a.85.85,0,1,0-.85-.84A.85.85,0,0,0,125.83,611.9Z"/><path class="cls-7" d="M131.6,611.9a.85.85,0,1,0-.85-.84A.85.85,0,0,0,131.6,611.9Z"/><path class="cls-7" d="M137.37,611.9a.85.85,0,1,0-.85-.84A.85.85,0,0,0,137.37,611.9Z"/><path class="cls-7" d="M143.14,611.9a.85.85,0,1,0-.85-.84A.85.85,0,0,0,143.14,611.9Z"/><path class="cls-7" d="M148.92,611.9a.85.85,0,1,0-.85-.84A.85.85,0,0,0,148.92,611.9Z"/><path class="cls-7" d="M154.69,611.9a.85.85,0,1,0-.85-.84A.85.85,0,0,0,154.69,611.9Z"/><path class="cls-7" d="M160.46,611.9a.85.85,0,1,0-.85-.84A.85.85,0,0,0,160.46,611.9Z"/><path class="cls-7" d="M166.23,611.9a.85.85,0,1,0-.84-.84A.84.84,0,0,0,166.23,611.9Z"/><path class="cls-7" d="M172,611.9a.85.85,0,1,0-.85-.84A.85.85,0,0,0,172,611.9Z"/><path class="cls-7" d="M177.78,611.9a.85.85,0,1,0-.85-.84A.85.85,0,0,0,177.78,611.9Z"/><path class="cls-7" d="M183.55,611.9a.85.85,0,1,0-.85-.84A.85.85,0,0,0,183.55,611.9Z"/><path class="cls-7" d="M189.32,611.9a.85.85,0,1,0-.84-.84A.85.85,0,0,0,189.32,611.9Z"/><path class="cls-7" d="M195.1,611.9a.85.85,0,1,0-.85-.84A.85.85,0,0,0,195.1,611.9Z"/><path class="cls-7" d="M200.87,611.9a.85.85,0,1,0-.85-.84A.85.85,0,0,0,200.87,611.9Z"/><path class="cls-7" d="M4.6,617.68a.85.85,0,1,0-.85-.85A.85.85,0,0,0,4.6,617.68Z"/><path class="cls-7" d="M10.37,617.68a.85.85,0,1,0-.84-.85A.85.85,0,0,0,10.37,617.68Z"/><path class="cls-7" d="M16.15,617.68a.85.85,0,1,0-.85-.85A.85.85,0,0,0,16.15,617.68Z"/><path class="cls-7" d="M21.92,617.68a.85.85,0,1,0-.85-.85A.85.85,0,0,0,21.92,617.68Z"/><path class="cls-7" d="M27.69,617.68a.85.85,0,1,0-.85-.85A.85.85,0,0,0,27.69,617.68Z"/><path class="cls-7" d="M33.46,617.68a.85.85,0,1,0-.84-.85A.85.85,0,0,0,33.46,617.68Z"/><path class="cls-7" d="M39.24,617.68a.85.85,0,1,0-.85-.85A.85.85,0,0,0,39.24,617.68Z"/><path class="cls-7" d="M45,617.68a.85.85,0,1,0-.85-.85A.85.85,0,0,0,45,617.68Z"/><path class="cls-7" d="M50.78,617.68a.85.85,0,1,0-.85-.85A.85.85,0,0,0,50.78,617.68Z"/><path class="cls-7" d="M56.55,617.68a.85.85,0,1,0-.84-.85A.85.85,0,0,0,56.55,617.68Z"/><path class="cls-7" d="M62.33,617.68a.85.85,0,1,0-.85-.85A.85.85,0,0,0,62.33,617.68Z"/><path class="cls-7" d="M68.1,617.68a.85.85,0,1,0-.85-.85A.85.85,0,0,0,68.1,617.68Z"/><path class="cls-7" d="M73.87,617.68a.85.85,0,1,0-.85-.85A.85.85,0,0,0,73.87,617.68Z"/><path class="cls-7" d="M79.65,617.68a.85.85,0,1,0-.85-.85A.85.85,0,0,0,79.65,617.68Z"/><path class="cls-7" d="M85.42,617.68a.85.85,0,1,0-.85-.85A.85.85,0,0,0,85.42,617.68Z"/><path class="cls-7" d="M91.19,617.68a.85.85,0,1,0-.85-.85A.85.85,0,0,0,91.19,617.68Z"/><path class="cls-7" d="M97,617.68a.85.85,0,1,0-.85-.85A.85.85,0,0,0,97,617.68Z"/><path class="cls-7" d="M102.74,617.68a.85.85,0,1,0-.85-.85A.85.85,0,0,0,102.74,617.68Z"/><path class="cls-7" d="M108.51,617.68a.85.85,0,1,0-.85-.85A.85.85,0,0,0,108.51,617.68Z"/><path class="cls-7" d="M114.28,617.68a.85.85,0,1,0-.85-.85A.85.85,0,0,0,114.28,617.68Z"/><path class="cls-7" d="M120.05,617.68a.85.85,0,1,0-.85-.85A.85.85,0,0,0,120.05,617.68Z"/><path class="cls-7" d="M125.83,617.68a.85.85,0,1,0-.85-.85A.85.85,0,0,0,125.83,617.68Z"/><path class="cls-7" d="M131.6,617.68a.85.85,0,1,0-.85-.85A.85.85,0,0,0,131.6,617.68Z"/><path class="cls-7" d="M137.37,617.68a.85.85,0,1,0-.85-.85A.85.85,0,0,0,137.37,617.68Z"/><path class="cls-7" d="M143.14,617.68a.85.85,0,1,0-.85-.85A.85.85,0,0,0,143.14,617.68Z"/><path class="cls-7" d="M148.92,617.68a.85.85,0,1,0-.85-.85A.85.85,0,0,0,148.92,617.68Z"/><path class="cls-7" d="M154.69,617.68a.85.85,0,1,0-.85-.85A.85.85,0,0,0,154.69,617.68Z"/><path class="cls-7" d="M160.46,617.68a.85.85,0,1,0-.85-.85A.85.85,0,0,0,160.46,617.68Z"/><path class="cls-7" d="M166.23,617.68a.85.85,0,1,0,0-1.7.85.85,0,0,0,0,1.7Z"/><path class="cls-7" d="M172,617.68a.85.85,0,1,0-.85-.85A.85.85,0,0,0,172,617.68Z"/><path class="cls-7" d="M177.78,617.68a.85.85,0,1,0-.85-.85A.85.85,0,0,0,177.78,617.68Z"/><path class="cls-7" d="M183.55,617.68a.85.85,0,1,0-.85-.85A.85.85,0,0,0,183.55,617.68Z"/><path class="cls-7" d="M189.32,617.68a.85.85,0,1,0-.84-.85A.85.85,0,0,0,189.32,617.68Z"/><path class="cls-7" d="M195.1,617.68a.85.85,0,1,0-.85-.85A.85.85,0,0,0,195.1,617.68Z"/><path class="cls-7" d="M200.87,617.68a.85.85,0,1,0-.85-.85A.85.85,0,0,0,200.87,617.68Z"/><path class="cls-7" d="M4.6,623.45a.85.85,0,1,0-.85-.85A.85.85,0,0,0,4.6,623.45Z"/><path class="cls-7" d="M10.37,623.45a.85.85,0,1,0-.84-.85A.85.85,0,0,0,10.37,623.45Z"/><path class="cls-7" d="M16.15,623.45a.85.85,0,1,0-.85-.85A.85.85,0,0,0,16.15,623.45Z"/><path class="cls-7" d="M21.92,623.45a.85.85,0,1,0-.85-.85A.85.85,0,0,0,21.92,623.45Z"/><path class="cls-7" d="M27.69,623.45a.85.85,0,1,0-.85-.85A.85.85,0,0,0,27.69,623.45Z"/><path class="cls-7" d="M33.46,623.45a.85.85,0,1,0-.84-.85A.85.85,0,0,0,33.46,623.45Z"/><path class="cls-7" d="M39.24,623.45a.85.85,0,1,0-.85-.85A.85.85,0,0,0,39.24,623.45Z"/><path class="cls-7" d="M45,623.45a.85.85,0,1,0-.85-.85A.85.85,0,0,0,45,623.45Z"/><path class="cls-7" d="M50.78,623.45a.85.85,0,1,0-.85-.85A.85.85,0,0,0,50.78,623.45Z"/><path class="cls-7" d="M56.55,623.45a.85.85,0,1,0-.84-.85A.85.85,0,0,0,56.55,623.45Z"/><path class="cls-7" d="M62.33,623.45a.85.85,0,1,0-.85-.85A.85.85,0,0,0,62.33,623.45Z"/><path class="cls-7" d="M68.1,623.45a.85.85,0,1,0-.85-.85A.85.85,0,0,0,68.1,623.45Z"/><path class="cls-7" d="M73.87,623.45a.85.85,0,1,0-.85-.85A.85.85,0,0,0,73.87,623.45Z"/><path class="cls-7" d="M79.65,623.45a.85.85,0,1,0-.85-.85A.85.85,0,0,0,79.65,623.45Z"/><path class="cls-7" d="M85.42,623.45a.85.85,0,1,0-.85-.85A.85.85,0,0,0,85.42,623.45Z"/><path class="cls-7" d="M91.19,623.45a.85.85,0,1,0-.85-.85A.85.85,0,0,0,91.19,623.45Z"/><path class="cls-7" d="M97,623.45a.85.85,0,1,0-.85-.85A.85.85,0,0,0,97,623.45Z"/><path class="cls-7" d="M102.74,623.45a.85.85,0,1,0-.85-.85A.85.85,0,0,0,102.74,623.45Z"/><path class="cls-7" d="M108.51,623.45a.85.85,0,1,0-.85-.85A.85.85,0,0,0,108.51,623.45Z"/><path class="cls-7" d="M114.28,623.45a.85.85,0,1,0-.85-.85A.85.85,0,0,0,114.28,623.45Z"/><path class="cls-7" d="M120.05,623.45a.85.85,0,1,0-.85-.85A.85.85,0,0,0,120.05,623.45Z"/><path class="cls-7" d="M125.83,623.45a.85.85,0,1,0-.85-.85A.85.85,0,0,0,125.83,623.45Z"/><path class="cls-7" d="M131.6,623.45a.85.85,0,1,0-.85-.85A.85.85,0,0,0,131.6,623.45Z"/><path class="cls-7" d="M137.37,623.45a.85.85,0,1,0-.85-.85A.85.85,0,0,0,137.37,623.45Z"/><path class="cls-7" d="M143.14,623.45a.85.85,0,1,0-.85-.85A.85.85,0,0,0,143.14,623.45Z"/><path class="cls-7" d="M148.92,623.45a.85.85,0,1,0-.85-.85A.85.85,0,0,0,148.92,623.45Z"/><path class="cls-7" d="M154.69,623.45a.85.85,0,1,0-.85-.85A.85.85,0,0,0,154.69,623.45Z"/><path class="cls-7" d="M160.46,623.45a.85.85,0,1,0-.85-.85A.85.85,0,0,0,160.46,623.45Z"/><path class="cls-7" d="M166.23,623.45a.85.85,0,0,0,0-1.7.85.85,0,0,0,0,1.7Z"/><path class="cls-7" d="M172,623.45a.85.85,0,1,0-.85-.85A.85.85,0,0,0,172,623.45Z"/><path class="cls-7" d="M177.78,623.45a.85.85,0,1,0-.85-.85A.85.85,0,0,0,177.78,623.45Z"/><path class="cls-7" d="M183.55,623.45a.85.85,0,1,0-.85-.85A.85.85,0,0,0,183.55,623.45Z"/><path class="cls-7" d="M189.32,623.45a.85.85,0,1,0-.84-.85A.85.85,0,0,0,189.32,623.45Z"/><path class="cls-7" d="M195.1,623.45a.85.85,0,1,0-.85-.85A.85.85,0,0,0,195.1,623.45Z"/><path class="cls-7" d="M200.87,623.45a.85.85,0,1,0-.85-.85A.85.85,0,0,0,200.87,623.45Z"/><path class="cls-7" d="M4.6,629.22a.85.85,0,1,0-.85-.85A.85.85,0,0,0,4.6,629.22Z"/><circle class="cls-7" cx="10.37" cy="628.37" r="0.85"/><path class="cls-7" d="M16.15,629.22a.85.85,0,1,0-.85-.85A.85.85,0,0,0,16.15,629.22Z"/><circle class="cls-7" cx="21.92" cy="628.37" r="0.85"/><circle class="cls-7" cx="27.69" cy="628.37" r="0.85"/><circle class="cls-7" cx="33.46" cy="628.37" r="0.85"/><circle class="cls-7" cx="39.24" cy="628.37" r="0.85"/><circle class="cls-7" cx="45.01" cy="628.37" r="0.85"/><circle class="cls-7" cx="50.78" cy="628.37" r="0.85"/><path class="cls-7" d="M56.55,629.22a.85.85,0,1,0-.84-.85A.85.85,0,0,0,56.55,629.22Z"/><circle class="cls-7" cx="62.33" cy="628.37" r="0.85"/><path class="cls-7" d="M68.1,629.22a.85.85,0,1,0-.85-.85A.85.85,0,0,0,68.1,629.22Z"/><circle class="cls-7" cx="73.87" cy="628.37" r="0.85"/><circle class="cls-7" cx="79.65" cy="628.37" r="0.85"/><circle class="cls-7" cx="85.42" cy="628.37" r="0.85"/><circle class="cls-7" cx="91.19" cy="628.37" r="0.85"/><circle class="cls-7" cx="96.96" cy="628.37" r="0.85"/><circle class="cls-7" cx="102.74" cy="628.37" r="0.85"/><path class="cls-7" d="M108.51,629.22a.85.85,0,1,0-.85-.85A.85.85,0,0,0,108.51,629.22Z"/><circle class="cls-7" cx="114.28" cy="628.37" r="0.85"/><path class="cls-7" d="M120.05,629.22a.85.85,0,1,0-.85-.85A.85.85,0,0,0,120.05,629.22Z"/><circle class="cls-7" cx="125.83" cy="628.37" r="0.85"/><circle class="cls-7" cx="131.6" cy="628.37" r="0.85"/><circle class="cls-7" cx="137.37" cy="628.37" r="0.85"/><circle class="cls-7" cx="143.14" cy="628.37" r="0.85"/><circle class="cls-7" cx="148.92" cy="628.37" r="0.85"/><circle class="cls-7" cx="154.69" cy="628.37" r="0.85"/><path class="cls-7" d="M160.46,629.22a.85.85,0,1,0-.85-.85A.85.85,0,0,0,160.46,629.22Z"/><circle class="cls-7" cx="166.23" cy="628.37" r="0.85"/><path class="cls-7" d="M172,629.22a.85.85,0,1,0-.85-.85A.85.85,0,0,0,172,629.22Z"/><circle class="cls-7" cx="177.78" cy="628.37" r="0.85"/><circle class="cls-7" cx="183.55" cy="628.37" r="0.85"/><circle class="cls-7" cx="189.32" cy="628.37" r="0.85"/><circle class="cls-7" cx="195.1" cy="628.37" r="0.85"/><circle class="cls-7" cx="200.87" cy="628.37" r="0.85"/></g><g class="cls-6"><circle class="cls-7" cx="154.64" cy="105.73" r="0.51"/><circle class="cls-7" cx="158.12" cy="105.73" r="0.51"/><circle class="cls-7" cx="161.59" cy="105.73" r="0.51"/><circle class="cls-7" cx="165.06" cy="105.73" r="0.51"/><path class="cls-7" d="M168.53,106.24a.51.51,0,1,0-.51-.51A.51.51,0,0,0,168.53,106.24Z"/><circle class="cls-7" cx="172.01" cy="105.73" r="0.51"/><path class="cls-7" d="M175.48,106.24a.51.51,0,1,0-.51-.51A.51.51,0,0,0,175.48,106.24Z"/><circle class="cls-7" cx="178.95" cy="105.73" r="0.51"/><path class="cls-7" d="M154.64,109.71a.51.51,0,1,0,0-1,.51.51,0,0,0,0,1Z"/><path class="cls-7" d="M158.12,109.71a.51.51,0,0,0,0-1,.51.51,0,0,0,0,1Z"/><path class="cls-7" d="M161.59,109.71a.51.51,0,1,0-.51-.51A.51.51,0,0,0,161.59,109.71Z"/><path class="cls-7" d="M165.06,109.71a.51.51,0,1,0-.51-.51A.51.51,0,0,0,165.06,109.71Z"/><path class="cls-7" d="M168.53,109.71a.51.51,0,1,0-.51-.51A.51.51,0,0,0,168.53,109.71Z"/><path class="cls-7" d="M172,109.71a.51.51,0,1,0-.51-.51A.51.51,0,0,0,172,109.71Z"/><path class="cls-7" d="M175.48,109.71a.51.51,0,1,0-.51-.51A.51.51,0,0,0,175.48,109.71Z"/><path class="cls-7" d="M179,109.71a.51.51,0,1,0-.51-.51A.51.51,0,0,0,179,109.71Z"/><circle class="cls-7" cx="154.64" cy="112.67" r="0.51"/><circle class="cls-7" cx="158.12" cy="112.67" r="0.51"/><circle class="cls-7" cx="161.59" cy="112.67" r="0.51"/><circle class="cls-7" cx="165.06" cy="112.67" r="0.51"/><path class="cls-7" d="M168.53,113.18a.51.51,0,0,0,.52-.51.52.52,0,0,0-1,0A.51.51,0,0,0,168.53,113.18Z"/><circle class="cls-7" cx="172.01" cy="112.67" r="0.51"/><path class="cls-7" d="M175.48,113.18a.51.51,0,0,0,.51-.51.51.51,0,0,0-1,0A.51.51,0,0,0,175.48,113.18Z"/><circle class="cls-7" cx="178.95" cy="112.67" r="0.51"/><circle class="cls-7" cx="154.64" cy="116.15" r="0.51"/><circle class="cls-7" cx="158.12" cy="116.15" r="0.51"/><circle class="cls-7" cx="161.59" cy="116.15" r="0.51"/><circle class="cls-7" cx="165.06" cy="116.15" r="0.51"/><path class="cls-7" d="M168.53,116.66a.51.51,0,1,0-.51-.51A.51.51,0,0,0,168.53,116.66Z"/><circle class="cls-7" cx="172.01" cy="116.15" r="0.51"/><path class="cls-7" d="M175.48,116.66a.51.51,0,1,0-.51-.51A.51.51,0,0,0,175.48,116.66Z"/><circle class="cls-7" cx="178.95" cy="116.15" r="0.51"/><circle class="cls-7" cx="154.64" cy="119.62" r="0.51"/><circle class="cls-7" cx="158.12" cy="119.62" r="0.51"/><circle class="cls-7" cx="161.59" cy="119.62" r="0.51"/><circle class="cls-7" cx="165.06" cy="119.62" r="0.51"/><path class="cls-7" d="M168.53,120.13a.51.51,0,1,0-.51-.51A.51.51,0,0,0,168.53,120.13Z"/><circle class="cls-7" cx="172.01" cy="119.62" r="0.51"/><path class="cls-7" d="M175.48,120.13a.51.51,0,1,0-.51-.51A.51.51,0,0,0,175.48,120.13Z"/><circle class="cls-7" cx="178.95" cy="119.62" r="0.51"/><circle class="cls-7" cx="154.64" cy="123.09" r="0.51"/><circle class="cls-7" cx="158.12" cy="123.09" r="0.51"/><circle class="cls-7" cx="161.59" cy="123.09" r="0.51"/><circle class="cls-7" cx="165.06" cy="123.09" r="0.51"/><path class="cls-7" d="M168.53,123.6a.51.51,0,1,0-.51-.51A.51.51,0,0,0,168.53,123.6Z"/><circle class="cls-7" cx="172.01" cy="123.09" r="0.51"/><path class="cls-7" d="M175.48,123.6a.51.51,0,1,0-.51-.51A.51.51,0,0,0,175.48,123.6Z"/><circle class="cls-7" cx="178.95" cy="123.09" r="0.51"/><circle class="cls-7" cx="154.64" cy="126.57" r="0.51"/><circle class="cls-7" cx="158.12" cy="126.57" r="0.51"/><circle class="cls-7" cx="161.59" cy="126.57" r="0.51"/><circle class="cls-7" cx="165.06" cy="126.57" r="0.51"/><path class="cls-7" d="M168.53,127.08a.52.52,0,1,0-.51-.51A.51.51,0,0,0,168.53,127.08Z"/><circle class="cls-7" cx="172.01" cy="126.57" r="0.51"/><path class="cls-7" d="M175.48,127.08a.52.52,0,1,0-.51-.51A.51.51,0,0,0,175.48,127.08Z"/><circle class="cls-7" cx="178.95" cy="126.57" r="0.51"/><circle class="cls-7" cx="154.64" cy="130.04" r="0.51"/><circle class="cls-7" cx="158.12" cy="130.04" r="0.51"/><circle class="cls-7" cx="161.59" cy="130.04" r="0.51"/><circle class="cls-7" cx="165.06" cy="130.04" r="0.51"/><path class="cls-7" d="M168.53,130.55A.51.51,0,1,0,168,130,.51.51,0,0,0,168.53,130.55Z"/><circle class="cls-7" cx="172.01" cy="130.04" r="0.51"/><path class="cls-7" d="M175.48,130.55A.51.51,0,1,0,175,130,.51.51,0,0,0,175.48,130.55Z"/><circle class="cls-7" cx="178.95" cy="130.04" r="0.51"/><path class="cls-7" d="M154.64,134a.51.51,0,0,0,0-1,.51.51,0,0,0,0,1Z"/><path class="cls-7" d="M158.12,134a.51.51,0,1,0,0-1,.51.51,0,0,0,0,1Z"/><path class="cls-7" d="M161.59,134a.51.51,0,1,0-.51-.51A.51.51,0,0,0,161.59,134Z"/><path class="cls-7" d="M165.06,134a.51.51,0,1,0-.51-.51A.51.51,0,0,0,165.06,134Z"/><path class="cls-7" d="M168.53,134a.51.51,0,1,0-.51-.51A.51.51,0,0,0,168.53,134Z"/><path class="cls-7" d="M172,134a.51.51,0,1,0-.51-.51A.51.51,0,0,0,172,134Z"/><path class="cls-7" d="M175.48,134a.51.51,0,1,0-.51-.51A.51.51,0,0,0,175.48,134Z"/><path class="cls-7" d="M179,134a.51.51,0,1,0-.51-.51A.51.51,0,0,0,179,134Z"/><circle class="cls-7" cx="154.64" cy="136.98" r="0.51"/><circle class="cls-7" cx="158.12" cy="136.98" r="0.51"/><circle class="cls-7" cx="161.59" cy="136.98" r="0.51"/><circle class="cls-7" cx="165.06" cy="136.98" r="0.51"/><path class="cls-7" d="M168.53,137.49a.51.51,0,0,0,.52-.51.52.52,0,0,0-1,0A.51.51,0,0,0,168.53,137.49Z"/><circle class="cls-7" cx="172.01" cy="136.98" r="0.51"/><path class="cls-7" d="M175.48,137.49A.51.51,0,0,0,176,137a.51.51,0,1,0-1,0A.51.51,0,0,0,175.48,137.49Z"/><circle class="cls-7" cx="178.95" cy="136.98" r="0.51"/><path class="cls-7" d="M154.64,141a.51.51,0,0,0,.51-.51.5.5,0,0,0-.51-.51.51.51,0,0,0-.51.51A.51.51,0,0,0,154.64,141Z"/><path class="cls-7" d="M158.12,141a.51.51,0,0,0,.51-.51.51.51,0,0,0-.51-.51.5.5,0,0,0-.51.51A.51.51,0,0,0,158.12,141Z"/><path class="cls-7" d="M161.59,141a.51.51,0,0,0,.51-.51.51.51,0,1,0-1,0A.51.51,0,0,0,161.59,141Z"/><path class="cls-7" d="M165.06,141a.51.51,0,0,0,.51-.51.51.51,0,1,0-1,0A.51.51,0,0,0,165.06,141Z"/><path class="cls-7" d="M168.53,141a.51.51,0,0,0,.52-.51.52.52,0,1,0-.52.51Z"/><path class="cls-7" d="M172,141a.51.51,0,0,0,.51-.51.51.51,0,1,0-1,0A.51.51,0,0,0,172,141Z"/><path class="cls-7" d="M175.48,141a.51.51,0,0,0,.51-.51.51.51,0,1,0-1,0A.51.51,0,0,0,175.48,141Z"/><path class="cls-7" d="M179,141a.51.51,0,0,0,.51-.51.51.51,0,1,0-1,0A.51.51,0,0,0,179,141Z"/><circle class="cls-7" cx="154.64" cy="143.93" r="0.51"/><circle class="cls-7" cx="158.12" cy="143.93" r="0.51"/><circle class="cls-7" cx="161.59" cy="143.93" r="0.51"/><circle class="cls-7" cx="165.06" cy="143.93" r="0.51"/><path class="cls-7" d="M168.53,144.44a.51.51,0,1,0-.51-.51A.51.51,0,0,0,168.53,144.44Z"/><circle class="cls-7" cx="172.01" cy="143.93" r="0.51"/><path class="cls-7" d="M175.48,144.44a.51.51,0,1,0-.51-.51A.51.51,0,0,0,175.48,144.44Z"/><circle class="cls-7" cx="178.95" cy="143.93" r="0.51"/><path class="cls-7" d="M154.64,147.91a.51.51,0,0,0,0-1,.51.51,0,0,0,0,1Z"/><path class="cls-7" d="M158.12,147.91a.51.51,0,1,0,0-1,.51.51,0,1,0,0,1Z"/><path class="cls-7" d="M161.59,147.91a.51.51,0,1,0-.51-.51A.51.51,0,0,0,161.59,147.91Z"/><path class="cls-7" d="M165.06,147.91a.51.51,0,1,0-.51-.51A.51.51,0,0,0,165.06,147.91Z"/><path class="cls-7" d="M168.53,147.91a.51.51,0,1,0-.51-.51A.51.51,0,0,0,168.53,147.91Z"/><path class="cls-7" d="M172,147.91a.51.51,0,1,0-.51-.51A.51.51,0,0,0,172,147.91Z"/><path class="cls-7" d="M175.48,147.91a.51.51,0,1,0-.51-.51A.51.51,0,0,0,175.48,147.91Z"/><path class="cls-7" d="M179,147.91a.51.51,0,1,0-.51-.51A.51.51,0,0,0,179,147.91Z"/><circle class="cls-7" cx="154.64" cy="150.87" r="0.51"/><circle class="cls-7" cx="158.12" cy="150.87" r="0.51"/><circle class="cls-7" cx="161.59" cy="150.87" r="0.51"/><circle class="cls-7" cx="165.06" cy="150.87" r="0.51"/><path class="cls-7" d="M168.53,151.38a.51.51,0,0,0,.52-.51.52.52,0,0,0-1,0A.51.51,0,0,0,168.53,151.38Z"/><circle class="cls-7" cx="172.01" cy="150.87" r="0.51"/><path class="cls-7" d="M175.48,151.38a.51.51,0,0,0,.51-.51.51.51,0,1,0-1,0A.51.51,0,0,0,175.48,151.38Z"/><circle class="cls-7" cx="178.95" cy="150.87" r="0.51"/><circle class="cls-7" cx="154.64" cy="154.35" r="0.51"/><circle class="cls-7" cx="158.12" cy="154.35" r="0.51"/><circle class="cls-7" cx="161.59" cy="154.35" r="0.51"/><circle class="cls-7" cx="165.06" cy="154.35" r="0.51"/><path class="cls-7" d="M168.53,154.86a.51.51,0,0,0,.52-.51.52.52,0,1,0-.52.51Z"/><circle class="cls-7" cx="172.01" cy="154.35" r="0.51"/><path class="cls-7" d="M175.48,154.86a.51.51,0,0,0,.51-.51.51.51,0,1,0-1,0A.51.51,0,0,0,175.48,154.86Z"/><circle class="cls-7" cx="178.95" cy="154.35" r="0.51"/><circle class="cls-7" cx="154.64" cy="157.82" r="0.51"/><circle class="cls-7" cx="158.12" cy="157.82" r="0.51"/><circle class="cls-7" cx="161.59" cy="157.82" r="0.51"/><circle class="cls-7" cx="165.06" cy="157.82" r="0.51"/><path class="cls-7" d="M168.53,158.33a.51.51,0,1,0-.51-.51A.51.51,0,0,0,168.53,158.33Z"/><circle class="cls-7" cx="172.01" cy="157.82" r="0.51"/><path class="cls-7" d="M175.48,158.33a.51.51,0,1,0-.51-.51A.51.51,0,0,0,175.48,158.33Z"/><circle class="cls-7" cx="178.95" cy="157.82" r="0.51"/><circle class="cls-7" cx="154.64" cy="161.29" r="0.51"/><circle class="cls-7" cx="158.12" cy="161.29" r="0.51"/><circle class="cls-7" cx="161.59" cy="161.29" r="0.51"/><circle class="cls-7" cx="165.06" cy="161.29" r="0.51"/><path class="cls-7" d="M168.53,161.8a.51.51,0,1,0-.51-.51A.51.51,0,0,0,168.53,161.8Z"/><circle class="cls-7" cx="172.01" cy="161.29" r="0.51"/><path class="cls-7" d="M175.48,161.8a.51.51,0,1,0-.51-.51A.51.51,0,0,0,175.48,161.8Z"/><circle class="cls-7" cx="178.95" cy="161.29" r="0.51"/><circle class="cls-7" cx="154.64" cy="164.76" r="0.51"/><circle class="cls-7" cx="158.12" cy="164.76" r="0.51"/><circle class="cls-7" cx="161.59" cy="164.76" r="0.51"/><circle class="cls-7" cx="165.06" cy="164.76" r="0.51"/><path class="cls-7" d="M168.53,165.28a.52.52,0,1,0-.51-.52A.52.52,0,0,0,168.53,165.28Z"/><circle class="cls-7" cx="172.01" cy="164.76" r="0.51"/><path class="cls-7" d="M175.48,165.28a.52.52,0,1,0-.51-.52A.51.51,0,0,0,175.48,165.28Z"/><circle class="cls-7" cx="178.95" cy="164.76" r="0.51"/><circle class="cls-7" cx="154.64" cy="168.24" r="0.51"/><circle class="cls-7" cx="158.12" cy="168.24" r="0.51"/><circle class="cls-7" cx="161.59" cy="168.24" r="0.51"/><circle class="cls-7" cx="165.06" cy="168.24" r="0.51"/><path class="cls-7" d="M168.53,168.75a.51.51,0,1,0-.51-.51A.51.51,0,0,0,168.53,168.75Z"/><circle class="cls-7" cx="172.01" cy="168.24" r="0.51"/><path class="cls-7" d="M175.48,168.75a.51.51,0,1,0-.51-.51A.51.51,0,0,0,175.48,168.75Z"/><circle class="cls-7" cx="178.95" cy="168.24" r="0.51"/><path class="cls-7" d="M154.64,172.22a.51.51,0,0,0,0-1,.51.51,0,0,0,0,1Z"/><path class="cls-7" d="M158.12,172.22a.51.51,0,1,0,0-1,.51.51,0,1,0,0,1Z"/><path class="cls-7" d="M161.59,172.22a.51.51,0,1,0-.51-.51A.51.51,0,0,0,161.59,172.22Z"/><path class="cls-7" d="M165.06,172.22a.51.51,0,1,0-.51-.51A.51.51,0,0,0,165.06,172.22Z"/><path class="cls-7" d="M168.53,172.22a.51.51,0,1,0-.51-.51A.51.51,0,0,0,168.53,172.22Z"/><path class="cls-7" d="M172,172.22a.51.51,0,1,0-.51-.51A.51.51,0,0,0,172,172.22Z"/><path class="cls-7" d="M175.48,172.22a.51.51,0,1,0-.51-.51A.51.51,0,0,0,175.48,172.22Z"/><path class="cls-7" d="M179,172.22a.51.51,0,1,0-.51-.51A.51.51,0,0,0,179,172.22Z"/><circle class="cls-7" cx="154.64" cy="175.18" r="0.51"/><circle class="cls-7" cx="158.12" cy="175.18" r="0.51"/><circle class="cls-7" cx="161.59" cy="175.18" r="0.51"/><circle class="cls-7" cx="165.06" cy="175.18" r="0.51"/><path class="cls-7" d="M168.53,175.69a.51.51,0,1,0-.51-.51A.51.51,0,0,0,168.53,175.69Z"/><circle class="cls-7" cx="172.01" cy="175.18" r="0.51"/><path class="cls-7" d="M175.48,175.69a.51.51,0,1,0-.51-.51A.51.51,0,0,0,175.48,175.69Z"/><circle class="cls-7" cx="178.95" cy="175.18" r="0.51"/><path class="cls-7" d="M154.64,179.17a.51.51,0,0,0,.51-.51.5.5,0,0,0-.51-.51.51.51,0,0,0-.51.51A.51.51,0,0,0,154.64,179.17Z"/><path class="cls-7" d="M158.12,179.17a.51.51,0,0,0,.51-.51.51.51,0,0,0-.51-.51.5.5,0,0,0-.51.51A.51.51,0,0,0,158.12,179.17Z"/><path class="cls-7" d="M161.59,179.17a.51.51,0,0,0,.51-.51.51.51,0,0,0-1,0A.51.51,0,0,0,161.59,179.17Z"/><path class="cls-7" d="M165.06,179.17a.51.51,0,0,0,.51-.51.51.51,0,0,0-1,0A.51.51,0,0,0,165.06,179.17Z"/><path class="cls-7" d="M168.53,179.17a.51.51,0,0,0,.52-.51.52.52,0,1,0-.52.51Z"/><path class="cls-7" d="M172,179.17a.51.51,0,0,0,.51-.51.51.51,0,1,0-1,0A.51.51,0,0,0,172,179.17Z"/><path class="cls-7" d="M175.48,179.17a.51.51,0,0,0,.51-.51.51.51,0,1,0-1,0A.51.51,0,0,0,175.48,179.17Z"/><path class="cls-7" d="M179,179.17a.51.51,0,0,0,.51-.51.51.51,0,1,0-1,0A.51.51,0,0,0,179,179.17Z"/></g><g class="cls-6"><circle class="cls-7" cx="154.64" cy="181.83" r="0.51"/><circle class="cls-7" cx="158.12" cy="181.83" r="0.51"/><circle class="cls-7" cx="161.59" cy="181.83" r="0.51"/><circle class="cls-7" cx="165.06" cy="181.83" r="0.51"/><path class="cls-7" d="M168.53,182.34a.51.51,0,1,0-.51-.51A.51.51,0,0,0,168.53,182.34Z"/><circle class="cls-7" cx="172.01" cy="181.83" r="0.51"/><path class="cls-7" d="M175.48,182.34a.51.51,0,1,0-.51-.51A.51.51,0,0,0,175.48,182.34Z"/><circle class="cls-7" cx="178.95" cy="181.83" r="0.51"/><path class="cls-7" d="M154.64,185.82a.52.52,0,1,0-.51-.52A.51.51,0,0,0,154.64,185.82Z"/><path class="cls-7" d="M158.12,185.82a.52.52,0,0,0,0-1,.52.52,0,0,0,0,1Z"/><path class="cls-7" d="M161.59,185.82a.52.52,0,1,0-.51-.52A.51.51,0,0,0,161.59,185.82Z"/><path class="cls-7" d="M165.06,185.82a.52.52,0,1,0-.51-.52A.51.51,0,0,0,165.06,185.82Z"/><path class="cls-7" d="M168.53,185.82a.52.52,0,1,0-.51-.52A.52.52,0,0,0,168.53,185.82Z"/><path class="cls-7" d="M172,185.82a.52.52,0,1,0-.51-.52A.51.51,0,0,0,172,185.82Z"/><path class="cls-7" d="M175.48,185.82a.52.52,0,1,0-.51-.52A.51.51,0,0,0,175.48,185.82Z"/><path class="cls-7" d="M179,185.82a.52.52,0,1,0-.51-.52A.51.51,0,0,0,179,185.82Z"/><circle class="cls-7" cx="154.64" cy="188.78" r="0.51"/><circle class="cls-7" cx="158.12" cy="188.78" r="0.51"/><circle class="cls-7" cx="161.59" cy="188.78" r="0.51"/><circle class="cls-7" cx="165.06" cy="188.78" r="0.51"/><path class="cls-7" d="M168.53,189.29a.51.51,0,1,0-.51-.51A.51.51,0,0,0,168.53,189.29Z"/><circle class="cls-7" cx="172.01" cy="188.78" r="0.51"/><path class="cls-7" d="M175.48,189.29a.51.51,0,1,0-.51-.51A.51.51,0,0,0,175.48,189.29Z"/><circle class="cls-7" cx="178.95" cy="188.78" r="0.51"/><circle class="cls-7" cx="154.64" cy="192.25" r="0.51"/><circle class="cls-7" cx="158.12" cy="192.25" r="0.51"/><circle class="cls-7" cx="161.59" cy="192.25" r="0.51"/><circle class="cls-7" cx="165.06" cy="192.25" r="0.51"/><path class="cls-7" d="M168.53,192.76a.51.51,0,1,0-.51-.51A.51.51,0,0,0,168.53,192.76Z"/><circle class="cls-7" cx="172.01" cy="192.25" r="0.51"/><path class="cls-7" d="M175.48,192.76a.51.51,0,1,0-.51-.51A.51.51,0,0,0,175.48,192.76Z"/><circle class="cls-7" cx="178.95" cy="192.25" r="0.51"/><circle class="cls-7" cx="154.64" cy="195.72" r="0.51"/><circle class="cls-7" cx="158.12" cy="195.72" r="0.51"/><circle class="cls-7" cx="161.59" cy="195.72" r="0.51"/><circle class="cls-7" cx="165.06" cy="195.72" r="0.51"/><path class="cls-7" d="M168.53,196.23a.51.51,0,1,0-.51-.51A.51.51,0,0,0,168.53,196.23Z"/><circle class="cls-7" cx="172.01" cy="195.72" r="0.51"/><path class="cls-7" d="M175.48,196.23a.51.51,0,1,0-.51-.51A.51.51,0,0,0,175.48,196.23Z"/><circle class="cls-7" cx="178.95" cy="195.72" r="0.51"/><circle class="cls-7" cx="154.64" cy="199.2" r="0.51"/><circle class="cls-7" cx="158.12" cy="199.2" r="0.51"/><circle class="cls-7" cx="161.59" cy="199.2" r="0.51"/><circle class="cls-7" cx="165.06" cy="199.2" r="0.51"/><path class="cls-7" d="M168.53,199.71a.51.51,0,0,0,.52-.51.52.52,0,1,0-.52.51Z"/><circle class="cls-7" cx="172.01" cy="199.2" r="0.51"/><path class="cls-7" d="M175.48,199.71a.51.51,0,0,0,.51-.51.51.51,0,1,0-1,0A.51.51,0,0,0,175.48,199.71Z"/><circle class="cls-7" cx="178.95" cy="199.2" r="0.51"/><circle class="cls-7" cx="154.64" cy="202.67" r="0.51"/><circle class="cls-7" cx="158.12" cy="202.67" r="0.51"/><circle class="cls-7" cx="161.59" cy="202.67" r="0.51"/><circle class="cls-7" cx="165.06" cy="202.67" r="0.51"/><path class="cls-7" d="M168.53,203.18a.51.51,0,1,0-.51-.51A.51.51,0,0,0,168.53,203.18Z"/><circle class="cls-7" cx="172.01" cy="202.67" r="0.51"/><path class="cls-7" d="M175.48,203.18a.51.51,0,1,0-.51-.51A.51.51,0,0,0,175.48,203.18Z"/><circle class="cls-7" cx="178.95" cy="202.67" r="0.51"/><circle class="cls-7" cx="154.64" cy="206.14" r="0.51"/><circle class="cls-7" cx="158.12" cy="206.14" r="0.51"/><circle class="cls-7" cx="161.59" cy="206.14" r="0.51"/><circle class="cls-7" cx="165.06" cy="206.14" r="0.51"/><path class="cls-7" d="M168.53,206.65a.51.51,0,1,0-.51-.51A.51.51,0,0,0,168.53,206.65Z"/><circle class="cls-7" cx="172.01" cy="206.14" r="0.51"/><path class="cls-7" d="M175.48,206.65a.51.51,0,1,0-.51-.51A.51.51,0,0,0,175.48,206.65Z"/><circle class="cls-7" cx="178.95" cy="206.14" r="0.51"/><path class="cls-7" d="M154.64,210.12a.5.5,0,0,0,.51-.51.51.51,0,0,0-.51-.51.51.51,0,0,0-.51.51A.51.51,0,0,0,154.64,210.12Z"/><path class="cls-7" d="M158.12,210.12a.51.51,0,0,0,.51-.51.51.51,0,0,0-.51-.51.51.51,0,0,0-.51.51A.5.5,0,0,0,158.12,210.12Z"/><path class="cls-7" d="M161.59,210.12a.51.51,0,0,0,.51-.51.51.51,0,1,0-1,0A.51.51,0,0,0,161.59,210.12Z"/><path class="cls-7" d="M165.06,210.12a.51.51,0,0,0,.51-.51.51.51,0,1,0-1,0A.51.51,0,0,0,165.06,210.12Z"/><path class="cls-7" d="M168.53,210.12a.51.51,0,0,0,.52-.51.52.52,0,0,0-1,0A.51.51,0,0,0,168.53,210.12Z"/><path class="cls-7" d="M172,210.12a.51.51,0,0,0,.51-.51.51.51,0,1,0-1,0A.51.51,0,0,0,172,210.12Z"/><path class="cls-7" d="M175.48,210.12a.51.51,0,0,0,.51-.51.51.51,0,1,0-1,0A.51.51,0,0,0,175.48,210.12Z"/><path class="cls-7" d="M179,210.12a.51.51,0,0,0,.51-.51.51.51,0,1,0-1,0A.51.51,0,0,0,179,210.12Z"/><circle class="cls-7" cx="154.64" cy="213.09" r="0.51"/><circle class="cls-7" cx="158.12" cy="213.09" r="0.51"/><circle class="cls-7" cx="161.59" cy="213.09" r="0.51"/><circle class="cls-7" cx="165.06" cy="213.09" r="0.51"/><path class="cls-7" d="M168.53,213.6a.51.51,0,0,0,.52-.51.52.52,0,1,0-.52.51Z"/><circle class="cls-7" cx="172.01" cy="213.09" r="0.51"/><path class="cls-7" d="M175.48,213.6a.51.51,0,0,0,.51-.51.51.51,0,1,0-1,0A.51.51,0,0,0,175.48,213.6Z"/><circle class="cls-7" cx="178.95" cy="213.09" r="0.51"/><path class="cls-7" d="M154.64,217.07a.51.51,0,0,0,0-1,.51.51,0,0,0,0,1Z"/><path class="cls-7" d="M158.12,217.07a.51.51,0,0,0,0-1,.51.51,0,0,0,0,1Z"/><path class="cls-7" d="M161.59,217.07a.51.51,0,1,0-.51-.51A.51.51,0,0,0,161.59,217.07Z"/><path class="cls-7" d="M165.06,217.07a.51.51,0,1,0-.51-.51A.51.51,0,0,0,165.06,217.07Z"/><path class="cls-7" d="M168.53,217.07a.51.51,0,1,0-.51-.51A.51.51,0,0,0,168.53,217.07Z"/><path class="cls-7" d="M172,217.07a.51.51,0,1,0-.51-.51A.51.51,0,0,0,172,217.07Z"/><path class="cls-7" d="M175.48,217.07a.51.51,0,1,0-.51-.51A.51.51,0,0,0,175.48,217.07Z"/><path class="cls-7" d="M179,217.07a.51.51,0,1,0-.51-.51A.51.51,0,0,0,179,217.07Z"/><circle class="cls-7" cx="154.64" cy="220.03" r="0.51"/><circle class="cls-7" cx="158.12" cy="220.03" r="0.51"/><circle class="cls-7" cx="161.59" cy="220.03" r="0.51"/><circle class="cls-7" cx="165.06" cy="220.03" r="0.51"/><path class="cls-7" d="M168.53,220.54A.51.51,0,1,0,168,220,.51.51,0,0,0,168.53,220.54Z"/><circle class="cls-7" cx="172.01" cy="220.03" r="0.51"/><path class="cls-7" d="M175.48,220.54A.51.51,0,1,0,175,220,.51.51,0,0,0,175.48,220.54Z"/><circle class="cls-7" cx="178.95" cy="220.03" r="0.51"/><path class="cls-7" d="M154.64,224a.5.5,0,0,0,.51-.51.51.51,0,0,0-.51-.51.51.51,0,0,0-.51.51A.51.51,0,0,0,154.64,224Z"/><path class="cls-7" d="M158.12,224a.51.51,0,0,0,.51-.51.51.51,0,0,0-.51-.51.51.51,0,0,0-.51.51A.5.5,0,0,0,158.12,224Z"/><path class="cls-7" d="M161.59,224a.51.51,0,0,0,.51-.51.51.51,0,0,0-1,0A.51.51,0,0,0,161.59,224Z"/><path class="cls-7" d="M165.06,224a.51.51,0,0,0,.51-.51.51.51,0,0,0-1,0A.51.51,0,0,0,165.06,224Z"/><path class="cls-7" d="M168.53,224a.51.51,0,0,0,.52-.51.52.52,0,0,0-1,0A.51.51,0,0,0,168.53,224Z"/><path class="cls-7" d="M172,224a.51.51,0,0,0,.51-.51.51.51,0,1,0-1,0A.51.51,0,0,0,172,224Z"/><path class="cls-7" d="M175.48,224a.51.51,0,0,0,.51-.51.51.51,0,1,0-1,0A.51.51,0,0,0,175.48,224Z"/><path class="cls-7" d="M179,224a.51.51,0,0,0,.51-.51.51.51,0,1,0-1,0A.51.51,0,0,0,179,224Z"/><circle class="cls-7" cx="154.64" cy="226.98" r="0.51"/><circle class="cls-7" cx="158.12" cy="226.98" r="0.51"/><circle class="cls-7" cx="161.59" cy="226.98" r="0.51"/><circle class="cls-7" cx="165.06" cy="226.98" r="0.51"/><path class="cls-7" d="M168.53,227.49A.51.51,0,1,0,168,227,.51.51,0,0,0,168.53,227.49Z"/><circle class="cls-7" cx="172.01" cy="226.98" r="0.51"/><path class="cls-7" d="M175.48,227.49A.51.51,0,1,0,175,227,.51.51,0,0,0,175.48,227.49Z"/><circle class="cls-7" cx="178.95" cy="226.98" r="0.51"/><circle class="cls-7" cx="154.64" cy="230.45" r="0.51"/><circle class="cls-7" cx="158.12" cy="230.45" r="0.51"/><circle class="cls-7" cx="161.59" cy="230.45" r="0.51"/><circle class="cls-7" cx="165.06" cy="230.45" r="0.51"/><path class="cls-7" d="M168.53,231a.51.51,0,1,0-.51-.51A.51.51,0,0,0,168.53,231Z"/><circle class="cls-7" cx="172.01" cy="230.45" r="0.51"/><path class="cls-7" d="M175.48,231a.51.51,0,1,0-.51-.51A.51.51,0,0,0,175.48,231Z"/><circle class="cls-7" cx="178.95" cy="230.45" r="0.51"/><circle class="cls-7" cx="154.64" cy="233.92" r="0.51"/><circle class="cls-7" cx="158.12" cy="233.92" r="0.51"/><circle class="cls-7" cx="161.59" cy="233.92" r="0.51"/><circle class="cls-7" cx="165.06" cy="233.92" r="0.51"/><path class="cls-7" d="M168.53,234.43a.51.51,0,1,0-.51-.51A.51.51,0,0,0,168.53,234.43Z"/><circle class="cls-7" cx="172.01" cy="233.92" r="0.51"/><path class="cls-7" d="M175.48,234.43a.51.51,0,1,0-.51-.51A.51.51,0,0,0,175.48,234.43Z"/><circle class="cls-7" cx="178.95" cy="233.92" r="0.51"/><circle class="cls-7" cx="154.64" cy="237.4" r="0.51"/><circle class="cls-7" cx="158.12" cy="237.4" r="0.51"/><circle class="cls-7" cx="161.59" cy="237.4" r="0.51"/><circle class="cls-7" cx="165.06" cy="237.4" r="0.51"/><path class="cls-7" d="M168.53,237.91a.51.51,0,0,0,.52-.51.52.52,0,1,0-.52.51Z"/><circle class="cls-7" cx="172.01" cy="237.4" r="0.51"/><path class="cls-7" d="M175.48,237.91a.51.51,0,0,0,.51-.51.51.51,0,1,0-1,0A.51.51,0,0,0,175.48,237.91Z"/><circle class="cls-7" cx="178.95" cy="237.4" r="0.51"/><circle class="cls-7" cx="154.64" cy="240.87" r="0.51"/><circle class="cls-7" cx="158.12" cy="240.87" r="0.51"/><circle class="cls-7" cx="161.59" cy="240.87" r="0.51"/><circle class="cls-7" cx="165.06" cy="240.87" r="0.51"/><path class="cls-7" d="M168.53,241.38a.51.51,0,1,0-.51-.51A.51.51,0,0,0,168.53,241.38Z"/><circle class="cls-7" cx="172.01" cy="240.87" r="0.51"/><path class="cls-7" d="M175.48,241.38a.51.51,0,1,0-.51-.51A.51.51,0,0,0,175.48,241.38Z"/><circle class="cls-7" cx="178.95" cy="240.87" r="0.51"/><circle class="cls-7" cx="154.64" cy="244.34" r="0.51"/><circle class="cls-7" cx="158.12" cy="244.34" r="0.51"/><circle class="cls-7" cx="161.59" cy="244.34" r="0.51"/><circle class="cls-7" cx="165.06" cy="244.34" r="0.51"/><path class="cls-7" d="M168.53,244.85a.51.51,0,1,0-.51-.51A.51.51,0,0,0,168.53,244.85Z"/><circle class="cls-7" cx="172.01" cy="244.34" r="0.51"/><path class="cls-7" d="M175.48,244.85a.51.51,0,1,0-.51-.51A.51.51,0,0,0,175.48,244.85Z"/><circle class="cls-7" cx="178.95" cy="244.34" r="0.51"/><path class="cls-7" d="M154.64,248.32a.5.5,0,0,0,.51-.51.51.51,0,0,0-.51-.51.51.51,0,0,0-.51.51A.51.51,0,0,0,154.64,248.32Z"/><path class="cls-7" d="M158.12,248.32a.51.51,0,0,0,.51-.51.51.51,0,0,0-.51-.51.51.51,0,0,0-.51.51A.5.5,0,0,0,158.12,248.32Z"/><path class="cls-7" d="M161.59,248.32a.51.51,0,0,0,.51-.51.51.51,0,0,0-1,0A.51.51,0,0,0,161.59,248.32Z"/><path class="cls-7" d="M165.06,248.32a.51.51,0,0,0,.51-.51.51.51,0,0,0-1,0A.51.51,0,0,0,165.06,248.32Z"/><path class="cls-7" d="M168.53,248.32a.51.51,0,0,0,.52-.51.52.52,0,0,0-1,0A.51.51,0,0,0,168.53,248.32Z"/><path class="cls-7" d="M172,248.32a.51.51,0,0,0,.51-.51.51.51,0,1,0-1,0A.51.51,0,0,0,172,248.32Z"/><path class="cls-7" d="M175.48,248.32a.51.51,0,0,0,.51-.51.51.51,0,1,0-1,0A.51.51,0,0,0,175.48,248.32Z"/><path class="cls-7" d="M179,248.32a.51.51,0,0,0,.51-.51.51.51,0,1,0-1,0A.51.51,0,0,0,179,248.32Z"/><circle class="cls-7" cx="154.64" cy="251.29" r="0.51"/><circle class="cls-7" cx="158.12" cy="251.29" r="0.51"/><circle class="cls-7" cx="161.59" cy="251.29" r="0.51"/><circle class="cls-7" cx="165.06" cy="251.29" r="0.51"/><path class="cls-7" d="M168.53,251.8a.51.51,0,0,0,.52-.51.52.52,0,1,0-.52.51Z"/><circle class="cls-7" cx="172.01" cy="251.29" r="0.51"/><path class="cls-7" d="M175.48,251.8a.51.51,0,0,0,.51-.51.51.51,0,1,0-1,0A.51.51,0,0,0,175.48,251.8Z"/><circle class="cls-7" cx="178.95" cy="251.29" r="0.51"/><path class="cls-7" d="M154.64,255.27a.51.51,0,0,0,0-1,.51.51,0,0,0,0,1Z"/><path class="cls-7" d="M158.12,255.27a.51.51,0,1,0,0-1,.51.51,0,0,0,0,1Z"/><path class="cls-7" d="M161.59,255.27a.51.51,0,1,0-.51-.51A.51.51,0,0,0,161.59,255.27Z"/><path class="cls-7" d="M165.06,255.27a.51.51,0,1,0-.51-.51A.51.51,0,0,0,165.06,255.27Z"/><path class="cls-7" d="M168.53,255.27a.51.51,0,1,0-.51-.51A.51.51,0,0,0,168.53,255.27Z"/><path class="cls-7" d="M172,255.27a.51.51,0,1,0-.51-.51A.51.51,0,0,0,172,255.27Z"/><path class="cls-7" d="M175.48,255.27a.51.51,0,1,0-.51-.51A.51.51,0,0,0,175.48,255.27Z"/><path class="cls-7" d="M179,255.27a.51.51,0,1,0-.51-.51A.51.51,0,0,0,179,255.27Z"/></g><g class="cls-6"><circle class="cls-7" cx="26.02" cy="105.73" r="0.51"/><circle class="cls-7" cx="29.49" cy="105.73" r="0.51"/><circle class="cls-7" cx="32.96" cy="105.73" r="0.51"/><circle class="cls-7" cx="36.44" cy="105.73" r="0.51"/><path class="cls-7" d="M39.91,106.24a.51.51,0,1,0-.51-.51A.51.51,0,0,0,39.91,106.24Z"/><circle class="cls-7" cx="43.38" cy="105.73" r="0.51"/><path class="cls-7" d="M46.85,106.24a.51.51,0,1,0-.51-.51A.51.51,0,0,0,46.85,106.24Z"/><circle class="cls-7" cx="50.33" cy="105.73" r="0.51"/><path class="cls-7" d="M26,109.71a.51.51,0,1,0-.51-.51A.51.51,0,0,0,26,109.71Z"/><path class="cls-7" d="M29.49,109.71a.51.51,0,1,0-.51-.51A.51.51,0,0,0,29.49,109.71Z"/><path class="cls-7" d="M33,109.71a.51.51,0,0,0,0-1,.51.51,0,0,0,0,1Z"/><path class="cls-7" d="M36.44,109.71a.51.51,0,0,0,0-1,.51.51,0,0,0,0,1Z"/><path class="cls-7" d="M39.91,109.71a.51.51,0,1,0-.51-.51A.51.51,0,0,0,39.91,109.71Z"/><path class="cls-7" d="M43.38,109.71a.51.51,0,1,0-.51-.51A.51.51,0,0,0,43.38,109.71Z"/><path class="cls-7" d="M46.85,109.71a.51.51,0,1,0-.51-.51A.51.51,0,0,0,46.85,109.71Z"/><path class="cls-7" d="M50.33,109.71a.51.51,0,1,0-.51-.51A.51.51,0,0,0,50.33,109.71Z"/><circle class="cls-7" cx="26.02" cy="112.67" r="0.51"/><circle class="cls-7" cx="29.49" cy="112.67" r="0.51"/><circle class="cls-7" cx="32.96" cy="112.67" r="0.51"/><circle class="cls-7" cx="36.44" cy="112.67" r="0.51"/><path class="cls-7" d="M39.91,113.18a.51.51,0,0,0,.51-.51.51.51,0,1,0-1,0A.51.51,0,0,0,39.91,113.18Z"/><circle class="cls-7" cx="43.38" cy="112.67" r="0.51"/><path class="cls-7" d="M46.85,113.18a.51.51,0,0,0,.52-.51.52.52,0,0,0-1,0A.51.51,0,0,0,46.85,113.18Z"/><circle class="cls-7" cx="50.33" cy="112.67" r="0.51"/><circle class="cls-7" cx="26.02" cy="116.15" r="0.51"/><circle class="cls-7" cx="29.49" cy="116.15" r="0.51"/><circle class="cls-7" cx="32.96" cy="116.15" r="0.51"/><circle class="cls-7" cx="36.44" cy="116.15" r="0.51"/><path class="cls-7" d="M39.91,116.66a.51.51,0,1,0-.51-.51A.51.51,0,0,0,39.91,116.66Z"/><circle class="cls-7" cx="43.38" cy="116.15" r="0.51"/><path class="cls-7" d="M46.85,116.66a.51.51,0,1,0-.51-.51A.51.51,0,0,0,46.85,116.66Z"/><circle class="cls-7" cx="50.33" cy="116.15" r="0.51"/><circle class="cls-7" cx="26.02" cy="119.62" r="0.51"/><circle class="cls-7" cx="29.49" cy="119.62" r="0.51"/><circle class="cls-7" cx="32.96" cy="119.62" r="0.51"/><circle class="cls-7" cx="36.44" cy="119.62" r="0.51"/><path class="cls-7" d="M39.91,120.13a.51.51,0,1,0-.51-.51A.51.51,0,0,0,39.91,120.13Z"/><circle class="cls-7" cx="43.38" cy="119.62" r="0.51"/><path class="cls-7" d="M46.85,120.13a.51.51,0,1,0-.51-.51A.51.51,0,0,0,46.85,120.13Z"/><circle class="cls-7" cx="50.33" cy="119.62" r="0.51"/><circle class="cls-7" cx="26.02" cy="123.09" r="0.51"/><circle class="cls-7" cx="29.49" cy="123.09" r="0.51"/><circle class="cls-7" cx="32.96" cy="123.09" r="0.51"/><circle class="cls-7" cx="36.44" cy="123.09" r="0.51"/><path class="cls-7" d="M39.91,123.6a.51.51,0,1,0-.51-.51A.51.51,0,0,0,39.91,123.6Z"/><circle class="cls-7" cx="43.38" cy="123.09" r="0.51"/><path class="cls-7" d="M46.85,123.6a.51.51,0,1,0-.51-.51A.51.51,0,0,0,46.85,123.6Z"/><circle class="cls-7" cx="50.33" cy="123.09" r="0.51"/><circle class="cls-7" cx="26.02" cy="126.57" r="0.51"/><circle class="cls-7" cx="29.49" cy="126.57" r="0.51"/><circle class="cls-7" cx="32.96" cy="126.57" r="0.51"/><circle class="cls-7" cx="36.44" cy="126.57" r="0.51"/><path class="cls-7" d="M39.91,127.08a.52.52,0,1,0-.51-.51A.51.51,0,0,0,39.91,127.08Z"/><circle class="cls-7" cx="43.38" cy="126.57" r="0.51"/><path class="cls-7" d="M46.85,127.08a.52.52,0,1,0-.51-.51A.51.51,0,0,0,46.85,127.08Z"/><circle class="cls-7" cx="50.33" cy="126.57" r="0.51"/><circle class="cls-7" cx="26.02" cy="130.04" r="0.51"/><circle class="cls-7" cx="29.49" cy="130.04" r="0.51"/><circle class="cls-7" cx="32.96" cy="130.04" r="0.51"/><circle class="cls-7" cx="36.44" cy="130.04" r="0.51"/><path class="cls-7" d="M39.91,130.55a.51.51,0,1,0-.51-.51A.51.51,0,0,0,39.91,130.55Z"/><circle class="cls-7" cx="43.38" cy="130.04" r="0.51"/><path class="cls-7" d="M46.85,130.55a.51.51,0,1,0-.51-.51A.51.51,0,0,0,46.85,130.55Z"/><circle class="cls-7" cx="50.33" cy="130.04" r="0.51"/><path class="cls-7" d="M26,134a.51.51,0,1,0-.51-.51A.51.51,0,0,0,26,134Z"/><path class="cls-7" d="M29.49,134a.51.51,0,1,0-.51-.51A.51.51,0,0,0,29.49,134Z"/><path class="cls-7" d="M33,134a.51.51,0,1,0,0-1,.51.51,0,1,0,0,1Z"/><path class="cls-7" d="M36.44,134a.51.51,0,0,0,0-1,.51.51,0,1,0,0,1Z"/><path class="cls-7" d="M39.91,134a.51.51,0,1,0-.51-.51A.51.51,0,0,0,39.91,134Z"/><path class="cls-7" d="M43.38,134a.51.51,0,1,0-.51-.51A.51.51,0,0,0,43.38,134Z"/><path class="cls-7" d="M46.85,134a.51.51,0,1,0-.51-.51A.51.51,0,0,0,46.85,134Z"/><path class="cls-7" d="M50.33,134a.51.51,0,1,0-.51-.51A.51.51,0,0,0,50.33,134Z"/><circle class="cls-7" cx="26.02" cy="136.98" r="0.51"/><circle class="cls-7" cx="29.49" cy="136.98" r="0.51"/><circle class="cls-7" cx="32.96" cy="136.98" r="0.51"/><circle class="cls-7" cx="36.44" cy="136.98" r="0.51"/><path class="cls-7" d="M39.91,137.49a.51.51,0,0,0,.51-.51.51.51,0,0,0-1,0A.51.51,0,0,0,39.91,137.49Z"/><circle class="cls-7" cx="43.38" cy="136.98" r="0.51"/><path class="cls-7" d="M46.85,137.49a.51.51,0,0,0,.52-.51.52.52,0,0,0-1,0A.51.51,0,0,0,46.85,137.49Z"/><circle class="cls-7" cx="50.33" cy="136.98" r="0.51"/><path class="cls-7" d="M26,141a.51.51,0,0,0,.51-.51.51.51,0,1,0-1,0A.51.51,0,0,0,26,141Z"/><path class="cls-7" d="M29.49,141a.51.51,0,0,0,.51-.51.51.51,0,1,0-1,0A.51.51,0,0,0,29.49,141Z"/><path class="cls-7" d="M33,141a.51.51,0,0,0,.51-.51A.5.5,0,0,0,33,140a.51.51,0,0,0-.51.51A.51.51,0,0,0,33,141Z"/><path class="cls-7" d="M36.44,141a.51.51,0,0,0,.51-.51.51.51,0,0,0-.51-.51.5.5,0,0,0-.51.51A.51.51,0,0,0,36.44,141Z"/><path class="cls-7" d="M39.91,141a.51.51,0,0,0,.51-.51.51.51,0,1,0-1,0A.51.51,0,0,0,39.91,141Z"/><path class="cls-7" d="M43.38,141a.51.51,0,0,0,.51-.51.51.51,0,1,0-1,0A.51.51,0,0,0,43.38,141Z"/><path class="cls-7" d="M46.85,141a.51.51,0,0,0,.52-.51.52.52,0,1,0-.52.51Z"/><path class="cls-7" d="M50.33,141a.51.51,0,0,0,.51-.51.51.51,0,1,0-1,0A.51.51,0,0,0,50.33,141Z"/><circle class="cls-7" cx="26.02" cy="143.93" r="0.51"/><circle class="cls-7" cx="29.49" cy="143.93" r="0.51"/><circle class="cls-7" cx="32.96" cy="143.93" r="0.51"/><circle class="cls-7" cx="36.44" cy="143.93" r="0.51"/><path class="cls-7" d="M39.91,144.44a.51.51,0,1,0-.51-.51A.51.51,0,0,0,39.91,144.44Z"/><circle class="cls-7" cx="43.38" cy="143.93" r="0.51"/><path class="cls-7" d="M46.85,144.44a.51.51,0,1,0-.51-.51A.51.51,0,0,0,46.85,144.44Z"/><circle class="cls-7" cx="50.33" cy="143.93" r="0.51"/><path class="cls-7" d="M26,147.91a.51.51,0,1,0-.51-.51A.51.51,0,0,0,26,147.91Z"/><path class="cls-7" d="M29.49,147.91a.51.51,0,1,0-.51-.51A.51.51,0,0,0,29.49,147.91Z"/><path class="cls-7" d="M33,147.91a.51.51,0,0,0,0-1,.51.51,0,0,0,0,1Z"/><path class="cls-7" d="M36.44,147.91a.51.51,0,0,0,0-1,.51.51,0,0,0,0,1Z"/><path class="cls-7" d="M39.91,147.91a.51.51,0,1,0-.51-.51A.51.51,0,0,0,39.91,147.91Z"/><path class="cls-7" d="M43.38,147.91a.51.51,0,1,0-.51-.51A.51.51,0,0,0,43.38,147.91Z"/><path class="cls-7" d="M46.85,147.91a.51.51,0,1,0-.51-.51A.51.51,0,0,0,46.85,147.91Z"/><path class="cls-7" d="M50.33,147.91a.51.51,0,1,0-.51-.51A.51.51,0,0,0,50.33,147.91Z"/><circle class="cls-7" cx="26.02" cy="150.87" r="0.51"/><circle class="cls-7" cx="29.49" cy="150.87" r="0.51"/><circle class="cls-7" cx="32.96" cy="150.87" r="0.51"/><circle class="cls-7" cx="36.44" cy="150.87" r="0.51"/><path class="cls-7" d="M39.91,151.38a.51.51,0,0,0,.51-.51.51.51,0,0,0-1,0A.51.51,0,0,0,39.91,151.38Z"/><circle class="cls-7" cx="43.38" cy="150.87" r="0.51"/><path class="cls-7" d="M46.85,151.38a.51.51,0,0,0,.52-.51.52.52,0,0,0-1,0A.51.51,0,0,0,46.85,151.38Z"/><circle class="cls-7" cx="50.33" cy="150.87" r="0.51"/><circle class="cls-7" cx="26.02" cy="154.35" r="0.51"/><circle class="cls-7" cx="29.49" cy="154.35" r="0.51"/><circle class="cls-7" cx="32.96" cy="154.35" r="0.51"/><circle class="cls-7" cx="36.44" cy="154.35" r="0.51"/><path class="cls-7" d="M39.91,154.86a.51.51,0,0,0,.51-.51.51.51,0,0,0-1,0A.51.51,0,0,0,39.91,154.86Z"/><circle class="cls-7" cx="43.38" cy="154.35" r="0.51"/><path class="cls-7" d="M46.85,154.86a.51.51,0,0,0,.52-.51.52.52,0,1,0-.52.51Z"/><circle class="cls-7" cx="50.33" cy="154.35" r="0.51"/><circle class="cls-7" cx="26.02" cy="157.82" r="0.51"/><circle class="cls-7" cx="29.49" cy="157.82" r="0.51"/><circle class="cls-7" cx="32.96" cy="157.82" r="0.51"/><circle class="cls-7" cx="36.44" cy="157.82" r="0.51"/><path class="cls-7" d="M39.91,158.33a.51.51,0,1,0-.51-.51A.51.51,0,0,0,39.91,158.33Z"/><circle class="cls-7" cx="43.38" cy="157.82" r="0.51"/><path class="cls-7" d="M46.85,158.33a.51.51,0,1,0-.51-.51A.51.51,0,0,0,46.85,158.33Z"/><circle class="cls-7" cx="50.33" cy="157.82" r="0.51"/><circle class="cls-7" cx="26.02" cy="161.29" r="0.51"/><circle class="cls-7" cx="29.49" cy="161.29" r="0.51"/><circle class="cls-7" cx="32.96" cy="161.29" r="0.51"/><circle class="cls-7" cx="36.44" cy="161.29" r="0.51"/><path class="cls-7" d="M39.91,161.8a.51.51,0,1,0-.51-.51A.51.51,0,0,0,39.91,161.8Z"/><circle class="cls-7" cx="43.38" cy="161.29" r="0.51"/><path class="cls-7" d="M46.85,161.8a.51.51,0,1,0-.51-.51A.51.51,0,0,0,46.85,161.8Z"/><circle class="cls-7" cx="50.33" cy="161.29" r="0.51"/><circle class="cls-7" cx="26.02" cy="164.76" r="0.51"/><circle class="cls-7" cx="29.49" cy="164.76" r="0.51"/><circle class="cls-7" cx="32.96" cy="164.76" r="0.51"/><circle class="cls-7" cx="36.44" cy="164.76" r="0.51"/><path class="cls-7" d="M39.91,165.28a.52.52,0,1,0-.51-.52A.51.51,0,0,0,39.91,165.28Z"/><circle class="cls-7" cx="43.38" cy="164.76" r="0.51"/><path class="cls-7" d="M46.85,165.28a.52.52,0,1,0-.51-.52A.52.52,0,0,0,46.85,165.28Z"/><circle class="cls-7" cx="50.33" cy="164.76" r="0.51"/><circle class="cls-7" cx="26.02" cy="168.24" r="0.51"/><circle class="cls-7" cx="29.49" cy="168.24" r="0.51"/><circle class="cls-7" cx="32.96" cy="168.24" r="0.51"/><circle class="cls-7" cx="36.44" cy="168.24" r="0.51"/><path class="cls-7" d="M39.91,168.75a.51.51,0,1,0-.51-.51A.51.51,0,0,0,39.91,168.75Z"/><circle class="cls-7" cx="43.38" cy="168.24" r="0.51"/><path class="cls-7" d="M46.85,168.75a.51.51,0,1,0-.51-.51A.51.51,0,0,0,46.85,168.75Z"/><circle class="cls-7" cx="50.33" cy="168.24" r="0.51"/><path class="cls-7" d="M26,172.22a.51.51,0,1,0-.51-.51A.51.51,0,0,0,26,172.22Z"/><path class="cls-7" d="M29.49,172.22a.51.51,0,1,0-.51-.51A.51.51,0,0,0,29.49,172.22Z"/><path class="cls-7" d="M33,172.22a.51.51,0,0,0,0-1,.51.51,0,0,0,0,1Z"/><path class="cls-7" d="M36.44,172.22a.51.51,0,0,0,0-1,.51.51,0,0,0,0,1Z"/><path class="cls-7" d="M39.91,172.22a.51.51,0,1,0-.51-.51A.51.51,0,0,0,39.91,172.22Z"/><path class="cls-7" d="M43.38,172.22a.51.51,0,1,0-.51-.51A.51.51,0,0,0,43.38,172.22Z"/><path class="cls-7" d="M46.85,172.22a.51.51,0,1,0-.51-.51A.51.51,0,0,0,46.85,172.22Z"/><path class="cls-7" d="M50.33,172.22a.51.51,0,1,0-.51-.51A.51.51,0,0,0,50.33,172.22Z"/><circle class="cls-7" cx="26.02" cy="175.18" r="0.51"/><circle class="cls-7" cx="29.49" cy="175.18" r="0.51"/><circle class="cls-7" cx="32.96" cy="175.18" r="0.51"/><circle class="cls-7" cx="36.44" cy="175.18" r="0.51"/><path class="cls-7" d="M39.91,175.69a.51.51,0,1,0-.51-.51A.51.51,0,0,0,39.91,175.69Z"/><circle class="cls-7" cx="43.38" cy="175.18" r="0.51"/><path class="cls-7" d="M46.85,175.69a.51.51,0,1,0-.51-.51A.51.51,0,0,0,46.85,175.69Z"/><circle class="cls-7" cx="50.33" cy="175.18" r="0.51"/><path class="cls-7" d="M26,179.17a.51.51,0,0,0,.51-.51.51.51,0,1,0-1,0A.51.51,0,0,0,26,179.17Z"/><path class="cls-7" d="M29.49,179.17a.51.51,0,0,0,.51-.51.51.51,0,1,0-1,0A.51.51,0,0,0,29.49,179.17Z"/><path class="cls-7" d="M33,179.17a.51.51,0,0,0,.51-.51.5.5,0,0,0-.51-.51.51.51,0,0,0-.51.51A.51.51,0,0,0,33,179.17Z"/><path class="cls-7" d="M36.44,179.17a.51.51,0,0,0,.51-.51.51.51,0,0,0-.51-.51.5.5,0,0,0-.51.51A.51.51,0,0,0,36.44,179.17Z"/><path class="cls-7" d="M39.91,179.17a.51.51,0,0,0,.51-.51.51.51,0,1,0-1,0A.51.51,0,0,0,39.91,179.17Z"/><path class="cls-7" d="M43.38,179.17a.51.51,0,0,0,.51-.51.51.51,0,0,0-1,0A.51.51,0,0,0,43.38,179.17Z"/><path class="cls-7" d="M46.85,179.17a.51.51,0,0,0,.52-.51.52.52,0,1,0-.52.51Z"/><path class="cls-7" d="M50.33,179.17a.51.51,0,0,0,.51-.51.51.51,0,1,0-1,0A.51.51,0,0,0,50.33,179.17Z"/></g><g class="cls-6"><circle class="cls-7" cx="26.02" cy="181.83" r="0.51"/><circle class="cls-7" cx="29.49" cy="181.83" r="0.51"/><circle class="cls-7" cx="32.96" cy="181.83" r="0.51"/><circle class="cls-7" cx="36.44" cy="181.83" r="0.51"/><path class="cls-7" d="M39.91,182.34a.51.51,0,1,0-.51-.51A.51.51,0,0,0,39.91,182.34Z"/><circle class="cls-7" cx="43.38" cy="181.83" r="0.51"/><path class="cls-7" d="M46.85,182.34a.51.51,0,1,0-.51-.51A.51.51,0,0,0,46.85,182.34Z"/><circle class="cls-7" cx="50.33" cy="181.83" r="0.51"/><path class="cls-7" d="M26,185.82a.52.52,0,1,0-.51-.52A.51.51,0,0,0,26,185.82Z"/><path class="cls-7" d="M29.49,185.82a.52.52,0,1,0-.51-.52A.51.51,0,0,0,29.49,185.82Z"/><path class="cls-7" d="M33,185.82a.52.52,0,1,0-.51-.52A.51.51,0,0,0,33,185.82Z"/><path class="cls-7" d="M36.44,185.82a.52.52,0,0,0,0-1,.52.52,0,0,0,0,1Z"/><path class="cls-7" d="M39.91,185.82a.52.52,0,1,0-.51-.52A.51.51,0,0,0,39.91,185.82Z"/><path class="cls-7" d="M43.38,185.82a.52.52,0,1,0-.51-.52A.51.51,0,0,0,43.38,185.82Z"/><path class="cls-7" d="M46.85,185.82a.52.52,0,1,0-.51-.52A.52.52,0,0,0,46.85,185.82Z"/><path class="cls-7" d="M50.33,185.82a.52.52,0,1,0-.51-.52A.51.51,0,0,0,50.33,185.82Z"/><circle class="cls-7" cx="26.02" cy="188.78" r="0.51"/><circle class="cls-7" cx="29.49" cy="188.78" r="0.51"/><circle class="cls-7" cx="32.96" cy="188.78" r="0.51"/><circle class="cls-7" cx="36.44" cy="188.78" r="0.51"/><path class="cls-7" d="M39.91,189.29a.51.51,0,1,0-.51-.51A.51.51,0,0,0,39.91,189.29Z"/><circle class="cls-7" cx="43.38" cy="188.78" r="0.51"/><path class="cls-7" d="M46.85,189.29a.51.51,0,1,0-.51-.51A.51.51,0,0,0,46.85,189.29Z"/><circle class="cls-7" cx="50.33" cy="188.78" r="0.51"/><circle class="cls-7" cx="26.02" cy="192.25" r="0.51"/><circle class="cls-7" cx="29.49" cy="192.25" r="0.51"/><circle class="cls-7" cx="32.96" cy="192.25" r="0.51"/><circle class="cls-7" cx="36.44" cy="192.25" r="0.51"/><path class="cls-7" d="M39.91,192.76a.51.51,0,1,0-.51-.51A.51.51,0,0,0,39.91,192.76Z"/><circle class="cls-7" cx="43.38" cy="192.25" r="0.51"/><path class="cls-7" d="M46.85,192.76a.51.51,0,1,0-.51-.51A.51.51,0,0,0,46.85,192.76Z"/><circle class="cls-7" cx="50.33" cy="192.25" r="0.51"/><circle class="cls-7" cx="26.02" cy="195.72" r="0.51"/><circle class="cls-7" cx="29.49" cy="195.72" r="0.51"/><circle class="cls-7" cx="32.96" cy="195.72" r="0.51"/><circle class="cls-7" cx="36.44" cy="195.72" r="0.51"/><path class="cls-7" d="M39.91,196.23a.51.51,0,1,0-.51-.51A.51.51,0,0,0,39.91,196.23Z"/><circle class="cls-7" cx="43.38" cy="195.72" r="0.51"/><path class="cls-7" d="M46.85,196.23a.51.51,0,1,0-.51-.51A.51.51,0,0,0,46.85,196.23Z"/><circle class="cls-7" cx="50.33" cy="195.72" r="0.51"/><circle class="cls-7" cx="26.02" cy="199.2" r="0.51"/><circle class="cls-7" cx="29.49" cy="199.2" r="0.51"/><circle class="cls-7" cx="32.96" cy="199.2" r="0.51"/><circle class="cls-7" cx="36.44" cy="199.2" r="0.51"/><path class="cls-7" d="M39.91,199.71a.51.51,0,0,0,.51-.51.51.51,0,1,0-1,0A.51.51,0,0,0,39.91,199.71Z"/><circle class="cls-7" cx="43.38" cy="199.2" r="0.51"/><path class="cls-7" d="M46.85,199.71a.51.51,0,0,0,.52-.51.52.52,0,1,0-.52.51Z"/><circle class="cls-7" cx="50.33" cy="199.2" r="0.51"/><circle class="cls-7" cx="26.02" cy="202.67" r="0.51"/><circle class="cls-7" cx="29.49" cy="202.67" r="0.51"/><circle class="cls-7" cx="32.96" cy="202.67" r="0.51"/><circle class="cls-7" cx="36.44" cy="202.67" r="0.51"/><path class="cls-7" d="M39.91,203.18a.51.51,0,1,0-.51-.51A.51.51,0,0,0,39.91,203.18Z"/><circle class="cls-7" cx="43.38" cy="202.67" r="0.51"/><path class="cls-7" d="M46.85,203.18a.51.51,0,1,0-.51-.51A.51.51,0,0,0,46.85,203.18Z"/><circle class="cls-7" cx="50.33" cy="202.67" r="0.51"/><circle class="cls-7" cx="26.02" cy="206.14" r="0.51"/><circle class="cls-7" cx="29.49" cy="206.14" r="0.51"/><circle class="cls-7" cx="32.96" cy="206.14" r="0.51"/><circle class="cls-7" cx="36.44" cy="206.14" r="0.51"/><path class="cls-7" d="M39.91,206.65a.51.51,0,1,0-.51-.51A.51.51,0,0,0,39.91,206.65Z"/><circle class="cls-7" cx="43.38" cy="206.14" r="0.51"/><path class="cls-7" d="M46.85,206.65a.51.51,0,1,0-.51-.51A.51.51,0,0,0,46.85,206.65Z"/><circle class="cls-7" cx="50.33" cy="206.14" r="0.51"/><path class="cls-7" d="M26,210.12a.51.51,0,0,0,.51-.51.51.51,0,0,0-1,0A.51.51,0,0,0,26,210.12Z"/><path class="cls-7" d="M29.49,210.12a.51.51,0,0,0,.51-.51.51.51,0,0,0-1,0A.51.51,0,0,0,29.49,210.12Z"/><path class="cls-7" d="M33,210.12a.5.5,0,0,0,.51-.51.51.51,0,0,0-.51-.51.51.51,0,0,0-.51.51A.51.51,0,0,0,33,210.12Z"/><path class="cls-7" d="M36.44,210.12a.51.51,0,0,0,.51-.51.51.51,0,0,0-.51-.51.51.51,0,0,0-.51.51A.5.5,0,0,0,36.44,210.12Z"/><path class="cls-7" d="M39.91,210.12a.51.51,0,0,0,.51-.51.51.51,0,0,0-1,0A.51.51,0,0,0,39.91,210.12Z"/><path class="cls-7" d="M43.38,210.12a.51.51,0,0,0,.51-.51.51.51,0,1,0-1,0A.51.51,0,0,0,43.38,210.12Z"/><path class="cls-7" d="M46.85,210.12a.51.51,0,0,0,.52-.51.52.52,0,0,0-1,0A.51.51,0,0,0,46.85,210.12Z"/><path class="cls-7" d="M50.33,210.12a.51.51,0,0,0,.51-.51.51.51,0,1,0-1,0A.51.51,0,0,0,50.33,210.12Z"/><circle class="cls-7" cx="26.02" cy="213.09" r="0.51"/><circle class="cls-7" cx="29.49" cy="213.09" r="0.51"/><circle class="cls-7" cx="32.96" cy="213.09" r="0.51"/><circle class="cls-7" cx="36.44" cy="213.09" r="0.51"/><path class="cls-7" d="M39.91,213.6a.51.51,0,0,0,.51-.51.51.51,0,1,0-1,0A.51.51,0,0,0,39.91,213.6Z"/><circle class="cls-7" cx="43.38" cy="213.09" r="0.51"/><path class="cls-7" d="M46.85,213.6a.51.51,0,0,0,.52-.51.52.52,0,1,0-.52.51Z"/><circle class="cls-7" cx="50.33" cy="213.09" r="0.51"/><path class="cls-7" d="M26,217.07a.51.51,0,1,0-.51-.51A.51.51,0,0,0,26,217.07Z"/><path class="cls-7" d="M29.49,217.07a.51.51,0,1,0-.51-.51A.51.51,0,0,0,29.49,217.07Z"/><path class="cls-7" d="M33,217.07a.51.51,0,1,0,0-1,.51.51,0,0,0,0,1Z"/><path class="cls-7" d="M36.44,217.07a.51.51,0,0,0,0-1,.51.51,0,0,0,0,1Z"/><path class="cls-7" d="M39.91,217.07a.51.51,0,1,0-.51-.51A.51.51,0,0,0,39.91,217.07Z"/><path class="cls-7" d="M43.38,217.07a.51.51,0,1,0-.51-.51A.51.51,0,0,0,43.38,217.07Z"/><path class="cls-7" d="M46.85,217.07a.51.51,0,1,0-.51-.51A.51.51,0,0,0,46.85,217.07Z"/><path class="cls-7" d="M50.33,217.07a.51.51,0,1,0-.51-.51A.51.51,0,0,0,50.33,217.07Z"/><circle class="cls-7" cx="26.02" cy="220.03" r="0.51"/><circle class="cls-7" cx="29.49" cy="220.03" r="0.51"/><circle class="cls-7" cx="32.96" cy="220.03" r="0.51"/><circle class="cls-7" cx="36.44" cy="220.03" r="0.51"/><path class="cls-7" d="M39.91,220.54a.51.51,0,1,0-.51-.51A.51.51,0,0,0,39.91,220.54Z"/><circle class="cls-7" cx="43.38" cy="220.03" r="0.51"/><path class="cls-7" d="M46.85,220.54a.51.51,0,1,0-.51-.51A.51.51,0,0,0,46.85,220.54Z"/><circle class="cls-7" cx="50.33" cy="220.03" r="0.51"/><path class="cls-7" d="M26,224a.51.51,0,0,0,.51-.51.51.51,0,1,0-1,0A.51.51,0,0,0,26,224Z"/><path class="cls-7" d="M29.49,224a.51.51,0,0,0,.51-.51.51.51,0,1,0-1,0A.51.51,0,0,0,29.49,224Z"/><path class="cls-7" d="M33,224a.5.5,0,0,0,.51-.51A.51.51,0,0,0,33,223a.51.51,0,0,0-.51.51A.51.51,0,0,0,33,224Z"/><path class="cls-7" d="M36.44,224a.51.51,0,0,0,.51-.51.51.51,0,0,0-.51-.51.51.51,0,0,0-.51.51A.5.5,0,0,0,36.44,224Z"/><path class="cls-7" d="M39.91,224a.51.51,0,0,0,.51-.51.51.51,0,0,0-1,0A.51.51,0,0,0,39.91,224Z"/><path class="cls-7" d="M43.38,224a.51.51,0,0,0,.51-.51.51.51,0,0,0-1,0A.51.51,0,0,0,43.38,224Z"/><path class="cls-7" d="M46.85,224a.51.51,0,0,0,.52-.51.52.52,0,0,0-1,0A.51.51,0,0,0,46.85,224Z"/><path class="cls-7" d="M50.33,224a.51.51,0,0,0,.51-.51.51.51,0,0,0-1,0A.51.51,0,0,0,50.33,224Z"/><circle class="cls-7" cx="26.02" cy="226.98" r="0.51"/><circle class="cls-7" cx="29.49" cy="226.98" r="0.51"/><circle class="cls-7" cx="32.96" cy="226.98" r="0.51"/><circle class="cls-7" cx="36.44" cy="226.98" r="0.51"/><path class="cls-7" d="M39.91,227.49a.51.51,0,1,0-.51-.51A.51.51,0,0,0,39.91,227.49Z"/><circle class="cls-7" cx="43.38" cy="226.98" r="0.51"/><path class="cls-7" d="M46.85,227.49a.51.51,0,1,0-.51-.51A.51.51,0,0,0,46.85,227.49Z"/><circle class="cls-7" cx="50.33" cy="226.98" r="0.51"/><circle class="cls-7" cx="26.02" cy="230.45" r="0.51"/><circle class="cls-7" cx="29.49" cy="230.45" r="0.51"/><circle class="cls-7" cx="32.96" cy="230.45" r="0.51"/><circle class="cls-7" cx="36.44" cy="230.45" r="0.51"/><path class="cls-7" d="M39.91,231a.51.51,0,1,0-.51-.51A.51.51,0,0,0,39.91,231Z"/><circle class="cls-7" cx="43.38" cy="230.45" r="0.51"/><path class="cls-7" d="M46.85,231a.51.51,0,1,0-.51-.51A.51.51,0,0,0,46.85,231Z"/><circle class="cls-7" cx="50.33" cy="230.45" r="0.51"/><circle class="cls-7" cx="26.02" cy="233.92" r="0.51"/><circle class="cls-7" cx="29.49" cy="233.92" r="0.51"/><circle class="cls-7" cx="32.96" cy="233.92" r="0.51"/><circle class="cls-7" cx="36.44" cy="233.92" r="0.51"/><path class="cls-7" d="M39.91,234.43a.51.51,0,1,0-.51-.51A.51.51,0,0,0,39.91,234.43Z"/><circle class="cls-7" cx="43.38" cy="233.92" r="0.51"/><path class="cls-7" d="M46.85,234.43a.51.51,0,1,0-.51-.51A.51.51,0,0,0,46.85,234.43Z"/><circle class="cls-7" cx="50.33" cy="233.92" r="0.51"/><circle class="cls-7" cx="26.02" cy="237.4" r="0.51"/><circle class="cls-7" cx="29.49" cy="237.4" r="0.51"/><circle class="cls-7" cx="32.96" cy="237.4" r="0.51"/><circle class="cls-7" cx="36.44" cy="237.4" r="0.51"/><path class="cls-7" d="M39.91,237.91a.51.51,0,0,0,.51-.51.51.51,0,1,0-1,0A.51.51,0,0,0,39.91,237.91Z"/><circle class="cls-7" cx="43.38" cy="237.4" r="0.51"/><path class="cls-7" d="M46.85,237.91a.51.51,0,0,0,.52-.51.52.52,0,1,0-.52.51Z"/><circle class="cls-7" cx="50.33" cy="237.4" r="0.51"/><circle class="cls-7" cx="26.02" cy="240.87" r="0.51"/><circle class="cls-7" cx="29.49" cy="240.87" r="0.51"/><circle class="cls-7" cx="32.96" cy="240.87" r="0.51"/><circle class="cls-7" cx="36.44" cy="240.87" r="0.51"/><path class="cls-7" d="M39.91,241.38a.51.51,0,1,0-.51-.51A.51.51,0,0,0,39.91,241.38Z"/><circle class="cls-7" cx="43.38" cy="240.87" r="0.51"/><path class="cls-7" d="M46.85,241.38a.51.51,0,1,0-.51-.51A.51.51,0,0,0,46.85,241.38Z"/><circle class="cls-7" cx="50.33" cy="240.87" r="0.51"/><circle class="cls-7" cx="26.02" cy="244.34" r="0.51"/><circle class="cls-7" cx="29.49" cy="244.34" r="0.51"/><circle class="cls-7" cx="32.96" cy="244.34" r="0.51"/><circle class="cls-7" cx="36.44" cy="244.34" r="0.51"/><path class="cls-7" d="M39.91,244.85a.51.51,0,1,0-.51-.51A.51.51,0,0,0,39.91,244.85Z"/><circle class="cls-7" cx="43.38" cy="244.34" r="0.51"/><path class="cls-7" d="M46.85,244.85a.51.51,0,1,0-.51-.51A.51.51,0,0,0,46.85,244.85Z"/><circle class="cls-7" cx="50.33" cy="244.34" r="0.51"/><path class="cls-7" d="M26,248.32a.51.51,0,0,0,.51-.51.51.51,0,0,0-1,0A.51.51,0,0,0,26,248.32Z"/><path class="cls-7" d="M29.49,248.32a.51.51,0,0,0,.51-.51.51.51,0,0,0-1,0A.51.51,0,0,0,29.49,248.32Z"/><path class="cls-7" d="M33,248.32a.5.5,0,0,0,.51-.51.51.51,0,0,0-.51-.51.51.51,0,0,0-.51.51A.51.51,0,0,0,33,248.32Z"/><path class="cls-7" d="M36.44,248.32a.51.51,0,0,0,.51-.51.51.51,0,0,0-.51-.51.51.51,0,0,0-.51.51A.5.5,0,0,0,36.44,248.32Z"/><path class="cls-7" d="M39.91,248.32a.51.51,0,0,0,.51-.51.51.51,0,0,0-1,0A.51.51,0,0,0,39.91,248.32Z"/><path class="cls-7" d="M43.38,248.32a.51.51,0,0,0,.51-.51.51.51,0,0,0-1,0A.51.51,0,0,0,43.38,248.32Z"/><path class="cls-7" d="M46.85,248.32a.51.51,0,0,0,.52-.51.52.52,0,0,0-1,0A.51.51,0,0,0,46.85,248.32Z"/><path class="cls-7" d="M50.33,248.32a.51.51,0,0,0,.51-.51.51.51,0,0,0-1,0A.51.51,0,0,0,50.33,248.32Z"/><circle class="cls-7" cx="26.02" cy="251.29" r="0.51"/><circle class="cls-7" cx="29.49" cy="251.29" r="0.51"/><circle class="cls-7" cx="32.96" cy="251.29" r="0.51"/><circle class="cls-7" cx="36.44" cy="251.29" r="0.51"/><path class="cls-7" d="M39.91,251.8a.51.51,0,0,0,.51-.51.51.51,0,0,0-1,0A.51.51,0,0,0,39.91,251.8Z"/><circle class="cls-7" cx="43.38" cy="251.29" r="0.51"/><path class="cls-7" d="M46.85,251.8a.51.51,0,0,0,.52-.51.52.52,0,1,0-.52.51Z"/><circle class="cls-7" cx="50.33" cy="251.29" r="0.51"/><path class="cls-7" d="M26,255.27a.51.51,0,1,0-.51-.51A.51.51,0,0,0,26,255.27Z"/><path class="cls-7" d="M29.49,255.27a.51.51,0,1,0-.51-.51A.51.51,0,0,0,29.49,255.27Z"/><path class="cls-7" d="M33,255.27a.51.51,0,1,0,0-1,.51.51,0,0,0,0,1Z"/><path class="cls-7" d="M36.44,255.27a.51.51,0,1,0,0-1,.51.51,0,0,0,0,1Z"/><path class="cls-7" d="M39.91,255.27a.51.51,0,1,0-.51-.51A.51.51,0,0,0,39.91,255.27Z"/><path class="cls-7" d="M43.38,255.27a.51.51,0,1,0-.51-.51A.51.51,0,0,0,43.38,255.27Z"/><path class="cls-7" d="M46.85,255.27a.51.51,0,1,0-.51-.51A.51.51,0,0,0,46.85,255.27Z"/><path class="cls-7" d="M50.33,255.27a.51.51,0,1,0-.51-.51A.51.51,0,0,0,50.33,255.27Z"/></g></g></g></svg>