<svg xmlns="http://www.w3.org/2000/svg" xmlns:xlink="http://www.w3.org/1999/xlink" viewBox="0 0 4087.0101 2003.04204"><defs><style>.cls-1{fill:#1d2c90;}.cls-2{isolation:isolate;}.cls-3{clip-path:url(#clip-path);}.cls-4{fill:#636363;}.cls-4,.cls-8{mix-blend-mode:overlay;}.cls-5{fill:url(#linear-gradient);}.cls-6{fill:url(#linear-gradient-2);}.cls-7{fill:url(#linear-gradient-3);}.cls-9{fill:#fff;}.cls-10{fill:url(#linear-gradient-4);}.cls-11{mix-blend-mode:color-burn;fill:url(#Degradado_sin_nombre_37);}.cls-12{fill:url(#linear-gradient-5);}.cls-13{mix-blend-mode:color-dodge;}.cls-14{fill:url(#linear-gradient-6);}.cls-15{fill:url(#linear-gradient-7);}.cls-16{fill:url(#linear-gradient-8);}.cls-17{fill:url(#linear-gradient-9);}.cls-18{fill:url(#linear-gradient-10);}.cls-19{fill:url(#linear-gradient-11);}</style><clipPath id="clip-path"><rect class="cls-1" x="-2318.74577" y="301.42188" width="2153.53571" height="1230.59184" transform="translate(-2483.95582 1833.43561) rotate(180)"/></clipPath><linearGradient id="linear-gradient" x1="2933.09322" y1="42.93552" x2="3118.71251" y2="320.94865" gradientUnits="userSpaceOnUse"><stop offset="0" stop-color="#accfe4"/><stop offset="1" stop-color="#0062b9"/></linearGradient><linearGradient id="linear-gradient-2" x1="1174.95777" y1="268.75385" x2="1388.78548" y2="589.01643" xlink:href="#linear-gradient"/><linearGradient id="linear-gradient-3" x1="1235.63151" y1="1588.05375" x2="1449.45922" y2="1908.31633" xlink:href="#linear-gradient"/><linearGradient id="linear-gradient-4" x1="2312.05791" y1="759.23531" x2="2533.02784" y2="1369.01615" xlink:href="#linear-gradient"/><radialGradient id="Degradado_sin_nombre_37" cx="2823.97365" cy="1385.61958" r="139.99213" gradientTransform="translate(1806.90372 -1591.01227) rotate(45)" gradientUnits="userSpaceOnUse"><stop offset="0" stop-color="#999" stop-opacity="0.3"/><stop offset="0.6647" stop-color="#e1e1e1" stop-opacity="0.44121"/><stop offset="1" stop-color="#fff" stop-opacity="0.5"/></radialGradient><linearGradient id="linear-gradient-5" x1="2824.51193" y1="1424.38641" x2="2824.51193" y2="1253.71173" gradientTransform="translate(4088.32895 -1516.63246) rotate(88.35934)" gradientUnits="userSpaceOnUse"><stop offset="0" stop-color="#2257a1"/><stop offset="1" stop-color="#186aa7"/></linearGradient><linearGradient id="linear-gradient-6" x1="1628.40645" y1="594.30091" x2="1816.59279" y2="594.30091" gradientTransform="translate(924.74265 -1043.92444) rotate(45)" gradientUnits="userSpaceOnUse"><stop offset="0"/><stop offset="0.10896" stop-color="#060606"/><stop offset="0.25202" stop-color="#161616"/><stop offset="0.41409" stop-color="#323232"/><stop offset="0.59015" stop-color="#575757"/><stop offset="0.77748" stop-color="#888"/><stop offset="0.97156" stop-color="#c3c3c3"/><stop offset="1" stop-color="#ccc"/></linearGradient><linearGradient id="linear-gradient-7" x1="1480.91991" y1="909.10242" x2="1770.35532" y2="909.10242" gradientTransform="translate(1118.9935 -883.23582) rotate(45.00073)" xlink:href="#linear-gradient-6"/><linearGradient id="linear-gradient-8" x1="1815.80275" y1="659.82964" x2="2292.28918" y2="659.82964" gradientTransform="translate(1068.18616 -1259.1702) rotate(45)" gradientUnits="userSpaceOnUse"><stop offset="0" stop-color="#ccc"/><stop offset="0.02844" stop-color="#c3c3c3"/><stop offset="0.22252" stop-color="#888"/><stop offset="0.40985" stop-color="#575757"/><stop offset="0.58591" stop-color="#323232"/><stop offset="0.74798" stop-color="#161616"/><stop offset="0.89104" stop-color="#060606"/><stop offset="1"/></linearGradient><linearGradient id="linear-gradient-9" x1="2393.6605" y1="1818.01095" x2="2642.80573" y2="1818.01095" gradientTransform="translate(2023.10131 -1248.17663) rotate(45)" xlink:href="#linear-gradient-8"/><linearGradient id="linear-gradient-10" x1="2087.91157" y1="857.20698" x2="2662.24234" y2="857.20698" gradientTransform="translate(1301.75091 -1428.34887) rotate(44.99925)" xlink:href="#linear-gradient-8"/><linearGradient id="linear-gradient-11" x1="-2331.32943" y1="2403.36204" x2="-177.79372" y2="2403.36204" gradientTransform="translate(-2509.12315 4806.72407) rotate(-180)" gradientUnits="userSpaceOnUse"><stop offset="0" stop-color="#013e93"/><stop offset="1" stop-color="#00549a"/></linearGradient></defs><title>fondo-onstar-7</title><g class="cls-2"><g id="OBJECTS"><rect class="cls-1" x="-37.39279" y="-19.41953" width="4158.48389" height="2077.14851" transform="translate(4083.69831 2038.30946) rotate(180)"/><rect class="cls-1" x="-2318.74577" y="301.42188" width="2153.53571" height="1230.59184" transform="translate(-2483.95582 1833.43561) rotate(180)"/><g class="cls-3"><path class="cls-4" d="M-1256.79159,1471.94976c303.33109-114.22205,234.51876-116.54346,408.2698-271.63863,179.804-160.5,257.2864-54.83527,418.45676-79.68213,199.24566-30.70794,84.07379-341.872,236.92359-309.6015,56.85548,12.00419,71.476,31.1502,142.83405,23.36975,30.96863-3.37606,103.733-41.99568,201.34284-3.67865,97.26585,38.18089,158.80482,155.687,104.1307,263.4625-36.637,72.22207-81.70916,112.21074-62.11545,175.93707,28.948,94.14625,104.90456,225.63277-9.36745,279.44049-127.26793,59.92511-278.24749-40.87573-347.41574,107.88441-67.921,146.06913-54.63437,312.16526-202.82631,439.41232-121.611,104.42339-235.38018,36.90108-367.021-48.99422-79.44754-51.8387-146.73264-41.79355-236.62653-20.65174-122.15292,28.7202-259.35664,2.28941-348.56777-45.86818-114.84534-61.99873-150.21291-220.59252-110.258-346.46461C-1403.15342,1553.34521-1336.83087,1502.08982-1256.79159,1471.94976Z"/></g><path class="cls-5" d="M2743.261,259.64815c-9.96683-32.95645,6.867-67.61866,33.13939-87.47935,29.71535-22.463,56.25379-33.11445,58.88688-71.09436.852-12.27885,2.55822-29.66427,6.91764-41.26261,16.0266-42.6365,64.56962-35.66673,100.14169-38.60918,33.3941-2.76393,53.0726-23.9883,83.72086-54.81188.19292-.19452,60.81113-96.99966,102.51077-11.885,7.728,15.77346,10.59995,29.083,14.11911,37.8077,13.845,34.325,46.02239,29.66677,97.17706,45.26962,64.74284,19.75,92.445,89.7777,28.61374,121.02559-24.532,12.01059-46.47239,15.68949-69.6699,30.31437-47.40162,29.88347-36.91532,79.711-78.00876,106.07458-14.51288,11.3323-37.65033,16.04467-53.82346,15.20046-62.27464-3.25065-88.67109-24.91-131.52668-6.90694-14.5619,6.117-32.38574,16.729-54.417,22.60377C2824.28935,341.03072,2758.9407,311.487,2743.261,259.64815Z"/><path class="cls-6" d="M956.27692,518.40014c-11.48147-37.96482,7.91059-77.89462,38.17557-100.77353,34.23116-25.87665,64.80264-38.14682,67.83587-81.89852.98149-14.14485,2.947-34.17232,7.96891-47.53325,18.46215-49.11594,74.38222-41.087,115.36016-44.47659,38.469-3.184,61.138-27.63378,96.44385-63.1416.22223-.22409,70.05255-111.74063,118.08926-13.69118,8.90237,18.17054,12.21081,33.50271,16.26478,43.55331,15.949,39.54132,53.01637,34.17521,111.945,52.14921,74.58177,22.75138,106.49378,103.42115,32.96216,139.41776-28.26008,13.83583-53.53477,18.07382-80.25759,34.92122-54.60521,34.42484-42.52531,91.82468-89.8637,122.19467-16.71839,13.05445-43.372,18.483-62.003,17.51046-71.73847-3.74465-102.14637-28.69562-151.51469-7.95658-16.77487,7.04662-37.30737,19.27129-62.68677,26.03884C1049.61905,612.15036,974.33941,578.11689,956.27692,518.40014Z"/><path class="cls-4" d="M906.0249,328.75538c120.06765-45.21237,92.82982-46.13144,161.60557-107.52263,71.172-63.53075,101.84176-21.70547,165.63806-31.54061,78.86745-12.15531,33.27877-135.32351,93.78152-122.54982,22.50494,4.75163,28.29236,12.3302,56.53808,9.25043,12.25832-1.33617,41.06046-16.623,79.69739-1.45606,38.5008,15.11327,62.8598,61.62578,41.21827,104.28657-14.502,28.58769-32.34311,44.41642-24.58733,69.6412,11.45867,37.266,41.52441,89.31218-3.70774,110.61106-50.37669,23.72-110.1388-16.18-137.51787,42.70374-26.885,57.81859-21.62579,123.56467-80.28462,173.93273-48.13756,41.33395-93.17062,14.60657-145.27824-19.39343-31.44775-20.51911-58.08108-16.54312-93.664-8.17438-48.3518,11.36818-102.66105.90623-137.97367-18.15619-45.4593-24.541-59.45883-87.31706-43.64346-137.14118C848.09063,360.9742,874.34308,340.68591,906.0249,328.75538Z"/><path class="cls-7" d="M1016.95066,1837.7c-11.48148-37.96482,7.91058-77.89462,38.17556-100.77353,34.23117-25.87665,64.80264-38.14682,67.83588-81.89852.98149-14.14485,2.947-34.17232,7.9689-47.53325,18.46215-49.11594,74.38223-41.087,115.36016-44.47659,38.469-3.184,61.138-27.63378,96.44385-63.1416.22224-.22409,70.05256-111.74063,118.08926-13.69118,8.90238,18.17054,12.21082,33.50271,16.26479,43.55331,15.949,39.54132,53.01637,34.17521,111.945,52.14921,74.58176,22.75138,106.49378,103.42115,32.96216,139.41776-28.26008,13.83583-53.53477,18.07382-80.25759,34.92122-54.60521,34.42484-42.52531,91.82468-89.8637,122.19467-16.71839,13.05445-43.372,18.483-62.003,17.51046-71.73848-3.74465-102.14638-28.69562-151.51469-7.95658-16.77487,7.04662-37.30738,19.27129-62.68677,26.03884C1110.29278,1931.45026,1035.01315,1897.41679,1016.95066,1837.7Z"/><path class="cls-4" d="M966.69864,1648.05528c120.06764-45.21237,92.82982-46.13144,161.60557-107.52263,71.172-63.53075,101.84176-21.70547,165.63806-31.54061,78.86744-12.15531,33.27877-135.32351,93.78151-122.54982,22.50494,4.75163,28.29237,12.3302,56.53808,9.25043,12.25832-1.33617,41.06047-16.623,79.6974-1.45606,38.5008,15.11327,62.85979,61.62578,41.21827,104.28657-14.502,28.58769-32.34312,44.41642-24.58733,69.6412,11.45866,37.266,41.5244,89.31218-3.70774,110.61106-50.3767,23.72-110.1388-16.18-137.51788,42.70374-26.885,57.81859-21.62578,123.56467-80.28462,173.93273-48.13755,41.33395-93.17061,14.60657-145.27824-19.39343-31.44774-20.51911-58.08108-16.54312-93.664-8.17438-48.3518,11.36818-102.661.90623-137.97366-18.15619-45.4593-24.541-59.45883-87.31706-43.64347-137.14118C908.76437,1680.2741,935.01681,1659.98581,966.69864,1648.05528Z"/><g class="cls-8"><path class="cls-9" d="M1907.41706,1288.71005c-76.06421.00539-152.50289-50.96106-175.32441-124.43416-4.08751-13.15654-6.80578-27.20767-9.43551-40.79644-5.69064-29.41009-11.57144-59.82292-31.71371-81.71583-31.04282-33.74338-82.2385-34.89032-132.91864-31.09561q-12.32115.92122-24.67442,1.89918c-75.98682,5.92851-154.55746,12.06373-229.82061-4.01019-43.532-9.29813-84.219-26.91987-117.66565-50.96281-36.76132-26.42362-63.6494-60.17388-77.75512-97.60069-25.27122-67.04544-10.05-141.9218,6.03258-199.66226,28.94234-103.90369,73.25122-165.07663,135.46378-187.01583,54.43624-19.19956,112.31766-3.46654,168.28906,11.74783,23.69341,6.44073,48.19507,13.09973,72.15666,17.04811,113.7509,18.73545,234.99579-26.32495,308.88933-114.79917,14.62484-17.50677,27.60816-36.77359,40.16425-55.40672,11.41239-16.93677,23.21695-34.45082,36.239-50.6325,33.23486-41.30288,69.13514-65.37042,106.712-71.53531,72.78126-11.95278,136.48745,42.17982,192.68153,89.94259,129.1203,109.74571,236.74637,153.35735,338.72451,137.21436,98.73064-15.61851,184.74613-98.07021,204.52479-196.05446,19.775-97.98561-27.52357-207.3468-112.46587-260.03707l.95283-1.53556c41.612,25.813,75.8527,66.21373,96.4187,113.761,20.56192,47.54911,26.55262,100.16926,16.86627,148.1684-9.69,48.001-35.62126,94.17863-73.01809,130.02763-37.39676,35.84861-84.62815,59.80513-132.99636,67.45643-56.75181,8.98184-117.62293-1.37864-180.91961-30.77645-49.7797-23.12335-101.87219-58.07372-159.25943-106.84787-55.89045-47.50646-119.21855-101.35127-191.21972-89.53658-37.11813,6.093-72.64759,29.94146-105.59647,70.886-12.97287,16.12131-24.75251,33.60393-36.14393,50.50889-12.58426,18.67183-25.59219,37.97767-40.277,55.55533-63.11667,75.56821-160.60089,119.63669-258.62195,119.64215a319.454,319.454,0,0,1-51.95116-4.21839c-24.04982-3.96247-48.59738-10.63419-72.333-17.08712-55.70355-15.14173-113.30594-30.79925-167.21619-11.78653-61.61251,21.7288-105.5505,82.50306-134.32008,185.79442-16.01211,57.47729-31.16974,131.985-6.08211,198.53953,32.02059,84.97593,121.26261,131.87727,194.10067,147.4339,75.00543,16.01938,153.44551,9.89637,229.30516,3.97655q12.35853-.96619,24.68161-1.901c51.15335-3.82114,102.82177-2.62966,134.38007,31.67476,20.49186,22.27276,26.42219,52.93937,32.162,82.59849,2.61921,13.53923,5.32664,27.54122,9.38272,40.60193,27.34322,88.02244,132.46326,143.41326,220.51562,116.21144l.53644,1.726A160.6646,160.6646,0,0,1,1907.41706,1288.71005Z"/></g><g class="cls-8"><path class="cls-9" d="M2594.39365,1575.362c-39.98462-29.27013-44.48542-87.37517-31.75092-128.97584,11.30337-36.90641,33.93482-69.28055,55.82076-100.58873,4.75711-6.80053,9.67209-13.83193,14.378-20.78062,23.34861-34.46671,49.87344-80.259,47.7255-128.86152-1.12721-25.50613-10.04257-50.10989-18.66609-73.90364-5.93159-16.37614-12.07222-33.31006-15.70617-50.54182-13.37665-63.41594,8.789-132.75745,56.47536-176.65408,17.10144-15.74168,37.37945-28.49359,56.98755-40.82414,29.28382-18.41587,59.56533-37.45649,78.67292-66.4566,38.31341-58.14622,17.92109-134.10547-17.23937-180.07531-41.88075-54.75088-106.88882-85.76731-158.84722-106.67376-15.8523-6.37918-32.17314-12.49031-47.958-18.40218-44.03261-16.48828-89.57074-33.54049-130.33182-58.39643-63.58149-38.77311-105.24138-93.64779-114.29837-150.55307-5.03321-31.63117,1.93882-66.12724,19.12695-94.643,18.11441-30.05426,44.84067-49.35887,75.244-54.35663l.331,1.99021c-64.72843,10.64187-102.33271,86.22252-92.70781,146.69224,8.96254,56.31959,50.27943,110.68217,113.35274,149.14773,40.59929,24.75547,86.04695,41.77413,129.99244,58.231,15.79293,5.91426,32.12588,12.02908,48.00565,18.418,52.19485,21.00127,117.5146,52.18115,159.69073,107.32026,35.58225,46.51754,56.17956,123.44258,17.32577,182.41251-19.34781,29.36493-49.81814,48.52348-79.2836,67.05359-19.53338,12.28329-39.73238,24.9843-56.69979,40.60169-47.16975,43.42366-69.09933,112.0185-55.86432,174.75033,3.60606,17.09375,9.71929,33.96062,15.63108,50.27182,8.67485,23.93537,17.64145,48.6873,18.78439,74.501,2.17172,49.19542-24.55049,95.36024-48.0722,130.08326-4.714,6.96036-9.63657,13.99936-14.39368,20.80432-21.79556,31.18191-44.33618,63.42362-55.54517,100.02494-12.53757,40.94033-8.17833,98.06995,31.01041,126.75686Z"/></g><path class="cls-10" d="M2866.42964,1314.60977c-33.33121,44.17381-85.55424,64.03019-94.02493,131.50629-6.59028,52.52075,2.95859,123.39481-66.4348,152.11149-28.46749,11.78033-45.08814,11.509-78.42792,15.30548-62.11713,7.07586-68.74058,7.52-136.5398,57.33259-102.84094,75.55915-161.79819-56.57817-254.6008-132.00041-40.43948-32.86906-62.59953-51.1538-77.75656-75.19966-39.64334-62.89239,19.01827-112.446,40.10936-147.61085,27.05215-45.10562-14.399-81.69514-10.58721-122.91114,8.96614-97.05812,118.23418,33.50373,208.48482-135.03059,22.756-42.49351,72.77456-66.461,127.4874-50.88395,73.61608,20.95713,91.63951,91.33024,172.43668,101.185,14.12574,1.72366,54.5897,4.618,79.833,8.63618C2869.49007,1131.8575,2926.77729,1234.63088,2866.42964,1314.60977Z"/><path class="cls-4" d="M2279.65422,1286.62263c151.19908-56.93538,116.89874-58.09251,203.50706-135.40159,89.62549-80.00317,128.24755-27.33332,208.58489-39.71853,99.31643-15.30675,41.9076-170.4103,118.09746-154.32465,28.3403,5.98363,35.62808,15.52719,71.19737,11.64893,15.43669-1.68284,51.707-20.93326,100.3618-1.83367,48.48335,19.03174,79.1582,77.60409,51.90522,131.32611-18.26217,36-40.72893,55.93281-30.96221,87.698,14.42947,46.92835,52.291,112.46941-4.66932,139.29052-63.43825,29.87041-138.69586-20.375-173.17361,53.7763-33.856,72.81-27.23317,155.60259-101.10126,219.03044-60.61851,52.05112-117.32812,18.3938-182.94611-24.42176-39.6016-25.83964-73.14068-20.83251-117.94939-10.29412-60.88861,14.31594-129.27948,1.14119-173.74786-22.86355-57.24606-30.904-74.87546-109.957-54.95945-172.69952C2206.69837,1327.19518,2239.75766,1301.64631,2279.65422,1286.62263Z"/><circle class="cls-11" cx="2823.97356" cy="1385.6196" r="139.99206" transform="translate(-152.65831 2402.68944) rotate(-45)"/><circle class="cls-12" cx="2824.51201" cy="1345.23722" r="102.30171" transform="translate(1398.95749 4130.07573) rotate(-88.35934)"/><g class="cls-13"><rect class="cls-14" x="1591.44871" y="592.28326" width="262.10179" height="4.0353" transform="translate(84.27425 1392.05785) rotate(-45)"/></g><g class="cls-13"><rect class="cls-15" x="1422.99367" y="907.0847" width="405.2877" height="4.03548" transform="translate(-166.68785 1415.79205) rotate(-45.00073)"/></g><g class="cls-13"><rect class="cls-16" x="1719.13683" y="657.81199" width="669.81822" height="4.0353" transform="translate(135.04613 1645.68947) rotate(-45)"/></g><g class="cls-13"><rect class="cls-17" x="2343.11583" y="1816.95597" width="350.23456" height="2.10998" transform="translate(-547.95447 2313.14283) rotate(-45)"/></g><g class="cls-13"><rect class="cls-18" x="1971.4313" y="854.73943" width="807.29128" height="4.93507" transform="translate(89.49305 1930.47324) rotate(-44.99925)"/></g><g class="cls-8"><path class="cls-9" d="M2294.60812,1739.11733a2.319,2.319,0,1,0-2.31894-2.319A2.319,2.319,0,0,0,2294.60812,1739.11733Z"/><path class="cls-9" d="M2310.38683,1739.11733a2.319,2.319,0,1,0-2.31894-2.319A2.319,2.319,0,0,0,2310.38683,1739.11733Z"/><path class="cls-9" d="M2326.16558,1739.11733a2.319,2.319,0,1,0-2.31893-2.319A2.319,2.319,0,0,0,2326.16558,1739.11733Z"/><path class="cls-9" d="M2341.94434,1739.11733a2.319,2.319,0,1,0-2.319-2.319A2.319,2.319,0,0,0,2341.94434,1739.11733Z"/><path class="cls-9" d="M2357.723,1739.11733a2.319,2.319,0,1,0-2.31894-2.319A2.319,2.319,0,0,0,2357.723,1739.11733Z"/><path class="cls-9" d="M2373.5018,1739.11733a2.319,2.319,0,1,0-2.31894-2.319A2.319,2.319,0,0,0,2373.5018,1739.11733Z"/><path class="cls-9" d="M2389.2805,1739.11733a2.319,2.319,0,1,0-2.31894-2.319A2.319,2.319,0,0,0,2389.2805,1739.11733Z"/><path class="cls-9" d="M2405.05926,1739.11733a2.319,2.319,0,1,0-2.31895-2.319A2.319,2.319,0,0,0,2405.05926,1739.11733Z"/><path class="cls-9" d="M2420.838,1739.11733a2.319,2.319,0,1,0-2.31894-2.319A2.319,2.319,0,0,0,2420.838,1739.11733Z"/><path class="cls-9" d="M2436.61672,1739.11733a2.319,2.319,0,1,0-2.31895-2.319A2.319,2.319,0,0,0,2436.61672,1739.11733Z"/><path class="cls-9" d="M2452.39543,1739.11733a2.319,2.319,0,1,0-2.31895-2.319A2.319,2.319,0,0,0,2452.39543,1739.11733Z"/><path class="cls-9" d="M2468.17417,1739.11733a2.319,2.319,0,1,0-2.31894-2.319A2.319,2.319,0,0,0,2468.17417,1739.11733Z"/><path class="cls-9" d="M2483.95293,1739.11733a2.319,2.319,0,1,0-2.319-2.319A2.319,2.319,0,0,0,2483.95293,1739.11733Z"/><path class="cls-9" d="M2499.73164,1739.11733a2.319,2.319,0,1,0-2.31895-2.319A2.319,2.319,0,0,0,2499.73164,1739.11733Z"/><path class="cls-9" d="M2515.51039,1739.11733a2.319,2.319,0,1,0-2.31894-2.319A2.319,2.319,0,0,0,2515.51039,1739.11733Z"/><path class="cls-9" d="M2531.28909,1739.11733a2.319,2.319,0,1,0-2.31894-2.319A2.319,2.319,0,0,0,2531.28909,1739.11733Z"/><path class="cls-9" d="M2547.06786,1739.11733a2.319,2.319,0,1,0-2.319-2.319A2.319,2.319,0,0,0,2547.06786,1739.11733Z"/><path class="cls-9" d="M2562.84655,1739.11733a2.319,2.319,0,1,0-2.31894-2.319A2.319,2.319,0,0,0,2562.84655,1739.11733Z"/><path class="cls-9" d="M2578.62531,1739.11733a2.319,2.319,0,1,0-2.31895-2.319A2.319,2.319,0,0,0,2578.62531,1739.11733Z"/><path class="cls-9" d="M2594.404,1739.11733a2.319,2.319,0,1,0-2.31894-2.319A2.319,2.319,0,0,0,2594.404,1739.11733Z"/><path class="cls-9" d="M2610.18277,1739.11733a2.319,2.319,0,1,0-2.31895-2.319A2.319,2.319,0,0,0,2610.18277,1739.11733Z"/><path class="cls-9" d="M2625.96152,1739.11733a2.319,2.319,0,1,0-2.319-2.319A2.319,2.319,0,0,0,2625.96152,1739.11733Z"/><path class="cls-9" d="M2641.74024,1739.11733a2.319,2.319,0,1,0-2.31895-2.319A2.319,2.319,0,0,0,2641.74024,1739.11733Z"/><path class="cls-9" d="M2657.519,1739.11733a2.319,2.319,0,1,0-2.31894-2.319A2.319,2.319,0,0,0,2657.519,1739.11733Z"/><path class="cls-9" d="M2673.2977,1739.11733a2.319,2.319,0,1,0-2.31895-2.319A2.319,2.319,0,0,0,2673.2977,1739.11733Z"/><path class="cls-9" d="M2689.07645,1739.11733a2.319,2.319,0,1,0-2.31894-2.319A2.319,2.319,0,0,0,2689.07645,1739.11733Z"/><path class="cls-9" d="M2704.85516,1739.11733a2.319,2.319,0,1,0-2.31894-2.319A2.319,2.319,0,0,0,2704.85516,1739.11733Z"/><path class="cls-9" d="M2720.63391,1739.11733a2.319,2.319,0,1,0-2.31894-2.319A2.319,2.319,0,0,0,2720.63391,1739.11733Z"/><path class="cls-9" d="M2736.41262,1739.11733a2.319,2.319,0,1,0-2.31894-2.319A2.319,2.319,0,0,0,2736.41262,1739.11733Z"/><path class="cls-9" d="M2752.19137,1739.11733a2.319,2.319,0,1,0-2.31894-2.319A2.319,2.319,0,0,0,2752.19137,1739.11733Z"/><path class="cls-9" d="M2767.97012,1739.11733a2.319,2.319,0,1,0-2.319-2.319A2.319,2.319,0,0,0,2767.97012,1739.11733Z"/><path class="cls-9" d="M2783.74883,1739.11733a2.319,2.319,0,1,0-2.31894-2.319A2.319,2.319,0,0,0,2783.74883,1739.11733Z"/><path class="cls-9" d="M2799.52759,1739.11733a2.319,2.319,0,1,0-2.319-2.319A2.319,2.319,0,0,0,2799.52759,1739.11733Z"/><path class="cls-9" d="M2815.30629,1739.11733a2.319,2.319,0,1,0-2.31894-2.319A2.319,2.319,0,0,0,2815.30629,1739.11733Z"/><path class="cls-9" d="M2831.08505,1739.11733a2.319,2.319,0,1,0-2.319-2.319A2.319,2.319,0,0,0,2831.08505,1739.11733Z"/><path class="cls-9" d="M2846.86375,1739.11733a2.319,2.319,0,1,0-2.31894-2.319A2.319,2.319,0,0,0,2846.86375,1739.11733Z"/><path class="cls-9" d="M2294.60812,1754.896a2.31895,2.31895,0,1,0-2.31894-2.319A2.319,2.319,0,0,0,2294.60812,1754.896Z"/><path class="cls-9" d="M2310.38683,1754.896a2.31895,2.31895,0,1,0-2.31894-2.319A2.319,2.319,0,0,0,2310.38683,1754.896Z"/><path class="cls-9" d="M2326.16558,1754.896a2.31895,2.31895,0,1,0-2.31893-2.319A2.319,2.319,0,0,0,2326.16558,1754.896Z"/><path class="cls-9" d="M2341.94434,1754.896a2.31895,2.31895,0,1,0-2.319-2.319A2.319,2.319,0,0,0,2341.94434,1754.896Z"/><path class="cls-9" d="M2357.723,1754.896a2.31895,2.31895,0,1,0-2.31894-2.319A2.319,2.319,0,0,0,2357.723,1754.896Z"/><path class="cls-9" d="M2373.5018,1754.896a2.31895,2.31895,0,1,0-2.31894-2.319A2.319,2.319,0,0,0,2373.5018,1754.896Z"/><path class="cls-9" d="M2389.2805,1754.896a2.31895,2.31895,0,1,0-2.31894-2.319A2.319,2.319,0,0,0,2389.2805,1754.896Z"/><path class="cls-9" d="M2405.05926,1754.896a2.31895,2.31895,0,1,0-2.31895-2.319A2.319,2.319,0,0,0,2405.05926,1754.896Z"/><path class="cls-9" d="M2420.838,1754.896a2.31895,2.31895,0,1,0-2.31894-2.319A2.319,2.319,0,0,0,2420.838,1754.896Z"/><path class="cls-9" d="M2436.61672,1754.896a2.31895,2.31895,0,1,0-2.31895-2.319A2.319,2.319,0,0,0,2436.61672,1754.896Z"/><path class="cls-9" d="M2452.39543,1754.896a2.31895,2.31895,0,1,0-2.31895-2.319A2.319,2.319,0,0,0,2452.39543,1754.896Z"/><path class="cls-9" d="M2468.17417,1754.896a2.31895,2.31895,0,1,0-2.31894-2.319A2.319,2.319,0,0,0,2468.17417,1754.896Z"/><path class="cls-9" d="M2483.95293,1754.896a2.31895,2.31895,0,1,0-2.319-2.319A2.319,2.319,0,0,0,2483.95293,1754.896Z"/><path class="cls-9" d="M2499.73164,1754.896a2.31895,2.31895,0,1,0-2.31895-2.319A2.319,2.319,0,0,0,2499.73164,1754.896Z"/><path class="cls-9" d="M2515.51039,1754.896a2.31895,2.31895,0,1,0-2.31894-2.319A2.319,2.319,0,0,0,2515.51039,1754.896Z"/><path class="cls-9" d="M2531.28909,1754.896a2.31895,2.31895,0,1,0-2.31894-2.319A2.319,2.319,0,0,0,2531.28909,1754.896Z"/><path class="cls-9" d="M2547.06786,1754.896a2.31895,2.31895,0,1,0-2.319-2.319A2.319,2.319,0,0,0,2547.06786,1754.896Z"/><path class="cls-9" d="M2562.84655,1754.896a2.31895,2.31895,0,1,0-2.31894-2.319A2.319,2.319,0,0,0,2562.84655,1754.896Z"/><path class="cls-9" d="M2578.62531,1754.896a2.31895,2.31895,0,1,0-2.31895-2.319A2.319,2.319,0,0,0,2578.62531,1754.896Z"/><path class="cls-9" d="M2594.404,1754.896a2.31895,2.31895,0,1,0-2.31894-2.319A2.319,2.319,0,0,0,2594.404,1754.896Z"/><path class="cls-9" d="M2610.18277,1754.896a2.31895,2.31895,0,1,0-2.31895-2.319A2.319,2.319,0,0,0,2610.18277,1754.896Z"/><path class="cls-9" d="M2625.96152,1754.896a2.31895,2.31895,0,1,0-2.319-2.319A2.319,2.319,0,0,0,2625.96152,1754.896Z"/><path class="cls-9" d="M2641.74024,1754.896a2.31895,2.31895,0,1,0-2.31895-2.319A2.319,2.319,0,0,0,2641.74024,1754.896Z"/><path class="cls-9" d="M2657.519,1754.896a2.31895,2.31895,0,1,0-2.31894-2.319A2.319,2.319,0,0,0,2657.519,1754.896Z"/><path class="cls-9" d="M2673.2977,1754.896a2.31895,2.31895,0,1,0-2.31895-2.319A2.319,2.319,0,0,0,2673.2977,1754.896Z"/><path class="cls-9" d="M2689.07645,1754.896a2.31895,2.31895,0,1,0-2.31894-2.319A2.319,2.319,0,0,0,2689.07645,1754.896Z"/><path class="cls-9" d="M2704.85516,1754.896a2.31895,2.31895,0,1,0-2.31894-2.319A2.319,2.319,0,0,0,2704.85516,1754.896Z"/><path class="cls-9" d="M2720.63391,1754.896a2.31895,2.31895,0,1,0-2.31894-2.319A2.319,2.319,0,0,0,2720.63391,1754.896Z"/><path class="cls-9" d="M2736.41262,1754.896a2.31895,2.31895,0,1,0-2.31894-2.319A2.319,2.319,0,0,0,2736.41262,1754.896Z"/><path class="cls-9" d="M2752.19137,1754.896a2.31895,2.31895,0,1,0-2.31894-2.319A2.319,2.319,0,0,0,2752.19137,1754.896Z"/><path class="cls-9" d="M2767.97012,1754.896a2.31895,2.31895,0,1,0-2.319-2.319A2.319,2.319,0,0,0,2767.97012,1754.896Z"/><path class="cls-9" d="M2783.74883,1754.896a2.31895,2.31895,0,1,0-2.31894-2.319A2.319,2.319,0,0,0,2783.74883,1754.896Z"/><path class="cls-9" d="M2799.52759,1754.896a2.31895,2.31895,0,1,0-2.319-2.319A2.319,2.319,0,0,0,2799.52759,1754.896Z"/><path class="cls-9" d="M2815.30629,1754.896a2.31895,2.31895,0,1,0-2.31894-2.319A2.319,2.319,0,0,0,2815.30629,1754.896Z"/><path class="cls-9" d="M2831.08505,1754.896a2.31895,2.31895,0,1,0-2.319-2.319A2.319,2.319,0,0,0,2831.08505,1754.896Z"/><path class="cls-9" d="M2846.86375,1754.896a2.31895,2.31895,0,1,0-2.31894-2.319A2.319,2.319,0,0,0,2846.86375,1754.896Z"/><path class="cls-9" d="M2294.60812,1770.67479a2.319,2.319,0,1,0-2.31894-2.319A2.319,2.319,0,0,0,2294.60812,1770.67479Z"/><path class="cls-9" d="M2310.38683,1770.67479a2.319,2.319,0,1,0-2.31894-2.319A2.319,2.319,0,0,0,2310.38683,1770.67479Z"/><path class="cls-9" d="M2326.16558,1770.67479a2.319,2.319,0,1,0-2.31893-2.319A2.319,2.319,0,0,0,2326.16558,1770.67479Z"/><path class="cls-9" d="M2341.94434,1770.67479a2.319,2.319,0,1,0-2.319-2.319A2.319,2.319,0,0,0,2341.94434,1770.67479Z"/><path class="cls-9" d="M2357.723,1770.67479a2.319,2.319,0,1,0-2.31894-2.319A2.319,2.319,0,0,0,2357.723,1770.67479Z"/><path class="cls-9" d="M2373.5018,1770.67479a2.319,2.319,0,1,0-2.31894-2.319A2.319,2.319,0,0,0,2373.5018,1770.67479Z"/><path class="cls-9" d="M2389.2805,1770.67479a2.319,2.319,0,1,0-2.31894-2.319A2.319,2.319,0,0,0,2389.2805,1770.67479Z"/><path class="cls-9" d="M2405.05926,1770.67479a2.319,2.319,0,1,0-2.31895-2.319A2.319,2.319,0,0,0,2405.05926,1770.67479Z"/><path class="cls-9" d="M2420.838,1770.67479a2.319,2.319,0,1,0-2.31894-2.319A2.319,2.319,0,0,0,2420.838,1770.67479Z"/><path class="cls-9" d="M2436.61672,1770.67479a2.319,2.319,0,1,0-2.31895-2.319A2.319,2.319,0,0,0,2436.61672,1770.67479Z"/><path class="cls-9" d="M2452.39543,1770.67479a2.319,2.319,0,1,0-2.31895-2.319A2.319,2.319,0,0,0,2452.39543,1770.67479Z"/><path class="cls-9" d="M2468.17417,1770.67479a2.319,2.319,0,1,0-2.31894-2.319A2.319,2.319,0,0,0,2468.17417,1770.67479Z"/><path class="cls-9" d="M2483.95293,1770.67479a2.319,2.319,0,1,0-2.319-2.319A2.319,2.319,0,0,0,2483.95293,1770.67479Z"/><path class="cls-9" d="M2499.73164,1770.67479a2.319,2.319,0,1,0-2.31895-2.319A2.319,2.319,0,0,0,2499.73164,1770.67479Z"/><path class="cls-9" d="M2515.51039,1770.67479a2.319,2.319,0,1,0-2.31894-2.319A2.319,2.319,0,0,0,2515.51039,1770.67479Z"/><path class="cls-9" d="M2531.28909,1770.67479a2.319,2.319,0,1,0-2.31894-2.319A2.319,2.319,0,0,0,2531.28909,1770.67479Z"/><path class="cls-9" d="M2547.06786,1770.67479a2.319,2.319,0,1,0-2.319-2.319A2.319,2.319,0,0,0,2547.06786,1770.67479Z"/><path class="cls-9" d="M2562.84655,1770.67479a2.319,2.319,0,1,0-2.31894-2.319A2.319,2.319,0,0,0,2562.84655,1770.67479Z"/><path class="cls-9" d="M2578.62531,1770.67479a2.319,2.319,0,1,0-2.31895-2.319A2.319,2.319,0,0,0,2578.62531,1770.67479Z"/><path class="cls-9" d="M2594.404,1770.67479a2.319,2.319,0,1,0-2.31894-2.319A2.319,2.319,0,0,0,2594.404,1770.67479Z"/><path class="cls-9" d="M2610.18277,1770.67479a2.319,2.319,0,1,0-2.31895-2.319A2.319,2.319,0,0,0,2610.18277,1770.67479Z"/><path class="cls-9" d="M2625.96152,1770.67479a2.319,2.319,0,1,0-2.319-2.319A2.319,2.319,0,0,0,2625.96152,1770.67479Z"/><path class="cls-9" d="M2641.74024,1770.67479a2.319,2.319,0,1,0-2.31895-2.319A2.319,2.319,0,0,0,2641.74024,1770.67479Z"/><path class="cls-9" d="M2657.519,1770.67479a2.319,2.319,0,1,0-2.31894-2.319A2.319,2.319,0,0,0,2657.519,1770.67479Z"/><path class="cls-9" d="M2673.2977,1770.67479a2.319,2.319,0,1,0-2.31895-2.319A2.319,2.319,0,0,0,2673.2977,1770.67479Z"/><path class="cls-9" d="M2689.07645,1770.67479a2.319,2.319,0,1,0-2.31894-2.319A2.319,2.319,0,0,0,2689.07645,1770.67479Z"/><path class="cls-9" d="M2704.85516,1770.67479a2.319,2.319,0,1,0-2.31894-2.319A2.319,2.319,0,0,0,2704.85516,1770.67479Z"/><path class="cls-9" d="M2720.63391,1770.67479a2.319,2.319,0,1,0-2.31894-2.319A2.319,2.319,0,0,0,2720.63391,1770.67479Z"/><path class="cls-9" d="M2736.41262,1770.67479a2.319,2.319,0,1,0-2.31894-2.319A2.319,2.319,0,0,0,2736.41262,1770.67479Z"/><path class="cls-9" d="M2752.19137,1770.67479a2.319,2.319,0,1,0-2.31894-2.319A2.319,2.319,0,0,0,2752.19137,1770.67479Z"/><path class="cls-9" d="M2767.97012,1770.67479a2.319,2.319,0,1,0-2.319-2.319A2.319,2.319,0,0,0,2767.97012,1770.67479Z"/><path class="cls-9" d="M2783.74883,1770.67479a2.319,2.319,0,1,0-2.31894-2.319A2.319,2.319,0,0,0,2783.74883,1770.67479Z"/><path class="cls-9" d="M2799.52759,1770.67479a2.319,2.319,0,1,0-2.319-2.319A2.319,2.319,0,0,0,2799.52759,1770.67479Z"/><path class="cls-9" d="M2815.30629,1770.67479a2.319,2.319,0,1,0-2.31894-2.319A2.319,2.319,0,0,0,2815.30629,1770.67479Z"/><path class="cls-9" d="M2831.08505,1770.67479a2.319,2.319,0,1,0-2.319-2.319A2.319,2.319,0,0,0,2831.08505,1770.67479Z"/><path class="cls-9" d="M2846.86375,1770.67479a2.319,2.319,0,1,0-2.31894-2.319A2.319,2.319,0,0,0,2846.86375,1770.67479Z"/><path class="cls-9" d="M2294.60812,1786.4535a2.31895,2.31895,0,1,0-2.31894-2.319A2.319,2.319,0,0,0,2294.60812,1786.4535Z"/><path class="cls-9" d="M2310.38683,1786.4535a2.31895,2.31895,0,1,0-2.31894-2.319A2.319,2.319,0,0,0,2310.38683,1786.4535Z"/><path class="cls-9" d="M2326.16558,1786.4535a2.31895,2.31895,0,1,0-2.31893-2.319A2.319,2.319,0,0,0,2326.16558,1786.4535Z"/><path class="cls-9" d="M2341.94434,1786.4535a2.31895,2.31895,0,1,0-2.319-2.319A2.319,2.319,0,0,0,2341.94434,1786.4535Z"/><path class="cls-9" d="M2357.723,1786.4535a2.31895,2.31895,0,1,0-2.31894-2.319A2.319,2.319,0,0,0,2357.723,1786.4535Z"/><path class="cls-9" d="M2373.5018,1786.4535a2.31895,2.31895,0,1,0-2.31894-2.319A2.319,2.319,0,0,0,2373.5018,1786.4535Z"/><path class="cls-9" d="M2389.2805,1786.4535a2.31895,2.31895,0,1,0-2.31894-2.319A2.319,2.319,0,0,0,2389.2805,1786.4535Z"/><path class="cls-9" d="M2405.05926,1786.4535a2.31895,2.31895,0,1,0-2.31895-2.319A2.319,2.319,0,0,0,2405.05926,1786.4535Z"/><path class="cls-9" d="M2420.838,1786.4535a2.31895,2.31895,0,1,0-2.31894-2.319A2.319,2.319,0,0,0,2420.838,1786.4535Z"/><path class="cls-9" d="M2436.61672,1786.4535a2.31895,2.31895,0,1,0-2.31895-2.319A2.319,2.319,0,0,0,2436.61672,1786.4535Z"/><path class="cls-9" d="M2452.39543,1786.4535a2.31895,2.31895,0,1,0-2.31895-2.319A2.319,2.319,0,0,0,2452.39543,1786.4535Z"/><path class="cls-9" d="M2468.17417,1786.4535a2.31895,2.31895,0,1,0-2.31894-2.319A2.319,2.319,0,0,0,2468.17417,1786.4535Z"/><path class="cls-9" d="M2483.95293,1786.4535a2.31895,2.31895,0,1,0-2.319-2.319A2.319,2.319,0,0,0,2483.95293,1786.4535Z"/><path class="cls-9" d="M2499.73164,1786.4535a2.31895,2.31895,0,1,0-2.31895-2.319A2.319,2.319,0,0,0,2499.73164,1786.4535Z"/><path class="cls-9" d="M2515.51039,1786.4535a2.31895,2.31895,0,1,0-2.31894-2.319A2.319,2.319,0,0,0,2515.51039,1786.4535Z"/><path class="cls-9" d="M2531.28909,1786.4535a2.31895,2.31895,0,1,0-2.31894-2.319A2.319,2.319,0,0,0,2531.28909,1786.4535Z"/><path class="cls-9" d="M2547.06786,1786.4535a2.31895,2.31895,0,1,0-2.319-2.319A2.319,2.319,0,0,0,2547.06786,1786.4535Z"/><path class="cls-9" d="M2562.84655,1786.4535a2.31895,2.31895,0,1,0-2.31894-2.319A2.319,2.319,0,0,0,2562.84655,1786.4535Z"/><path class="cls-9" d="M2578.62531,1786.4535a2.31895,2.31895,0,1,0-2.31895-2.319A2.319,2.319,0,0,0,2578.62531,1786.4535Z"/><path class="cls-9" d="M2594.404,1786.4535a2.31895,2.31895,0,1,0-2.31894-2.319A2.319,2.319,0,0,0,2594.404,1786.4535Z"/><path class="cls-9" d="M2610.18277,1786.4535a2.31895,2.31895,0,1,0-2.31895-2.319A2.319,2.319,0,0,0,2610.18277,1786.4535Z"/><path class="cls-9" d="M2625.96152,1786.4535a2.31895,2.31895,0,1,0-2.319-2.319A2.319,2.319,0,0,0,2625.96152,1786.4535Z"/><path class="cls-9" d="M2641.74024,1786.4535a2.31895,2.31895,0,1,0-2.31895-2.319A2.319,2.319,0,0,0,2641.74024,1786.4535Z"/><path class="cls-9" d="M2657.519,1786.4535a2.31895,2.31895,0,1,0-2.31894-2.319A2.319,2.319,0,0,0,2657.519,1786.4535Z"/><path class="cls-9" d="M2673.2977,1786.4535a2.31895,2.31895,0,1,0-2.31895-2.319A2.319,2.319,0,0,0,2673.2977,1786.4535Z"/><path class="cls-9" d="M2689.07645,1786.4535a2.31895,2.31895,0,1,0-2.31894-2.319A2.319,2.319,0,0,0,2689.07645,1786.4535Z"/><path class="cls-9" d="M2704.85516,1786.4535a2.31895,2.31895,0,1,0-2.31894-2.319A2.319,2.319,0,0,0,2704.85516,1786.4535Z"/><path class="cls-9" d="M2720.63391,1786.4535a2.31895,2.31895,0,1,0-2.31894-2.319A2.319,2.319,0,0,0,2720.63391,1786.4535Z"/><path class="cls-9" d="M2736.41262,1786.4535a2.31895,2.31895,0,1,0-2.31894-2.319A2.319,2.319,0,0,0,2736.41262,1786.4535Z"/><path class="cls-9" d="M2752.19137,1786.4535a2.31895,2.31895,0,1,0-2.31894-2.319A2.319,2.319,0,0,0,2752.19137,1786.4535Z"/><path class="cls-9" d="M2767.97012,1786.4535a2.31895,2.31895,0,1,0-2.319-2.319A2.319,2.319,0,0,0,2767.97012,1786.4535Z"/><path class="cls-9" d="M2783.74883,1786.4535a2.31895,2.31895,0,1,0-2.31894-2.319A2.319,2.319,0,0,0,2783.74883,1786.4535Z"/><path class="cls-9" d="M2799.52759,1786.4535a2.31895,2.31895,0,1,0-2.319-2.319A2.319,2.319,0,0,0,2799.52759,1786.4535Z"/><path class="cls-9" d="M2815.30629,1786.4535a2.31895,2.31895,0,1,0-2.31894-2.319A2.319,2.319,0,0,0,2815.30629,1786.4535Z"/><path class="cls-9" d="M2831.08505,1786.4535a2.31895,2.31895,0,1,0-2.319-2.319A2.319,2.319,0,0,0,2831.08505,1786.4535Z"/><path class="cls-9" d="M2846.86375,1786.4535a2.31895,2.31895,0,1,0-2.31894-2.319A2.319,2.319,0,0,0,2846.86375,1786.4535Z"/><path class="cls-9" d="M2294.60812,1802.23225a2.319,2.319,0,1,0-2.31894-2.319A2.319,2.319,0,0,0,2294.60812,1802.23225Z"/><path class="cls-9" d="M2310.38683,1802.23225a2.319,2.319,0,1,0-2.31894-2.319A2.319,2.319,0,0,0,2310.38683,1802.23225Z"/><path class="cls-9" d="M2326.16558,1802.23225a2.319,2.319,0,1,0-2.31893-2.319A2.319,2.319,0,0,0,2326.16558,1802.23225Z"/><path class="cls-9" d="M2341.94434,1802.23225a2.319,2.319,0,1,0-2.319-2.319A2.319,2.319,0,0,0,2341.94434,1802.23225Z"/><path class="cls-9" d="M2357.723,1802.23225a2.319,2.319,0,1,0-2.31894-2.319A2.319,2.319,0,0,0,2357.723,1802.23225Z"/><path class="cls-9" d="M2373.5018,1802.23225a2.319,2.319,0,1,0-2.31894-2.319A2.319,2.319,0,0,0,2373.5018,1802.23225Z"/><path class="cls-9" d="M2389.2805,1802.23225a2.319,2.319,0,1,0-2.31894-2.319A2.319,2.319,0,0,0,2389.2805,1802.23225Z"/><path class="cls-9" d="M2405.05926,1802.23225a2.319,2.319,0,1,0-2.31895-2.319A2.319,2.319,0,0,0,2405.05926,1802.23225Z"/><path class="cls-9" d="M2420.838,1802.23225a2.319,2.319,0,1,0-2.31894-2.319A2.319,2.319,0,0,0,2420.838,1802.23225Z"/><path class="cls-9" d="M2436.61672,1802.23225a2.319,2.319,0,1,0-2.31895-2.319A2.319,2.319,0,0,0,2436.61672,1802.23225Z"/><path class="cls-9" d="M2452.39543,1802.23225a2.319,2.319,0,1,0-2.31895-2.319A2.319,2.319,0,0,0,2452.39543,1802.23225Z"/><path class="cls-9" d="M2468.17417,1802.23225a2.319,2.319,0,1,0-2.31894-2.319A2.319,2.319,0,0,0,2468.17417,1802.23225Z"/><path class="cls-9" d="M2483.95293,1802.23225a2.319,2.319,0,1,0-2.319-2.319A2.319,2.319,0,0,0,2483.95293,1802.23225Z"/><path class="cls-9" d="M2499.73164,1802.23225a2.319,2.319,0,1,0-2.31895-2.319A2.319,2.319,0,0,0,2499.73164,1802.23225Z"/><path class="cls-9" d="M2515.51039,1802.23225a2.319,2.319,0,1,0-2.31894-2.319A2.319,2.319,0,0,0,2515.51039,1802.23225Z"/><path class="cls-9" d="M2531.28909,1802.23225a2.319,2.319,0,1,0-2.31894-2.319A2.319,2.319,0,0,0,2531.28909,1802.23225Z"/><path class="cls-9" d="M2547.06786,1802.23225a2.319,2.319,0,1,0-2.319-2.319A2.319,2.319,0,0,0,2547.06786,1802.23225Z"/><path class="cls-9" d="M2562.84655,1802.23225a2.319,2.319,0,1,0-2.31894-2.319A2.319,2.319,0,0,0,2562.84655,1802.23225Z"/><path class="cls-9" d="M2578.62531,1802.23225a2.319,2.319,0,1,0-2.31895-2.319A2.319,2.319,0,0,0,2578.62531,1802.23225Z"/><path class="cls-9" d="M2594.404,1802.23225a2.319,2.319,0,1,0-2.31894-2.319A2.319,2.319,0,0,0,2594.404,1802.23225Z"/><path class="cls-9" d="M2610.18277,1802.23225a2.319,2.319,0,1,0-2.31895-2.319A2.319,2.319,0,0,0,2610.18277,1802.23225Z"/><path class="cls-9" d="M2625.96152,1802.23225a2.319,2.319,0,1,0-2.319-2.319A2.319,2.319,0,0,0,2625.96152,1802.23225Z"/><path class="cls-9" d="M2641.74024,1802.23225a2.319,2.319,0,1,0-2.31895-2.319A2.319,2.319,0,0,0,2641.74024,1802.23225Z"/><path class="cls-9" d="M2657.519,1802.23225a2.319,2.319,0,1,0-2.31894-2.319A2.319,2.319,0,0,0,2657.519,1802.23225Z"/><path class="cls-9" d="M2673.2977,1802.23225a2.319,2.319,0,1,0-2.31895-2.319A2.319,2.319,0,0,0,2673.2977,1802.23225Z"/><path class="cls-9" d="M2689.07645,1802.23225a2.319,2.319,0,1,0-2.31894-2.319A2.319,2.319,0,0,0,2689.07645,1802.23225Z"/><path class="cls-9" d="M2704.85516,1802.23225a2.319,2.319,0,1,0-2.31894-2.319A2.319,2.319,0,0,0,2704.85516,1802.23225Z"/><path class="cls-9" d="M2720.63391,1802.23225a2.319,2.319,0,1,0-2.31894-2.319A2.319,2.319,0,0,0,2720.63391,1802.23225Z"/><path class="cls-9" d="M2736.41262,1802.23225a2.319,2.319,0,1,0-2.31894-2.319A2.319,2.319,0,0,0,2736.41262,1802.23225Z"/><path class="cls-9" d="M2752.19137,1802.23225a2.319,2.319,0,1,0-2.31894-2.319A2.319,2.319,0,0,0,2752.19137,1802.23225Z"/><path class="cls-9" d="M2767.97012,1802.23225a2.319,2.319,0,1,0-2.319-2.319A2.319,2.319,0,0,0,2767.97012,1802.23225Z"/><path class="cls-9" d="M2783.74883,1802.23225a2.319,2.319,0,1,0-2.31894-2.319A2.319,2.319,0,0,0,2783.74883,1802.23225Z"/><path class="cls-9" d="M2799.52759,1802.23225a2.319,2.319,0,1,0-2.319-2.319A2.319,2.319,0,0,0,2799.52759,1802.23225Z"/><path class="cls-9" d="M2815.30629,1802.23225a2.319,2.319,0,1,0-2.31894-2.319A2.319,2.319,0,0,0,2815.30629,1802.23225Z"/><path class="cls-9" d="M2831.08505,1802.23225a2.319,2.319,0,1,0-2.319-2.319A2.319,2.319,0,0,0,2831.08505,1802.23225Z"/><path class="cls-9" d="M2846.86375,1802.23225a2.319,2.319,0,1,0-2.31894-2.319A2.319,2.319,0,0,0,2846.86375,1802.23225Z"/><circle class="cls-9" cx="2294.60812" cy="1815.69201" r="2.31894"/><path class="cls-9" d="M2310.38683,1818.011a2.31894,2.31894,0,1,0-2.31894-2.31894A2.319,2.319,0,0,0,2310.38683,1818.011Z"/><circle class="cls-9" cx="2326.16558" cy="1815.69201" r="2.31894"/><path class="cls-9" d="M2341.94434,1818.011a2.31894,2.31894,0,1,0-2.319-2.31894A2.319,2.319,0,0,0,2341.94434,1818.011Z"/><circle class="cls-9" cx="2357.72304" cy="1815.69201" r="2.31894"/><circle class="cls-9" cx="2373.5018" cy="1815.69201" r="2.31894"/><circle class="cls-9" cx="2389.2805" cy="1815.69201" r="2.31894"/><circle class="cls-9" cx="2405.05926" cy="1815.69201" r="2.31894"/><circle class="cls-9" cx="2420.83796" cy="1815.69201" r="2.31894"/><circle class="cls-9" cx="2436.61672" cy="1815.69201" r="2.31894"/><path class="cls-9" d="M2452.39543,1818.011a2.31894,2.31894,0,1,0-2.31895-2.31894A2.319,2.319,0,0,0,2452.39543,1818.011Z"/><circle class="cls-9" cx="2468.17417" cy="1815.69201" r="2.31894"/><path class="cls-9" d="M2483.95293,1818.011a2.31894,2.31894,0,1,0-2.319-2.31894A2.319,2.319,0,0,0,2483.95293,1818.011Z"/><circle class="cls-9" cx="2499.73164" cy="1815.69201" r="2.31894"/><circle class="cls-9" cx="2515.51039" cy="1815.69201" r="2.31894"/><circle class="cls-9" cx="2531.28909" cy="1815.69201" r="2.31894"/><circle class="cls-9" cx="2547.06785" cy="1815.69201" r="2.31894"/><circle class="cls-9" cx="2562.84655" cy="1815.69201" r="2.31894"/><circle class="cls-9" cx="2578.62531" cy="1815.69201" r="2.31894"/><path class="cls-9" d="M2594.404,1818.011a2.31894,2.31894,0,1,0-2.31894-2.31894A2.319,2.319,0,0,0,2594.404,1818.011Z"/><circle class="cls-9" cx="2610.18277" cy="1815.69201" r="2.31894"/><path class="cls-9" d="M2625.96152,1818.011a2.31894,2.31894,0,1,0-2.319-2.31894A2.319,2.319,0,0,0,2625.96152,1818.011Z"/><circle class="cls-9" cx="2641.74024" cy="1815.69201" r="2.31894"/><circle class="cls-9" cx="2657.51899" cy="1815.69201" r="2.31894"/><circle class="cls-9" cx="2673.2977" cy="1815.69201" r="2.31894"/><circle class="cls-9" cx="2689.07645" cy="1815.69201" r="2.31894"/><circle class="cls-9" cx="2704.85516" cy="1815.69201" r="2.31894"/><circle class="cls-9" cx="2720.63391" cy="1815.69201" r="2.31894"/><path class="cls-9" d="M2736.41262,1818.011a2.31894,2.31894,0,1,0-2.31894-2.31894A2.319,2.319,0,0,0,2736.41262,1818.011Z"/><circle class="cls-9" cx="2752.19137" cy="1815.69201" r="2.31894"/><path class="cls-9" d="M2767.97012,1818.011a2.31894,2.31894,0,1,0-2.319-2.31894A2.319,2.319,0,0,0,2767.97012,1818.011Z"/><circle class="cls-9" cx="2783.74883" cy="1815.69201" r="2.31894"/><circle class="cls-9" cx="2799.52759" cy="1815.69201" r="2.31894"/><circle class="cls-9" cx="2815.30629" cy="1815.69201" r="2.31894"/><circle class="cls-9" cx="2831.08505" cy="1815.69201" r="2.31894"/><circle class="cls-9" cx="2846.86375" cy="1815.69201" r="2.31894"/></g><g class="cls-8"><circle class="cls-9" cx="2721.0894" cy="388.51799" r="2.87697"/><circle class="cls-9" cx="2740.66514" cy="388.51799" r="2.87697"/><circle class="cls-9" cx="2760.24082" cy="388.51799" r="2.87697"/><circle class="cls-9" cx="2779.81656" cy="388.51799" r="2.87697"/><path class="cls-9" d="M2799.39224,391.395a2.877,2.877,0,1,0-2.877-2.877A2.877,2.877,0,0,0,2799.39224,391.395Z"/><circle class="cls-9" cx="2818.96798" cy="388.51799" r="2.87697"/><path class="cls-9" d="M2838.54372,391.395a2.877,2.877,0,1,0-2.877-2.877A2.877,2.877,0,0,0,2838.54372,391.395Z"/><circle class="cls-9" cx="2858.1194" cy="388.51799" r="2.87697"/><path class="cls-9" d="M2721.0894,410.97069a2.877,2.877,0,1,0-2.877-2.877A2.877,2.877,0,0,0,2721.0894,410.97069Z"/><path class="cls-9" d="M2740.66514,410.97069a2.877,2.877,0,1,0-2.877-2.877A2.877,2.877,0,0,0,2740.66514,410.97069Z"/><path class="cls-9" d="M2760.24082,410.97069a2.877,2.877,0,1,0-2.877-2.877A2.877,2.877,0,0,0,2760.24082,410.97069Z"/><path class="cls-9" d="M2779.81656,410.97069a2.877,2.877,0,1,0-2.877-2.877A2.877,2.877,0,0,0,2779.81656,410.97069Z"/><path class="cls-9" d="M2799.39224,410.97069a2.877,2.877,0,1,0-2.877-2.877A2.87706,2.87706,0,0,0,2799.39224,410.97069Z"/><path class="cls-9" d="M2818.968,410.97069a2.877,2.877,0,1,0-2.877-2.877A2.877,2.877,0,0,0,2818.968,410.97069Z"/><path class="cls-9" d="M2838.54372,410.97069a2.877,2.877,0,1,0-2.877-2.877A2.877,2.877,0,0,0,2838.54372,410.97069Z"/><path class="cls-9" d="M2858.1194,410.97069a2.877,2.877,0,1,0-2.877-2.877A2.877,2.877,0,0,0,2858.1194,410.97069Z"/><circle class="cls-9" cx="2721.0894" cy="427.66941" r="2.87697"/><circle class="cls-9" cx="2740.66514" cy="427.66941" r="2.87697"/><circle class="cls-9" cx="2760.24082" cy="427.66941" r="2.87697"/><circle class="cls-9" cx="2779.81656" cy="427.66941" r="2.87697"/><path class="cls-9" d="M2799.39224,430.54638a2.877,2.877,0,1,0-2.877-2.877A2.877,2.877,0,0,0,2799.39224,430.54638Z"/><circle class="cls-9" cx="2818.96798" cy="427.66941" r="2.87697"/><path class="cls-9" d="M2838.54372,430.54638a2.877,2.877,0,1,0-2.877-2.877A2.877,2.877,0,0,0,2838.54372,430.54638Z"/><circle class="cls-9" cx="2858.1194" cy="427.66941" r="2.87697"/><circle class="cls-9" cx="2721.0894" cy="447.24514" r="2.87697"/><circle class="cls-9" cx="2740.66514" cy="447.24514" r="2.87697"/><circle class="cls-9" cx="2760.24082" cy="447.24514" r="2.87697"/><circle class="cls-9" cx="2779.81656" cy="447.24514" r="2.87697"/><path class="cls-9" d="M2799.39224,450.12212a2.877,2.877,0,1,0-2.877-2.877A2.877,2.877,0,0,0,2799.39224,450.12212Z"/><circle class="cls-9" cx="2818.96798" cy="447.24514" r="2.87697"/><path class="cls-9" d="M2838.54372,450.12212a2.877,2.877,0,1,0-2.877-2.877A2.877,2.877,0,0,0,2838.54372,450.12212Z"/><circle class="cls-9" cx="2858.1194" cy="447.24514" r="2.87697"/><circle class="cls-9" cx="2721.0894" cy="466.82083" r="2.87697"/><circle class="cls-9" cx="2740.66514" cy="466.82083" r="2.87697"/><circle class="cls-9" cx="2760.24082" cy="466.82083" r="2.87697"/><circle class="cls-9" cx="2779.81656" cy="466.82083" r="2.87697"/><path class="cls-9" d="M2799.39224,469.6978a2.877,2.877,0,1,0-2.877-2.877A2.877,2.877,0,0,0,2799.39224,469.6978Z"/><circle class="cls-9" cx="2818.96798" cy="466.82083" r="2.87697"/><path class="cls-9" d="M2838.54372,469.6978a2.877,2.877,0,1,0-2.877-2.877A2.877,2.877,0,0,0,2838.54372,469.6978Z"/><circle class="cls-9" cx="2858.1194" cy="466.82083" r="2.87697"/><circle class="cls-9" cx="2721.0894" cy="486.39656" r="2.87697"/><circle class="cls-9" cx="2740.66514" cy="486.39656" r="2.87697"/><circle class="cls-9" cx="2760.24082" cy="486.39656" r="2.87697"/><circle class="cls-9" cx="2779.81656" cy="486.39656" r="2.87697"/><path class="cls-9" d="M2799.39224,489.27354a2.877,2.877,0,1,0-2.877-2.877A2.877,2.877,0,0,0,2799.39224,489.27354Z"/><circle class="cls-9" cx="2818.96798" cy="486.39656" r="2.87697"/><path class="cls-9" d="M2838.54372,489.27354a2.877,2.877,0,1,0-2.877-2.877A2.877,2.877,0,0,0,2838.54372,489.27354Z"/><circle class="cls-9" cx="2858.1194" cy="486.39656" r="2.87697"/><circle class="cls-9" cx="2721.0894" cy="505.97225" r="2.87697"/><circle class="cls-9" cx="2740.66514" cy="505.97225" r="2.87697"/><circle class="cls-9" cx="2760.24082" cy="505.97225" r="2.87697"/><circle class="cls-9" cx="2779.81656" cy="505.97225" r="2.87697"/><path class="cls-9" d="M2799.39224,508.84922a2.877,2.877,0,1,0-2.877-2.877A2.877,2.877,0,0,0,2799.39224,508.84922Z"/><circle class="cls-9" cx="2818.96798" cy="505.97225" r="2.87697"/><path class="cls-9" d="M2838.54372,508.84922a2.877,2.877,0,1,0-2.877-2.877A2.877,2.877,0,0,0,2838.54372,508.84922Z"/><circle class="cls-9" cx="2858.1194" cy="505.97225" r="2.87697"/><circle class="cls-9" cx="2721.0894" cy="525.54798" r="2.87697"/><circle class="cls-9" cx="2740.66514" cy="525.54798" r="2.87697"/><circle class="cls-9" cx="2760.24082" cy="525.54798" r="2.87697"/><circle class="cls-9" cx="2779.81656" cy="525.54798" r="2.87697"/><path class="cls-9" d="M2799.39224,528.425a2.877,2.877,0,1,0-2.877-2.877A2.877,2.877,0,0,0,2799.39224,528.425Z"/><circle class="cls-9" cx="2818.96798" cy="525.54798" r="2.87697"/><path class="cls-9" d="M2838.54372,528.425a2.877,2.877,0,1,0-2.877-2.877A2.877,2.877,0,0,0,2838.54372,528.425Z"/><circle class="cls-9" cx="2858.1194" cy="525.54798" r="2.87697"/><path class="cls-9" d="M2721.0894,548.00069a2.877,2.877,0,1,0-2.877-2.877A2.877,2.877,0,0,0,2721.0894,548.00069Z"/><path class="cls-9" d="M2740.66514,548.00069a2.877,2.877,0,1,0-2.877-2.877A2.877,2.877,0,0,0,2740.66514,548.00069Z"/><path class="cls-9" d="M2760.24082,548.00069a2.877,2.877,0,1,0-2.877-2.877A2.877,2.877,0,0,0,2760.24082,548.00069Z"/><path class="cls-9" d="M2779.81656,548.00069a2.877,2.877,0,1,0-2.877-2.877A2.877,2.877,0,0,0,2779.81656,548.00069Z"/><path class="cls-9" d="M2799.39224,548.00069a2.877,2.877,0,1,0-2.877-2.877A2.87707,2.87707,0,0,0,2799.39224,548.00069Z"/><path class="cls-9" d="M2818.968,548.00069a2.877,2.877,0,1,0-2.877-2.877A2.877,2.877,0,0,0,2818.968,548.00069Z"/><path class="cls-9" d="M2838.54372,548.00069a2.877,2.877,0,1,0-2.877-2.877A2.87706,2.87706,0,0,0,2838.54372,548.00069Z"/><path class="cls-9" d="M2858.1194,548.00069a2.877,2.877,0,1,0-2.877-2.877A2.877,2.877,0,0,0,2858.1194,548.00069Z"/><circle class="cls-9" cx="2721.0894" cy="564.6994" r="2.87697"/><circle class="cls-9" cx="2740.66514" cy="564.6994" r="2.87697"/><circle class="cls-9" cx="2760.24082" cy="564.6994" r="2.87697"/><circle class="cls-9" cx="2779.81656" cy="564.6994" r="2.87697"/><path class="cls-9" d="M2799.39224,567.57638a2.877,2.877,0,1,0-2.877-2.877A2.877,2.877,0,0,0,2799.39224,567.57638Z"/><circle class="cls-9" cx="2818.96798" cy="564.6994" r="2.87697"/><path class="cls-9" d="M2838.54372,567.57638a2.877,2.877,0,1,0-2.877-2.877A2.877,2.877,0,0,0,2838.54372,567.57638Z"/><circle class="cls-9" cx="2858.1194" cy="564.6994" r="2.87697"/><path class="cls-9" d="M2721.0894,587.15211a2.877,2.877,0,1,0-2.877-2.877A2.877,2.877,0,0,0,2721.0894,587.15211Z"/><path class="cls-9" d="M2740.66514,587.15211a2.877,2.877,0,1,0-2.877-2.877A2.877,2.877,0,0,0,2740.66514,587.15211Z"/><path class="cls-9" d="M2760.24082,587.15211a2.877,2.877,0,1,0-2.877-2.877A2.877,2.877,0,0,0,2760.24082,587.15211Z"/><path class="cls-9" d="M2779.81656,587.15211a2.877,2.877,0,1,0-2.877-2.877A2.877,2.877,0,0,0,2779.81656,587.15211Z"/><path class="cls-9" d="M2799.39224,587.15211a2.877,2.877,0,1,0-2.877-2.877A2.87706,2.87706,0,0,0,2799.39224,587.15211Z"/><path class="cls-9" d="M2818.968,587.15211a2.877,2.877,0,1,0-2.877-2.877A2.877,2.877,0,0,0,2818.968,587.15211Z"/><path class="cls-9" d="M2838.54372,587.15211a2.877,2.877,0,1,0-2.877-2.877A2.877,2.877,0,0,0,2838.54372,587.15211Z"/><path class="cls-9" d="M2858.1194,587.15211a2.877,2.877,0,1,0-2.877-2.877A2.877,2.877,0,0,0,2858.1194,587.15211Z"/><circle class="cls-9" cx="2721.0894" cy="603.85083" r="2.87697"/><circle class="cls-9" cx="2740.66514" cy="603.85083" r="2.87697"/><circle class="cls-9" cx="2760.24082" cy="603.85083" r="2.87697"/><circle class="cls-9" cx="2779.81656" cy="603.85083" r="2.87697"/><path class="cls-9" d="M2799.39224,606.7278a2.877,2.877,0,1,0-2.877-2.877A2.877,2.877,0,0,0,2799.39224,606.7278Z"/><circle class="cls-9" cx="2818.96798" cy="603.85083" r="2.87697"/><path class="cls-9" d="M2838.54372,606.7278a2.877,2.877,0,1,0-2.877-2.877A2.877,2.877,0,0,0,2838.54372,606.7278Z"/><circle class="cls-9" cx="2858.1194" cy="603.85083" r="2.87697"/><path class="cls-9" d="M2721.0894,626.30353a2.877,2.877,0,1,0-2.877-2.877A2.877,2.877,0,0,0,2721.0894,626.30353Z"/><path class="cls-9" d="M2740.66514,626.30353a2.877,2.877,0,1,0-2.877-2.877A2.877,2.877,0,0,0,2740.66514,626.30353Z"/><path class="cls-9" d="M2760.24082,626.30353a2.877,2.877,0,1,0-2.877-2.877A2.877,2.877,0,0,0,2760.24082,626.30353Z"/><path class="cls-9" d="M2779.81656,626.30353a2.877,2.877,0,1,0-2.877-2.877A2.877,2.877,0,0,0,2779.81656,626.30353Z"/><path class="cls-9" d="M2799.39224,626.30353a2.877,2.877,0,1,0-2.877-2.877A2.87706,2.87706,0,0,0,2799.39224,626.30353Z"/><path class="cls-9" d="M2818.968,626.30353a2.877,2.877,0,1,0-2.877-2.877A2.877,2.877,0,0,0,2818.968,626.30353Z"/><path class="cls-9" d="M2838.54372,626.30353a2.877,2.877,0,1,0-2.877-2.877A2.877,2.877,0,0,0,2838.54372,626.30353Z"/><path class="cls-9" d="M2858.1194,626.30353a2.877,2.877,0,1,0-2.877-2.877A2.877,2.877,0,0,0,2858.1194,626.30353Z"/><circle class="cls-9" cx="2721.0894" cy="643.00226" r="2.87697"/><circle class="cls-9" cx="2740.66514" cy="643.00226" r="2.87697"/><circle class="cls-9" cx="2760.24082" cy="643.00226" r="2.87697"/><circle class="cls-9" cx="2779.81656" cy="643.00226" r="2.87697"/><path class="cls-9" d="M2799.39224,645.87922a2.877,2.877,0,1,0-2.877-2.877A2.877,2.877,0,0,0,2799.39224,645.87922Z"/><circle class="cls-9" cx="2818.96798" cy="643.00226" r="2.87697"/><path class="cls-9" d="M2838.54372,645.87922a2.877,2.877,0,1,0-2.877-2.877A2.877,2.877,0,0,0,2838.54372,645.87922Z"/><circle class="cls-9" cx="2858.1194" cy="643.00226" r="2.87697"/><circle class="cls-9" cx="2721.0894" cy="662.578" r="2.87697"/><circle class="cls-9" cx="2740.66514" cy="662.578" r="2.87697"/><circle class="cls-9" cx="2760.24082" cy="662.578" r="2.87697"/><circle class="cls-9" cx="2779.81656" cy="662.578" r="2.87697"/><path class="cls-9" d="M2799.39224,665.455a2.877,2.877,0,1,0-2.877-2.877A2.877,2.877,0,0,0,2799.39224,665.455Z"/><circle class="cls-9" cx="2818.96798" cy="662.578" r="2.87697"/><path class="cls-9" d="M2838.54372,665.455a2.877,2.877,0,1,0-2.877-2.877A2.877,2.877,0,0,0,2838.54372,665.455Z"/><circle class="cls-9" cx="2858.1194" cy="662.578" r="2.87697"/><circle class="cls-9" cx="2721.0894" cy="682.15368" r="2.87697"/><circle class="cls-9" cx="2740.66514" cy="682.15368" r="2.87697"/><circle class="cls-9" cx="2760.24082" cy="682.15368" r="2.87697"/><circle class="cls-9" cx="2779.81656" cy="682.15368" r="2.87697"/><path class="cls-9" d="M2799.39224,685.03065a2.877,2.877,0,1,0-2.877-2.877A2.877,2.877,0,0,0,2799.39224,685.03065Z"/><circle class="cls-9" cx="2818.96798" cy="682.15368" r="2.87697"/><path class="cls-9" d="M2838.54372,685.03065a2.877,2.877,0,1,0-2.877-2.877A2.877,2.877,0,0,0,2838.54372,685.03065Z"/><circle class="cls-9" cx="2858.1194" cy="682.15368" r="2.87697"/><circle class="cls-9" cx="2721.0894" cy="701.72941" r="2.87697"/><circle class="cls-9" cx="2740.66514" cy="701.72941" r="2.87697"/><circle class="cls-9" cx="2760.24082" cy="701.72941" r="2.87697"/><circle class="cls-9" cx="2779.81656" cy="701.72941" r="2.87697"/><path class="cls-9" d="M2799.39224,704.60638a2.877,2.877,0,1,0-2.877-2.877A2.877,2.877,0,0,0,2799.39224,704.60638Z"/><circle class="cls-9" cx="2818.96798" cy="701.72941" r="2.87697"/><path class="cls-9" d="M2838.54372,704.60638a2.877,2.877,0,1,0-2.877-2.877A2.877,2.877,0,0,0,2838.54372,704.60638Z"/><circle class="cls-9" cx="2858.1194" cy="701.72941" r="2.87697"/><circle class="cls-9" cx="2721.0894" cy="721.30509" r="2.87698"/><circle class="cls-9" cx="2740.66514" cy="721.30509" r="2.87698"/><circle class="cls-9" cx="2760.24082" cy="721.30509" r="2.87698"/><circle class="cls-9" cx="2779.81656" cy="721.30509" r="2.87698"/><path class="cls-9" d="M2799.39224,724.18207a2.877,2.877,0,1,0-2.877-2.877A2.877,2.877,0,0,0,2799.39224,724.18207Z"/><circle class="cls-9" cx="2818.96798" cy="721.30509" r="2.87698"/><path class="cls-9" d="M2838.54372,724.18207a2.877,2.877,0,1,0-2.877-2.877A2.877,2.877,0,0,0,2838.54372,724.18207Z"/><circle class="cls-9" cx="2858.1194" cy="721.30509" r="2.87698"/><circle class="cls-9" cx="2721.0894" cy="740.88084" r="2.87697"/><circle class="cls-9" cx="2740.66514" cy="740.88084" r="2.87697"/><circle class="cls-9" cx="2760.24082" cy="740.88084" r="2.87697"/><circle class="cls-9" cx="2779.81656" cy="740.88084" r="2.87697"/><path class="cls-9" d="M2799.39224,743.75781a2.877,2.877,0,1,0-2.877-2.877A2.877,2.877,0,0,0,2799.39224,743.75781Z"/><circle class="cls-9" cx="2818.96798" cy="740.88084" r="2.87697"/><path class="cls-9" d="M2838.54372,743.75781a2.877,2.877,0,1,0-2.877-2.877A2.877,2.877,0,0,0,2838.54372,743.75781Z"/><circle class="cls-9" cx="2858.1194" cy="740.88084" r="2.87697"/><path class="cls-9" d="M2721.0894,763.33353a2.877,2.877,0,1,0-2.877-2.877A2.877,2.877,0,0,0,2721.0894,763.33353Z"/><path class="cls-9" d="M2740.66514,763.33353a2.877,2.877,0,1,0-2.877-2.877A2.877,2.877,0,0,0,2740.66514,763.33353Z"/><path class="cls-9" d="M2760.24082,763.33353a2.877,2.877,0,1,0-2.877-2.877A2.877,2.877,0,0,0,2760.24082,763.33353Z"/><path class="cls-9" d="M2779.81656,763.33353a2.877,2.877,0,1,0-2.877-2.877A2.877,2.877,0,0,0,2779.81656,763.33353Z"/><path class="cls-9" d="M2799.39224,763.33353a2.877,2.877,0,1,0-2.877-2.877A2.87706,2.87706,0,0,0,2799.39224,763.33353Z"/><path class="cls-9" d="M2818.968,763.33353a2.877,2.877,0,1,0-2.877-2.877A2.877,2.877,0,0,0,2818.968,763.33353Z"/><path class="cls-9" d="M2838.54372,763.33353a2.877,2.877,0,1,0-2.877-2.877A2.87705,2.87705,0,0,0,2838.54372,763.33353Z"/><path class="cls-9" d="M2858.1194,763.33353a2.877,2.877,0,1,0-2.877-2.877A2.877,2.877,0,0,0,2858.1194,763.33353Z"/><circle class="cls-9" cx="2721.0894" cy="780.03225" r="2.87697"/><circle class="cls-9" cx="2740.66514" cy="780.03225" r="2.87697"/><circle class="cls-9" cx="2760.24082" cy="780.03225" r="2.87697"/><circle class="cls-9" cx="2779.81656" cy="780.03225" r="2.87697"/><path class="cls-9" d="M2799.39224,782.90923a2.877,2.877,0,1,0-2.877-2.877A2.877,2.877,0,0,0,2799.39224,782.90923Z"/><circle class="cls-9" cx="2818.96798" cy="780.03225" r="2.87697"/><path class="cls-9" d="M2838.54372,782.90923a2.877,2.877,0,1,0-2.877-2.877A2.877,2.877,0,0,0,2838.54372,782.90923Z"/><circle class="cls-9" cx="2858.1194" cy="780.03225" r="2.87697"/><path class="cls-9" d="M2721.0894,802.485a2.877,2.877,0,1,0-2.877-2.877A2.877,2.877,0,0,0,2721.0894,802.485Z"/><path class="cls-9" d="M2740.66514,802.485a2.877,2.877,0,1,0-2.877-2.877A2.877,2.877,0,0,0,2740.66514,802.485Z"/><path class="cls-9" d="M2760.24082,802.485a2.877,2.877,0,1,0-2.877-2.877A2.877,2.877,0,0,0,2760.24082,802.485Z"/><path class="cls-9" d="M2779.81656,802.485a2.877,2.877,0,1,0-2.877-2.877A2.877,2.877,0,0,0,2779.81656,802.485Z"/><path class="cls-9" d="M2799.39224,802.485a2.877,2.877,0,1,0-2.877-2.877A2.87709,2.87709,0,0,0,2799.39224,802.485Z"/><path class="cls-9" d="M2818.968,802.485a2.877,2.877,0,1,0-2.877-2.877A2.877,2.877,0,0,0,2818.968,802.485Z"/><path class="cls-9" d="M2838.54372,802.485a2.877,2.877,0,1,0-2.877-2.877A2.87707,2.87707,0,0,0,2838.54372,802.485Z"/><path class="cls-9" d="M2858.1194,802.485a2.877,2.877,0,1,0-2.877-2.877A2.877,2.877,0,0,0,2858.1194,802.485Z"/></g><g class="cls-8"><circle class="cls-9" cx="1221.85833" cy="623.42651" r="2.87697"/><circle class="cls-9" cx="1241.43407" cy="623.42651" r="2.87697"/><circle class="cls-9" cx="1261.00975" cy="623.42651" r="2.87697"/><circle class="cls-9" cx="1280.58549" cy="623.42651" r="2.87697"/><path class="cls-9" d="M1300.16117,626.30348a2.877,2.877,0,1,0-2.877-2.877A2.877,2.877,0,0,0,1300.16117,626.30348Z"/><circle class="cls-9" cx="1319.73691" cy="623.42651" r="2.87697"/><path class="cls-9" d="M1339.31265,626.30348a2.877,2.877,0,1,0-2.877-2.877A2.877,2.877,0,0,0,1339.31265,626.30348Z"/><circle class="cls-9" cx="1358.88833" cy="623.42651" r="2.87697"/><path class="cls-9" d="M1221.85833,645.87922a2.877,2.877,0,1,0-2.877-2.877A2.877,2.877,0,0,0,1221.85833,645.87922Z"/><path class="cls-9" d="M1241.43407,645.87922a2.877,2.877,0,1,0-2.877-2.877A2.877,2.877,0,0,0,1241.43407,645.87922Z"/><path class="cls-9" d="M1261.00975,645.87922a2.877,2.877,0,1,0-2.877-2.877A2.877,2.877,0,0,0,1261.00975,645.87922Z"/><path class="cls-9" d="M1280.58549,645.87922a2.877,2.877,0,1,0-2.877-2.877A2.877,2.877,0,0,0,1280.58549,645.87922Z"/><path class="cls-9" d="M1300.16117,645.87922a2.877,2.877,0,1,0-2.877-2.877A2.87707,2.87707,0,0,0,1300.16117,645.87922Z"/><path class="cls-9" d="M1319.73691,645.87922a2.877,2.877,0,1,0-2.877-2.877A2.877,2.877,0,0,0,1319.73691,645.87922Z"/><path class="cls-9" d="M1339.31265,645.87922a2.877,2.877,0,1,0-2.877-2.877A2.87706,2.87706,0,0,0,1339.31265,645.87922Z"/><path class="cls-9" d="M1358.88833,645.87922a2.877,2.877,0,1,0-2.877-2.877A2.877,2.877,0,0,0,1358.88833,645.87922Z"/><circle class="cls-9" cx="1221.85833" cy="662.57793" r="2.87697"/><circle class="cls-9" cx="1241.43407" cy="662.57793" r="2.87697"/><circle class="cls-9" cx="1261.00975" cy="662.57793" r="2.87697"/><circle class="cls-9" cx="1280.58549" cy="662.57793" r="2.87697"/><path class="cls-9" d="M1300.16117,665.4549a2.877,2.877,0,1,0-2.877-2.877A2.877,2.877,0,0,0,1300.16117,665.4549Z"/><circle class="cls-9" cx="1319.73691" cy="662.57793" r="2.87697"/><path class="cls-9" d="M1339.31265,665.4549a2.877,2.877,0,1,0-2.877-2.877A2.877,2.877,0,0,0,1339.31265,665.4549Z"/><circle class="cls-9" cx="1358.88833" cy="662.57793" r="2.87697"/><circle class="cls-9" cx="1221.85833" cy="682.15367" r="2.87697"/><circle class="cls-9" cx="1241.43407" cy="682.15367" r="2.87697"/><circle class="cls-9" cx="1261.00975" cy="682.15367" r="2.87697"/><circle class="cls-9" cx="1280.58549" cy="682.15367" r="2.87697"/><path class="cls-9" d="M1300.16117,685.03064a2.877,2.877,0,1,0-2.877-2.877A2.877,2.877,0,0,0,1300.16117,685.03064Z"/><circle class="cls-9" cx="1319.73691" cy="682.15367" r="2.87697"/><path class="cls-9" d="M1339.31265,685.03064a2.877,2.877,0,1,0-2.877-2.877A2.877,2.877,0,0,0,1339.31265,685.03064Z"/><circle class="cls-9" cx="1358.88833" cy="682.15367" r="2.87697"/><circle class="cls-9" cx="1221.85833" cy="701.72935" r="2.87697"/><circle class="cls-9" cx="1241.43407" cy="701.72935" r="2.87697"/><circle class="cls-9" cx="1261.00975" cy="701.72935" r="2.87697"/><circle class="cls-9" cx="1280.58549" cy="701.72935" r="2.87697"/><path class="cls-9" d="M1300.16117,704.60632a2.877,2.877,0,1,0-2.877-2.877A2.877,2.877,0,0,0,1300.16117,704.60632Z"/><circle class="cls-9" cx="1319.73691" cy="701.72935" r="2.87697"/><path class="cls-9" d="M1339.31265,704.60632a2.877,2.877,0,1,0-2.877-2.877A2.877,2.877,0,0,0,1339.31265,704.60632Z"/><circle class="cls-9" cx="1358.88833" cy="701.72935" r="2.87697"/><circle class="cls-9" cx="1221.85833" cy="721.30509" r="2.87697"/><circle class="cls-9" cx="1241.43407" cy="721.30509" r="2.87697"/><circle class="cls-9" cx="1261.00975" cy="721.30509" r="2.87697"/><circle class="cls-9" cx="1280.58549" cy="721.30509" r="2.87697"/><path class="cls-9" d="M1300.16117,724.18206a2.877,2.877,0,1,0-2.877-2.877A2.877,2.877,0,0,0,1300.16117,724.18206Z"/><circle class="cls-9" cx="1319.73691" cy="721.30509" r="2.87697"/><path class="cls-9" d="M1339.31265,724.18206a2.877,2.877,0,1,0-2.877-2.877A2.877,2.877,0,0,0,1339.31265,724.18206Z"/><circle class="cls-9" cx="1358.88833" cy="721.30509" r="2.87697"/><circle class="cls-9" cx="1221.85833" cy="740.88077" r="2.87697"/><circle class="cls-9" cx="1241.43407" cy="740.88077" r="2.87697"/><circle class="cls-9" cx="1261.00975" cy="740.88077" r="2.87697"/><circle class="cls-9" cx="1280.58549" cy="740.88077" r="2.87697"/><path class="cls-9" d="M1300.16117,743.75774a2.877,2.877,0,1,0-2.877-2.877A2.877,2.877,0,0,0,1300.16117,743.75774Z"/><circle class="cls-9" cx="1319.73691" cy="740.88077" r="2.87697"/><path class="cls-9" d="M1339.31265,743.75774a2.877,2.877,0,1,0-2.877-2.877A2.877,2.877,0,0,0,1339.31265,743.75774Z"/><circle class="cls-9" cx="1358.88833" cy="740.88077" r="2.87697"/><circle class="cls-9" cx="1221.85833" cy="760.45651" r="2.87697"/><circle class="cls-9" cx="1241.43407" cy="760.45651" r="2.87697"/><circle class="cls-9" cx="1261.00975" cy="760.45651" r="2.87697"/><circle class="cls-9" cx="1280.58549" cy="760.45651" r="2.87697"/><path class="cls-9" d="M1300.16117,763.33348a2.877,2.877,0,1,0-2.877-2.877A2.877,2.877,0,0,0,1300.16117,763.33348Z"/><circle class="cls-9" cx="1319.73691" cy="760.45651" r="2.87697"/><path class="cls-9" d="M1339.31265,763.33348a2.877,2.877,0,1,0-2.877-2.877A2.877,2.877,0,0,0,1339.31265,763.33348Z"/><circle class="cls-9" cx="1358.88833" cy="760.45651" r="2.87697"/><path class="cls-9" d="M1221.85833,782.90922a2.877,2.877,0,1,0-2.877-2.877A2.877,2.877,0,0,0,1221.85833,782.90922Z"/><path class="cls-9" d="M1241.43407,782.90922a2.877,2.877,0,1,0-2.877-2.877A2.877,2.877,0,0,0,1241.43407,782.90922Z"/><path class="cls-9" d="M1261.00975,782.90922a2.877,2.877,0,1,0-2.877-2.877A2.877,2.877,0,0,0,1261.00975,782.90922Z"/><path class="cls-9" d="M1280.58549,782.90922a2.877,2.877,0,1,0-2.877-2.877A2.877,2.877,0,0,0,1280.58549,782.90922Z"/><path class="cls-9" d="M1300.16117,782.90922a2.877,2.877,0,1,0-2.877-2.877A2.87708,2.87708,0,0,0,1300.16117,782.90922Z"/><path class="cls-9" d="M1319.73691,782.90922a2.877,2.877,0,1,0-2.877-2.877A2.877,2.877,0,0,0,1319.73691,782.90922Z"/><path class="cls-9" d="M1339.31265,782.90922a2.877,2.877,0,1,0-2.877-2.877A2.87707,2.87707,0,0,0,1339.31265,782.90922Z"/><path class="cls-9" d="M1358.88833,782.90922a2.877,2.877,0,1,0-2.877-2.877A2.877,2.877,0,0,0,1358.88833,782.90922Z"/><circle class="cls-9" cx="1221.85833" cy="799.60793" r="2.87697"/><circle class="cls-9" cx="1241.43407" cy="799.60793" r="2.87697"/><circle class="cls-9" cx="1261.00975" cy="799.60793" r="2.87697"/><circle class="cls-9" cx="1280.58549" cy="799.60793" r="2.87697"/><path class="cls-9" d="M1300.16117,802.4849a2.877,2.877,0,1,0-2.877-2.877A2.877,2.877,0,0,0,1300.16117,802.4849Z"/><circle class="cls-9" cx="1319.73691" cy="799.60793" r="2.87697"/><path class="cls-9" d="M1339.31265,802.4849a2.877,2.877,0,1,0-2.877-2.877A2.877,2.877,0,0,0,1339.31265,802.4849Z"/><circle class="cls-9" cx="1358.88833" cy="799.60793" r="2.87697"/><path class="cls-9" d="M1221.85833,822.06064a2.877,2.877,0,1,0-2.877-2.877A2.877,2.877,0,0,0,1221.85833,822.06064Z"/><path class="cls-9" d="M1241.43407,822.06064a2.877,2.877,0,1,0-2.877-2.877A2.877,2.877,0,0,0,1241.43407,822.06064Z"/><path class="cls-9" d="M1261.00975,822.06064a2.877,2.877,0,1,0-2.877-2.877A2.877,2.877,0,0,0,1261.00975,822.06064Z"/><path class="cls-9" d="M1280.58549,822.06064a2.877,2.877,0,1,0-2.877-2.877A2.877,2.877,0,0,0,1280.58549,822.06064Z"/><path class="cls-9" d="M1300.16117,822.06064a2.877,2.877,0,1,0-2.877-2.877A2.87707,2.87707,0,0,0,1300.16117,822.06064Z"/><path class="cls-9" d="M1319.73691,822.06064a2.877,2.877,0,1,0-2.877-2.877A2.877,2.877,0,0,0,1319.73691,822.06064Z"/><path class="cls-9" d="M1339.31265,822.06064a2.877,2.877,0,1,0-2.877-2.877A2.87706,2.87706,0,0,0,1339.31265,822.06064Z"/><path class="cls-9" d="M1358.88833,822.06064a2.877,2.877,0,1,0-2.877-2.877A2.877,2.877,0,0,0,1358.88833,822.06064Z"/><circle class="cls-9" cx="1221.85833" cy="838.75935" r="2.87697"/><circle class="cls-9" cx="1241.43407" cy="838.75935" r="2.87697"/><circle class="cls-9" cx="1261.00975" cy="838.75935" r="2.87697"/><circle class="cls-9" cx="1280.58549" cy="838.75935" r="2.87697"/><path class="cls-9" d="M1300.16117,841.63632a2.877,2.877,0,1,0-2.877-2.877A2.877,2.877,0,0,0,1300.16117,841.63632Z"/><circle class="cls-9" cx="1319.73691" cy="838.75935" r="2.87697"/><path class="cls-9" d="M1339.31265,841.63632a2.877,2.877,0,1,0-2.877-2.877A2.877,2.877,0,0,0,1339.31265,841.63632Z"/><circle class="cls-9" cx="1358.88833" cy="838.75935" r="2.87697"/><path class="cls-9" d="M1221.85833,861.21206a2.877,2.877,0,1,0-2.877-2.877A2.877,2.877,0,0,0,1221.85833,861.21206Z"/><path class="cls-9" d="M1241.43407,861.21206a2.877,2.877,0,1,0-2.877-2.877A2.877,2.877,0,0,0,1241.43407,861.21206Z"/><path class="cls-9" d="M1261.00975,861.21206a2.877,2.877,0,1,0-2.877-2.877A2.877,2.877,0,0,0,1261.00975,861.21206Z"/><path class="cls-9" d="M1280.58549,861.21206a2.877,2.877,0,1,0-2.877-2.877A2.877,2.877,0,0,0,1280.58549,861.21206Z"/><path class="cls-9" d="M1300.16117,861.21206a2.877,2.877,0,1,0-2.877-2.877A2.87707,2.87707,0,0,0,1300.16117,861.21206Z"/><path class="cls-9" d="M1319.73691,861.21206a2.877,2.877,0,1,0-2.877-2.877A2.877,2.877,0,0,0,1319.73691,861.21206Z"/><path class="cls-9" d="M1339.31265,861.21206a2.877,2.877,0,1,0-2.877-2.877A2.87706,2.87706,0,0,0,1339.31265,861.21206Z"/><path class="cls-9" d="M1358.88833,861.21206a2.877,2.877,0,1,0-2.877-2.877A2.877,2.877,0,0,0,1358.88833,861.21206Z"/><circle class="cls-9" cx="1221.85833" cy="877.91078" r="2.87697"/><circle class="cls-9" cx="1241.43407" cy="877.91078" r="2.87697"/><circle class="cls-9" cx="1261.00975" cy="877.91078" r="2.87697"/><circle class="cls-9" cx="1280.58549" cy="877.91078" r="2.87697"/><path class="cls-9" d="M1300.16117,880.78774a2.877,2.877,0,1,0-2.877-2.877A2.877,2.877,0,0,0,1300.16117,880.78774Z"/><circle class="cls-9" cx="1319.73691" cy="877.91078" r="2.87697"/><path class="cls-9" d="M1339.31265,880.78774a2.877,2.877,0,1,0-2.877-2.877A2.877,2.877,0,0,0,1339.31265,880.78774Z"/><circle class="cls-9" cx="1358.88833" cy="877.91078" r="2.87697"/><circle class="cls-9" cx="1221.85833" cy="897.48652" r="2.87697"/><circle class="cls-9" cx="1241.43407" cy="897.48652" r="2.87697"/><circle class="cls-9" cx="1261.00975" cy="897.48652" r="2.87697"/><circle class="cls-9" cx="1280.58549" cy="897.48652" r="2.87697"/><path class="cls-9" d="M1300.16117,900.36349a2.877,2.877,0,1,0-2.877-2.877A2.877,2.877,0,0,0,1300.16117,900.36349Z"/><circle class="cls-9" cx="1319.73691" cy="897.48652" r="2.87697"/><path class="cls-9" d="M1339.31265,900.36349a2.877,2.877,0,1,0-2.877-2.877A2.877,2.877,0,0,0,1339.31265,900.36349Z"/><circle class="cls-9" cx="1358.88833" cy="897.48652" r="2.87697"/><circle class="cls-9" cx="1221.85833" cy="917.0622" r="2.87697"/><circle class="cls-9" cx="1241.43407" cy="917.0622" r="2.87697"/><circle class="cls-9" cx="1261.00975" cy="917.0622" r="2.87697"/><circle class="cls-9" cx="1280.58549" cy="917.0622" r="2.87697"/><path class="cls-9" d="M1300.16117,919.93917a2.877,2.877,0,1,0-2.877-2.877A2.877,2.877,0,0,0,1300.16117,919.93917Z"/><circle class="cls-9" cx="1319.73691" cy="917.0622" r="2.87697"/><path class="cls-9" d="M1339.31265,919.93917a2.877,2.877,0,1,0-2.877-2.877A2.877,2.877,0,0,0,1339.31265,919.93917Z"/><circle class="cls-9" cx="1358.88833" cy="917.0622" r="2.87697"/><circle class="cls-9" cx="1221.85833" cy="936.63794" r="2.87697"/><circle class="cls-9" cx="1241.43407" cy="936.63794" r="2.87697"/><circle class="cls-9" cx="1261.00975" cy="936.63794" r="2.87697"/><circle class="cls-9" cx="1280.58549" cy="936.63794" r="2.87697"/><path class="cls-9" d="M1300.16117,939.5149a2.877,2.877,0,1,0-2.877-2.877A2.877,2.877,0,0,0,1300.16117,939.5149Z"/><circle class="cls-9" cx="1319.73691" cy="936.63794" r="2.87697"/><path class="cls-9" d="M1339.31265,939.5149a2.877,2.877,0,1,0-2.877-2.877A2.877,2.877,0,0,0,1339.31265,939.5149Z"/><circle class="cls-9" cx="1358.88833" cy="936.63794" r="2.87697"/><circle class="cls-9" cx="1221.85833" cy="956.21362" r="2.87698"/><circle class="cls-9" cx="1241.43407" cy="956.21362" r="2.87698"/><circle class="cls-9" cx="1261.00975" cy="956.21362" r="2.87698"/><circle class="cls-9" cx="1280.58549" cy="956.21362" r="2.87698"/><path class="cls-9" d="M1300.16117,959.09059a2.877,2.877,0,1,0-2.877-2.877A2.877,2.877,0,0,0,1300.16117,959.09059Z"/><circle class="cls-9" cx="1319.73691" cy="956.21362" r="2.87698"/><path class="cls-9" d="M1339.31265,959.09059a2.877,2.877,0,1,0-2.877-2.877A2.877,2.877,0,0,0,1339.31265,959.09059Z"/><circle class="cls-9" cx="1358.88833" cy="956.21362" r="2.87698"/><circle class="cls-9" cx="1221.85833" cy="975.78936" r="2.87697"/><circle class="cls-9" cx="1241.43407" cy="975.78936" r="2.87697"/><circle class="cls-9" cx="1261.00975" cy="975.78936" r="2.87697"/><circle class="cls-9" cx="1280.58549" cy="975.78936" r="2.87697"/><path class="cls-9" d="M1300.16117,978.66633a2.877,2.877,0,1,0-2.877-2.877A2.877,2.877,0,0,0,1300.16117,978.66633Z"/><circle class="cls-9" cx="1319.73691" cy="975.78936" r="2.87697"/><path class="cls-9" d="M1339.31265,978.66633a2.877,2.877,0,1,0-2.877-2.877A2.877,2.877,0,0,0,1339.31265,978.66633Z"/><circle class="cls-9" cx="1358.88833" cy="975.78936" r="2.87697"/><path class="cls-9" d="M1221.85833,998.24206a2.877,2.877,0,1,0-2.877-2.877A2.877,2.877,0,0,0,1221.85833,998.24206Z"/><path class="cls-9" d="M1241.43407,998.24206a2.877,2.877,0,1,0-2.877-2.877A2.877,2.877,0,0,0,1241.43407,998.24206Z"/><path class="cls-9" d="M1261.00975,998.24206a2.877,2.877,0,1,0-2.877-2.877A2.877,2.877,0,0,0,1261.00975,998.24206Z"/><path class="cls-9" d="M1280.58549,998.24206a2.877,2.877,0,1,0-2.877-2.877A2.877,2.877,0,0,0,1280.58549,998.24206Z"/><path class="cls-9" d="M1300.16117,998.24206a2.877,2.877,0,1,0-2.877-2.877A2.87707,2.87707,0,0,0,1300.16117,998.24206Z"/><path class="cls-9" d="M1319.73691,998.24206a2.877,2.877,0,1,0-2.877-2.877A2.877,2.877,0,0,0,1319.73691,998.24206Z"/><path class="cls-9" d="M1339.31265,998.24206a2.877,2.877,0,1,0-2.877-2.877A2.87706,2.87706,0,0,0,1339.31265,998.24206Z"/><path class="cls-9" d="M1358.88833,998.24206a2.877,2.877,0,1,0-2.877-2.877A2.877,2.877,0,0,0,1358.88833,998.24206Z"/><circle class="cls-9" cx="1221.85833" cy="1014.94077" r="2.87697"/><circle class="cls-9" cx="1241.43407" cy="1014.94077" r="2.87697"/><circle class="cls-9" cx="1261.00975" cy="1014.94077" r="2.87697"/><circle class="cls-9" cx="1280.58549" cy="1014.94077" r="2.87697"/><path class="cls-9" d="M1300.16117,1017.81775a2.877,2.877,0,1,0-2.877-2.877A2.877,2.877,0,0,0,1300.16117,1017.81775Z"/><circle class="cls-9" cx="1319.73691" cy="1014.94077" r="2.87697"/><path class="cls-9" d="M1339.31265,1017.81775a2.877,2.877,0,1,0-2.877-2.877A2.877,2.877,0,0,0,1339.31265,1017.81775Z"/><circle class="cls-9" cx="1358.88833" cy="1014.94077" r="2.87697"/><path class="cls-9" d="M1221.85833,1037.39349a2.877,2.877,0,1,0-2.877-2.877A2.877,2.877,0,0,0,1221.85833,1037.39349Z"/><path class="cls-9" d="M1241.43407,1037.39349a2.877,2.877,0,1,0-2.877-2.877A2.877,2.877,0,0,0,1241.43407,1037.39349Z"/><path class="cls-9" d="M1261.00975,1037.39349a2.877,2.877,0,1,0-2.877-2.877A2.877,2.877,0,0,0,1261.00975,1037.39349Z"/><path class="cls-9" d="M1280.58549,1037.39349a2.877,2.877,0,1,0-2.877-2.877A2.877,2.877,0,0,0,1280.58549,1037.39349Z"/><path class="cls-9" d="M1300.16117,1037.39349a2.877,2.877,0,1,0-2.877-2.877A2.87709,2.87709,0,0,0,1300.16117,1037.39349Z"/><path class="cls-9" d="M1319.73691,1037.39349a2.877,2.877,0,1,0-2.877-2.877A2.877,2.877,0,0,0,1319.73691,1037.39349Z"/><path class="cls-9" d="M1339.31265,1037.39349a2.877,2.877,0,1,0-2.877-2.877A2.87707,2.87707,0,0,0,1339.31265,1037.39349Z"/><path class="cls-9" d="M1358.88833,1037.39349a2.877,2.877,0,1,0-2.877-2.877A2.877,2.877,0,0,0,1358.88833,1037.39349Z"/></g><rect class="cls-19" x="-2331.32943" y="1788.06612" width="2153.53571" height="1230.59184" transform="translate(-2509.12315 4806.72407) rotate(180)"/></g></g></svg>