<svg xmlns="http://www.w3.org/2000/svg" viewBox="0 0 375 667"><defs><style>.cls-1{fill:#352d1b;}.cls-2{fill:#282215;}</style></defs><title>fondo-cafe-4</title><g id="OBJECTS"><rect class="cls-1" x="-15.54" y="-4.43" width="417.6" height="687.18"/><path class="cls-2" d="M318,113.84h0a6.4,6.4,0,0,1-.45,9l-20,18.12a6.4,6.4,0,0,0-.45,9h0a6.4,6.4,0,0,1-.45,9.05l-4.19,3.8a6.38,6.38,0,0,0-.45,9h0a6.39,6.39,0,0,0,9,.45l67.49-61.09a6.4,6.4,0,0,0,.45-9h0a6.38,6.38,0,0,1,.45-9l4.19-3.8a6.41,6.41,0,0,0,.46-9h0a6.38,6.38,0,0,1,.45-9l20-18.12a6.4,6.4,0,0,0,.45-9h0a6.4,6.4,0,0,0-9.05-.45L374.73,53.87a6.4,6.4,0,0,1-9-.45h0a6.41,6.41,0,0,0-9.05-.45L342,66.23a6.4,6.4,0,0,1-9-.45h0a6.41,6.41,0,0,1,.45-9.05l5.86-5.3a6.42,6.42,0,0,0,.45-9h0a6.39,6.39,0,0,1,.45-9l11.94-10.81a6.42,6.42,0,0,0,.45-9h0a6.4,6.4,0,0,0-9-.45L331.57,23.84a6.39,6.39,0,0,1-9-.45h0a6.41,6.41,0,0,0-9-.45L246,84a6.41,6.41,0,0,0-.45,9h0a6.4,6.4,0,0,0,9,.45l11.94-10.81a6.4,6.4,0,0,1,9.05.45h0a6.4,6.4,0,0,1-.45,9L263.19,103a6.38,6.38,0,0,0-.45,9h0a6.41,6.41,0,0,1-.45,9l-5.86,5.3a6.4,6.4,0,0,0-.45,9.05h0a6.4,6.4,0,0,0,9,.45l14.64-13.26a6.42,6.42,0,0,1,9,.45h0a6.38,6.38,0,0,0,9,.45L309,113.39A6.42,6.42,0,0,1,318,113.84Z"/><circle class="cls-2" cx="347.27" cy="186.59" r="6.55"/><circle class="cls-2" cx="249.72" cy="143.23" r="6.55" transform="translate(42.75 343.33) rotate(-73.87)"/><path class="cls-2" d="M77.87,533.39h0a6.83,6.83,0,0,1-.32-9.66l19.68-21a6.84,6.84,0,0,0-.32-9.66h0a6.82,6.82,0,0,1-.32-9.65l4.13-4.41a6.84,6.84,0,0,0-.32-9.66h0a6.83,6.83,0,0,0-9.66.32l-66.36,70.9a6.83,6.83,0,0,0,.32,9.66h0a6.84,6.84,0,0,1,.32,9.65l-4.13,4.41a6.83,6.83,0,0,0,.32,9.66h0a6.83,6.83,0,0,1,.31,9.65l-19.68,21a6.85,6.85,0,0,0,.32,9.66h0a6.85,6.85,0,0,0,9.66-.32l11-11.8a6.83,6.83,0,0,1,9.66-.32h0a6.84,6.84,0,0,0,9.66-.32l14.39-15.38a6.83,6.83,0,0,1,9.66-.32h0a6.83,6.83,0,0,1,.32,9.65l-5.76,6.16a6.83,6.83,0,0,0,.32,9.66h0a6.83,6.83,0,0,1,.31,9.65L49.68,633.48a6.84,6.84,0,0,0,.32,9.66h0a6.85,6.85,0,0,0,9.66-.32L71.4,630.27a6.83,6.83,0,0,1,9.66-.32h0a6.82,6.82,0,0,0,9.65-.32l66.37-70.9a6.84,6.84,0,0,0-.32-9.66h0a6.85,6.85,0,0,0-9.66.32l-11.74,12.55a6.84,6.84,0,0,1-9.66.32h0a6.84,6.84,0,0,1-.32-9.66l11.75-12.54a6.84,6.84,0,0,0-.32-9.66h0a6.83,6.83,0,0,1-.32-9.66l5.76-6.15a6.83,6.83,0,0,0-.32-9.66h0a6.83,6.83,0,0,0-9.65.32l-14.4,15.38a6.83,6.83,0,0,1-9.66.32h0a6.84,6.84,0,0,0-9.65.32l-11,11.8A6.82,6.82,0,0,1,77.87,533.39Z"/><circle class="cls-2" cx="40.36" cy="458.62" r="6.99"/><circle class="cls-2" cx="147.89" cy="496.12" r="6.99" transform="translate(-367.66 543.12) rotate(-78.61)"/><path class="cls-2" d="M-42.27,224.52c7.44-12.79,23-19,37.35-17.32a34.14,34.14,0,0,1,19.39,8.64c6.14,5.7,10.38,13.21,17.06,18.35,16.07,12.35,34.45-.74,50.6-5.68C99,223.35,118.29,229,129,243.28c4.87,6.53,8.11,14.37,14.15,20,5.56,5.17,12.73,6.89,20.12,5.72,7.74-1.23,14.86-4.93,22.06-7.79,7-2.76,14.64-5.3,22.15-3.44,13.87,3.45,20.62,18.87,29.45,28.64,5.09,5.63,11.32,10.11,18.93,11.45,9.73,1.71,19.56-1.07,28.74-4.07,8.91-2.92,17.81-6.15,27.31-6.17a27.78,27.78,0,0,1,12.85,2.74c3.78,1.94,6.52,5,9.36,8.11,2.45,2.65,5.08,5.41,8.49,6.8a12.05,12.05,0,0,0,10.8-1.1c3.82-2.24,6.85-5.58,10.59-7.94a41.26,41.26,0,0,1,13.31-5.39,40.33,40.33,0,0,1,14.28-.51c1.89.27,2.71-2.62.8-2.89a44.61,44.61,0,0,0-26.84,4.45c-4.28,2.21-7.66,5.34-11.47,8.21-3.56,2.69-7.63,4.12-11.74,1.71-3.39-2-5.87-5.3-8.54-8.11a27.79,27.79,0,0,0-9.6-6.88c-8-3.3-17.14-2.44-25.39-.52-17.9,4.17-38.66,16.53-55.29,2.38-10.59-9-16-23.29-28-30.72-14.29-8.81-29.46.19-43.2,5.35-7,2.62-14.83,4.68-21.92,1.35-7.72-3.63-11.63-11.92-16-18.75a47.36,47.36,0,0,0-18.19-17.15,46.39,46.39,0,0,0-24.69-5.12c-9.27.73-17.7,4.78-26.21,8.19-8.32,3.33-17.76,6.64-26.57,3.12-8.32-3.32-13.23-11.61-19-18A37.74,37.74,0,0,0,1.26,205.33c-13.58-3.62-29.18-.14-39.56,9.45A35.43,35.43,0,0,0-44.86,223a1.5,1.5,0,0,0,2.59,1.52Z"/><path class="cls-2" d="M-58.37,459c14.47-12.18,30.27-24.1,49.18-28.06C0,429,9.63,429,18.55,432s16.18,8.94,23.75,14.21A93.79,93.79,0,0,0,91.6,463a101,101,0,0,0,26.94-2.77c5-1.14,10.14-2.31,15.34-2.1a30,30,0,0,1,12.55,3.51c7.27,3.72,13.39,9.28,19.93,14.08a68.94,68.94,0,0,0,48,13.39c9.13-.91,17.26-4.22,25.87-7.11,4.55-1.54,9.25-2.76,14.09-2.58a41.44,41.44,0,0,1,12.27,2.74c7.54,2.68,14.88,6.49,23,7.11,15,1.16,23.35-12,35-18.84a19.12,19.12,0,0,1,9.21-2.92c3.82-.08,7.4,1.37,10.77,3,6.16,3,12.88,7.48,20.07,5.49,4.15-1.14,7.27-4.19,10.65-6.66a47.82,47.82,0,0,1,11.48-6.12c8.2-3,17-4.18,25.65-4.71,4.2-.25,8.4-.36,12.61-.46,1.93,0,1.93-3,0-3-16.7.37-34.88.94-49.34,10.38-3.67,2.4-6.89,6-11.1,7.45-3.82,1.33-7.76.24-11.31-1.36-6.54-2.93-12.84-7.54-20.35-7-13.92,1-21.45,15.57-33.71,20.36-7.81,3.05-15.86.5-23.29-2.37-7.58-2.93-15.32-6.45-23.63-6.12-9.36.36-17.75,4.93-26.59,7.5A66.1,66.1,0,0,1,173.57,477c-7.15-4.35-13.29-10.11-20.24-14.73s-14.88-7.7-23.51-7c-9.6.74-18.76,4.07-28.41,4.69A89.89,89.89,0,0,1,49,447c-7.75-4.77-14.64-10.89-22.78-15A51.59,51.59,0,0,0,0,426.67c-18.7,1-35.33,10.39-49.87,21.56-3.62,2.78-7.15,5.67-10.63,8.6-1.48,1.25.65,3.36,2.12,2.12Z"/><path class="cls-2" d="M157.14,21.35c1.86,6.08,1,12.47-.37,18.56-1.35,6.25-3.23,12.44-3.74,18.84-.48,6.06.71,12,4.6,16.85,4.06,5,10.21,7.61,15.66,10.75A31.37,31.37,0,0,1,181,92.16a22.08,22.08,0,0,1,4.64,8.36c2,6.44,2,13.3,2.71,20s1.91,13,5.34,18.68a39.87,39.87,0,0,0,12.42,12.51c10.54,7,23.19,10.24,35.35,13,3.65.83,7.42,1.54,10.82,3.15a18,18,0,0,1,7.58,6.76c3.59,5.71,4.81,12.52,7.15,18.76a57.9,57.9,0,0,0,44.41,35.8,53,53,0,0,0,9.9.65c3.69-.12,7.58-.78,11.2.22,6.85,1.9,8.27,10,11.15,15.5a37.11,37.11,0,0,0,14,14.26c13.87,8.29,30.35,8.18,45.87,6.05,4.33-.6,8.63-1.34,12.94-2.09,1.9-.33,1.09-3.22-.8-2.89-16.13,2.8-33.35,5.76-49.16-.14A39.88,39.88,0,0,1,350,249.52a33.27,33.27,0,0,1-5.08-8.39c-1.3-3-2.42-6.15-4.36-8.81a13.2,13.2,0,0,0-8-5.38c-3.69-.78-7.46-.26-11.19-.14a51.58,51.58,0,0,1-19.21-3.15,55.24,55.24,0,0,1-29.31-24.84c-3.22-5.83-4.67-12.25-6.94-18.46-2.34-6.39-5.87-12.24-12.26-15.2a52.88,52.88,0,0,0-10.82-3.24c-3-.69-6-1.41-9-2.2a110.38,110.38,0,0,1-17.89-6.12,49.78,49.78,0,0,1-14.81-9.87,32.16,32.16,0,0,1-8.53-15.63c-2.85-12.54,0-27.58-9.26-37.91-8.16-9.09-24-10.49-26.9-24.05-1.25-5.9.19-12.11,1.54-17.86,1.46-6.2,3.18-12.46,3.3-18.87A28.17,28.17,0,0,0,160,20.55c-.56-1.84-3.46-1.05-2.89.8Z"/><path class="cls-2" d="M-18.31,14.72a38.54,38.54,0,0,1,33.36,6.39c4.8,3.68,8.73,8.5,14,11.47,4.43,2.51,9.51,3.53,14.49,4.57,11.77,2.45,25.32,6.73,29.29,18.08.73,2.12,1.1,4.43,2.43,6.24a12.74,12.74,0,0,0,5.39,3.72c8.73,3.85,18.24,6,26.4,11s15,13.91,13.54,23.34c-.37,2.38-1.24,4.68-1.28,7.08-.07,3.39,1.5,6.57,3,9.59,3.89,7.62,7.9,15.32,9.55,23.71s.61,17.73-4.78,24.37c-1.65,2-3.76,3.95-4.26,6.53-.43,2.23.45,4.49.58,6.75.27,4.61-2.62,8.94-6.35,11.64s-8.24,4.07-12.66,5.4c-4.9,1.47-10.26,2.94-15,1.08-6.45-2.5-9.23-9.85-12.25-16.07-.89-1.84-2-3.74-3.76-4.71s-4-.8-6-.69A80.61,80.61,0,0,1,42,171.45c-5.29-1.45-11.23-4.37-12-9.8a27,27,0,0,0-.43-4.23c-1.11-3.6-5.59-4.64-9.27-5.45C5,148.61-9.83,136.91-11,121.28c-.44-5.88,1.06-11.71,2.06-17.53C-3.55,72.21-13,39.59-7.93,8"/><path class="cls-2" d="M483.51,605.49a51.9,51.9,0,0,1-37.05,26.78c-8,1.31-16.38.7-24.14,3.11-6.53,2-12.23,6.06-17.84,10-13.27,9.27-30,18.6-44.74,12-2.76-1.23-5.36-3-8.35-3.37s-5.89.68-8.63,1.84c-11.83,5-22.72,12.33-35.1,15.75s-27.45,1.84-35.36-8.28c-2-2.54-3.44-5.52-5.75-7.79-3.25-3.19-7.82-4.59-12.2-5.87-11-3.21-22.3-6.39-32-12.52S204.38,621.35,202.84,610c-.47-3.51-.39-7.33-2.45-10.2-1.79-2.48-4.81-3.7-7.16-5.67-4.75-4-6.33-10.8-5.53-17s3.61-11.84,6.39-17.39c3.08-6.16,6.59-12.76,12.81-15.72,8.4-4,18.17.05,27,2.84,2.62.82,5.47,1.53,8.08.65s4.43-3.13,6.21-5.22a108.21,108.21,0,0,1,26.11-22.38c6.29-3.84,14.64-7,20.66-2.7,1.56,1.1,2.82,2.64,4.54,3.48,4.55,2.24,9.69-1.19,13.88-4.05,17.42-11.89,42.56-15.61,58.94-2.33,6.18,5,10.5,11.86,15.28,18.2,25.92,34.38,66.61,55.22,92.86,89.35"/></g></svg>