<svg xmlns="http://www.w3.org/2000/svg" xmlns:xlink="http://www.w3.org/1999/xlink" viewBox="0 0 1333.44 576.95"><defs><style>.cls-1{isolation:isolate;}.cls-14,.cls-2{fill:#1d2c90;}.cls-3{fill:url(#linear-gradient);}.cls-4{fill:url(#linear-gradient-2);}.cls-5{fill:#636363;}.cls-5,.cls-6{mix-blend-mode:overlay;}.cls-7{fill:#fff;}.cls-8{fill:url(#linear-gradient-3);}.cls-9{mix-blend-mode:color-dodge;}.cls-10{fill:url(#linear-gradient-4);}.cls-11{fill:url(#linear-gradient-5);}.cls-12{fill:url(#linear-gradient-6);}.cls-13{fill:url(#linear-gradient-7);}.cls-14{opacity:0.69;}</style><linearGradient id="linear-gradient" x1="1176.04" y1="-46.25" x2="1281.07" y2="111.05" gradientUnits="userSpaceOnUse"><stop offset="0" stop-color="#accfe4"/><stop offset="1" stop-color="#0062b9"/></linearGradient><linearGradient id="linear-gradient-2" x1="181.28" y1="81.52" x2="302.27" y2="262.73" xlink:href="#linear-gradient"/><linearGradient id="linear-gradient-3" x1="824.66" y1="359.04" x2="949.68" y2="704.05" xlink:href="#linear-gradient"/><linearGradient id="linear-gradient-4" x1="437.84" y1="265.72" x2="544.32" y2="265.72" gradientTransform="translate(331.72 -269.42) rotate(45)" gradientUnits="userSpaceOnUse"><stop offset="0"/><stop offset="0.11" stop-color="#060606"/><stop offset="0.25" stop-color="#161616"/><stop offset="0.41" stop-color="#323232"/><stop offset="0.59" stop-color="#575757"/><stop offset="0.78" stop-color="#888"/><stop offset="0.97" stop-color="#c3c3c3"/><stop offset="1" stop-color="#ccc"/></linearGradient><linearGradient id="linear-gradient-5" x1="354.4" y1="443.83" x2="518.16" y2="443.83" gradientTransform="translate(441.63 -178.5) rotate(45)" xlink:href="#linear-gradient-4"/><linearGradient id="linear-gradient-6" x1="543.87" y1="302.79" x2="813.47" y2="302.79" gradientTransform="translate(412.89 -391.21) rotate(45)" gradientUnits="userSpaceOnUse"><stop offset="0" stop-color="#ccc"/><stop offset="0.03" stop-color="#c3c3c3"/><stop offset="0.22" stop-color="#888"/><stop offset="0.41" stop-color="#575757"/><stop offset="0.59" stop-color="#323232"/><stop offset="0.75" stop-color="#161616"/><stop offset="0.89" stop-color="#060606"/><stop offset="1"/></linearGradient><linearGradient id="linear-gradient-7" x1="697.83" y1="414.47" x2="1022.79" y2="414.47" gradientTransform="translate(545.04 -486.93) rotate(45)" xlink:href="#linear-gradient-6"/></defs><title>fondo-onstar-5</title><g class="cls-1"><g id="OBJECTS"><rect class="cls-2" x="-484.05" y="-69.43" width="2313.53" height="1131.11" transform="translate(1344.95 992.89) rotate(-179.95)"/><path class="cls-3" d="M1068.63,76.37c-5.64-18.65,3.89-38.26,18.75-49.5,16.82-12.71,31.83-18.73,33.32-40.22.48-7,1.45-16.79,3.92-23.35,9.06-24.12,36.53-20.18,56.66-21.84,18.89-1.57,30-13.58,47.37-31,.11-.11,34.4-54.88,58-6.72,4.37,8.92,6,16.45,8,21.39,7.83,19.42,26,16.79,55,25.61,36.63,11.18,52.31,50.8,16.19,68.48-13.88,6.8-26.29,8.88-39.42,17.15-26.82,16.91-20.89,45.1-44.14,60-8.21,6.41-21.3,9.08-30.45,8.6-35.24-1.84-50.17-14.09-74.42-3.91-8.24,3.46-18.32,9.47-30.79,12.79C1114.48,122.42,1077.51,105.7,1068.63,76.37Z"/><path class="cls-4" d="M57.55,222.77c-6.5-21.48,4.48-44.07,21.6-57,19.37-14.64,36.67-21.58,38.38-46.34.56-8,1.67-19.33,4.51-26.89,10.45-27.79,42.09-23.25,65.27-25.16,21.77-1.81,34.59-15.64,54.57-35.73.13-.13,39.64-63.22,66.82-7.75,5,10.28,6.9,19,9.2,24.65,9,22.37,30,19.33,63.34,29.5,42.2,12.87,60.25,58.52,18.65,78.89-16,7.82-30.29,10.22-45.41,19.75-30.9,19.48-24.06,52-50.85,69.14-9.46,7.39-24.54,10.46-35.08,9.91-40.59-2.12-57.79-16.24-85.73-4.5-9.49,4-21.11,10.9-35.47,14.73C110.36,275.82,67.77,256.56,57.55,222.77Z"/><path class="cls-5" d="M29.12,115.47c67.93-25.58,52.52-26.1,91.43-60.84,40.27-35.94,57.63-12.28,93.72-17.84,44.63-6.88,18.83-76.57,53.07-69.34,12.73,2.69,16,7,32,5.23,6.94-.75,23.24-9.4,45.1-.82s35.56,34.87,23.32,59C359.53,47,349.44,56,353.83,70.27c6.48,21.08,23.49,50.53-2.1,62.58-28.5,13.42-62.32-9.15-77.81,24.16-15.21,32.72-12.23,69.92-45.42,98.42-27.24,23.38-52.72,8.26-82.2-11-17.8-11.61-32.87-9.36-53-4.62-27.36,6.43-58.08.51-78.06-10.28-25.73-13.88-33.65-49.4-24.7-77.59C-3.66,133.7,11.19,122.22,29.12,115.47Z"/><g class="cls-6"><path class="cls-7" d="M595.71,658.62c-43,0-86.29-28.84-99.2-70.41a218.89,218.89,0,0,1-5.34-23.08c-3.22-16.64-6.55-33.85-17.94-46.24C455.66,499.8,426.7,499.15,398,501.3l-14,1.07c-43,3.36-87.45,6.83-130-2.27-24.63-5.26-47.65-15.23-66.58-28.83-20.8-14.95-36-34-44-55.22-14.3-37.94-5.69-80.3,3.41-113,16.38-58.79,41.45-93.4,76.65-105.82,30.8-10.86,63.55-2,95.22,6.65,13.4,3.64,27.26,7.41,40.82,9.65,64.36,10.6,133-14.9,174.77-65,8.28-9.9,15.62-20.81,22.73-31.35,6.46-9.58,13.13-19.49,20.5-28.65,18.81-23.37,39.12-37,60.38-40.47C679.12,41.37,715.17,72,747,99c73.06,62.09,133.95,86.77,191.65,77.64,55.86-8.84,104.53-55.49,115.72-110.93S1038.76-51.59,990.7-81.4l.54-.87c23.54,14.6,42.92,37.46,54.55,64.36s15,56.68,9.55,83.84-20.16,53.29-41.32,73.57-47.88,33.84-75.25,38.17c-32.11,5.08-66.55-.78-102.36-17.42-28.17-13.08-57.64-32.86-90.11-60.45-31.63-26.88-67.46-57.35-108.2-50.66-21,3.44-41.1,16.94-59.74,40.11-7.34,9.12-14,19-20.45,28.57-7.12,10.57-14.48,21.49-22.79,31.44C499.41,192,444.25,217,388.79,217a180.22,180.22,0,0,1-29.4-2.39c-13.6-2.24-27.49-6-40.92-9.66-31.52-8.57-64.11-17.43-94.61-6.67-34.86,12.29-59.72,46.68-76,105.12-9.06,32.52-17.64,74.68-3.44,112.34C162.53,463.76,213,490.3,254.24,499.1c42.44,9.07,86.82,5.6,129.74,2.25l14-1.07c28.94-2.16,58.17-1.49,76,17.92,11.59,12.6,14.95,29.95,18.2,46.73a217.7,217.7,0,0,0,5.3,23c15.48,49.8,74.95,81.14,124.77,65.75l.31,1A91,91,0,0,1,595.71,658.62Z"/></g><g class="cls-6"><path class="cls-7" d="M984.4,820.81c-22.62-16.57-25.17-49.44-18-73,6.39-20.88,19.2-39.2,31.58-56.91,2.69-3.85,5.48-7.83,8.14-11.76,13.21-19.5,28.22-45.41,27-72.91-.64-14.43-5.68-28.35-10.56-41.82-3.36-9.26-6.83-18.84-8.89-28.59-7.57-35.88,5-75.12,32-100,9.67-8.91,21.15-16.13,32.24-23.1,16.57-10.42,33.7-21.2,44.51-37.6,21.68-32.9,10.14-75.88-9.75-101.89-23.7-31-60.48-48.53-89.88-60.36-9-3.61-18.2-7.07-27.13-10.41-24.91-9.33-50.68-19-73.74-33-36-21.94-59.55-53-64.67-85.19-2.85-17.89,1.09-37.41,10.82-53.54,10.25-17,25.37-27.93,42.57-30.76l.19,1.13c-36.62,6-57.9,48.78-52.46,83,5.08,31.86,28.45,62.62,64.14,84.38,23,14,48.69,23.64,73.55,33,8.94,3.35,18.18,6.81,27.16,10.42,29.53,11.88,66.49,29.53,90.36,60.72,20.13,26.32,31.78,69.85,9.8,103.21-11,16.62-28.19,27.46-44.86,37.94-11,6.95-22.48,14.14-32.08,23-26.69,24.57-39.1,63.38-31.61,98.87,2,9.67,5.5,19.22,8.84,28.44,4.91,13.55,10,27.55,10.63,42.16,1.23,27.83-13.89,53.95-27.2,73.6-2.66,3.94-5.45,7.92-8.14,11.77-12.33,17.64-25.09,35.89-31.43,56.59-7.09,23.17-4.63,55.49,17.55,71.72Z"/></g><path class="cls-8" d="M1138.32,673.27c-18.86,25-48.4,36.23-53.2,74.41-3.73,29.71,1.68,69.81-37.59,86.06-16.1,6.67-25.51,6.51-44.37,8.66-35.15,4-38.89,4.26-77.26,32.44-58.18,42.75-91.54-32-144-74.68-22.88-18.6-35.42-28.95-44-42.55C715.42,722,748.62,694,760.55,674.09c15.31-25.52-8.15-46.23-6-69.55,5.07-54.91,66.9,19,118-76.4,12.88-24,41.18-37.6,72.13-28.79,41.66,11.86,51.85,51.68,97.57,57.25,8,1,30.89,2.62,45.17,4.89C1140.05,569.87,1172.47,628,1138.32,673.27Z"/><path class="cls-5" d="M806.32,657.44c85.55-32.22,66.14-32.87,115.15-76.62,50.71-45.26,72.56-15.46,118-22.47,56.19-8.66,23.71-96.42,66.82-87.32,16,3.39,20.15,8.79,40.28,6.6,8.73-1,29.26-11.85,56.79-1s44.78,43.91,29.36,74.3c-10.33,20.37-23,31.65-17.52,49.62,8.17,26.55,29.59,63.64-2.64,78.81-35.89,16.9-78.47-11.52-98,30.43-19.16,41.2-15.41,88-57.2,123.93-34.3,29.45-66.39,10.41-103.51-13.82-22.41-14.62-41.39-11.79-66.74-5.82-34.45,8.1-73.15.64-98.31-12.94-32.39-17.49-42.36-62.21-31.09-97.71C765,680.39,783.75,665.94,806.32,657.44Z"/><g class="cls-9"><rect class="cls-10" x="416.93" y="264.58" width="148.3" height="2.28" transform="translate(-44.06 425.07) rotate(-45)"/></g><g class="cls-9"><rect class="cls-11" x="321.62" y="442.69" width="229.31" height="2.28" transform="translate(-186.05 438.5) rotate(-45)"/></g><g class="cls-9"><rect class="cls-12" x="489.18" y="301.65" width="378.99" height="2.28" transform="translate(-15.33 568.58) rotate(-45)"/></g><g class="cls-9"><rect class="cls-13" x="631.93" y="413.07" width="456.77" height="2.79" transform="translate(-41.1 729.72) rotate(-45)"/></g><g class="cls-6"><circle class="cls-7" cx="1056.09" cy="149.28" r="1.63"/><circle class="cls-7" cx="1067.16" cy="149.28" r="1.63"/><circle class="cls-7" cx="1078.24" cy="149.28" r="1.63"/><circle class="cls-7" cx="1089.32" cy="149.28" r="1.63"/><path class="cls-7" d="M1100.39,150.91a1.63,1.63,0,1,0,0-3.25,1.63,1.63,0,0,0,0,3.25Z"/><circle class="cls-7" cx="1111.47" cy="149.28" r="1.63"/><path class="cls-7" d="M1122.55,150.91a1.63,1.63,0,1,0-1.63-1.63A1.63,1.63,0,0,0,1122.55,150.91Z"/><circle class="cls-7" cx="1133.62" cy="149.28" r="1.63"/><path class="cls-7" d="M1056.09,162a1.63,1.63,0,1,0-1.63-1.63A1.63,1.63,0,0,0,1056.09,162Z"/><path class="cls-7" d="M1067.16,162a1.63,1.63,0,1,0-1.62-1.63A1.63,1.63,0,0,0,1067.16,162Z"/><path class="cls-7" d="M1078.24,162a1.63,1.63,0,1,0-1.63-1.63A1.63,1.63,0,0,0,1078.24,162Z"/><path class="cls-7" d="M1089.32,162a1.63,1.63,0,1,0-1.63-1.63A1.62,1.62,0,0,0,1089.32,162Z"/><path class="cls-7" d="M1100.39,162a1.63,1.63,0,1,0-1.62-1.63A1.63,1.63,0,0,0,1100.39,162Z"/><path class="cls-7" d="M1111.47,162a1.63,1.63,0,1,0-1.63-1.63A1.63,1.63,0,0,0,1111.47,162Z"/><path class="cls-7" d="M1122.55,162a1.63,1.63,0,1,0-1.63-1.63A1.63,1.63,0,0,0,1122.55,162Z"/><path class="cls-7" d="M1133.62,162a1.63,1.63,0,1,0-1.63-1.63A1.63,1.63,0,0,0,1133.62,162Z"/><circle class="cls-7" cx="1056.09" cy="171.44" r="1.63"/><circle class="cls-7" cx="1067.16" cy="171.44" r="1.63"/><circle class="cls-7" cx="1078.24" cy="171.44" r="1.63"/><circle class="cls-7" cx="1089.32" cy="171.44" r="1.63"/><path class="cls-7" d="M1100.39,173.06a1.63,1.63,0,1,0-1.62-1.62A1.63,1.63,0,0,0,1100.39,173.06Z"/><circle class="cls-7" cx="1111.47" cy="171.44" r="1.63"/><path class="cls-7" d="M1122.55,173.06a1.63,1.63,0,1,0-1.63-1.62A1.63,1.63,0,0,0,1122.55,173.06Z"/><circle class="cls-7" cx="1133.62" cy="171.44" r="1.63"/><circle class="cls-7" cx="1056.09" cy="182.51" r="1.63"/><circle class="cls-7" cx="1067.16" cy="182.51" r="1.63"/><circle class="cls-7" cx="1078.24" cy="182.51" r="1.63"/><circle class="cls-7" cx="1089.32" cy="182.51" r="1.63"/><path class="cls-7" d="M1100.39,184.14a1.63,1.63,0,1,0-1.62-1.63A1.63,1.63,0,0,0,1100.39,184.14Z"/><circle class="cls-7" cx="1111.47" cy="182.51" r="1.63"/><path class="cls-7" d="M1122.55,184.14a1.63,1.63,0,1,0-1.63-1.63A1.63,1.63,0,0,0,1122.55,184.14Z"/><circle class="cls-7" cx="1133.62" cy="182.51" r="1.63"/><circle class="cls-7" cx="1056.09" cy="193.59" r="1.63"/><circle class="cls-7" cx="1067.16" cy="193.59" r="1.63"/><circle class="cls-7" cx="1078.24" cy="193.59" r="1.63"/><circle class="cls-7" cx="1089.32" cy="193.59" r="1.63"/><path class="cls-7" d="M1100.39,195.22a1.63,1.63,0,1,0-1.62-1.63A1.63,1.63,0,0,0,1100.39,195.22Z"/><circle class="cls-7" cx="1111.47" cy="193.59" r="1.63"/><path class="cls-7" d="M1122.55,195.22a1.63,1.63,0,1,0-1.63-1.63A1.63,1.63,0,0,0,1122.55,195.22Z"/><circle class="cls-7" cx="1133.62" cy="193.59" r="1.63"/><circle class="cls-7" cx="1056.09" cy="204.66" r="1.63"/><circle class="cls-7" cx="1067.16" cy="204.66" r="1.63"/><circle class="cls-7" cx="1078.24" cy="204.66" r="1.63"/><circle class="cls-7" cx="1089.32" cy="204.66" r="1.63"/><path class="cls-7" d="M1100.39,206.29a1.63,1.63,0,1,0,0-3.25,1.63,1.63,0,0,0,0,3.25Z"/><circle class="cls-7" cx="1111.47" cy="204.66" r="1.63"/><path class="cls-7" d="M1122.55,206.29a1.63,1.63,0,1,0-1.63-1.63A1.63,1.63,0,0,0,1122.55,206.29Z"/><circle class="cls-7" cx="1133.62" cy="204.66" r="1.63"/><circle class="cls-7" cx="1056.09" cy="215.74" r="1.63"/><circle class="cls-7" cx="1067.16" cy="215.74" r="1.63"/><circle class="cls-7" cx="1078.24" cy="215.74" r="1.63"/><circle class="cls-7" cx="1089.32" cy="215.74" r="1.63"/><path class="cls-7" d="M1100.39,217.37a1.63,1.63,0,1,0-1.62-1.63A1.63,1.63,0,0,0,1100.39,217.37Z"/><circle class="cls-7" cx="1111.47" cy="215.74" r="1.63"/><path class="cls-7" d="M1122.55,217.37a1.63,1.63,0,1,0-1.63-1.63A1.63,1.63,0,0,0,1122.55,217.37Z"/><circle class="cls-7" cx="1133.62" cy="215.74" r="1.63"/><circle class="cls-7" cx="1056.09" cy="226.82" r="1.63"/><circle class="cls-7" cx="1067.16" cy="226.82" r="1.63"/><circle class="cls-7" cx="1078.24" cy="226.82" r="1.63"/><circle class="cls-7" cx="1089.32" cy="226.82" r="1.63"/><path class="cls-7" d="M1100.39,228.44a1.63,1.63,0,1,0-1.62-1.62A1.63,1.63,0,0,0,1100.39,228.44Z"/><circle class="cls-7" cx="1111.47" cy="226.82" r="1.63"/><path class="cls-7" d="M1122.55,228.44a1.63,1.63,0,1,0-1.63-1.62A1.63,1.63,0,0,0,1122.55,228.44Z"/><circle class="cls-7" cx="1133.62" cy="226.82" r="1.63"/><path class="cls-7" d="M1056.09,239.52a1.63,1.63,0,1,0-1.63-1.63A1.63,1.63,0,0,0,1056.09,239.52Z"/><path class="cls-7" d="M1067.16,239.52a1.63,1.63,0,1,0-1.62-1.63A1.63,1.63,0,0,0,1067.16,239.52Z"/><path class="cls-7" d="M1078.24,239.52a1.63,1.63,0,1,0-1.63-1.63A1.63,1.63,0,0,0,1078.24,239.52Z"/><path class="cls-7" d="M1089.32,239.52a1.63,1.63,0,1,0-1.63-1.63A1.62,1.62,0,0,0,1089.32,239.52Z"/><path class="cls-7" d="M1100.39,239.52a1.63,1.63,0,1,0-1.62-1.63A1.63,1.63,0,0,0,1100.39,239.52Z"/><path class="cls-7" d="M1111.47,239.52a1.63,1.63,0,1,0-1.63-1.63A1.63,1.63,0,0,0,1111.47,239.52Z"/><path class="cls-7" d="M1122.55,239.52a1.63,1.63,0,1,0-1.63-1.63A1.63,1.63,0,0,0,1122.55,239.52Z"/><path class="cls-7" d="M1133.62,239.52a1.63,1.63,0,1,0-1.63-1.63A1.63,1.63,0,0,0,1133.62,239.52Z"/><circle class="cls-7" cx="1056.09" cy="248.97" r="1.63"/><circle class="cls-7" cx="1067.16" cy="248.97" r="1.63"/><circle class="cls-7" cx="1078.24" cy="248.97" r="1.63"/><circle class="cls-7" cx="1089.32" cy="248.97" r="1.63"/><path class="cls-7" d="M1100.39,250.6a1.63,1.63,0,1,0-1.62-1.63A1.63,1.63,0,0,0,1100.39,250.6Z"/><circle class="cls-7" cx="1111.47" cy="248.97" r="1.63"/><path class="cls-7" d="M1122.55,250.6a1.63,1.63,0,1,0-1.63-1.63A1.63,1.63,0,0,0,1122.55,250.6Z"/><circle class="cls-7" cx="1133.62" cy="248.97" r="1.63"/><path class="cls-7" d="M1056.09,261.67a1.63,1.63,0,1,0-1.63-1.63A1.63,1.63,0,0,0,1056.09,261.67Z"/><path class="cls-7" d="M1067.16,261.67a1.63,1.63,0,1,0-1.62-1.63A1.63,1.63,0,0,0,1067.16,261.67Z"/><path class="cls-7" d="M1078.24,261.67a1.63,1.63,0,1,0-1.63-1.63A1.63,1.63,0,0,0,1078.24,261.67Z"/><path class="cls-7" d="M1089.32,261.67a1.63,1.63,0,1,0-1.63-1.63A1.62,1.62,0,0,0,1089.32,261.67Z"/><path class="cls-7" d="M1100.39,261.67a1.63,1.63,0,1,0-1.62-1.63A1.63,1.63,0,0,0,1100.39,261.67Z"/><path class="cls-7" d="M1111.47,261.67a1.63,1.63,0,1,0-1.63-1.63A1.63,1.63,0,0,0,1111.47,261.67Z"/><path class="cls-7" d="M1122.55,261.67a1.63,1.63,0,1,0-1.63-1.63A1.63,1.63,0,0,0,1122.55,261.67Z"/><path class="cls-7" d="M1133.62,261.67A1.63,1.63,0,1,0,1132,260,1.63,1.63,0,0,0,1133.62,261.67Z"/><circle class="cls-7" cx="1056.09" cy="271.12" r="1.63"/><circle class="cls-7" cx="1067.16" cy="271.12" r="1.63"/><circle class="cls-7" cx="1078.24" cy="271.12" r="1.63"/><circle class="cls-7" cx="1089.32" cy="271.12" r="1.63"/><path class="cls-7" d="M1100.39,272.75a1.63,1.63,0,1,0-1.62-1.63A1.63,1.63,0,0,0,1100.39,272.75Z"/><circle class="cls-7" cx="1111.47" cy="271.12" r="1.63"/><path class="cls-7" d="M1122.55,272.75a1.63,1.63,0,1,0-1.63-1.63A1.63,1.63,0,0,0,1122.55,272.75Z"/><circle class="cls-7" cx="1133.62" cy="271.12" r="1.63"/><path class="cls-7" d="M1056.09,283.82a1.63,1.63,0,1,0-1.63-1.62A1.62,1.62,0,0,0,1056.09,283.82Z"/><path class="cls-7" d="M1067.16,283.82a1.63,1.63,0,1,0-1.62-1.62A1.62,1.62,0,0,0,1067.16,283.82Z"/><path class="cls-7" d="M1078.24,283.82a1.63,1.63,0,1,0-1.63-1.62A1.62,1.62,0,0,0,1078.24,283.82Z"/><path class="cls-7" d="M1089.32,283.82a1.63,1.63,0,0,0,0-3.25,1.63,1.63,0,1,0,0,3.25Z"/><path class="cls-7" d="M1100.39,283.82a1.63,1.63,0,1,0-1.62-1.62A1.62,1.62,0,0,0,1100.39,283.82Z"/><path class="cls-7" d="M1111.47,283.82a1.63,1.63,0,1,0-1.63-1.62A1.62,1.62,0,0,0,1111.47,283.82Z"/><path class="cls-7" d="M1122.55,283.82a1.63,1.63,0,1,0-1.63-1.62A1.62,1.62,0,0,0,1122.55,283.82Z"/><path class="cls-7" d="M1133.62,283.82a1.63,1.63,0,1,0-1.63-1.62A1.62,1.62,0,0,0,1133.62,283.82Z"/><circle class="cls-7" cx="1056.09" cy="293.27" r="1.63"/><circle class="cls-7" cx="1067.16" cy="293.27" r="1.63"/><circle class="cls-7" cx="1078.24" cy="293.27" r="1.63"/><circle class="cls-7" cx="1089.32" cy="293.27" r="1.63"/><path class="cls-7" d="M1100.39,294.9a1.63,1.63,0,1,0-1.62-1.63A1.63,1.63,0,0,0,1100.39,294.9Z"/><circle class="cls-7" cx="1111.47" cy="293.27" r="1.63"/><path class="cls-7" d="M1122.55,294.9a1.63,1.63,0,1,0-1.63-1.63A1.63,1.63,0,0,0,1122.55,294.9Z"/><circle class="cls-7" cx="1133.62" cy="293.27" r="1.63"/><circle class="cls-7" cx="1056.09" cy="304.35" r="1.63"/><circle class="cls-7" cx="1067.16" cy="304.35" r="1.63"/><circle class="cls-7" cx="1078.24" cy="304.35" r="1.63"/><circle class="cls-7" cx="1089.32" cy="304.35" r="1.63"/><path class="cls-7" d="M1100.39,306a1.63,1.63,0,1,0-1.62-1.63A1.63,1.63,0,0,0,1100.39,306Z"/><circle class="cls-7" cx="1111.47" cy="304.35" r="1.63"/><path class="cls-7" d="M1122.55,306a1.63,1.63,0,1,0-1.63-1.63A1.63,1.63,0,0,0,1122.55,306Z"/><circle class="cls-7" cx="1133.62" cy="304.35" r="1.63"/><circle class="cls-7" cx="1056.09" cy="315.42" r="1.63"/><circle class="cls-7" cx="1067.16" cy="315.42" r="1.63"/><circle class="cls-7" cx="1078.24" cy="315.42" r="1.63"/><circle class="cls-7" cx="1089.32" cy="315.42" r="1.63"/><path class="cls-7" d="M1100.39,317.05a1.63,1.63,0,1,0-1.62-1.63A1.63,1.63,0,0,0,1100.39,317.05Z"/><circle class="cls-7" cx="1111.47" cy="315.42" r="1.63"/><path class="cls-7" d="M1122.55,317.05a1.63,1.63,0,1,0-1.63-1.63A1.63,1.63,0,0,0,1122.55,317.05Z"/><circle class="cls-7" cx="1133.62" cy="315.42" r="1.63"/><circle class="cls-7" cx="1056.09" cy="326.5" r="1.63"/><circle class="cls-7" cx="1067.16" cy="326.5" r="1.63"/><circle class="cls-7" cx="1078.24" cy="326.5" r="1.63"/><circle class="cls-7" cx="1089.32" cy="326.5" r="1.63"/><path class="cls-7" d="M1100.39,328.13a1.63,1.63,0,1,0-1.62-1.63A1.63,1.63,0,0,0,1100.39,328.13Z"/><circle class="cls-7" cx="1111.47" cy="326.5" r="1.63"/><path class="cls-7" d="M1122.55,328.13a1.63,1.63,0,1,0-1.63-1.63A1.63,1.63,0,0,0,1122.55,328.13Z"/><circle class="cls-7" cx="1133.62" cy="326.5" r="1.63"/><circle class="cls-7" cx="1056.09" cy="337.58" r="1.63"/><circle class="cls-7" cx="1067.16" cy="337.58" r="1.63"/><circle class="cls-7" cx="1078.24" cy="337.58" r="1.63"/><circle class="cls-7" cx="1089.32" cy="337.58" r="1.63"/><path class="cls-7" d="M1100.39,339.2a1.63,1.63,0,1,0-1.62-1.62A1.62,1.62,0,0,0,1100.39,339.2Z"/><circle class="cls-7" cx="1111.47" cy="337.58" r="1.63"/><path class="cls-7" d="M1122.55,339.2a1.63,1.63,0,1,0-1.63-1.62A1.62,1.62,0,0,0,1122.55,339.2Z"/><circle class="cls-7" cx="1133.62" cy="337.58" r="1.63"/><circle class="cls-7" cx="1056.09" cy="348.65" r="1.63"/><circle class="cls-7" cx="1067.16" cy="348.65" r="1.63"/><circle class="cls-7" cx="1078.24" cy="348.65" r="1.63"/><circle class="cls-7" cx="1089.32" cy="348.65" r="1.63"/><path class="cls-7" d="M1100.39,350.28a1.63,1.63,0,1,0-1.62-1.63A1.63,1.63,0,0,0,1100.39,350.28Z"/><circle class="cls-7" cx="1111.47" cy="348.65" r="1.63"/><path class="cls-7" d="M1122.55,350.28a1.63,1.63,0,1,0-1.63-1.63A1.63,1.63,0,0,0,1122.55,350.28Z"/><circle class="cls-7" cx="1133.62" cy="348.65" r="1.63"/><path class="cls-7" d="M1056.09,361.36a1.63,1.63,0,1,0-1.63-1.63A1.63,1.63,0,0,0,1056.09,361.36Z"/><path class="cls-7" d="M1067.16,361.36a1.63,1.63,0,1,0-1.62-1.63A1.63,1.63,0,0,0,1067.16,361.36Z"/><path class="cls-7" d="M1078.24,361.36a1.63,1.63,0,1,0-1.63-1.63A1.63,1.63,0,0,0,1078.24,361.36Z"/><path class="cls-7" d="M1089.32,361.36a1.63,1.63,0,1,0-1.63-1.63A1.62,1.62,0,0,0,1089.32,361.36Z"/><path class="cls-7" d="M1100.39,361.36a1.63,1.63,0,1,0-1.62-1.63A1.63,1.63,0,0,0,1100.39,361.36Z"/><path class="cls-7" d="M1111.47,361.36a1.63,1.63,0,1,0-1.63-1.63A1.63,1.63,0,0,0,1111.47,361.36Z"/><path class="cls-7" d="M1122.55,361.36a1.63,1.63,0,1,0-1.63-1.63A1.63,1.63,0,0,0,1122.55,361.36Z"/><path class="cls-7" d="M1133.62,361.36a1.63,1.63,0,1,0-1.63-1.63A1.63,1.63,0,0,0,1133.62,361.36Z"/><circle class="cls-7" cx="1056.09" cy="370.8" r="1.63"/><circle class="cls-7" cx="1067.16" cy="370.8" r="1.63"/><circle class="cls-7" cx="1078.24" cy="370.8" r="1.63"/><circle class="cls-7" cx="1089.32" cy="370.8" r="1.63"/><path class="cls-7" d="M1100.39,372.43a1.63,1.63,0,1,0-1.62-1.63A1.63,1.63,0,0,0,1100.39,372.43Z"/><circle class="cls-7" cx="1111.47" cy="370.8" r="1.63"/><path class="cls-7" d="M1122.55,372.43a1.63,1.63,0,1,0-1.63-1.63A1.63,1.63,0,0,0,1122.55,372.43Z"/><circle class="cls-7" cx="1133.62" cy="370.8" r="1.63"/><path class="cls-7" d="M1056.09,383.51a1.63,1.63,0,1,0-1.63-1.63A1.63,1.63,0,0,0,1056.09,383.51Z"/><path class="cls-7" d="M1067.16,383.51a1.63,1.63,0,1,0-1.62-1.63A1.63,1.63,0,0,0,1067.16,383.51Z"/><path class="cls-7" d="M1078.24,383.51a1.63,1.63,0,1,0-1.63-1.63A1.63,1.63,0,0,0,1078.24,383.51Z"/><path class="cls-7" d="M1089.32,383.51a1.63,1.63,0,1,0-1.63-1.63A1.62,1.62,0,0,0,1089.32,383.51Z"/><path class="cls-7" d="M1100.39,383.51a1.63,1.63,0,1,0-1.62-1.63A1.63,1.63,0,0,0,1100.39,383.51Z"/><path class="cls-7" d="M1111.47,383.51a1.63,1.63,0,1,0-1.63-1.63A1.63,1.63,0,0,0,1111.47,383.51Z"/><path class="cls-7" d="M1122.55,383.51a1.63,1.63,0,1,0-1.63-1.63A1.63,1.63,0,0,0,1122.55,383.51Z"/><path class="cls-7" d="M1133.62,383.51a1.63,1.63,0,1,0-1.63-1.63A1.63,1.63,0,0,0,1133.62,383.51Z"/></g><g class="cls-6"><circle class="cls-7" cx="207.82" cy="282.2" r="1.63"/><circle class="cls-7" cx="218.89" cy="282.2" r="1.63"/><circle class="cls-7" cx="229.97" cy="282.2" r="1.63"/><circle class="cls-7" cx="241.05" cy="282.2" r="1.63"/><path class="cls-7" d="M252.12,283.82a1.63,1.63,0,1,0-1.63-1.62A1.62,1.62,0,0,0,252.12,283.82Z"/><circle class="cls-7" cx="263.2" cy="282.2" r="1.63"/><path class="cls-7" d="M274.27,283.82a1.63,1.63,0,1,0-1.62-1.62A1.62,1.62,0,0,0,274.27,283.82Z"/><circle class="cls-7" cx="285.35" cy="282.2" r="1.63"/><path class="cls-7" d="M207.82,294.9a1.63,1.63,0,1,0-1.63-1.63A1.62,1.62,0,0,0,207.82,294.9Z"/><path class="cls-7" d="M218.89,294.9a1.63,1.63,0,1,0-1.62-1.63A1.63,1.63,0,0,0,218.89,294.9Z"/><path class="cls-7" d="M230,294.9a1.63,1.63,0,1,0-1.63-1.63A1.63,1.63,0,0,0,230,294.9Z"/><path class="cls-7" d="M241.05,294.9a1.63,1.63,0,1,0-1.63-1.63A1.63,1.63,0,0,0,241.05,294.9Z"/><path class="cls-7" d="M252.12,294.9a1.63,1.63,0,1,0-1.63-1.63A1.63,1.63,0,0,0,252.12,294.9Z"/><path class="cls-7" d="M263.2,294.9a1.63,1.63,0,1,0-1.63-1.63A1.63,1.63,0,0,0,263.2,294.9Z"/><path class="cls-7" d="M274.27,294.9a1.63,1.63,0,1,0-1.62-1.63A1.63,1.63,0,0,0,274.27,294.9Z"/><path class="cls-7" d="M285.35,294.9a1.63,1.63,0,1,0-1.63-1.63A1.63,1.63,0,0,0,285.35,294.9Z"/><circle class="cls-7" cx="207.82" cy="304.35" r="1.63"/><circle class="cls-7" cx="218.89" cy="304.35" r="1.63"/><circle class="cls-7" cx="229.97" cy="304.35" r="1.63"/><circle class="cls-7" cx="241.05" cy="304.35" r="1.63"/><path class="cls-7" d="M252.12,306a1.63,1.63,0,1,0-1.63-1.63A1.63,1.63,0,0,0,252.12,306Z"/><circle class="cls-7" cx="263.2" cy="304.35" r="1.63"/><path class="cls-7" d="M274.27,306a1.63,1.63,0,1,0-1.62-1.63A1.63,1.63,0,0,0,274.27,306Z"/><circle class="cls-7" cx="285.35" cy="304.35" r="1.63"/><circle class="cls-7" cx="207.82" cy="315.42" r="1.63"/><circle class="cls-7" cx="218.89" cy="315.42" r="1.63"/><circle class="cls-7" cx="229.97" cy="315.42" r="1.63"/><circle class="cls-7" cx="241.05" cy="315.42" r="1.63"/><path class="cls-7" d="M252.12,317.05a1.63,1.63,0,1,0-1.63-1.63A1.63,1.63,0,0,0,252.12,317.05Z"/><circle class="cls-7" cx="263.2" cy="315.42" r="1.63"/><path class="cls-7" d="M274.27,317.05a1.63,1.63,0,1,0-1.62-1.63A1.63,1.63,0,0,0,274.27,317.05Z"/><circle class="cls-7" cx="285.35" cy="315.42" r="1.63"/><circle class="cls-7" cx="207.82" cy="326.5" r="1.63"/><circle class="cls-7" cx="218.89" cy="326.5" r="1.63"/><circle class="cls-7" cx="229.97" cy="326.5" r="1.63"/><circle class="cls-7" cx="241.05" cy="326.5" r="1.63"/><path class="cls-7" d="M252.12,328.13a1.63,1.63,0,1,0-1.63-1.63A1.63,1.63,0,0,0,252.12,328.13Z"/><circle class="cls-7" cx="263.2" cy="326.5" r="1.63"/><path class="cls-7" d="M274.27,328.13a1.63,1.63,0,1,0-1.62-1.63A1.63,1.63,0,0,0,274.27,328.13Z"/><circle class="cls-7" cx="285.35" cy="326.5" r="1.63"/><circle class="cls-7" cx="207.82" cy="337.58" r="1.63"/><circle class="cls-7" cx="218.89" cy="337.58" r="1.63"/><circle class="cls-7" cx="229.97" cy="337.58" r="1.63"/><circle class="cls-7" cx="241.05" cy="337.58" r="1.63"/><path class="cls-7" d="M252.12,339.2a1.63,1.63,0,1,0-1.63-1.62A1.62,1.62,0,0,0,252.12,339.2Z"/><circle class="cls-7" cx="263.2" cy="337.58" r="1.63"/><path class="cls-7" d="M274.27,339.2a1.63,1.63,0,1,0-1.62-1.62A1.62,1.62,0,0,0,274.27,339.2Z"/><circle class="cls-7" cx="285.35" cy="337.58" r="1.63"/><circle class="cls-7" cx="207.82" cy="348.65" r="1.63"/><circle class="cls-7" cx="218.89" cy="348.65" r="1.63"/><circle class="cls-7" cx="229.97" cy="348.65" r="1.63"/><circle class="cls-7" cx="241.05" cy="348.65" r="1.63"/><path class="cls-7" d="M252.12,350.28a1.63,1.63,0,1,0-1.63-1.63A1.63,1.63,0,0,0,252.12,350.28Z"/><circle class="cls-7" cx="263.2" cy="348.65" r="1.63"/><path class="cls-7" d="M274.27,350.28a1.63,1.63,0,1,0-1.62-1.63A1.63,1.63,0,0,0,274.27,350.28Z"/><circle class="cls-7" cx="285.35" cy="348.65" r="1.63"/><circle class="cls-7" cx="207.82" cy="359.73" r="1.63"/><circle class="cls-7" cx="218.89" cy="359.73" r="1.63"/><circle class="cls-7" cx="229.97" cy="359.73" r="1.63"/><circle class="cls-7" cx="241.05" cy="359.73" r="1.63"/><path class="cls-7" d="M252.12,361.36a1.63,1.63,0,1,0-1.63-1.63A1.63,1.63,0,0,0,252.12,361.36Z"/><circle class="cls-7" cx="263.2" cy="359.73" r="1.63"/><path class="cls-7" d="M274.27,361.36a1.63,1.63,0,1,0-1.62-1.63A1.63,1.63,0,0,0,274.27,361.36Z"/><circle class="cls-7" cx="285.35" cy="359.73" r="1.63"/><path class="cls-7" d="M207.82,372.43a1.63,1.63,0,1,0-1.63-1.63A1.62,1.62,0,0,0,207.82,372.43Z"/><path class="cls-7" d="M218.89,372.43a1.63,1.63,0,1,0-1.62-1.63A1.63,1.63,0,0,0,218.89,372.43Z"/><path class="cls-7" d="M230,372.43a1.63,1.63,0,1,0-1.63-1.63A1.63,1.63,0,0,0,230,372.43Z"/><path class="cls-7" d="M241.05,372.43a1.63,1.63,0,1,0-1.63-1.63A1.63,1.63,0,0,0,241.05,372.43Z"/><path class="cls-7" d="M252.12,372.43a1.63,1.63,0,1,0-1.63-1.63A1.63,1.63,0,0,0,252.12,372.43Z"/><path class="cls-7" d="M263.2,372.43a1.63,1.63,0,1,0-1.63-1.63A1.63,1.63,0,0,0,263.2,372.43Z"/><path class="cls-7" d="M274.27,372.43a1.63,1.63,0,1,0-1.62-1.63A1.63,1.63,0,0,0,274.27,372.43Z"/><path class="cls-7" d="M285.35,372.43a1.63,1.63,0,1,0-1.63-1.63A1.63,1.63,0,0,0,285.35,372.43Z"/><circle class="cls-7" cx="207.82" cy="381.88" r="1.63"/><circle class="cls-7" cx="218.89" cy="381.88" r="1.63"/><circle class="cls-7" cx="229.97" cy="381.88" r="1.63"/><circle class="cls-7" cx="241.05" cy="381.88" r="1.63"/><path class="cls-7" d="M252.12,383.51a1.63,1.63,0,1,0-1.63-1.63A1.63,1.63,0,0,0,252.12,383.51Z"/><circle class="cls-7" cx="263.2" cy="381.88" r="1.63"/><path class="cls-7" d="M274.27,383.51a1.63,1.63,0,1,0-1.62-1.63A1.63,1.63,0,0,0,274.27,383.51Z"/><circle class="cls-7" cx="285.35" cy="381.88" r="1.63"/><path class="cls-7" d="M207.82,394.58a1.63,1.63,0,0,0,0-3.25,1.63,1.63,0,1,0,0,3.25Z"/><path class="cls-7" d="M218.89,394.58a1.63,1.63,0,1,0-1.62-1.62A1.62,1.62,0,0,0,218.89,394.58Z"/><path class="cls-7" d="M230,394.58a1.63,1.63,0,1,0-1.63-1.62A1.62,1.62,0,0,0,230,394.58Z"/><path class="cls-7" d="M241.05,394.58a1.63,1.63,0,1,0-1.63-1.62A1.62,1.62,0,0,0,241.05,394.58Z"/><path class="cls-7" d="M252.12,394.58a1.63,1.63,0,1,0-1.63-1.62A1.62,1.62,0,0,0,252.12,394.58Z"/><path class="cls-7" d="M263.2,394.58a1.63,1.63,0,1,0-1.63-1.62A1.62,1.62,0,0,0,263.2,394.58Z"/><path class="cls-7" d="M274.27,394.58a1.63,1.63,0,1,0-1.62-1.62A1.62,1.62,0,0,0,274.27,394.58Z"/><path class="cls-7" d="M285.35,394.58a1.63,1.63,0,1,0-1.63-1.62A1.62,1.62,0,0,0,285.35,394.58Z"/><circle class="cls-7" cx="207.82" cy="404.03" r="1.63"/><circle class="cls-7" cx="218.89" cy="404.03" r="1.63"/><circle class="cls-7" cx="229.97" cy="404.03" r="1.63"/><circle class="cls-7" cx="241.05" cy="404.03" r="1.63"/><path class="cls-7" d="M252.12,405.66a1.63,1.63,0,1,0-1.63-1.63A1.63,1.63,0,0,0,252.12,405.66Z"/><circle class="cls-7" cx="263.2" cy="404.03" r="1.63"/><path class="cls-7" d="M274.27,405.66a1.63,1.63,0,1,0-1.62-1.63A1.63,1.63,0,0,0,274.27,405.66Z"/><circle class="cls-7" cx="285.35" cy="404.03" r="1.63"/><path class="cls-7" d="M207.82,416.74a1.63,1.63,0,1,0-1.63-1.63A1.62,1.62,0,0,0,207.82,416.74Z"/><path class="cls-7" d="M218.89,416.74a1.63,1.63,0,1,0-1.62-1.63A1.63,1.63,0,0,0,218.89,416.74Z"/><path class="cls-7" d="M230,416.74a1.63,1.63,0,1,0-1.63-1.63A1.63,1.63,0,0,0,230,416.74Z"/><path class="cls-7" d="M241.05,416.74a1.63,1.63,0,1,0-1.63-1.63A1.63,1.63,0,0,0,241.05,416.74Z"/><path class="cls-7" d="M252.12,416.74a1.63,1.63,0,1,0-1.63-1.63A1.63,1.63,0,0,0,252.12,416.74Z"/><path class="cls-7" d="M263.2,416.74a1.63,1.63,0,1,0-1.63-1.63A1.63,1.63,0,0,0,263.2,416.74Z"/><path class="cls-7" d="M274.27,416.74a1.63,1.63,0,1,0-1.62-1.63A1.63,1.63,0,0,0,274.27,416.74Z"/><path class="cls-7" d="M285.35,416.74a1.63,1.63,0,1,0-1.63-1.63A1.63,1.63,0,0,0,285.35,416.74Z"/><circle class="cls-7" cx="207.82" cy="426.18" r="1.63"/><circle class="cls-7" cx="218.89" cy="426.18" r="1.63"/><circle class="cls-7" cx="229.97" cy="426.18" r="1.63"/><circle class="cls-7" cx="241.05" cy="426.18" r="1.63"/><path class="cls-7" d="M252.12,427.81a1.63,1.63,0,1,0-1.63-1.63A1.63,1.63,0,0,0,252.12,427.81Z"/><circle class="cls-7" cx="263.2" cy="426.18" r="1.63"/><path class="cls-7" d="M274.27,427.81a1.63,1.63,0,1,0-1.62-1.63A1.63,1.63,0,0,0,274.27,427.81Z"/><circle class="cls-7" cx="285.35" cy="426.18" r="1.63"/><circle class="cls-7" cx="207.82" cy="437.26" r="1.63"/><circle class="cls-7" cx="218.89" cy="437.26" r="1.63"/><circle class="cls-7" cx="229.97" cy="437.26" r="1.63"/><circle class="cls-7" cx="241.05" cy="437.26" r="1.63"/><path class="cls-7" d="M252.12,438.89a1.63,1.63,0,1,0-1.63-1.63A1.63,1.63,0,0,0,252.12,438.89Z"/><circle class="cls-7" cx="263.2" cy="437.26" r="1.63"/><path class="cls-7" d="M274.27,438.89a1.63,1.63,0,1,0-1.62-1.63A1.63,1.63,0,0,0,274.27,438.89Z"/><circle class="cls-7" cx="285.35" cy="437.26" r="1.63"/><circle class="cls-7" cx="207.82" cy="448.34" r="1.63"/><circle class="cls-7" cx="218.89" cy="448.34" r="1.63"/><circle class="cls-7" cx="229.97" cy="448.34" r="1.63"/><circle class="cls-7" cx="241.05" cy="448.34" r="1.63"/><path class="cls-7" d="M252.12,450a1.63,1.63,0,1,0-1.63-1.62A1.62,1.62,0,0,0,252.12,450Z"/><circle class="cls-7" cx="263.2" cy="448.34" r="1.63"/><path class="cls-7" d="M274.27,450a1.63,1.63,0,1,0-1.62-1.62A1.62,1.62,0,0,0,274.27,450Z"/><circle class="cls-7" cx="285.35" cy="448.34" r="1.63"/><circle class="cls-7" cx="207.82" cy="459.41" r="1.63"/><circle class="cls-7" cx="218.89" cy="459.41" r="1.63"/><circle class="cls-7" cx="229.97" cy="459.41" r="1.63"/><circle class="cls-7" cx="241.05" cy="459.41" r="1.63"/><path class="cls-7" d="M252.12,461a1.63,1.63,0,1,0-1.63-1.63A1.63,1.63,0,0,0,252.12,461Z"/><circle class="cls-7" cx="263.2" cy="459.41" r="1.63"/><path class="cls-7" d="M274.27,461a1.63,1.63,0,1,0-1.62-1.63A1.63,1.63,0,0,0,274.27,461Z"/><circle class="cls-7" cx="285.35" cy="459.41" r="1.63"/><circle class="cls-7" cx="207.82" cy="470.49" r="1.63"/><circle class="cls-7" cx="218.89" cy="470.49" r="1.63"/><circle class="cls-7" cx="229.97" cy="470.49" r="1.63"/><circle class="cls-7" cx="241.05" cy="470.49" r="1.63"/><path class="cls-7" d="M252.12,472.12a1.63,1.63,0,1,0-1.63-1.63A1.63,1.63,0,0,0,252.12,472.12Z"/><circle class="cls-7" cx="263.2" cy="470.49" r="1.63"/><path class="cls-7" d="M274.27,472.12a1.63,1.63,0,1,0-1.62-1.63A1.63,1.63,0,0,0,274.27,472.12Z"/><circle class="cls-7" cx="285.35" cy="470.49" r="1.63"/><circle class="cls-7" cx="207.82" cy="481.56" r="1.63"/><circle class="cls-7" cx="218.89" cy="481.56" r="1.63"/><circle class="cls-7" cx="229.97" cy="481.56" r="1.63"/><circle class="cls-7" cx="241.05" cy="481.56" r="1.63"/><path class="cls-7" d="M252.12,483.19a1.63,1.63,0,1,0-1.63-1.63A1.63,1.63,0,0,0,252.12,483.19Z"/><circle class="cls-7" cx="263.2" cy="481.56" r="1.63"/><path class="cls-7" d="M274.27,483.19a1.63,1.63,0,1,0-1.62-1.63A1.63,1.63,0,0,0,274.27,483.19Z"/><circle class="cls-7" cx="285.35" cy="481.56" r="1.63"/><path class="cls-7" d="M207.82,494.27a1.63,1.63,0,1,0-1.63-1.63A1.62,1.62,0,0,0,207.82,494.27Z"/><path class="cls-7" d="M218.89,494.27a1.63,1.63,0,1,0-1.62-1.63A1.63,1.63,0,0,0,218.89,494.27Z"/><path class="cls-7" d="M230,494.27a1.63,1.63,0,1,0-1.63-1.63A1.63,1.63,0,0,0,230,494.27Z"/><path class="cls-7" d="M241.05,494.27a1.63,1.63,0,1,0-1.63-1.63A1.63,1.63,0,0,0,241.05,494.27Z"/><path class="cls-7" d="M252.12,494.27a1.63,1.63,0,1,0-1.63-1.63A1.63,1.63,0,0,0,252.12,494.27Z"/><path class="cls-7" d="M263.2,494.27a1.63,1.63,0,1,0-1.63-1.63A1.63,1.63,0,0,0,263.2,494.27Z"/><path class="cls-7" d="M274.27,494.27a1.63,1.63,0,1,0-1.62-1.63A1.63,1.63,0,0,0,274.27,494.27Z"/><path class="cls-7" d="M285.35,494.27a1.63,1.63,0,1,0-1.63-1.63A1.63,1.63,0,0,0,285.35,494.27Z"/><circle class="cls-7" cx="207.82" cy="503.72" r="1.63"/><circle class="cls-7" cx="218.89" cy="503.72" r="1.63"/><circle class="cls-7" cx="229.97" cy="503.72" r="1.63"/><circle class="cls-7" cx="241.05" cy="503.72" r="1.63"/><path class="cls-7" d="M252.12,505.34a1.63,1.63,0,1,0-1.63-1.62A1.62,1.62,0,0,0,252.12,505.34Z"/><circle class="cls-7" cx="263.2" cy="503.72" r="1.63"/><path class="cls-7" d="M274.27,505.34a1.63,1.63,0,1,0-1.62-1.62A1.62,1.62,0,0,0,274.27,505.34Z"/><circle class="cls-7" cx="285.35" cy="503.72" r="1.63"/><path class="cls-7" d="M207.82,516.42a1.63,1.63,0,1,0-1.63-1.63A1.62,1.62,0,0,0,207.82,516.42Z"/><path class="cls-7" d="M218.89,516.42a1.63,1.63,0,1,0-1.62-1.63A1.63,1.63,0,0,0,218.89,516.42Z"/><path class="cls-7" d="M230,516.42a1.63,1.63,0,1,0-1.63-1.63A1.63,1.63,0,0,0,230,516.42Z"/><path class="cls-7" d="M241.05,516.42a1.63,1.63,0,1,0-1.63-1.63A1.63,1.63,0,0,0,241.05,516.42Z"/><path class="cls-7" d="M252.12,516.42a1.63,1.63,0,1,0-1.63-1.63A1.63,1.63,0,0,0,252.12,516.42Z"/><path class="cls-7" d="M263.2,516.42a1.63,1.63,0,1,0-1.63-1.63A1.63,1.63,0,0,0,263.2,516.42Z"/><path class="cls-7" d="M274.27,516.42a1.63,1.63,0,1,0-1.62-1.63A1.63,1.63,0,0,0,274.27,516.42Z"/><path class="cls-7" d="M285.35,516.42a1.63,1.63,0,1,0-1.63-1.63A1.63,1.63,0,0,0,285.35,516.42Z"/></g><rect class="cls-14" x="-484.05" y="-69.43" width="2313.53" height="1131.11" transform="translate(1344.95 992.89) rotate(-179.95)"/></g></g></svg>