<svg xmlns="http://www.w3.org/2000/svg" xmlns:xlink="http://www.w3.org/1999/xlink" viewBox="0 0 862.88 1015"><defs><style>.cls-1{isolation:isolate;}.cls-18,.cls-2{fill:#1d2c90;}.cls-3{fill:url(#linear-gradient);}.cls-4{fill:url(#linear-gradient-2);}.cls-5{fill:#636363;}.cls-5,.cls-7{mix-blend-mode:overlay;}.cls-6{fill:url(#linear-gradient-3);}.cls-8{fill:#fff;}.cls-9{fill:url(#linear-gradient-4);}.cls-10{mix-blend-mode:color-burn;fill:url(#Degradado_sin_nombre_37);}.cls-11{fill:url(#linear-gradient-5);}.cls-12{mix-blend-mode:color-dodge;}.cls-13{fill:url(#linear-gradient-6);}.cls-14{fill:url(#linear-gradient-7);}.cls-15{fill:url(#linear-gradient-8);}.cls-16{fill:url(#linear-gradient-9);}.cls-17{fill:url(#linear-gradient-10);}.cls-18{opacity:0.69;}</style><linearGradient id="linear-gradient" x1="946.07" y1="-46.25" x2="1051.1" y2="111.05" gradientUnits="userSpaceOnUse"><stop offset="0" stop-color="#accfe4"/><stop offset="1" stop-color="#0062b9"/></linearGradient><linearGradient id="linear-gradient-2" x1="-48.69" y1="81.52" x2="72.3" y2="262.73" xlink:href="#linear-gradient"/><linearGradient id="linear-gradient-3" x1="-14.36" y1="827.99" x2="106.63" y2="1009.19" xlink:href="#linear-gradient"/><linearGradient id="linear-gradient-4" x1="594.69" y1="359.04" x2="719.71" y2="704.05" xlink:href="#linear-gradient"/><radialGradient id="Degradado_sin_nombre_37" cx="884.33" cy="713.45" r="79.21" gradientTransform="translate(26.24 -31.35) rotate(2.06)" gradientUnits="userSpaceOnUse"><stop offset="0" stop-color="#999" stop-opacity="0.3"/><stop offset="0.66" stop-color="#e1e1e1" stop-opacity="0.44"/><stop offset="1" stop-color="#fff" stop-opacity="0.5"/></radialGradient><linearGradient id="linear-gradient-5" x1="884.64" y1="735.38" x2="884.64" y2="638.81" gradientTransform="translate(1549.63 -213.45) rotate(88.36)" gradientUnits="userSpaceOnUse"><stop offset="0" stop-color="#2257a1"/><stop offset="1" stop-color="#186aa7"/></linearGradient><linearGradient id="linear-gradient-6" x1="207.87" y1="265.72" x2="314.35" y2="265.72" gradientTransform="translate(264.37 -106.81) rotate(45)" gradientUnits="userSpaceOnUse"><stop offset="0"/><stop offset="0.11" stop-color="#060606"/><stop offset="0.25" stop-color="#161616"/><stop offset="0.41" stop-color="#323232"/><stop offset="0.59" stop-color="#575757"/><stop offset="0.78" stop-color="#888"/><stop offset="0.97" stop-color="#c3c3c3"/><stop offset="1" stop-color="#ccc"/></linearGradient><linearGradient id="linear-gradient-7" x1="124.43" y1="443.83" x2="288.19" y2="443.83" gradientTransform="translate(374.27 -15.88) rotate(45)" xlink:href="#linear-gradient-6"/><linearGradient id="linear-gradient-8" x1="313.9" y1="302.79" x2="583.5" y2="302.79" gradientTransform="translate(345.53 -228.6) rotate(45)" gradientUnits="userSpaceOnUse"><stop offset="0" stop-color="#ccc"/><stop offset="0.03" stop-color="#c3c3c3"/><stop offset="0.22" stop-color="#888"/><stop offset="0.41" stop-color="#575757"/><stop offset="0.59" stop-color="#323232"/><stop offset="0.75" stop-color="#161616"/><stop offset="0.89" stop-color="#060606"/><stop offset="1"/></linearGradient><linearGradient id="linear-gradient-9" x1="640.86" y1="958.1" x2="781.83" y2="958.1" gradientTransform="translate(885.82 -222.37) rotate(45)" xlink:href="#linear-gradient-8"/><linearGradient id="linear-gradient-10" x1="467.86" y1="414.47" x2="792.82" y2="414.47" gradientTransform="translate(477.69 -324.32) rotate(45)" xlink:href="#linear-gradient-8"/></defs><title>fondo-onstar-6</title><g class="cls-1"><g id="OBJECTS"><rect class="cls-2" x="-714.02" y="-69.43" width="2313.53" height="1131.11" transform="translate(885.01 992.67) rotate(-179.95)"/><path class="cls-3" d="M838.66,76.37c-5.63-18.65,3.89-38.26,18.75-49.5,16.82-12.71,31.83-18.73,33.32-40.22.49-7,1.45-16.79,3.92-23.35,9.07-24.12,36.53-20.18,56.66-21.84,18.89-1.57,30-13.58,47.37-31,.11-.11,34.4-54.88,58-6.72,4.37,8.92,6,16.45,8,21.39,7.83,19.42,26,16.79,55,25.61,36.63,11.18,52.31,50.8,16.19,68.48-13.88,6.8-26.29,8.88-39.42,17.15-26.82,16.91-20.89,45.1-44.14,60-8.21,6.41-21.3,9.08-30.45,8.6-35.24-1.84-50.17-14.09-74.42-3.91-8.24,3.46-18.32,9.47-30.79,12.79C884.51,122.42,847.54,105.7,838.66,76.37Z"/><path class="cls-4" d="M-172.42,222.77c-6.5-21.48,4.48-44.07,21.6-57,19.37-14.64,36.67-21.58,38.38-46.34.56-8,1.67-19.33,4.51-26.89,10.45-27.79,42.09-23.25,65.27-25.16,21.77-1.81,34.59-15.64,54.57-35.73.13-.13,39.64-63.22,66.82-7.75,5,10.28,6.91,19,9.2,24.65,9,22.37,30,19.33,63.34,29.5,42.2,12.87,60.25,58.52,18.65,78.89-16,7.82-30.29,10.22-45.41,19.75-30.9,19.48-24.06,52-50.85,69.14-9.46,7.39-24.54,10.46-35.08,9.91-40.59-2.12-57.79-16.24-85.73-4.5-9.49,4-21.11,10.9-35.46,14.73C-119.61,275.82-162.2,256.56-172.42,222.77Z"/><path class="cls-5" d="M-200.85,115.47c67.93-25.58,52.52-26.1,91.44-60.84C-69.15,18.69-51.79,42.35-15.7,36.79,28.93,29.91,3.13-39.78,37.37-32.55c12.73,2.69,16,7,32,5.23,6.93-.75,23.23-9.4,45.09-.82s35.56,34.87,23.32,59C129.56,47,119.47,56,123.86,70.27c6.48,21.08,23.49,50.53-2.1,62.58C93.26,146.27,59.44,123.7,44,157c-15.21,32.72-12.23,69.92-45.42,98.42-27.24,23.38-52.72,8.26-82.2-11-17.8-11.61-32.86-9.36-53-4.62-27.36,6.43-58.08.51-78.06-10.28-25.72-13.88-33.65-49.4-24.7-77.59C-233.63,133.7-218.78,122.22-200.85,115.47Z"/><path class="cls-6" d="M-138.09,969.24c-6.5-21.48,4.48-44.08,21.6-57,19.37-14.64,36.67-21.58,38.38-46.34.56-8,1.67-19.33,4.51-26.89,10.45-27.79,42.09-23.25,65.27-25.17,21.77-1.8,34.59-15.63,54.57-35.72.13-.13,39.64-63.23,66.82-7.75,5,10.28,6.9,18.95,9.2,24.64,9,22.37,30,19.34,63.34,29.51,42.2,12.87,60.25,58.51,18.65,78.88-16,7.83-30.29,10.23-45.41,19.76-30.9,19.48-24.06,52-50.85,69.14-9.46,7.38-24.54,10.46-35.08,9.91-40.59-2.12-57.79-16.24-85.73-4.51-9.49,4-21.11,10.91-35.47,14.74C-85.28,1022.28-127.87,1003-138.09,969.24Z"/><path class="cls-5" d="M-166.52,861.94c67.93-25.59,52.52-26.11,91.43-60.84,40.27-36,57.63-12.28,93.72-17.85,44.63-6.87,18.83-76.56,53.07-69.34,12.73,2.69,16,7,32,5.24,6.94-.76,23.24-9.41,45.1-.83s35.56,34.87,23.32,59c-8.21,16.17-18.3,25.13-13.91,39.4,6.48,21.09,23.49,50.54-2.1,62.59-28.5,13.42-62.32-9.16-77.81,24.16-15.21,32.71-12.23,69.91-45.42,98.41-27.24,23.39-52.72,8.27-82.2-11-17.8-11.61-32.87-9.36-53-4.63-27.36,6.44-58.08.52-78.06-10.27-25.73-13.89-33.65-49.4-24.7-77.59C-199.3,880.17-184.45,868.69-166.52,861.94Z"/><g class="cls-7"><path class="cls-8" d="M365.74,658.62c-43,0-86.29-28.84-99.2-70.41a218.89,218.89,0,0,1-5.34-23.08c-3.22-16.64-6.55-33.85-17.94-46.24-17.57-19.09-46.53-19.74-75.21-17.59l-14,1.07c-43,3.36-87.45,6.83-130-2.27-24.63-5.26-47.65-15.23-66.58-28.83-20.8-14.95-36-34-44-55.22-14.3-37.94-5.69-80.3,3.41-113,16.38-58.79,41.45-93.4,76.65-105.82,30.8-10.86,63.55-2,95.22,6.65,13.4,3.64,27.27,7.41,40.82,9.65,64.36,10.6,133-14.9,174.77-65,8.28-9.9,15.62-20.81,22.73-31.35,6.46-9.58,13.13-19.49,20.5-28.65,18.81-23.37,39.12-37,60.38-40.47C449.15,41.37,485.2,72,517,99c73.06,62.09,134,86.77,191.65,77.64,55.87-8.84,104.53-55.49,115.72-110.93S808.79-51.59,760.73-81.4l.54-.87c23.54,14.6,42.92,37.46,54.55,64.36s15,56.68,9.55,83.84-20.16,53.29-41.32,73.57-47.88,33.84-75.25,38.17c-32.11,5.08-66.55-.78-102.36-17.42-28.17-13.08-57.64-32.86-90.11-60.45-31.63-26.88-67.46-57.35-108.2-50.66-21,3.44-41.1,16.94-59.74,40.11-7.34,9.12-14,19-20.45,28.57-7.12,10.57-14.48,21.49-22.79,31.44C269.44,192,214.28,217,158.82,217a180.31,180.31,0,0,1-29.4-2.39c-13.6-2.24-27.49-6-40.92-9.66C57,196.33,24.39,187.47-6.11,198.23c-34.86,12.29-59.72,46.68-76,105.12-9.06,32.52-17.64,74.68-3.44,112.34,18.11,48.07,68.61,74.61,109.82,83.41,42.44,9.07,86.82,5.6,129.74,2.25l14-1.07c28.94-2.16,58.17-1.49,76,17.92,11.59,12.6,14.95,29.95,18.2,46.73a215.27,215.27,0,0,0,5.31,23c15.47,49.8,74.94,81.14,124.76,65.75l.31,1A91,91,0,0,1,365.74,658.62Z"/></g><g class="cls-7"><path class="cls-8" d="M754.43,820.81c-22.62-16.57-25.17-49.44-18-73,6.4-20.88,19.2-39.2,31.58-56.91,2.7-3.85,5.48-7.83,8.14-11.76,13.21-19.5,28.22-45.41,27-72.91-.64-14.43-5.68-28.35-10.56-41.82-3.36-9.26-6.83-18.84-8.89-28.59-7.56-35.88,5-75.12,32-100,9.67-8.91,21.15-16.13,32.24-23.1,16.57-10.42,33.7-21.2,44.52-37.6,21.67-32.9,10.13-75.88-9.76-101.89-23.7-31-60.48-48.53-89.88-60.36-9-3.61-18.2-7.07-27.13-10.41-24.91-9.33-50.68-19-73.74-33-36-21.94-59.55-53-64.67-85.19-2.85-17.89,1.09-37.41,10.82-53.54,10.25-17,25.37-27.93,42.57-30.76l.19,1.13c-36.62,6-57.9,48.78-52.45,83,5.07,31.86,28.44,62.62,64.13,84.38,23,14,48.69,23.64,73.55,33,8.94,3.35,18.18,6.81,27.16,10.42,29.53,11.88,66.49,29.53,90.36,60.72,20.13,26.32,31.78,69.85,9.8,103.21-10.95,16.62-28.19,27.46-44.86,37.94-11,6.95-22.48,14.14-32.08,23-26.69,24.57-39.1,63.38-31.61,98.87,2,9.67,5.5,19.22,8.85,28.44,4.9,13.55,10,27.55,10.62,42.16,1.23,27.83-13.89,53.95-27.2,73.6-2.66,3.94-5.45,7.92-8.14,11.77-12.33,17.64-25.09,35.89-31.43,56.59-7.09,23.17-4.62,55.49,17.55,71.72Z"/></g><path class="cls-9" d="M908.35,673.27c-18.86,25-48.4,36.23-53.2,74.41-3.72,29.71,1.68,69.81-37.59,86.06-16.1,6.67-25.51,6.51-44.37,8.66-35.15,4-38.89,4.26-77.25,32.44-58.19,42.75-91.55-32-144.06-74.68-22.88-18.6-35.42-28.95-44-42.55C485.46,722,518.65,694,530.58,674.09c15.31-25.52-8.15-46.23-6-69.55,5.07-54.91,66.9,19,118-76.4,12.88-24,41.18-37.6,72.13-28.79,41.66,11.86,51.85,51.68,97.57,57.25,8,1,30.89,2.62,45.17,4.89C910.09,569.87,942.5,628,908.35,673.27Z"/><path class="cls-5" d="M576.35,657.44c85.55-32.22,66.15-32.87,115.15-76.62,50.71-45.26,72.56-15.46,118-22.47,56.19-8.66,23.71-96.42,66.82-87.32,16,3.39,20.16,8.79,40.28,6.6,8.74-1,29.26-11.85,56.79-1s44.78,43.91,29.36,74.3c-10.33,20.37-23,31.65-17.51,49.62,8.16,26.55,29.58,63.64-2.65,78.81-35.89,16.9-78.47-11.52-98,30.43-19.15,41.2-15.41,88-57.2,123.93-34.3,29.45-66.39,10.41-103.51-13.82-22.41-14.62-41.39-11.79-66.74-5.82-34.45,8.1-73.15.64-98.31-12.94-32.39-17.49-42.36-62.21-31.09-97.71C535.07,680.39,553.78,665.94,576.35,657.44Z"/><circle class="cls-10" cx="884.33" cy="713.45" r="79.21" transform="translate(-25.09 32.27) rotate(-2.06)"/><circle class="cls-11" cx="884.64" cy="690.6" r="57.88" transform="translate(168.99 1555.1) rotate(-88.36)"/><g class="cls-12"><rect class="cls-13" x="186.96" y="264.58" width="148.3" height="2.28" transform="translate(-111.41 262.46) rotate(-45)"/></g><g class="cls-12"><rect class="cls-14" x="91.65" y="442.69" width="229.31" height="2.28" transform="translate(-253.41 275.88) rotate(-45)"/></g><g class="cls-12"><rect class="cls-15" x="259.21" y="301.65" width="378.99" height="2.28" transform="translate(-82.68 405.97) rotate(-45)"/></g><g class="cls-12"><rect class="cls-16" x="612.26" y="957.5" width="198.16" height="1.19" transform="translate(-469.13 783.62) rotate(-45)"/></g><g class="cls-12"><rect class="cls-17" x="401.96" y="413.07" width="456.77" height="2.79" transform="translate(-108.45 567.11) rotate(-45)"/></g><g class="cls-7"><path class="cls-8" d="M584.81,913.46a1.32,1.32,0,1,0-1.31-1.31A1.32,1.32,0,0,0,584.81,913.46Z"/><path class="cls-8" d="M593.74,913.46a1.32,1.32,0,1,0-1.31-1.31A1.31,1.31,0,0,0,593.74,913.46Z"/><path class="cls-8" d="M602.67,913.46a1.32,1.32,0,1,0-1.31-1.31A1.31,1.31,0,0,0,602.67,913.46Z"/><path class="cls-8" d="M611.6,913.46a1.32,1.32,0,1,0-1.31-1.31A1.31,1.31,0,0,0,611.6,913.46Z"/><path class="cls-8" d="M620.53,913.46a1.32,1.32,0,1,0-1.32-1.31A1.31,1.31,0,0,0,620.53,913.46Z"/><path class="cls-8" d="M629.45,913.46a1.32,1.32,0,1,0-1.31-1.31A1.32,1.32,0,0,0,629.45,913.46Z"/><path class="cls-8" d="M638.38,913.46a1.32,1.32,0,1,0-1.31-1.31A1.31,1.31,0,0,0,638.38,913.46Z"/><path class="cls-8" d="M647.31,913.46a1.32,1.32,0,1,0-1.31-1.31A1.31,1.31,0,0,0,647.31,913.46Z"/><path class="cls-8" d="M656.24,913.46a1.32,1.32,0,1,0-1.32-1.31A1.31,1.31,0,0,0,656.24,913.46Z"/><path class="cls-8" d="M665.16,913.46a1.32,1.32,0,1,0-1.31-1.31A1.32,1.32,0,0,0,665.16,913.46Z"/><path class="cls-8" d="M674.09,913.46a1.32,1.32,0,1,0-1.31-1.31A1.31,1.31,0,0,0,674.09,913.46Z"/><path class="cls-8" d="M683,913.46a1.32,1.32,0,1,0-1.31-1.31A1.31,1.31,0,0,0,683,913.46Z"/><path class="cls-8" d="M692,913.46a1.32,1.32,0,1,0-1.32-1.31A1.31,1.31,0,0,0,692,913.46Z"/><path class="cls-8" d="M700.87,913.46a1.32,1.32,0,1,0-1.31-1.31A1.32,1.32,0,0,0,700.87,913.46Z"/><path class="cls-8" d="M709.8,913.46a1.32,1.32,0,1,0-1.31-1.31A1.31,1.31,0,0,0,709.8,913.46Z"/><path class="cls-8" d="M718.73,913.46a1.32,1.32,0,1,0-1.31-1.31A1.31,1.31,0,0,0,718.73,913.46Z"/><path class="cls-8" d="M727.66,913.46a1.32,1.32,0,1,0-1.31-1.31A1.31,1.31,0,0,0,727.66,913.46Z"/><path class="cls-8" d="M736.59,913.46a1.32,1.32,0,1,0-1.32-1.31A1.31,1.31,0,0,0,736.59,913.46Z"/><path class="cls-8" d="M745.51,913.46a1.32,1.32,0,1,0-1.31-1.31A1.31,1.31,0,0,0,745.51,913.46Z"/><path class="cls-8" d="M754.44,913.46a1.32,1.32,0,1,0-1.31-1.31A1.31,1.31,0,0,0,754.44,913.46Z"/><path class="cls-8" d="M763.37,913.46a1.32,1.32,0,1,0-1.31-1.31A1.31,1.31,0,0,0,763.37,913.46Z"/><path class="cls-8" d="M772.3,913.46a1.32,1.32,0,1,0-1.32-1.31A1.31,1.31,0,0,0,772.3,913.46Z"/><path class="cls-8" d="M781.22,913.46a1.32,1.32,0,1,0-1.31-1.31A1.32,1.32,0,0,0,781.22,913.46Z"/><path class="cls-8" d="M790.15,913.46a1.32,1.32,0,1,0-1.31-1.31A1.31,1.31,0,0,0,790.15,913.46Z"/><path class="cls-8" d="M799.08,913.46a1.32,1.32,0,1,0-1.31-1.31A1.31,1.31,0,0,0,799.08,913.46Z"/><path class="cls-8" d="M808,913.46a1.32,1.32,0,1,0-1.32-1.31A1.31,1.31,0,0,0,808,913.46Z"/><path class="cls-8" d="M816.93,913.46a1.32,1.32,0,1,0-1.31-1.31A1.32,1.32,0,0,0,816.93,913.46Z"/><path class="cls-8" d="M825.86,913.46a1.32,1.32,0,1,0-1.31-1.31A1.31,1.31,0,0,0,825.86,913.46Z"/><path class="cls-8" d="M834.79,913.46a1.32,1.32,0,1,0-1.31-1.31A1.31,1.31,0,0,0,834.79,913.46Z"/><path class="cls-8" d="M843.72,913.46a1.32,1.32,0,1,0-1.31-1.31A1.31,1.31,0,0,0,843.72,913.46Z"/><path class="cls-8" d="M852.64,913.46a1.32,1.32,0,1,0-1.31-1.31A1.32,1.32,0,0,0,852.64,913.46Z"/><path class="cls-8" d="M861.57,913.46a1.32,1.32,0,1,0-1.31-1.31A1.31,1.31,0,0,0,861.57,913.46Z"/><path class="cls-8" d="M584.81,922.39a1.32,1.32,0,1,0-1.31-1.32A1.32,1.32,0,0,0,584.81,922.39Z"/><path class="cls-8" d="M593.74,922.39a1.32,1.32,0,1,0-1.31-1.32A1.31,1.31,0,0,0,593.74,922.39Z"/><path class="cls-8" d="M602.67,922.39a1.32,1.32,0,1,0-1.31-1.32A1.32,1.32,0,0,0,602.67,922.39Z"/><path class="cls-8" d="M611.6,922.39a1.32,1.32,0,1,0-1.31-1.32A1.32,1.32,0,0,0,611.6,922.39Z"/><path class="cls-8" d="M620.53,922.39a1.32,1.32,0,1,0-1.32-1.32A1.32,1.32,0,0,0,620.53,922.39Z"/><path class="cls-8" d="M629.45,922.39a1.32,1.32,0,1,0-1.31-1.32A1.32,1.32,0,0,0,629.45,922.39Z"/><path class="cls-8" d="M638.38,922.39a1.32,1.32,0,1,0-1.31-1.32A1.31,1.31,0,0,0,638.38,922.39Z"/><path class="cls-8" d="M647.31,922.39a1.32,1.32,0,1,0-1.31-1.32A1.32,1.32,0,0,0,647.31,922.39Z"/><path class="cls-8" d="M656.24,922.39a1.32,1.32,0,1,0-1.32-1.32A1.32,1.32,0,0,0,656.24,922.39Z"/><path class="cls-8" d="M665.16,922.39a1.32,1.32,0,1,0-1.31-1.32A1.32,1.32,0,0,0,665.16,922.39Z"/><path class="cls-8" d="M674.09,922.39a1.32,1.32,0,1,0-1.31-1.32A1.31,1.31,0,0,0,674.09,922.39Z"/><path class="cls-8" d="M683,922.39a1.32,1.32,0,1,0-1.31-1.32A1.32,1.32,0,0,0,683,922.39Z"/><path class="cls-8" d="M692,922.39a1.32,1.32,0,1,0-1.32-1.32A1.32,1.32,0,0,0,692,922.39Z"/><path class="cls-8" d="M700.87,922.39a1.32,1.32,0,1,0-1.31-1.32A1.32,1.32,0,0,0,700.87,922.39Z"/><path class="cls-8" d="M709.8,922.39a1.32,1.32,0,1,0-1.31-1.32A1.31,1.31,0,0,0,709.8,922.39Z"/><path class="cls-8" d="M718.73,922.39a1.32,1.32,0,1,0-1.31-1.32A1.32,1.32,0,0,0,718.73,922.39Z"/><path class="cls-8" d="M727.66,922.39a1.32,1.32,0,1,0-1.31-1.32A1.32,1.32,0,0,0,727.66,922.39Z"/><path class="cls-8" d="M736.59,922.39a1.32,1.32,0,1,0-1.32-1.32A1.32,1.32,0,0,0,736.59,922.39Z"/><path class="cls-8" d="M745.51,922.39a1.32,1.32,0,1,0-1.31-1.32A1.31,1.31,0,0,0,745.51,922.39Z"/><path class="cls-8" d="M754.44,922.39a1.32,1.32,0,1,0-1.31-1.32A1.31,1.31,0,0,0,754.44,922.39Z"/><path class="cls-8" d="M763.37,922.39a1.32,1.32,0,1,0-1.31-1.32A1.32,1.32,0,0,0,763.37,922.39Z"/><path class="cls-8" d="M772.3,922.39a1.32,1.32,0,1,0-1.32-1.32A1.32,1.32,0,0,0,772.3,922.39Z"/><path class="cls-8" d="M781.22,922.39a1.32,1.32,0,1,0-1.31-1.32A1.32,1.32,0,0,0,781.22,922.39Z"/><path class="cls-8" d="M790.15,922.39a1.32,1.32,0,1,0-1.31-1.32A1.31,1.31,0,0,0,790.15,922.39Z"/><path class="cls-8" d="M799.08,922.39a1.32,1.32,0,1,0-1.31-1.32A1.32,1.32,0,0,0,799.08,922.39Z"/><path class="cls-8" d="M808,922.39a1.32,1.32,0,1,0-1.32-1.32A1.32,1.32,0,0,0,808,922.39Z"/><path class="cls-8" d="M816.93,922.39a1.32,1.32,0,1,0-1.31-1.32A1.32,1.32,0,0,0,816.93,922.39Z"/><path class="cls-8" d="M825.86,922.39a1.32,1.32,0,1,0-1.31-1.32A1.31,1.31,0,0,0,825.86,922.39Z"/><path class="cls-8" d="M834.79,922.39a1.32,1.32,0,1,0-1.31-1.32A1.32,1.32,0,0,0,834.79,922.39Z"/><path class="cls-8" d="M843.72,922.39a1.32,1.32,0,1,0-1.31-1.32A1.32,1.32,0,0,0,843.72,922.39Z"/><path class="cls-8" d="M852.64,922.39a1.32,1.32,0,1,0-1.31-1.32A1.32,1.32,0,0,0,852.64,922.39Z"/><path class="cls-8" d="M861.57,922.39a1.32,1.32,0,1,0-1.31-1.32A1.31,1.31,0,0,0,861.57,922.39Z"/><path class="cls-8" d="M584.81,931.31A1.31,1.31,0,1,0,583.5,930,1.31,1.31,0,0,0,584.81,931.31Z"/><path class="cls-8" d="M593.74,931.31a1.31,1.31,0,1,0-1.31-1.31A1.3,1.3,0,0,0,593.74,931.31Z"/><path class="cls-8" d="M602.67,931.31a1.31,1.31,0,1,0-1.31-1.31A1.31,1.31,0,0,0,602.67,931.31Z"/><path class="cls-8" d="M611.6,931.31a1.31,1.31,0,1,0-1.31-1.31A1.31,1.31,0,0,0,611.6,931.31Z"/><path class="cls-8" d="M620.53,931.31a1.31,1.31,0,1,0-1.32-1.31A1.31,1.31,0,0,0,620.53,931.31Z"/><path class="cls-8" d="M629.45,931.31a1.31,1.31,0,1,0-1.31-1.31A1.31,1.31,0,0,0,629.45,931.31Z"/><path class="cls-8" d="M638.38,931.31a1.31,1.31,0,1,0-1.31-1.31A1.3,1.3,0,0,0,638.38,931.31Z"/><path class="cls-8" d="M647.31,931.31A1.31,1.31,0,1,0,646,930,1.31,1.31,0,0,0,647.31,931.31Z"/><path class="cls-8" d="M656.24,931.31a1.31,1.31,0,1,0-1.32-1.31A1.31,1.31,0,0,0,656.24,931.31Z"/><path class="cls-8" d="M665.16,931.31a1.31,1.31,0,1,0-1.31-1.31A1.31,1.31,0,0,0,665.16,931.31Z"/><path class="cls-8" d="M674.09,931.31a1.31,1.31,0,1,0-1.31-1.31A1.3,1.3,0,0,0,674.09,931.31Z"/><path class="cls-8" d="M683,931.31a1.31,1.31,0,1,0-1.31-1.31A1.31,1.31,0,0,0,683,931.31Z"/><path class="cls-8" d="M692,931.31a1.31,1.31,0,1,0-1.32-1.31A1.31,1.31,0,0,0,692,931.31Z"/><path class="cls-8" d="M700.87,931.31a1.31,1.31,0,1,0-1.31-1.31A1.31,1.31,0,0,0,700.87,931.31Z"/><path class="cls-8" d="M709.8,931.31a1.31,1.31,0,1,0-1.31-1.31A1.3,1.3,0,0,0,709.8,931.31Z"/><path class="cls-8" d="M718.73,931.31a1.31,1.31,0,1,0-1.31-1.31A1.31,1.31,0,0,0,718.73,931.31Z"/><path class="cls-8" d="M727.66,931.31a1.31,1.31,0,1,0-1.31-1.31A1.31,1.31,0,0,0,727.66,931.31Z"/><path class="cls-8" d="M736.59,931.31a1.31,1.31,0,1,0-1.32-1.31A1.31,1.31,0,0,0,736.59,931.31Z"/><path class="cls-8" d="M745.51,931.31A1.31,1.31,0,1,0,744.2,930,1.3,1.3,0,0,0,745.51,931.31Z"/><path class="cls-8" d="M754.44,931.31a1.31,1.31,0,1,0-1.31-1.31A1.3,1.3,0,0,0,754.44,931.31Z"/><path class="cls-8" d="M763.37,931.31a1.31,1.31,0,1,0-1.31-1.31A1.31,1.31,0,0,0,763.37,931.31Z"/><path class="cls-8" d="M772.3,931.31A1.31,1.31,0,1,0,771,930,1.31,1.31,0,0,0,772.3,931.31Z"/><path class="cls-8" d="M781.22,931.31a1.31,1.31,0,1,0-1.31-1.31A1.31,1.31,0,0,0,781.22,931.31Z"/><path class="cls-8" d="M790.15,931.31a1.31,1.31,0,1,0-1.31-1.31A1.3,1.3,0,0,0,790.15,931.31Z"/><path class="cls-8" d="M799.08,931.31a1.31,1.31,0,1,0-1.31-1.31A1.31,1.31,0,0,0,799.08,931.31Z"/><path class="cls-8" d="M808,931.31a1.31,1.31,0,1,0-1.32-1.31A1.31,1.31,0,0,0,808,931.31Z"/><path class="cls-8" d="M816.93,931.31a1.31,1.31,0,1,0-1.31-1.31A1.31,1.31,0,0,0,816.93,931.31Z"/><path class="cls-8" d="M825.86,931.31a1.31,1.31,0,1,0-1.31-1.31A1.3,1.3,0,0,0,825.86,931.31Z"/><path class="cls-8" d="M834.79,931.31a1.31,1.31,0,1,0-1.31-1.31A1.31,1.31,0,0,0,834.79,931.31Z"/><path class="cls-8" d="M843.72,931.31a1.31,1.31,0,1,0-1.31-1.31A1.31,1.31,0,0,0,843.72,931.31Z"/><path class="cls-8" d="M852.64,931.31a1.31,1.31,0,1,0-1.31-1.31A1.31,1.31,0,0,0,852.64,931.31Z"/><path class="cls-8" d="M861.57,931.31a1.31,1.31,0,1,0-1.31-1.31A1.3,1.3,0,0,0,861.57,931.31Z"/><path class="cls-8" d="M584.81,940.24a1.31,1.31,0,1,0-1.31-1.31A1.32,1.32,0,0,0,584.81,940.24Z"/><path class="cls-8" d="M593.74,940.24a1.31,1.31,0,1,0-1.31-1.31A1.31,1.31,0,0,0,593.74,940.24Z"/><path class="cls-8" d="M602.67,940.24a1.31,1.31,0,1,0-1.31-1.31A1.31,1.31,0,0,0,602.67,940.24Z"/><path class="cls-8" d="M611.6,940.24a1.31,1.31,0,1,0-1.31-1.31A1.31,1.31,0,0,0,611.6,940.24Z"/><path class="cls-8" d="M620.53,940.24a1.31,1.31,0,1,0-1.32-1.31A1.31,1.31,0,0,0,620.53,940.24Z"/><path class="cls-8" d="M629.45,940.24a1.31,1.31,0,1,0-1.31-1.31A1.32,1.32,0,0,0,629.45,940.24Z"/><path class="cls-8" d="M638.38,940.24a1.31,1.31,0,1,0-1.31-1.31A1.31,1.31,0,0,0,638.38,940.24Z"/><path class="cls-8" d="M647.31,940.24a1.31,1.31,0,1,0-1.31-1.31A1.31,1.31,0,0,0,647.31,940.24Z"/><path class="cls-8" d="M656.24,940.24a1.31,1.31,0,1,0-1.32-1.31A1.31,1.31,0,0,0,656.24,940.24Z"/><path class="cls-8" d="M665.16,940.24a1.31,1.31,0,1,0-1.31-1.31A1.32,1.32,0,0,0,665.16,940.24Z"/><path class="cls-8" d="M674.09,940.24a1.31,1.31,0,1,0-1.31-1.31A1.31,1.31,0,0,0,674.09,940.24Z"/><path class="cls-8" d="M683,940.24a1.31,1.31,0,1,0-1.31-1.31A1.31,1.31,0,0,0,683,940.24Z"/><path class="cls-8" d="M692,940.24a1.31,1.31,0,1,0-1.32-1.31A1.31,1.31,0,0,0,692,940.24Z"/><path class="cls-8" d="M700.87,940.24a1.31,1.31,0,1,0-1.31-1.31A1.32,1.32,0,0,0,700.87,940.24Z"/><path class="cls-8" d="M709.8,940.24a1.31,1.31,0,1,0-1.31-1.31A1.31,1.31,0,0,0,709.8,940.24Z"/><path class="cls-8" d="M718.73,940.24a1.31,1.31,0,1,0-1.31-1.31A1.31,1.31,0,0,0,718.73,940.24Z"/><path class="cls-8" d="M727.66,940.24a1.31,1.31,0,1,0-1.31-1.31A1.31,1.31,0,0,0,727.66,940.24Z"/><path class="cls-8" d="M736.59,940.24a1.31,1.31,0,1,0-1.32-1.31A1.31,1.31,0,0,0,736.59,940.24Z"/><path class="cls-8" d="M745.51,940.24a1.31,1.31,0,1,0-1.31-1.31A1.31,1.31,0,0,0,745.51,940.24Z"/><path class="cls-8" d="M754.44,940.24a1.31,1.31,0,1,0-1.31-1.31A1.31,1.31,0,0,0,754.44,940.24Z"/><path class="cls-8" d="M763.37,940.24a1.31,1.31,0,1,0-1.31-1.31A1.31,1.31,0,0,0,763.37,940.24Z"/><path class="cls-8" d="M772.3,940.24a1.31,1.31,0,1,0-1.32-1.31A1.31,1.31,0,0,0,772.3,940.24Z"/><path class="cls-8" d="M781.22,940.24a1.31,1.31,0,1,0-1.31-1.31A1.32,1.32,0,0,0,781.22,940.24Z"/><path class="cls-8" d="M790.15,940.24a1.31,1.31,0,1,0-1.31-1.31A1.31,1.31,0,0,0,790.15,940.24Z"/><path class="cls-8" d="M799.08,940.24a1.31,1.31,0,1,0-1.31-1.31A1.31,1.31,0,0,0,799.08,940.24Z"/><path class="cls-8" d="M808,940.24a1.31,1.31,0,1,0-1.32-1.31A1.31,1.31,0,0,0,808,940.24Z"/><path class="cls-8" d="M816.93,940.24a1.31,1.31,0,1,0-1.31-1.31A1.32,1.32,0,0,0,816.93,940.24Z"/><path class="cls-8" d="M825.86,940.24a1.31,1.31,0,1,0-1.31-1.31A1.31,1.31,0,0,0,825.86,940.24Z"/><path class="cls-8" d="M834.79,940.24a1.31,1.31,0,1,0-1.31-1.31A1.31,1.31,0,0,0,834.79,940.24Z"/><path class="cls-8" d="M843.72,940.24a1.31,1.31,0,1,0-1.31-1.31A1.31,1.31,0,0,0,843.72,940.24Z"/><path class="cls-8" d="M852.64,940.24a1.31,1.31,0,1,0-1.31-1.31A1.32,1.32,0,0,0,852.64,940.24Z"/><path class="cls-8" d="M861.57,940.24a1.31,1.31,0,1,0-1.31-1.31A1.31,1.31,0,0,0,861.57,940.24Z"/><path class="cls-8" d="M584.81,949.17a1.31,1.31,0,1,0-1.31-1.31A1.32,1.32,0,0,0,584.81,949.17Z"/><path class="cls-8" d="M593.74,949.17a1.31,1.31,0,1,0-1.31-1.31A1.31,1.31,0,0,0,593.74,949.17Z"/><path class="cls-8" d="M602.67,949.17a1.31,1.31,0,1,0-1.31-1.31A1.31,1.31,0,0,0,602.67,949.17Z"/><path class="cls-8" d="M611.6,949.17a1.31,1.31,0,1,0-1.31-1.31A1.31,1.31,0,0,0,611.6,949.17Z"/><path class="cls-8" d="M620.53,949.17a1.31,1.31,0,1,0-1.32-1.31A1.31,1.31,0,0,0,620.53,949.17Z"/><path class="cls-8" d="M629.45,949.17a1.31,1.31,0,1,0-1.31-1.31A1.32,1.32,0,0,0,629.45,949.17Z"/><path class="cls-8" d="M638.38,949.17a1.31,1.31,0,1,0-1.31-1.31A1.31,1.31,0,0,0,638.38,949.17Z"/><path class="cls-8" d="M647.31,949.17a1.31,1.31,0,1,0-1.31-1.31A1.31,1.31,0,0,0,647.31,949.17Z"/><path class="cls-8" d="M656.24,949.17a1.31,1.31,0,1,0-1.32-1.31A1.31,1.31,0,0,0,656.24,949.17Z"/><path class="cls-8" d="M665.16,949.17a1.31,1.31,0,1,0-1.31-1.31A1.32,1.32,0,0,0,665.16,949.17Z"/><path class="cls-8" d="M674.09,949.17a1.31,1.31,0,1,0-1.31-1.31A1.31,1.31,0,0,0,674.09,949.17Z"/><path class="cls-8" d="M683,949.17a1.31,1.31,0,1,0-1.31-1.31A1.31,1.31,0,0,0,683,949.17Z"/><path class="cls-8" d="M692,949.17a1.31,1.31,0,1,0-1.32-1.31A1.31,1.31,0,0,0,692,949.17Z"/><path class="cls-8" d="M700.87,949.17a1.31,1.31,0,1,0-1.31-1.31A1.32,1.32,0,0,0,700.87,949.17Z"/><path class="cls-8" d="M709.8,949.17a1.31,1.31,0,1,0-1.31-1.31A1.31,1.31,0,0,0,709.8,949.17Z"/><path class="cls-8" d="M718.73,949.17a1.31,1.31,0,1,0-1.31-1.31A1.31,1.31,0,0,0,718.73,949.17Z"/><path class="cls-8" d="M727.66,949.17a1.31,1.31,0,1,0-1.31-1.31A1.31,1.31,0,0,0,727.66,949.17Z"/><path class="cls-8" d="M736.59,949.17a1.31,1.31,0,1,0-1.32-1.31A1.31,1.31,0,0,0,736.59,949.17Z"/><path class="cls-8" d="M745.51,949.17a1.31,1.31,0,1,0-1.31-1.31A1.31,1.31,0,0,0,745.51,949.17Z"/><path class="cls-8" d="M754.44,949.17a1.31,1.31,0,1,0-1.31-1.31A1.31,1.31,0,0,0,754.44,949.17Z"/><path class="cls-8" d="M763.37,949.17a1.31,1.31,0,1,0-1.31-1.31A1.31,1.31,0,0,0,763.37,949.17Z"/><path class="cls-8" d="M772.3,949.17a1.31,1.31,0,1,0-1.32-1.31A1.31,1.31,0,0,0,772.3,949.17Z"/><path class="cls-8" d="M781.22,949.17a1.31,1.31,0,1,0-1.31-1.31A1.32,1.32,0,0,0,781.22,949.17Z"/><path class="cls-8" d="M790.15,949.17a1.31,1.31,0,1,0-1.31-1.31A1.31,1.31,0,0,0,790.15,949.17Z"/><path class="cls-8" d="M799.08,949.17a1.31,1.31,0,1,0-1.31-1.31A1.31,1.31,0,0,0,799.08,949.17Z"/><path class="cls-8" d="M808,949.17a1.31,1.31,0,1,0-1.32-1.31A1.31,1.31,0,0,0,808,949.17Z"/><path class="cls-8" d="M816.93,949.17a1.31,1.31,0,1,0-1.31-1.31A1.32,1.32,0,0,0,816.93,949.17Z"/><path class="cls-8" d="M825.86,949.17a1.31,1.31,0,1,0-1.31-1.31A1.31,1.31,0,0,0,825.86,949.17Z"/><path class="cls-8" d="M834.79,949.17a1.31,1.31,0,1,0-1.31-1.31A1.31,1.31,0,0,0,834.79,949.17Z"/><path class="cls-8" d="M843.72,949.17a1.31,1.31,0,1,0-1.31-1.31A1.31,1.31,0,0,0,843.72,949.17Z"/><path class="cls-8" d="M852.64,949.17a1.31,1.31,0,1,0-1.31-1.31A1.32,1.32,0,0,0,852.64,949.17Z"/><path class="cls-8" d="M861.57,949.17a1.31,1.31,0,1,0-1.31-1.31A1.31,1.31,0,0,0,861.57,949.17Z"/><circle class="cls-8" cx="584.81" cy="956.79" r="1.31"/><path class="cls-8" d="M593.74,958.1a1.32,1.32,0,1,0-1.31-1.31A1.31,1.31,0,0,0,593.74,958.1Z"/><circle class="cls-8" cx="602.67" cy="956.79" r="1.31"/><path class="cls-8" d="M611.6,958.1a1.32,1.32,0,1,0-1.31-1.31A1.31,1.31,0,0,0,611.6,958.1Z"/><circle class="cls-8" cx="620.53" cy="956.79" r="1.31"/><circle class="cls-8" cx="629.45" cy="956.79" r="1.31"/><circle class="cls-8" cx="638.38" cy="956.79" r="1.31"/><circle class="cls-8" cx="647.31" cy="956.79" r="1.31"/><circle class="cls-8" cx="656.24" cy="956.79" r="1.31"/><circle class="cls-8" cx="665.16" cy="956.79" r="1.31"/><path class="cls-8" d="M674.09,958.1a1.32,1.32,0,1,0-1.31-1.31A1.31,1.31,0,0,0,674.09,958.1Z"/><circle class="cls-8" cx="683.02" cy="956.79" r="1.31"/><path class="cls-8" d="M692,958.1a1.32,1.32,0,1,0-1.32-1.31A1.31,1.31,0,0,0,692,958.1Z"/><circle class="cls-8" cx="700.87" cy="956.79" r="1.31"/><circle class="cls-8" cx="709.8" cy="956.79" r="1.31"/><circle class="cls-8" cx="718.73" cy="956.79" r="1.31"/><circle class="cls-8" cx="727.66" cy="956.79" r="1.31"/><circle class="cls-8" cx="736.59" cy="956.79" r="1.31"/><circle class="cls-8" cx="745.51" cy="956.79" r="1.31"/><path class="cls-8" d="M754.44,958.1a1.32,1.32,0,1,0-1.31-1.31A1.31,1.31,0,0,0,754.44,958.1Z"/><circle class="cls-8" cx="763.37" cy="956.79" r="1.31"/><path class="cls-8" d="M772.3,958.1a1.32,1.32,0,1,0-1.32-1.31A1.31,1.31,0,0,0,772.3,958.1Z"/><circle class="cls-8" cx="781.22" cy="956.79" r="1.31"/><circle class="cls-8" cx="790.15" cy="956.79" r="1.31"/><circle class="cls-8" cx="799.08" cy="956.79" r="1.31"/><circle class="cls-8" cx="808.01" cy="956.79" r="1.31"/><circle class="cls-8" cx="816.93" cy="956.79" r="1.31"/><circle class="cls-8" cx="825.86" cy="956.79" r="1.31"/><path class="cls-8" d="M834.79,958.1a1.32,1.32,0,1,0-1.31-1.31A1.31,1.31,0,0,0,834.79,958.1Z"/><circle class="cls-8" cx="843.72" cy="956.79" r="1.31"/><path class="cls-8" d="M852.64,958.1a1.32,1.32,0,1,0-1.31-1.31A1.32,1.32,0,0,0,852.64,958.1Z"/><circle class="cls-8" cx="861.57" cy="956.79" r="1.31"/></g><g class="cls-7"><circle class="cls-8" cx="826.12" cy="149.28" r="1.63"/><circle class="cls-8" cx="837.2" cy="149.28" r="1.63"/><circle class="cls-8" cx="848.27" cy="149.28" r="1.63"/><circle class="cls-8" cx="859.35" cy="149.28" r="1.63"/><path class="cls-8" d="M826.12,162a1.63,1.63,0,1,0-1.63-1.63A1.63,1.63,0,0,0,826.12,162Z"/><path class="cls-8" d="M837.2,162a1.63,1.63,0,1,0-1.63-1.63A1.63,1.63,0,0,0,837.2,162Z"/><path class="cls-8" d="M848.27,162a1.63,1.63,0,1,0-1.63-1.63A1.63,1.63,0,0,0,848.27,162Z"/><path class="cls-8" d="M859.35,162a1.63,1.63,0,1,0-1.63-1.63A1.63,1.63,0,0,0,859.35,162Z"/><circle class="cls-8" cx="826.12" cy="171.44" r="1.63"/><circle class="cls-8" cx="837.2" cy="171.44" r="1.63"/><circle class="cls-8" cx="848.27" cy="171.44" r="1.63"/><circle class="cls-8" cx="859.35" cy="171.44" r="1.63"/><circle class="cls-8" cx="826.12" cy="182.51" r="1.63"/><circle class="cls-8" cx="837.2" cy="182.51" r="1.63"/><circle class="cls-8" cx="848.27" cy="182.51" r="1.63"/><circle class="cls-8" cx="859.35" cy="182.51" r="1.63"/><circle class="cls-8" cx="826.12" cy="193.59" r="1.63"/><circle class="cls-8" cx="837.2" cy="193.59" r="1.63"/><circle class="cls-8" cx="848.27" cy="193.59" r="1.63"/><circle class="cls-8" cx="859.35" cy="193.59" r="1.63"/><circle class="cls-8" cx="826.12" cy="204.66" r="1.63"/><circle class="cls-8" cx="837.2" cy="204.66" r="1.63"/><circle class="cls-8" cx="848.27" cy="204.66" r="1.63"/><circle class="cls-8" cx="859.35" cy="204.66" r="1.63"/><circle class="cls-8" cx="826.12" cy="215.74" r="1.63"/><circle class="cls-8" cx="837.2" cy="215.74" r="1.63"/><circle class="cls-8" cx="848.27" cy="215.74" r="1.63"/><circle class="cls-8" cx="859.35" cy="215.74" r="1.63"/><circle class="cls-8" cx="826.12" cy="226.82" r="1.63"/><circle class="cls-8" cx="837.2" cy="226.82" r="1.63"/><circle class="cls-8" cx="848.27" cy="226.82" r="1.63"/><circle class="cls-8" cx="859.35" cy="226.82" r="1.63"/><path class="cls-8" d="M826.12,239.52a1.63,1.63,0,1,0-1.63-1.63A1.63,1.63,0,0,0,826.12,239.52Z"/><path class="cls-8" d="M837.2,239.52a1.63,1.63,0,1,0-1.63-1.63A1.63,1.63,0,0,0,837.2,239.52Z"/><path class="cls-8" d="M848.27,239.52a1.63,1.63,0,1,0-1.63-1.63A1.63,1.63,0,0,0,848.27,239.52Z"/><path class="cls-8" d="M859.35,239.52a1.63,1.63,0,1,0-1.63-1.63A1.63,1.63,0,0,0,859.35,239.52Z"/><circle class="cls-8" cx="826.12" cy="248.97" r="1.63"/><circle class="cls-8" cx="837.2" cy="248.97" r="1.63"/><circle class="cls-8" cx="848.27" cy="248.97" r="1.63"/><circle class="cls-8" cx="859.35" cy="248.97" r="1.63"/><path class="cls-8" d="M826.12,261.67a1.63,1.63,0,1,0-1.63-1.63A1.63,1.63,0,0,0,826.12,261.67Z"/><path class="cls-8" d="M837.2,261.67a1.63,1.63,0,1,0-1.63-1.63A1.63,1.63,0,0,0,837.2,261.67Z"/><path class="cls-8" d="M848.27,261.67a1.63,1.63,0,1,0-1.63-1.63A1.63,1.63,0,0,0,848.27,261.67Z"/><path class="cls-8" d="M859.35,261.67a1.63,1.63,0,1,0-1.63-1.63A1.63,1.63,0,0,0,859.35,261.67Z"/><circle class="cls-8" cx="826.12" cy="271.12" r="1.63"/><circle class="cls-8" cx="837.2" cy="271.12" r="1.63"/><circle class="cls-8" cx="848.27" cy="271.12" r="1.63"/><circle class="cls-8" cx="859.35" cy="271.12" r="1.63"/><path class="cls-8" d="M826.12,283.82a1.63,1.63,0,1,0-1.63-1.62A1.62,1.62,0,0,0,826.12,283.82Z"/><path class="cls-8" d="M837.2,283.82a1.63,1.63,0,1,0-1.63-1.62A1.62,1.62,0,0,0,837.2,283.82Z"/><path class="cls-8" d="M848.27,283.82a1.63,1.63,0,1,0-1.63-1.62A1.62,1.62,0,0,0,848.27,283.82Z"/><path class="cls-8" d="M859.35,283.82a1.63,1.63,0,1,0-1.63-1.62A1.62,1.62,0,0,0,859.35,283.82Z"/><circle class="cls-8" cx="826.12" cy="293.27" r="1.63"/><circle class="cls-8" cx="837.2" cy="293.27" r="1.63"/><circle class="cls-8" cx="848.27" cy="293.27" r="1.63"/><circle class="cls-8" cx="859.35" cy="293.27" r="1.63"/><circle class="cls-8" cx="826.12" cy="304.35" r="1.63"/><circle class="cls-8" cx="837.2" cy="304.35" r="1.63"/><circle class="cls-8" cx="848.27" cy="304.35" r="1.63"/><circle class="cls-8" cx="859.35" cy="304.35" r="1.63"/><circle class="cls-8" cx="826.12" cy="315.42" r="1.63"/><circle class="cls-8" cx="837.2" cy="315.42" r="1.63"/><circle class="cls-8" cx="848.27" cy="315.42" r="1.63"/><circle class="cls-8" cx="859.35" cy="315.42" r="1.63"/><circle class="cls-8" cx="826.12" cy="326.5" r="1.63"/><circle class="cls-8" cx="837.2" cy="326.5" r="1.63"/><circle class="cls-8" cx="848.27" cy="326.5" r="1.63"/><circle class="cls-8" cx="859.35" cy="326.5" r="1.63"/><circle class="cls-8" cx="826.12" cy="337.58" r="1.63"/><circle class="cls-8" cx="837.2" cy="337.58" r="1.63"/><circle class="cls-8" cx="848.27" cy="337.58" r="1.63"/><circle class="cls-8" cx="859.35" cy="337.58" r="1.63"/><circle class="cls-8" cx="826.12" cy="348.65" r="1.63"/><circle class="cls-8" cx="837.2" cy="348.65" r="1.63"/><circle class="cls-8" cx="848.27" cy="348.65" r="1.63"/><circle class="cls-8" cx="859.35" cy="348.65" r="1.63"/><path class="cls-8" d="M826.12,361.36a1.63,1.63,0,1,0-1.63-1.63A1.63,1.63,0,0,0,826.12,361.36Z"/><path class="cls-8" d="M837.2,361.36a1.63,1.63,0,1,0-1.63-1.63A1.63,1.63,0,0,0,837.2,361.36Z"/><path class="cls-8" d="M848.27,361.36a1.63,1.63,0,1,0-1.63-1.63A1.63,1.63,0,0,0,848.27,361.36Z"/><path class="cls-8" d="M859.35,361.36a1.63,1.63,0,1,0-1.63-1.63A1.63,1.63,0,0,0,859.35,361.36Z"/><circle class="cls-8" cx="826.12" cy="370.8" r="1.63"/><circle class="cls-8" cx="837.2" cy="370.8" r="1.63"/><circle class="cls-8" cx="848.27" cy="370.8" r="1.63"/><circle class="cls-8" cx="859.35" cy="370.8" r="1.63"/><path class="cls-8" d="M826.12,383.51a1.63,1.63,0,1,0-1.63-1.63A1.63,1.63,0,0,0,826.12,383.51Z"/><path class="cls-8" d="M837.2,383.51a1.63,1.63,0,1,0-1.63-1.63A1.63,1.63,0,0,0,837.2,383.51Z"/><path class="cls-8" d="M848.27,383.51a1.63,1.63,0,1,0-1.63-1.63A1.63,1.63,0,0,0,848.27,383.51Z"/><path class="cls-8" d="M859.35,383.51a1.63,1.63,0,1,0-1.63-1.63A1.63,1.63,0,0,0,859.35,383.51Z"/></g><g class="cls-7"><circle class="cls-8" cy="282.2" r="1.63"/><circle class="cls-8" cx="11.08" cy="282.2" r="1.63"/><path class="cls-8" d="M22.15,283.82a1.63,1.63,0,1,0-1.63-1.62A1.62,1.62,0,0,0,22.15,283.82Z"/><circle class="cls-8" cx="33.23" cy="282.2" r="1.63"/><path class="cls-8" d="M44.3,283.82a1.63,1.63,0,1,0-1.62-1.62A1.62,1.62,0,0,0,44.3,283.82Z"/><circle class="cls-8" cx="55.38" cy="282.2" r="1.63"/><path class="cls-8" d="M0,294.9a1.63,1.63,0,0,0,1.63-1.63A1.63,1.63,0,0,0,0,291.64a1.63,1.63,0,0,0,0,3.26Z"/><path class="cls-8" d="M11.08,294.9a1.63,1.63,0,1,0-1.63-1.63A1.62,1.62,0,0,0,11.08,294.9Z"/><path class="cls-8" d="M22.15,294.9a1.63,1.63,0,1,0-1.63-1.63A1.63,1.63,0,0,0,22.15,294.9Z"/><path class="cls-8" d="M33.23,294.9a1.63,1.63,0,1,0-1.63-1.63A1.63,1.63,0,0,0,33.23,294.9Z"/><path class="cls-8" d="M44.3,294.9a1.63,1.63,0,1,0-1.62-1.63A1.63,1.63,0,0,0,44.3,294.9Z"/><path class="cls-8" d="M55.38,294.9a1.63,1.63,0,1,0-1.63-1.63A1.63,1.63,0,0,0,55.38,294.9Z"/><circle class="cls-8" cy="304.35" r="1.63"/><circle class="cls-8" cx="11.08" cy="304.35" r="1.63"/><path class="cls-8" d="M22.15,306a1.63,1.63,0,1,0-1.63-1.63A1.63,1.63,0,0,0,22.15,306Z"/><circle class="cls-8" cx="33.23" cy="304.35" r="1.63"/><path class="cls-8" d="M44.3,306a1.63,1.63,0,1,0-1.62-1.63A1.63,1.63,0,0,0,44.3,306Z"/><circle class="cls-8" cx="55.38" cy="304.35" r="1.63"/><circle class="cls-8" cy="315.42" r="1.63"/><circle class="cls-8" cx="11.08" cy="315.42" r="1.63"/><path class="cls-8" d="M22.15,317.05a1.63,1.63,0,1,0-1.63-1.63A1.63,1.63,0,0,0,22.15,317.05Z"/><circle class="cls-8" cx="33.23" cy="315.42" r="1.63"/><path class="cls-8" d="M44.3,317.05a1.63,1.63,0,1,0-1.62-1.63A1.63,1.63,0,0,0,44.3,317.05Z"/><circle class="cls-8" cx="55.38" cy="315.42" r="1.63"/><circle class="cls-8" cy="326.5" r="1.63"/><circle class="cls-8" cx="11.08" cy="326.5" r="1.63"/><path class="cls-8" d="M22.15,328.13a1.63,1.63,0,1,0-1.63-1.63A1.63,1.63,0,0,0,22.15,328.13Z"/><circle class="cls-8" cx="33.23" cy="326.5" r="1.63"/><path class="cls-8" d="M44.3,328.13a1.63,1.63,0,1,0-1.62-1.63A1.63,1.63,0,0,0,44.3,328.13Z"/><circle class="cls-8" cx="55.38" cy="326.5" r="1.63"/><circle class="cls-8" cy="337.58" r="1.63"/><circle class="cls-8" cx="11.08" cy="337.58" r="1.63"/><path class="cls-8" d="M22.15,339.2a1.63,1.63,0,1,0-1.63-1.62A1.62,1.62,0,0,0,22.15,339.2Z"/><circle class="cls-8" cx="33.23" cy="337.58" r="1.63"/><path class="cls-8" d="M44.3,339.2a1.63,1.63,0,1,0-1.62-1.62A1.62,1.62,0,0,0,44.3,339.2Z"/><circle class="cls-8" cx="55.38" cy="337.58" r="1.63"/><circle class="cls-8" cy="348.65" r="1.63"/><circle class="cls-8" cx="11.08" cy="348.65" r="1.63"/><path class="cls-8" d="M22.15,350.28a1.63,1.63,0,1,0-1.63-1.63A1.63,1.63,0,0,0,22.15,350.28Z"/><circle class="cls-8" cx="33.23" cy="348.65" r="1.63"/><path class="cls-8" d="M44.3,350.28a1.63,1.63,0,1,0-1.62-1.63A1.63,1.63,0,0,0,44.3,350.28Z"/><circle class="cls-8" cx="55.38" cy="348.65" r="1.63"/><circle class="cls-8" cy="359.73" r="1.63"/><circle class="cls-8" cx="11.08" cy="359.73" r="1.63"/><path class="cls-8" d="M22.15,361.36a1.63,1.63,0,1,0-1.63-1.63A1.63,1.63,0,0,0,22.15,361.36Z"/><circle class="cls-8" cx="33.23" cy="359.73" r="1.63"/><path class="cls-8" d="M44.3,361.36a1.63,1.63,0,1,0-1.62-1.63A1.63,1.63,0,0,0,44.3,361.36Z"/><circle class="cls-8" cx="55.38" cy="359.73" r="1.63"/><path class="cls-8" d="M0,372.43a1.63,1.63,0,0,0,1.63-1.63A1.63,1.63,0,0,0,0,369.18a1.63,1.63,0,0,0-1.63,1.62A1.63,1.63,0,0,0,0,372.43Z"/><path class="cls-8" d="M11.08,372.43a1.63,1.63,0,1,0-1.63-1.63A1.62,1.62,0,0,0,11.08,372.43Z"/><path class="cls-8" d="M22.15,372.43a1.63,1.63,0,1,0-1.63-1.63A1.63,1.63,0,0,0,22.15,372.43Z"/><path class="cls-8" d="M33.23,372.43a1.63,1.63,0,1,0-1.63-1.63A1.63,1.63,0,0,0,33.23,372.43Z"/><path class="cls-8" d="M44.3,372.43a1.63,1.63,0,1,0-1.62-1.63A1.63,1.63,0,0,0,44.3,372.43Z"/><path class="cls-8" d="M55.38,372.43a1.63,1.63,0,1,0-1.63-1.63A1.63,1.63,0,0,0,55.38,372.43Z"/><circle class="cls-8" cy="381.88" r="1.63"/><circle class="cls-8" cx="11.08" cy="381.88" r="1.63"/><path class="cls-8" d="M22.15,383.51a1.63,1.63,0,1,0-1.63-1.63A1.63,1.63,0,0,0,22.15,383.51Z"/><circle class="cls-8" cx="33.23" cy="381.88" r="1.63"/><path class="cls-8" d="M44.3,383.51a1.63,1.63,0,1,0-1.62-1.63A1.63,1.63,0,0,0,44.3,383.51Z"/><circle class="cls-8" cx="55.38" cy="381.88" r="1.63"/><path class="cls-8" d="M0,394.58A1.62,1.62,0,0,0,1.63,393,1.63,1.63,0,0,0,0,391.33,1.63,1.63,0,0,0-1.63,393,1.62,1.62,0,0,0,0,394.58Z"/><path class="cls-8" d="M11.08,394.58a1.63,1.63,0,0,0,0-3.25,1.63,1.63,0,1,0,0,3.25Z"/><path class="cls-8" d="M22.15,394.58A1.63,1.63,0,1,0,20.52,393,1.62,1.62,0,0,0,22.15,394.58Z"/><path class="cls-8" d="M33.23,394.58A1.63,1.63,0,1,0,31.6,393,1.62,1.62,0,0,0,33.23,394.58Z"/><path class="cls-8" d="M44.3,394.58A1.63,1.63,0,1,0,42.68,393,1.62,1.62,0,0,0,44.3,394.58Z"/><path class="cls-8" d="M55.38,394.58A1.63,1.63,0,1,0,53.75,393,1.62,1.62,0,0,0,55.38,394.58Z"/><circle class="cls-8" cy="404.03" r="1.63"/><circle class="cls-8" cx="11.08" cy="404.03" r="1.63"/><path class="cls-8" d="M22.15,405.66A1.63,1.63,0,1,0,20.52,404,1.63,1.63,0,0,0,22.15,405.66Z"/><circle class="cls-8" cx="33.23" cy="404.03" r="1.63"/><path class="cls-8" d="M44.3,405.66A1.63,1.63,0,1,0,42.68,404,1.63,1.63,0,0,0,44.3,405.66Z"/><circle class="cls-8" cx="55.38" cy="404.03" r="1.63"/><path class="cls-8" d="M0,416.74a1.63,1.63,0,0,0,1.63-1.63A1.63,1.63,0,0,0,0,413.48a1.63,1.63,0,0,0,0,3.26Z"/><path class="cls-8" d="M11.08,416.74a1.63,1.63,0,1,0-1.63-1.63A1.62,1.62,0,0,0,11.08,416.74Z"/><path class="cls-8" d="M22.15,416.74a1.63,1.63,0,1,0-1.63-1.63A1.63,1.63,0,0,0,22.15,416.74Z"/><path class="cls-8" d="M33.23,416.74a1.63,1.63,0,1,0-1.63-1.63A1.63,1.63,0,0,0,33.23,416.74Z"/><path class="cls-8" d="M44.3,416.74a1.63,1.63,0,1,0-1.62-1.63A1.63,1.63,0,0,0,44.3,416.74Z"/><path class="cls-8" d="M55.38,416.74a1.63,1.63,0,1,0-1.63-1.63A1.63,1.63,0,0,0,55.38,416.74Z"/><circle class="cls-8" cy="426.18" r="1.63"/><circle class="cls-8" cx="11.08" cy="426.18" r="1.63"/><path class="cls-8" d="M22.15,427.81a1.63,1.63,0,1,0-1.63-1.63A1.63,1.63,0,0,0,22.15,427.81Z"/><circle class="cls-8" cx="33.23" cy="426.18" r="1.63"/><path class="cls-8" d="M44.3,427.81a1.63,1.63,0,1,0-1.62-1.63A1.63,1.63,0,0,0,44.3,427.81Z"/><circle class="cls-8" cx="55.38" cy="426.18" r="1.63"/><circle class="cls-8" cy="437.26" r="1.63"/><circle class="cls-8" cx="11.08" cy="437.26" r="1.63"/><path class="cls-8" d="M22.15,438.89a1.63,1.63,0,1,0-1.63-1.63A1.63,1.63,0,0,0,22.15,438.89Z"/><circle class="cls-8" cx="33.23" cy="437.26" r="1.63"/><path class="cls-8" d="M44.3,438.89a1.63,1.63,0,1,0-1.62-1.63A1.63,1.63,0,0,0,44.3,438.89Z"/><circle class="cls-8" cx="55.38" cy="437.26" r="1.63"/><circle class="cls-8" cy="448.34" r="1.63"/><circle class="cls-8" cx="11.08" cy="448.34" r="1.63"/><path class="cls-8" d="M22.15,450a1.63,1.63,0,1,0-1.63-1.62A1.62,1.62,0,0,0,22.15,450Z"/><circle class="cls-8" cx="33.23" cy="448.34" r="1.63"/><path class="cls-8" d="M44.3,450a1.63,1.63,0,1,0-1.62-1.62A1.62,1.62,0,0,0,44.3,450Z"/><circle class="cls-8" cx="55.38" cy="448.34" r="1.63"/><circle class="cls-8" cy="459.41" r="1.63"/><circle class="cls-8" cx="11.08" cy="459.41" r="1.63"/><path class="cls-8" d="M22.15,461a1.63,1.63,0,1,0-1.63-1.63A1.63,1.63,0,0,0,22.15,461Z"/><circle class="cls-8" cx="33.23" cy="459.41" r="1.63"/><path class="cls-8" d="M44.3,461a1.63,1.63,0,1,0-1.62-1.63A1.63,1.63,0,0,0,44.3,461Z"/><circle class="cls-8" cx="55.38" cy="459.41" r="1.63"/><circle class="cls-8" cy="470.49" r="1.63"/><circle class="cls-8" cx="11.08" cy="470.49" r="1.63"/><path class="cls-8" d="M22.15,472.12a1.63,1.63,0,1,0-1.63-1.63A1.63,1.63,0,0,0,22.15,472.12Z"/><circle class="cls-8" cx="33.23" cy="470.49" r="1.63"/><path class="cls-8" d="M44.3,472.12a1.63,1.63,0,1,0-1.62-1.63A1.63,1.63,0,0,0,44.3,472.12Z"/><circle class="cls-8" cx="55.38" cy="470.49" r="1.63"/><circle class="cls-8" cy="481.56" r="1.63"/><circle class="cls-8" cx="11.08" cy="481.56" r="1.63"/><path class="cls-8" d="M22.15,483.19a1.63,1.63,0,1,0-1.63-1.63A1.63,1.63,0,0,0,22.15,483.19Z"/><circle class="cls-8" cx="33.23" cy="481.56" r="1.63"/><path class="cls-8" d="M44.3,483.19a1.63,1.63,0,1,0-1.62-1.63A1.63,1.63,0,0,0,44.3,483.19Z"/><circle class="cls-8" cx="55.38" cy="481.56" r="1.63"/><path class="cls-8" d="M0,494.27a1.63,1.63,0,0,0,1.63-1.63A1.63,1.63,0,0,0,0,491a1.63,1.63,0,0,0,0,3.26Z"/><path class="cls-8" d="M11.08,494.27a1.63,1.63,0,1,0-1.63-1.63A1.62,1.62,0,0,0,11.08,494.27Z"/><path class="cls-8" d="M22.15,494.27a1.63,1.63,0,1,0-1.63-1.63A1.63,1.63,0,0,0,22.15,494.27Z"/><path class="cls-8" d="M33.23,494.27a1.63,1.63,0,1,0-1.63-1.63A1.63,1.63,0,0,0,33.23,494.27Z"/><path class="cls-8" d="M44.3,494.27a1.63,1.63,0,1,0-1.62-1.63A1.63,1.63,0,0,0,44.3,494.27Z"/><path class="cls-8" d="M55.38,494.27a1.63,1.63,0,1,0-1.63-1.63A1.63,1.63,0,0,0,55.38,494.27Z"/><circle class="cls-8" cy="503.72" r="1.63"/><circle class="cls-8" cx="11.08" cy="503.72" r="1.63"/><path class="cls-8" d="M22.15,505.34a1.63,1.63,0,1,0-1.63-1.62A1.62,1.62,0,0,0,22.15,505.34Z"/><circle class="cls-8" cx="33.23" cy="503.72" r="1.63"/><path class="cls-8" d="M44.3,505.34a1.63,1.63,0,1,0-1.62-1.62A1.62,1.62,0,0,0,44.3,505.34Z"/><circle class="cls-8" cx="55.38" cy="503.72" r="1.63"/><path class="cls-8" d="M0,516.42a1.63,1.63,0,0,0,1.63-1.63A1.63,1.63,0,0,0,0,513.16a1.63,1.63,0,0,0,0,3.26Z"/><path class="cls-8" d="M11.08,516.42a1.63,1.63,0,1,0-1.63-1.63A1.62,1.62,0,0,0,11.08,516.42Z"/><path class="cls-8" d="M22.15,516.42a1.63,1.63,0,1,0-1.63-1.63A1.63,1.63,0,0,0,22.15,516.42Z"/><path class="cls-8" d="M33.23,516.42a1.63,1.63,0,1,0-1.63-1.63A1.63,1.63,0,0,0,33.23,516.42Z"/><path class="cls-8" d="M44.3,516.42a1.63,1.63,0,1,0-1.62-1.63A1.63,1.63,0,0,0,44.3,516.42Z"/><path class="cls-8" d="M55.38,516.42a1.63,1.63,0,1,0-1.63-1.63A1.63,1.63,0,0,0,55.38,516.42Z"/></g><rect class="cls-18" x="-714.02" y="-69.43" width="2313.53" height="1131.11" transform="translate(885.01 992.67) rotate(-179.95)"/></g></g></svg>