<svg xmlns="http://www.w3.org/2000/svg" viewBox="0 0 1920 1080"><defs><style>.cls-1{fill:#352d1b;}.cls-2{fill:#282215;}</style></defs><title>fondo-cafe-3</title><g id="OBJECTS"><rect class="cls-1" x="-8.63" y="-3.46" width="1928.63" height="1110.7"/><path class="cls-2" d="M192.07,817.48h0a14.47,14.47,0,0,1,1-20.43l45.21-40.93a14.46,14.46,0,0,0,1-20.43h0a14.47,14.47,0,0,1,1-20.44l9.48-8.58a14.47,14.47,0,0,0,1-20.44h0a14.46,14.46,0,0,0-20.43-1l-152.47,138a14.46,14.46,0,0,0-1,20.43h0a14.47,14.47,0,0,1-1,20.44l-9.48,8.58a14.47,14.47,0,0,0-1,20.44h0a14.46,14.46,0,0,1-1,20.43L19.17,954.48a14.47,14.47,0,0,0-1,20.43h0a14.47,14.47,0,0,0,20.44,1L64,953a14.47,14.47,0,0,1,20.43,1h0a14.48,14.48,0,0,0,20.44,1l33.08-30a14.47,14.47,0,0,1,20.43,1h0a14.47,14.47,0,0,1-1,20.43l-13.24,12a14.46,14.46,0,0,0-1,20.43h0a14.47,14.47,0,0,1-1,20.44l-27,24.42a14.46,14.46,0,0,0-1,20.43h0a14.46,14.46,0,0,0,20.43,1l27-24.42a14.46,14.46,0,0,1,20.43,1h0a14.47,14.47,0,0,0,20.44,1l152.47-138a14.47,14.47,0,0,0,1-20.44h0a14.46,14.46,0,0,0-20.43-1l-27,24.42a14.46,14.46,0,0,1-20.43-1h0a14.46,14.46,0,0,1,1-20.43l27-24.43a14.46,14.46,0,0,0,1-20.43h0a14.46,14.46,0,0,1,1-20.43l13.24-12a14.47,14.47,0,0,0,1-20.43h0a14.46,14.46,0,0,0-20.43-1l-33.08,30a14.48,14.48,0,0,1-20.44-1h0a14.47,14.47,0,0,0-20.43-1l-25.37,23A14.47,14.47,0,0,1,192.07,817.48Z"/><circle class="cls-2" cx="126.01" cy="653.12" r="14.79"/><circle class="cls-2" cx="346.39" cy="751.08" r="14.79" transform="translate(-471.36 875.15) rotate(-73.87)"/><path class="cls-2" d="M1737,319.18h0a17.17,17.17,0,0,1-1.21,24.26L1682.1,392a17.18,17.18,0,0,0-1.21,24.26h0a17.16,17.16,0,0,1-1.2,24.25l-11.26,10.19a17.17,17.17,0,0,0-1.21,24.25h0a17.17,17.17,0,0,0,24.25,1.21l181-163.81a17.17,17.17,0,0,0,1.21-24.25h0a17.17,17.17,0,0,1,1.2-24.26l11.26-10.19a17.17,17.17,0,0,0,1.21-24.25h0a17.15,17.15,0,0,1,1.21-24.25l53.66-48.58a17.17,17.17,0,0,0,1.21-24.25h0a17.18,17.18,0,0,0-24.26-1.21L1889,158.38a17.17,17.17,0,0,1-24.25-1.21h0a17.17,17.17,0,0,0-24.26-1.2l-39.26,35.54A17.17,17.17,0,0,1,1777,190.3h0a17.16,17.16,0,0,1,1.2-24.25l15.72-14.23a17.16,17.16,0,0,0,1.2-24.25h0a17.17,17.17,0,0,1,1.21-24.25l32-29a17.17,17.17,0,0,0,1.21-24.25h0a17.15,17.15,0,0,0-24.25-1.21l-32,29A17.17,17.17,0,0,1,1749,76.65h0a17.17,17.17,0,0,0-24.25-1.21l-181,163.81a17.18,17.18,0,0,0-1.21,24.26h0a17.17,17.17,0,0,0,24.26,1.2l32-29a17.17,17.17,0,0,1,24.25,1.21h0a17.16,17.16,0,0,1-1.2,24.25l-32,29a17.17,17.17,0,0,0-1.2,24.26h0a17.17,17.17,0,0,1-1.21,24.25l-15.71,14.22a17.18,17.18,0,0,0-1.21,24.26h0a17.16,17.16,0,0,0,24.25,1.2l39.27-35.54a17.17,17.17,0,0,1,24.25,1.21h0a17.17,17.17,0,0,0,24.25,1.21L1712.72,318A17.16,17.16,0,0,1,1737,319.18Z"/><circle class="cls-2" cx="1815.39" cy="514.27" r="17.56"/><circle class="cls-2" cx="1553.81" cy="398" r="17.56" transform="translate(739.77 1780.06) rotate(-73.87)"/><path class="cls-2" d="M2123.42,924.28a102.72,102.72,0,0,1-73.38,53c-15.9,2.59-32.45,1.39-47.83,6.16-12.94,4-24.22,12-35.33,19.76-26.29,18.36-59.36,36.85-88.64,23.78-5.45-2.44-10.61-5.94-16.54-6.68s-11.66,1.36-17.09,3.65c-23.43,9.9-45,24.42-69.53,31.19s-54.38,3.66-70-16.39c-3.94-5-6.82-10.94-11.39-15.43-6.46-6.32-15.5-9.1-24.18-11.62-21.89-6.37-44.18-12.68-63.47-24.82s-35.52-31.23-38.56-53.82c-.94-7-.77-14.51-4.87-20.2-3.54-4.91-9.52-7.34-14.17-11.23-9.42-7.89-12.55-21.4-11-33.59s7.16-23.44,12.65-34.43c6.11-12.22,13.05-25.28,25.38-31.16,16.65-7.93,36,.11,53.59,5.63,5.19,1.63,10.84,3,16,1.29s8.79-6.21,12.3-10.35a214.73,214.73,0,0,1,51.72-44.32c12.46-7.62,29-13.79,40.93-5.36,3.09,2.19,5.6,5.23,9,6.9,9,4.43,19.2-2.35,27.5-8,34.5-23.55,84.32-30.92,116.76-4.62,12.23,9.91,20.8,23.49,30.27,36.06,51.35,68.1,132,109.38,184,177"/><path class="cls-2" d="M-170.48,70.41A106.7,106.7,0,0,1-80.72,42.29C-64.2,45-48.29,51.59-31.57,52c14.08.3,27.82-3.85,41.32-7.84,32-9.45,70.61-16.78,95.16,5.73,4.58,4.2,8.5,9.35,14.1,12s11.93,2.5,18,2c26.35-2,52.38-9.26,78.77-7.86s54.79,14.29,63.63,39.2c2.22,6.26,3.12,13,6.15,18.94,4.28,8.36,12.27,14.07,20,19.42,19.47,13.47,39.35,27,54.37,45.33s24.72,42.46,20.29,65.72c-1.37,7.15-4,14.55-1.85,21.5,1.87,6,7,10.37,10.27,15.73,6.69,10.88,5.32,25.22-.25,36.71s-14.77,20.74-23.8,29.76c-10,10-21.18,20.62-35.26,22.35-19,2.34-35.42-11.95-50.95-23.17-4.58-3.31-9.68-6.55-15.34-6.54s-10.7,3.22-15.52,6.15A223,223,0,0,1,182,373.78c-14.78,3.41-33.12,4.06-42.09-8.18-2.33-3.17-3.8-7-6.6-9.76-7.43-7.34-19.7-4-29.74-1.15C61.84,366.55,10.33,357.42-13,320.83c-8.78-13.79-12.76-30-18-45.48-28.19-84-94-151.2-123-234.93"/><path class="cls-2" d="M-28.92,529.68C105.46,470.55,248,549,375.25,589.82c64.68,20.74,132.86,34.13,200.52,21.06,63.92-12.35,122.09-43.42,184.73-60.18,33.15-8.87,67.25-13,101.46-9,37.23,4.35,73.13,16.42,107.23,31.65,57.13,25.51,115.06,66.26,180.8,52.47,32.63-6.84,61.88-24,91-39.46,31.73-16.79,64.11-32.95,98.59-43.32,33.14-10,67.35-13.37,101.68-8.5,30.57,4.34,60.13,13.87,89.16,24.11,55.5,19.57,112.77,44.26,172.89,40.45,65.88-4.17,121.8-51.07,188.67-48.41,17.21.68,33.6,5.15,48.28,14.24,1.65,1,3.16-1.57,1.52-2.59-57.32-35.49-123.11.54-178.78,20.38-31.26,11.13-63,16.06-96.07,12.36-31.73-3.54-62.41-13.31-92.4-23.83-57-20-115.25-45.07-177-41.81-69.3,3.67-129.31,40.27-189.5,70.91-33.7,17.15-69.15,29.74-107.43,23.67-34.38-5.45-65.81-21.9-96.6-37.28-60.84-30.38-126.45-55.66-195.7-48.29-64.91,6.9-123.93,37.19-185.36,56.9C590,606,556.16,613,521.34,613.27c-36.65.23-73-6.09-108.34-15.46C283.72,563.53,153.42,481.72,14.92,512.15a241.24,241.24,0,0,0-45.36,14.94c-1.76.78-.23,3.36,1.52,2.59Z"/><path class="cls-2" d="M188.62,126.83c56.34-14,113.84-28.1,172.3-27,29.51.52,58.81,5.28,86.56,15.47,26.77,9.83,51.72,23.83,77,36.86,46.78,24.11,96,40.77,148.41,46.82A411.46,411.46,0,0,0,830.38,186.7c52.67-14.73,100.47-46.51,155-54.26a176.48,176.48,0,0,1,84.49,8.9c24.53,8.89,45.7,24,67.07,38.58,19.84,13.55,40.5,26.84,64,33,24.35,6.36,50,4.6,74.16-1.74,52.51-13.76,95.57-47.75,141.92-74.31,44.46-25.48,92.55-39.77,144.06-38.33,48,1.34,95.72,15.42,136.26,41.23A250.26,250.26,0,0,1,1727,161.87c1.45,1.26,3.58-.85,2.12-2.12C1659,99,1556.66,79.11,1468.87,109.31c-51.24,17.63-93.41,52.75-141,77.64-25.45,13.32-53.17,23.86-82,26.4-27.92,2.46-54.15-4.09-78.49-17.67-21.85-12.18-41.43-27.93-62.83-40.82-21.84-13.14-45.69-22.1-71-25.49-26.94-3.61-53.84-.69-79.77,7.2-27,8.21-52.4,20.69-78.45,31.36-103,42.21-221.79,41-323.24-5.56-51.06-23.43-97.56-54.52-154.29-62.69-56.2-8.09-113.22,1.54-168,14.09-14,3.22-28,6.68-42,10.16-1.88.47-1.08,3.36.79,2.9Z"/><path class="cls-2" d="M-36.15,1021.77A573.3,573.3,0,0,1,134.2,974a580.92,580.92,0,0,1,85-3.62c29.6.85,59.15,3.35,88.77,3.51,27.87.15,56-1.83,82.93-9.26,27.49-7.58,53.2-20.63,81.07-27,52.33-11.91,106.06,0,157.18,12.17,50,11.88,101.28,25.45,153.11,20.38,51.23-5,97.16-29.73,145.41-45.58,25.06-8.23,51.2-14,77.73-12.69,27.05,1.34,53.13,9.56,78.83,17.5,24.46,7.56,49.24,15.28,74.94,17,25.48,1.69,49.47-4.37,73-13.73s46.05-20.94,70.6-27c29.16-7.22,58.22-2.91,87,3.86,27,6.33,53.57,13.65,81.37,15.09a252,252,0,0,0,79.34-8.59,256.78,256.78,0,0,0,37.14-13.42c1.76-.78.23-3.37-1.52-2.59a250,250,0,0,1-86,21.41c-29.39,1.89-57.91-2.29-86.43-9.17-26.27-6.34-52.79-13.83-80-13.58-25.2.23-48.8,8.55-71.76,18.23-23.46,9.89-46.84,21.15-72.2,25.25-27.68,4.47-55.51-1.22-82.11-8.82-25.71-7.34-51-16.62-77.33-21.42A184.87,184.87,0,0,0,958.84,913c-51.14,10.67-97.15,37.49-147.93,49.39-52.94,12.41-106.31,2.21-158.26-10-49.31-11.61-99.68-25.64-150.84-22.05-26.87,1.88-51.72,10.08-76.78,19.49-28.37,10.66-56.38,18.27-86.76,20.27-58.15,3.83-116.25-5.58-174.46-1.78A573.48,573.48,0,0,0-.25,1003.6q-19,7.13-37.41,15.58c-1.75.8-.23,3.39,1.51,2.59Z"/></g></svg>