<svg xmlns="http://www.w3.org/2000/svg" xmlns:xlink="http://www.w3.org/1999/xlink" viewBox="0 0 4087.01 2003.04"><defs><style>.cls-1{isolation:isolate;}.cls-2{fill:#303030;}.cls-3{fill:url(#Degradado_sin_nombre_96);}.cls-4{fill:url(#Degradado_sin_nombre_96-2);}.cls-5{opacity:0.05;}.cls-6{fill:url(#Degradado_sin_nombre_96-3);}.cls-7{fill:#898989;}.cls-8{fill:url(#Degradado_sin_nombre_96-4);}.cls-9{mix-blend-mode:color-burn;fill:url(#Degradado_sin_nombre_37);}.cls-10{fill:url(#Degradado_sin_nombre_100);}.cls-11{fill:url(#Degradado_sin_nombre_66);}.cls-12{fill:url(#Degradado_sin_nombre_66-2);}.cls-13{mix-blend-mode:color-dodge;}.cls-14{fill:url(#Degradado_sin_nombre_63);}.cls-15{fill:url(#Degradado_sin_nombre_63-2);}.cls-16{fill:url(#Degradado_sin_nombre_63-3);}.cls-17{fill:none;}</style><linearGradient id="Degradado_sin_nombre_96" x1="2941.89" y1="-9.92" x2="3146.41" y2="296.41" gradientUnits="userSpaceOnUse"><stop offset="0" stop-color="#898989" stop-opacity="0.2"/><stop offset="1" stop-color="#898989"/></linearGradient><linearGradient id="Degradado_sin_nombre_96-2" x1="1004.68" y1="238.9" x2="1240.29" y2="591.79" xlink:href="#Degradado_sin_nombre_96"/><linearGradient id="Degradado_sin_nombre_96-3" x1="1071.53" y1="1692.58" x2="1307.14" y2="2045.46" xlink:href="#Degradado_sin_nombre_96"/><linearGradient id="Degradado_sin_nombre_96-4" x1="2257.6" y1="779.34" x2="2501.07" y2="1451.23" xlink:href="#Degradado_sin_nombre_96"/><radialGradient id="Degradado_sin_nombre_37" cx="2821.65" cy="1469.53" r="154.25" gradientTransform="translate(1865.56 -1564.8) rotate(45)" gradientUnits="userSpaceOnUse"><stop offset="0" stop-color="#999" stop-opacity="0.3"/><stop offset="0.66" stop-color="#e1e1e1" stop-opacity="0.44"/><stop offset="1" stop-color="#fff" stop-opacity="0.5"/></radialGradient><linearGradient id="Degradado_sin_nombre_100" x1="2822.25" y1="1512.24" x2="2822.25" y2="1324.18" gradientTransform="translate(4165.89 -1436.86) rotate(88.36)" gradientUnits="userSpaceOnUse"><stop offset="0" stop-color="#898989" stop-opacity="0.4"/><stop offset="1" stop-color="#898989"/></linearGradient><linearGradient id="Degradado_sin_nombre_66" x1="1504.31" y1="597.61" x2="1711.67" y2="597.61" gradientTransform="translate(893.54 -961.98) rotate(45)" gradientUnits="userSpaceOnUse"><stop offset="0" stop-color="#b8fffb" stop-opacity="0.3"/><stop offset="1" stop-color="#65cccc"/></linearGradient><linearGradient id="Degradado_sin_nombre_66-2" x1="1341.8" y1="944.47" x2="1660.72" y2="944.47" gradientTransform="translate(1107.58 -784.93) rotate(45)" xlink:href="#Degradado_sin_nombre_66"/><linearGradient id="Degradado_sin_nombre_63" x1="1710.8" y1="669.81" x2="2235.81" y2="669.81" gradientTransform="translate(1051.6 -1199.15) rotate(45)" gradientUnits="userSpaceOnUse"><stop offset="0" stop-color="#65cccc"/><stop offset="0.22" stop-color="#80dddb" stop-opacity="0.77"/><stop offset="0.45" stop-color="#98ebe9" stop-opacity="0.57"/><stop offset="0.66" stop-color="#aaf6f3" stop-opacity="0.42"/><stop offset="0.85" stop-color="#b4fdf9" stop-opacity="0.33"/><stop offset="1" stop-color="#b8fffb" stop-opacity="0.3"/></linearGradient><linearGradient id="Degradado_sin_nombre_63-2" x1="2347.51" y1="1945.96" x2="2622.03" y2="1945.96" gradientTransform="translate(2103.77 -1187.04) rotate(45)" xlink:href="#Degradado_sin_nombre_63"/><linearGradient id="Degradado_sin_nombre_63-3" x1="2010.62" y1="887.29" x2="2643.45" y2="887.29" gradientTransform="translate(1308.95 -1385.57) rotate(45)" xlink:href="#Degradado_sin_nombre_63"/></defs><title>fondo-onstar-7</title><g class="cls-1"><g id="OBJECTS"><rect class="cls-2" x="-291" y="-55.06" width="4505.39" height="2202.74" transform="translate(3922.39 2094.5) rotate(-179.95)"/><path class="cls-3" d="M2732.72,228.87c-11-36.31,7.57-74.51,36.51-96.39,32.75-24.75,62-36.49,64.89-78.34.94-13.52,2.82-32.68,7.62-45.46,17.66-47,71.15-39.3,110.34-42.54,36.8-3,58.48-26.43,92.25-60.4.21-.21,67-106.88,113-13.09,8.52,17.38,11.68,32,15.56,41.66,15.26,37.82,50.71,32.68,107.08,49.88,71.33,21.76,101.86,98.92,31.52,133.35-27,13.23-51.2,17.29-76.76,33.4-52.23,32.93-40.68,87.83-86,116.88-16,12.49-41.48,17.68-59.3,16.75-68.62-3.58-97.7-27.45-144.93-7.61-16,6.74-35.68,18.43-59.95,24.9C2822,318.54,2750,286,2732.72,228.87Z"/><path class="cls-4" d="M763.72,514c-12.65-41.83,8.72-85.83,42.07-111,37.72-28.51,71.4-42,74.74-90.24,1.08-15.59,3.25-37.65,8.78-52.38,20.35-54.11,82-45.27,127.11-49,42.39-3.51,67.37-30.45,106.27-69.58.25-.24,77.19-123.12,130.12-15.08,9.81,20,13.45,36.91,17.92,48,17.57,43.57,58.42,37.65,123.35,57.46,82.17,25.07,117.34,114,36.32,153.62-31.14,15.24-59,19.91-88.44,38.48-60.16,37.93-46.85,101.17-99,134.64-18.42,14.38-47.79,20.36-68.32,19.29-79.05-4.13-112.55-31.62-167-8.77-18.48,7.77-41.11,21.24-69.07,28.69C866.57,617.28,783.63,579.78,763.72,514Z"/><path class="cls-5" d="M708.35,305c132.3-49.82,102.29-50.83,178.07-118.48,78.42-70,112.21-23.91,182.51-34.75,86.9-13.39,36.67-149.11,103.33-135,24.8,5.23,31.18,13.58,62.3,10.19,13.51-1.47,45.24-18.32,87.81-1.61s69.27,67.91,45.42,114.91c-16,31.5-35.64,48.94-27.09,76.74,12.62,41.06,45.75,98.41-4.09,121.88-55.5,26.13-121.35-17.83-151.52,47.05-29.62,63.71-23.83,136.15-88.46,191.65-53,45.54-102.66,16.09-160.08-21.37-34.65-22.61-64-18.23-103.2-9-53.28,12.53-113.12,1-152-20-50.09-27-65.51-96.21-48.09-151.11C644.52,340.52,673.44,318.16,708.35,305Z"/><path class="cls-6" d="M830.58,1967.65c-12.65-41.83,8.71-85.83,42.06-111,37.72-28.52,71.4-42,74.75-90.24,1.08-15.59,3.24-37.66,8.78-52.38,20.34-54.12,82-45.27,127.11-49,42.38-3.5,67.36-30.44,106.26-69.57.25-.25,77.19-123.12,130.12-15.08,9.81,20,13.46,36.91,17.92,48,17.58,43.57,58.42,37.66,123.35,57.47,82.18,25.06,117.34,114,36.32,153.61-31.14,15.25-59,19.92-88.43,38.48-60.17,37.93-46.86,101.18-99,134.64-18.42,14.39-47.79,20.37-68.32,19.3-79-4.13-112.55-31.62-166.94-8.77-18.49,7.76-41.11,21.23-69.08,28.69C933.43,2071,850.48,2033.45,830.58,1967.65Z"/><path class="cls-5" d="M775.21,1758.69c132.29-49.82,102.28-50.83,178.06-118.47,78.42-70,112.22-23.92,182.51-34.76,86.9-13.39,36.67-149.1,103.34-135,24.79,5.24,31.17,13.59,62.29,10.2,13.51-1.48,45.24-18.32,87.82-1.61,42.42,16.65,69.26,67.9,45.41,114.91-16,31.5-35.63,48.94-27.09,76.73,12.63,41.07,45.76,98.41-4.08,121.88-55.51,26.14-121.36-17.83-151.53,47-29.62,63.71-23.83,136.16-88.46,191.65-53,45.55-102.66,16.1-160.08-21.37-34.65-22.6-64-18.22-103.2-9-53.28,12.52-113.12,1-152-20-50.09-27-65.51-96.21-48.09-151.11C711.37,1794.19,740.3,1771.84,775.21,1758.69Z"/><path class="cls-7" d="M1811.74,1362.75c-83.81,0-168-56.16-193.18-137.11-4.5-14.5-7.5-30-10.4-45-6.27-32.41-12.75-65.92-34.94-90-34.21-37.18-90.62-38.45-146.46-34.27q-13.58,1-27.19,2.1c-83.72,6.53-170.29,13.29-253.22-4.42-48-10.25-92.8-29.66-129.65-56.16-40.51-29.11-70.14-66.3-85.68-107.54-27.84-73.87-11.07-156.37,6.65-220,31.89-114.48,80.71-181.89,149.26-206.06,60-21.15,123.76-3.82,185.43,12.94,26.11,7.1,53.1,14.44,79.51,18.79,125.33,20.64,258.93-29,340.35-126.49,16.11-19.29,30.42-40.52,44.25-61.05,12.58-18.66,25.58-38,39.93-55.79,36.62-45.51,76.18-72,117.58-78.82,80.2-13.17,150.39,46.47,212.31,99.1,142.27,120.92,260.86,169,373.22,151.19,108.79-17.21,203.57-108.06,225.36-216S2674.54-20.32,2581-78.38l1.05-1.69c45.85,28.44,83.58,73,106.24,125.35s29.26,110.37,18.58,163.26-39.25,103.77-80.45,143.27-93.25,65.9-146.54,74.33c-62.54,9.89-129.61-1.52-199.35-33.91-54.85-25.48-112.25-64-175.48-117.73-61.59-52.35-131.36-111.68-210.7-98.66-40.9,6.71-80,33-116.35,78.11-14.29,17.76-27.27,37-39.83,55.65-13.86,20.57-28.19,41.85-44.37,61.21-69.55,83.27-177,131.83-285,131.83a351.43,351.43,0,0,1-57.24-4.65c-26.5-4.36-53.55-11.71-79.7-18.82-61.38-16.69-124.85-33.94-184.25-13-67.89,23.94-116.3,90.91-148,204.72-17.64,63.33-34.35,145.43-6.7,218.76,35.28,93.63,133.61,145.31,213.87,162.45,82.64,17.65,169.07,10.9,252.66,4.38q13.62-1.07,27.19-2.09c56.37-4.21,113.3-2.9,148.07,34.9,22.58,24.54,29.12,58.33,35.44,91,2.89,14.92,5.87,30.35,10.34,44.74,30.13,97,146,158,243,128l.6,1.91A177.4,177.4,0,0,1,1811.74,1362.75Z"/><path class="cls-7" d="M2568.69,1678.59c-44.06-32.25-49-96.27-35-142.11,12.45-40.66,37.39-76.33,61.5-110.83,5.24-7.49,10.66-15.24,15.84-22.9,25.73-38,55-88.43,52.59-142-1.24-28.1-11.07-55.21-20.57-81.43-6.53-18-13.3-36.7-17.3-55.69C2611,1053.77,2635.45,977.36,2688,929c18.85-17.35,41.19-31.4,62.8-45,32.26-20.29,65.63-41.27,86.68-73.22,42.22-64.07,19.75-147.77-19-198.42-46.15-60.33-117.78-94.5-175-117.54-17.47-7-35.45-13.76-52.84-20.27-48.52-18.17-98.7-37-143.61-64.35-70.06-42.72-116-103.18-125.94-165.89-5.54-34.85,2.14-72.86,21.08-104.28,20-33.11,49.4-54.38,82.9-59.89l.37,2.19c-71.32,11.73-112.76,95-102.15,161.64,9.87,62,55.4,122,124.9,164.33,44.73,27.28,94.81,46,143.23,64.17,17.4,6.51,35.4,13.25,52.89,20.29,57.52,23.14,129.49,57.5,176,118.25,39.21,51.26,61.9,136,19.09,201-21.32,32.36-54.89,53.47-87.36,73.89-21.52,13.53-43.78,27.53-62.47,44.73-52,47.85-76.14,123.43-61.56,192.55,4,18.84,10.71,37.42,17.23,55.4,9.55,26.37,19.43,53.64,20.69,82.08,2.4,54.21-27.05,105.08-53,143.34-5.2,7.67-10.62,15.42-15.86,22.92-24,34.36-48.86,69.88-61.21,110.21-13.81,45.11-9,108.06,34.17,139.67Z"/><path class="cls-8" d="M2868.43,1391.28c-36.72,48.68-94.26,70.56-103.6,144.9-7.26,57.87,3.26,136-73.2,167.61-31.37,13-49.68,12.68-86.42,16.86-68.44,7.8-75.74,8.29-150.44,63.18-113.32,83.25-178.28-62.34-280.54-145.45-44.55-36.22-69-56.36-85.67-82.86-43.68-69.3,21-123.9,44.19-162.64,29.81-49.7-15.86-90-11.66-135.43,9.88-107,130.27,36.91,229.72-148.79,25.07-46.82,80.18-73.23,140.47-56.06,81.11,23.09,101,100.63,190,111.49,15.56,1.9,60.15,5.08,88,9.51C2871.81,1189.92,2934.93,1303.16,2868.43,1391.28Z"/><path class="cls-5" d="M2221.89,1360.45c166.6-62.74,128.81-64,224.24-149.2,98.75-88.15,141.31-30.11,229.83-43.76,109.43-16.87,46.17-187.77,130.12-170,31.23,6.59,39.26,17.1,78.45,12.83,17-1.85,57-23.06,110.59-2,53.42,21,87.22,85.51,57.19,144.7-20.12,39.67-44.88,61.63-34.12,96.63,15.9,51.71,57.62,123.93-5.14,153.48-69.9,32.91-152.82-22.45-190.81,59.26-37.31,80.22-30,171.45-111.4,241.33-66.79,57.36-129.28,20.27-201.58-26.9-43.64-28.48-80.59-23-130-11.35-67.09,15.78-142.44,1.26-191.44-25.19-63.08-34-82.5-121.16-60.56-190.29C2141.51,1405.15,2177.93,1377,2221.89,1360.45Z"/><circle class="cls-9" cx="2821.65" cy="1469.53" r="154.25" transform="translate(-212.67 2425.62) rotate(-45)"/><circle class="cls-10" cx="2822.25" cy="1425.03" r="112.72" transform="translate(1317 4205.32) rotate(-88.36)"/><rect class="cls-11" x="1463.59" y="595.39" width="288.8" height="4.45" transform="translate(48.4 1312.06) rotate(-45)"/><rect class="cls-12" x="1277.98" y="942.25" width="446.57" height="4.45" transform="translate(-228.13 1338.2) rotate(-45)"/><g class="cls-13"><rect class="cls-14" x="1604.28" y="667.59" width="738.04" height="4.45" transform="translate(104.34 1591.52) rotate(-45)"/></g><g class="cls-13"><rect class="cls-15" x="2291.82" y="1944.8" width="385.91" height="2.32" transform="translate(-648.23 2326.96) rotate(-45)"/></g><g class="cls-13"><rect class="cls-16" x="1882.28" y="884.57" width="889.52" height="5.44" transform="translate(54.15 1905.31) rotate(-45)"/></g><path class="cls-7" d="M2238.37,1859a2.56,2.56,0,1,0-2.56-2.56A2.56,2.56,0,0,0,2238.37,1859Z"/><path class="cls-7" d="M2255.76,1859a2.56,2.56,0,1,0-2.56-2.56A2.55,2.55,0,0,0,2255.76,1859Z"/><path class="cls-7" d="M2273.14,1859a2.56,2.56,0,1,0-2.55-2.56A2.56,2.56,0,0,0,2273.14,1859Z"/><path class="cls-7" d="M2290.53,1859a2.56,2.56,0,1,0-2.56-2.56A2.55,2.55,0,0,0,2290.53,1859Z"/><path class="cls-7" d="M2307.91,1859a2.56,2.56,0,1,0-2.55-2.56A2.56,2.56,0,0,0,2307.91,1859Z"/><path class="cls-7" d="M2325.3,1859a2.56,2.56,0,1,0-2.56-2.56A2.55,2.55,0,0,0,2325.3,1859Z"/><path class="cls-7" d="M2342.69,1859a2.56,2.56,0,1,0-2.56-2.56A2.55,2.55,0,0,0,2342.69,1859Z"/><path class="cls-7" d="M2360.07,1859a2.56,2.56,0,1,0-2.55-2.56A2.56,2.56,0,0,0,2360.07,1859Z"/><path class="cls-7" d="M2377.46,1859a2.56,2.56,0,1,0-2.56-2.56A2.55,2.55,0,0,0,2377.46,1859Z"/><path class="cls-7" d="M2394.84,1859a2.56,2.56,0,1,0-2.55-2.56A2.56,2.56,0,0,0,2394.84,1859Z"/><path class="cls-7" d="M2412.23,1859a2.56,2.56,0,1,0-2.56-2.56A2.55,2.55,0,0,0,2412.23,1859Z"/><path class="cls-7" d="M2429.61,1859a2.56,2.56,0,1,0-2.55-2.56A2.55,2.55,0,0,0,2429.61,1859Z"/><path class="cls-7" d="M2447,1859a2.56,2.56,0,1,0-2.55-2.56A2.56,2.56,0,0,0,2447,1859Z"/><path class="cls-7" d="M2464.39,1859a2.56,2.56,0,1,0-2.56-2.56A2.55,2.55,0,0,0,2464.39,1859Z"/><path class="cls-7" d="M2481.77,1859a2.56,2.56,0,1,0-2.55-2.56A2.56,2.56,0,0,0,2481.77,1859Z"/><path class="cls-7" d="M2499.16,1859a2.56,2.56,0,1,0-2.56-2.56A2.55,2.55,0,0,0,2499.16,1859Z"/><path class="cls-7" d="M2516.54,1859a2.56,2.56,0,1,0-2.55-2.56A2.56,2.56,0,0,0,2516.54,1859Z"/><path class="cls-7" d="M2533.93,1859a2.56,2.56,0,1,0-2.56-2.56A2.55,2.55,0,0,0,2533.93,1859Z"/><path class="cls-7" d="M2551.32,1859a2.56,2.56,0,1,0-2.56-2.56A2.55,2.55,0,0,0,2551.32,1859Z"/><path class="cls-7" d="M2568.7,1859a2.56,2.56,0,1,0-2.55-2.56A2.56,2.56,0,0,0,2568.7,1859Z"/><path class="cls-7" d="M2586.09,1859a2.56,2.56,0,1,0-2.56-2.56A2.55,2.55,0,0,0,2586.09,1859Z"/><path class="cls-7" d="M2603.47,1859a2.56,2.56,0,1,0-2.55-2.56A2.56,2.56,0,0,0,2603.47,1859Z"/><path class="cls-7" d="M2620.86,1859a2.56,2.56,0,1,0-2.56-2.56A2.55,2.55,0,0,0,2620.86,1859Z"/><path class="cls-7" d="M2638.24,1859a2.56,2.56,0,1,0-2.55-2.56A2.55,2.55,0,0,0,2638.24,1859Z"/><path class="cls-7" d="M2655.63,1859a2.56,2.56,0,1,0-2.55-2.56A2.56,2.56,0,0,0,2655.63,1859Z"/><path class="cls-7" d="M2673,1859a2.56,2.56,0,1,0-2.56-2.56A2.55,2.55,0,0,0,2673,1859Z"/><path class="cls-7" d="M2690.4,1859a2.56,2.56,0,1,0-2.55-2.56A2.56,2.56,0,0,0,2690.4,1859Z"/><path class="cls-7" d="M2707.79,1859a2.56,2.56,0,1,0-2.56-2.56A2.55,2.55,0,0,0,2707.79,1859Z"/><path class="cls-7" d="M2725.17,1859a2.56,2.56,0,1,0-2.55-2.56A2.55,2.55,0,0,0,2725.17,1859Z"/><path class="cls-7" d="M2742.56,1859a2.56,2.56,0,1,0-2.56-2.56A2.56,2.56,0,0,0,2742.56,1859Z"/><path class="cls-7" d="M2760,1859a2.56,2.56,0,1,0-2.56-2.56A2.55,2.55,0,0,0,2760,1859Z"/><path class="cls-7" d="M2777.33,1859a2.56,2.56,0,1,0-2.55-2.56A2.56,2.56,0,0,0,2777.33,1859Z"/><path class="cls-7" d="M2794.72,1859a2.56,2.56,0,1,0-2.56-2.56A2.55,2.55,0,0,0,2794.72,1859Z"/><path class="cls-7" d="M2812.1,1859a2.56,2.56,0,1,0-2.55-2.56A2.56,2.56,0,0,0,2812.1,1859Z"/><path class="cls-7" d="M2829.49,1859a2.56,2.56,0,1,0-2.56-2.56A2.55,2.55,0,0,0,2829.49,1859Z"/><path class="cls-7" d="M2846.88,1859a2.56,2.56,0,1,0-2.56-2.56A2.55,2.55,0,0,0,2846.88,1859Z"/><path class="cls-7" d="M2238.37,1876.42a2.56,2.56,0,1,0-2.56-2.56A2.56,2.56,0,0,0,2238.37,1876.42Z"/><path class="cls-7" d="M2255.76,1876.42a2.56,2.56,0,1,0-2.56-2.56A2.56,2.56,0,0,0,2255.76,1876.42Z"/><path class="cls-7" d="M2273.14,1876.42a2.56,2.56,0,1,0-2.55-2.56A2.56,2.56,0,0,0,2273.14,1876.42Z"/><path class="cls-7" d="M2290.53,1876.42a2.56,2.56,0,1,0-2.56-2.56A2.56,2.56,0,0,0,2290.53,1876.42Z"/><path class="cls-7" d="M2307.91,1876.42a2.56,2.56,0,1,0-2.55-2.56A2.56,2.56,0,0,0,2307.91,1876.42Z"/><path class="cls-7" d="M2325.3,1876.42a2.56,2.56,0,1,0-2.56-2.56A2.56,2.56,0,0,0,2325.3,1876.42Z"/><path class="cls-7" d="M2342.69,1876.42a2.56,2.56,0,1,0-2.56-2.56A2.56,2.56,0,0,0,2342.69,1876.42Z"/><path class="cls-7" d="M2360.07,1876.42a2.56,2.56,0,1,0-2.55-2.56A2.56,2.56,0,0,0,2360.07,1876.42Z"/><path class="cls-7" d="M2377.46,1876.42a2.56,2.56,0,1,0-2.56-2.56A2.56,2.56,0,0,0,2377.46,1876.42Z"/><path class="cls-7" d="M2394.84,1876.42a2.56,2.56,0,1,0-2.55-2.56A2.56,2.56,0,0,0,2394.84,1876.42Z"/><path class="cls-7" d="M2412.23,1876.42a2.56,2.56,0,1,0-2.56-2.56A2.56,2.56,0,0,0,2412.23,1876.42Z"/><path class="cls-7" d="M2429.61,1876.42a2.56,2.56,0,1,0-2.55-2.56A2.56,2.56,0,0,0,2429.61,1876.42Z"/><path class="cls-7" d="M2447,1876.42a2.56,2.56,0,1,0-2.55-2.56A2.56,2.56,0,0,0,2447,1876.42Z"/><path class="cls-7" d="M2464.39,1876.42a2.56,2.56,0,1,0-2.56-2.56A2.56,2.56,0,0,0,2464.39,1876.42Z"/><path class="cls-7" d="M2481.77,1876.42a2.56,2.56,0,1,0-2.55-2.56A2.56,2.56,0,0,0,2481.77,1876.42Z"/><path class="cls-7" d="M2499.16,1876.42a2.56,2.56,0,1,0-2.56-2.56A2.56,2.56,0,0,0,2499.16,1876.42Z"/><path class="cls-7" d="M2516.54,1876.42a2.56,2.56,0,1,0-2.55-2.56A2.56,2.56,0,0,0,2516.54,1876.42Z"/><path class="cls-7" d="M2533.93,1876.42a2.56,2.56,0,1,0-2.56-2.56A2.56,2.56,0,0,0,2533.93,1876.42Z"/><path class="cls-7" d="M2551.32,1876.42a2.56,2.56,0,1,0-2.56-2.56A2.56,2.56,0,0,0,2551.32,1876.42Z"/><path class="cls-7" d="M2568.7,1876.42a2.56,2.56,0,1,0-2.55-2.56A2.56,2.56,0,0,0,2568.7,1876.42Z"/><path class="cls-7" d="M2586.09,1876.42a2.56,2.56,0,1,0-2.56-2.56A2.56,2.56,0,0,0,2586.09,1876.42Z"/><path class="cls-7" d="M2603.47,1876.42a2.56,2.56,0,1,0-2.55-2.56A2.56,2.56,0,0,0,2603.47,1876.42Z"/><path class="cls-7" d="M2620.86,1876.42a2.56,2.56,0,1,0-2.56-2.56A2.56,2.56,0,0,0,2620.86,1876.42Z"/><path class="cls-7" d="M2638.24,1876.42a2.56,2.56,0,1,0-2.55-2.56A2.56,2.56,0,0,0,2638.24,1876.42Z"/><path class="cls-7" d="M2655.63,1876.42a2.56,2.56,0,1,0-2.55-2.56A2.56,2.56,0,0,0,2655.63,1876.42Z"/><path class="cls-7" d="M2673,1876.42a2.56,2.56,0,1,0-2.56-2.56A2.56,2.56,0,0,0,2673,1876.42Z"/><path class="cls-7" d="M2690.4,1876.42a2.56,2.56,0,1,0-2.55-2.56A2.56,2.56,0,0,0,2690.4,1876.42Z"/><path class="cls-7" d="M2707.79,1876.42a2.56,2.56,0,1,0-2.56-2.56A2.56,2.56,0,0,0,2707.79,1876.42Z"/><path class="cls-7" d="M2725.17,1876.42a2.56,2.56,0,1,0-2.55-2.56A2.56,2.56,0,0,0,2725.17,1876.42Z"/><path class="cls-7" d="M2742.56,1876.42a2.56,2.56,0,1,0-2.56-2.56A2.56,2.56,0,0,0,2742.56,1876.42Z"/><path class="cls-7" d="M2760,1876.42a2.56,2.56,0,1,0-2.56-2.56A2.56,2.56,0,0,0,2760,1876.42Z"/><path class="cls-7" d="M2777.33,1876.42a2.56,2.56,0,1,0-2.55-2.56A2.56,2.56,0,0,0,2777.33,1876.42Z"/><path class="cls-7" d="M2794.72,1876.42a2.56,2.56,0,1,0-2.56-2.56A2.56,2.56,0,0,0,2794.72,1876.42Z"/><path class="cls-7" d="M2812.1,1876.42a2.56,2.56,0,1,0-2.55-2.56A2.56,2.56,0,0,0,2812.1,1876.42Z"/><path class="cls-7" d="M2829.49,1876.42a2.56,2.56,0,1,0-2.56-2.56A2.56,2.56,0,0,0,2829.49,1876.42Z"/><path class="cls-7" d="M2846.88,1876.42a2.56,2.56,0,1,0-2.56-2.56A2.56,2.56,0,0,0,2846.88,1876.42Z"/><path class="cls-7" d="M2238.37,1893.8a2.56,2.56,0,1,0-2.56-2.55A2.56,2.56,0,0,0,2238.37,1893.8Z"/><path class="cls-7" d="M2255.76,1893.8a2.56,2.56,0,1,0-2.56-2.55A2.55,2.55,0,0,0,2255.76,1893.8Z"/><path class="cls-7" d="M2273.14,1893.8a2.56,2.56,0,1,0-2.55-2.55A2.56,2.56,0,0,0,2273.14,1893.8Z"/><path class="cls-7" d="M2290.53,1893.8a2.56,2.56,0,1,0-2.56-2.55A2.55,2.55,0,0,0,2290.53,1893.8Z"/><path class="cls-7" d="M2307.91,1893.8a2.56,2.56,0,1,0-2.55-2.55A2.56,2.56,0,0,0,2307.91,1893.8Z"/><path class="cls-7" d="M2325.3,1893.8a2.56,2.56,0,1,0-2.56-2.55A2.55,2.55,0,0,0,2325.3,1893.8Z"/><path class="cls-7" d="M2342.69,1893.8a2.56,2.56,0,1,0-2.56-2.55A2.55,2.55,0,0,0,2342.69,1893.8Z"/><path class="cls-7" d="M2360.07,1893.8a2.56,2.56,0,1,0-2.55-2.55A2.56,2.56,0,0,0,2360.07,1893.8Z"/><path class="cls-7" d="M2377.46,1893.8a2.56,2.56,0,1,0-2.56-2.55A2.55,2.55,0,0,0,2377.46,1893.8Z"/><path class="cls-7" d="M2394.84,1893.8a2.56,2.56,0,1,0-2.55-2.55A2.56,2.56,0,0,0,2394.84,1893.8Z"/><path class="cls-7" d="M2412.23,1893.8a2.56,2.56,0,1,0-2.56-2.55A2.55,2.55,0,0,0,2412.23,1893.8Z"/><path class="cls-7" d="M2429.61,1893.8a2.56,2.56,0,1,0-2.55-2.55A2.55,2.55,0,0,0,2429.61,1893.8Z"/><path class="cls-7" d="M2447,1893.8a2.56,2.56,0,1,0-2.55-2.55A2.56,2.56,0,0,0,2447,1893.8Z"/><path class="cls-7" d="M2464.39,1893.8a2.56,2.56,0,1,0-2.56-2.55A2.55,2.55,0,0,0,2464.39,1893.8Z"/><path class="cls-7" d="M2481.77,1893.8a2.56,2.56,0,1,0-2.55-2.55A2.56,2.56,0,0,0,2481.77,1893.8Z"/><path class="cls-7" d="M2499.16,1893.8a2.56,2.56,0,1,0-2.56-2.55A2.55,2.55,0,0,0,2499.16,1893.8Z"/><path class="cls-7" d="M2516.54,1893.8a2.56,2.56,0,1,0-2.55-2.55A2.56,2.56,0,0,0,2516.54,1893.8Z"/><path class="cls-7" d="M2533.93,1893.8a2.56,2.56,0,1,0-2.56-2.55A2.55,2.55,0,0,0,2533.93,1893.8Z"/><path class="cls-7" d="M2551.32,1893.8a2.56,2.56,0,1,0-2.56-2.55A2.55,2.55,0,0,0,2551.32,1893.8Z"/><path class="cls-7" d="M2568.7,1893.8a2.56,2.56,0,1,0-2.55-2.55A2.56,2.56,0,0,0,2568.7,1893.8Z"/><path class="cls-7" d="M2586.09,1893.8a2.56,2.56,0,1,0-2.56-2.55A2.55,2.55,0,0,0,2586.09,1893.8Z"/><path class="cls-7" d="M2603.47,1893.8a2.56,2.56,0,1,0-2.55-2.55A2.56,2.56,0,0,0,2603.47,1893.8Z"/><path class="cls-7" d="M2620.86,1893.8a2.56,2.56,0,1,0-2.56-2.55A2.55,2.55,0,0,0,2620.86,1893.8Z"/><path class="cls-7" d="M2638.24,1893.8a2.56,2.56,0,1,0-2.55-2.55A2.55,2.55,0,0,0,2638.24,1893.8Z"/><path class="cls-7" d="M2655.63,1893.8a2.56,2.56,0,1,0-2.55-2.55A2.56,2.56,0,0,0,2655.63,1893.8Z"/><path class="cls-7" d="M2673,1893.8a2.56,2.56,0,1,0-2.56-2.55A2.55,2.55,0,0,0,2673,1893.8Z"/><path class="cls-7" d="M2690.4,1893.8a2.56,2.56,0,1,0-2.55-2.55A2.56,2.56,0,0,0,2690.4,1893.8Z"/><path class="cls-7" d="M2707.79,1893.8a2.56,2.56,0,1,0-2.56-2.55A2.55,2.55,0,0,0,2707.79,1893.8Z"/><path class="cls-7" d="M2725.17,1893.8a2.56,2.56,0,1,0-2.55-2.55A2.55,2.55,0,0,0,2725.17,1893.8Z"/><path class="cls-7" d="M2742.56,1893.8a2.56,2.56,0,1,0-2.56-2.55A2.56,2.56,0,0,0,2742.56,1893.8Z"/><path class="cls-7" d="M2760,1893.8a2.56,2.56,0,1,0-2.56-2.55A2.55,2.55,0,0,0,2760,1893.8Z"/><path class="cls-7" d="M2777.33,1893.8a2.56,2.56,0,1,0-2.55-2.55A2.56,2.56,0,0,0,2777.33,1893.8Z"/><path class="cls-7" d="M2794.72,1893.8a2.56,2.56,0,1,0-2.56-2.55A2.55,2.55,0,0,0,2794.72,1893.8Z"/><path class="cls-7" d="M2812.1,1893.8a2.56,2.56,0,1,0-2.55-2.55A2.56,2.56,0,0,0,2812.1,1893.8Z"/><path class="cls-7" d="M2829.49,1893.8a2.56,2.56,0,1,0-2.56-2.55A2.55,2.55,0,0,0,2829.49,1893.8Z"/><path class="cls-7" d="M2846.88,1893.8a2.56,2.56,0,1,0-2.56-2.55A2.55,2.55,0,0,0,2846.88,1893.8Z"/><path class="cls-7" d="M2238.37,1911.19a2.56,2.56,0,1,0-2.56-2.56A2.56,2.56,0,0,0,2238.37,1911.19Z"/><path class="cls-7" d="M2255.76,1911.19a2.56,2.56,0,1,0-2.56-2.56A2.56,2.56,0,0,0,2255.76,1911.19Z"/><path class="cls-7" d="M2273.14,1911.19a2.56,2.56,0,1,0-2.55-2.56A2.56,2.56,0,0,0,2273.14,1911.19Z"/><path class="cls-7" d="M2290.53,1911.19a2.56,2.56,0,1,0-2.56-2.56A2.56,2.56,0,0,0,2290.53,1911.19Z"/><path class="cls-7" d="M2307.91,1911.19a2.56,2.56,0,1,0-2.55-2.56A2.56,2.56,0,0,0,2307.91,1911.19Z"/><path class="cls-7" d="M2325.3,1911.19a2.56,2.56,0,1,0-2.56-2.56A2.56,2.56,0,0,0,2325.3,1911.19Z"/><path class="cls-7" d="M2342.69,1911.19a2.56,2.56,0,1,0-2.56-2.56A2.56,2.56,0,0,0,2342.69,1911.19Z"/><path class="cls-7" d="M2360.07,1911.19a2.56,2.56,0,1,0-2.55-2.56A2.56,2.56,0,0,0,2360.07,1911.19Z"/><path class="cls-7" d="M2377.46,1911.19a2.56,2.56,0,1,0-2.56-2.56A2.56,2.56,0,0,0,2377.46,1911.19Z"/><path class="cls-7" d="M2394.84,1911.19a2.56,2.56,0,1,0-2.55-2.56A2.56,2.56,0,0,0,2394.84,1911.19Z"/><path class="cls-7" d="M2412.23,1911.19a2.56,2.56,0,1,0-2.56-2.56A2.56,2.56,0,0,0,2412.23,1911.19Z"/><path class="cls-7" d="M2429.61,1911.19a2.56,2.56,0,1,0-2.55-2.56A2.56,2.56,0,0,0,2429.61,1911.19Z"/><path class="cls-7" d="M2447,1911.19a2.56,2.56,0,1,0-2.55-2.56A2.56,2.56,0,0,0,2447,1911.19Z"/><path class="cls-7" d="M2464.39,1911.19a2.56,2.56,0,1,0-2.56-2.56A2.56,2.56,0,0,0,2464.39,1911.19Z"/><path class="cls-7" d="M2481.77,1911.19a2.56,2.56,0,1,0-2.55-2.56A2.56,2.56,0,0,0,2481.77,1911.19Z"/><path class="cls-7" d="M2499.16,1911.19a2.56,2.56,0,1,0-2.56-2.56A2.56,2.56,0,0,0,2499.16,1911.19Z"/><path class="cls-7" d="M2516.54,1911.19a2.56,2.56,0,1,0-2.55-2.56A2.56,2.56,0,0,0,2516.54,1911.19Z"/><path class="cls-7" d="M2533.93,1911.19a2.56,2.56,0,1,0-2.56-2.56A2.56,2.56,0,0,0,2533.93,1911.19Z"/><path class="cls-7" d="M2551.32,1911.19a2.56,2.56,0,1,0-2.56-2.56A2.56,2.56,0,0,0,2551.32,1911.19Z"/><path class="cls-7" d="M2568.7,1911.19a2.56,2.56,0,1,0-2.55-2.56A2.56,2.56,0,0,0,2568.7,1911.19Z"/><path class="cls-7" d="M2586.09,1911.19a2.56,2.56,0,1,0-2.56-2.56A2.56,2.56,0,0,0,2586.09,1911.19Z"/><path class="cls-7" d="M2603.47,1911.19a2.56,2.56,0,1,0-2.55-2.56A2.56,2.56,0,0,0,2603.47,1911.19Z"/><path class="cls-7" d="M2620.86,1911.19a2.56,2.56,0,1,0-2.56-2.56A2.56,2.56,0,0,0,2620.86,1911.19Z"/><path class="cls-7" d="M2638.24,1911.19a2.56,2.56,0,1,0-2.55-2.56A2.56,2.56,0,0,0,2638.24,1911.19Z"/><path class="cls-7" d="M2655.63,1911.19a2.56,2.56,0,1,0-2.55-2.56A2.56,2.56,0,0,0,2655.63,1911.19Z"/><path class="cls-7" d="M2673,1911.19a2.56,2.56,0,1,0-2.56-2.56A2.56,2.56,0,0,0,2673,1911.19Z"/><path class="cls-7" d="M2690.4,1911.19a2.56,2.56,0,1,0-2.55-2.56A2.56,2.56,0,0,0,2690.4,1911.19Z"/><path class="cls-7" d="M2707.79,1911.19a2.56,2.56,0,1,0-2.56-2.56A2.56,2.56,0,0,0,2707.79,1911.19Z"/><path class="cls-7" d="M2725.17,1911.19a2.56,2.56,0,1,0-2.55-2.56A2.56,2.56,0,0,0,2725.17,1911.19Z"/><path class="cls-7" d="M2742.56,1911.19a2.56,2.56,0,1,0-2.56-2.56A2.56,2.56,0,0,0,2742.56,1911.19Z"/><path class="cls-7" d="M2760,1911.19a2.56,2.56,0,1,0-2.56-2.56A2.56,2.56,0,0,0,2760,1911.19Z"/><path class="cls-7" d="M2777.33,1911.19a2.56,2.56,0,1,0-2.55-2.56A2.56,2.56,0,0,0,2777.33,1911.19Z"/><path class="cls-7" d="M2794.72,1911.19a2.56,2.56,0,1,0-2.56-2.56A2.56,2.56,0,0,0,2794.72,1911.19Z"/><path class="cls-7" d="M2812.1,1911.19a2.56,2.56,0,1,0-2.55-2.56A2.56,2.56,0,0,0,2812.1,1911.19Z"/><path class="cls-7" d="M2829.49,1911.19a2.56,2.56,0,1,0-2.56-2.56A2.56,2.56,0,0,0,2829.49,1911.19Z"/><path class="cls-7" d="M2846.88,1911.19a2.56,2.56,0,1,0-2.56-2.56A2.56,2.56,0,0,0,2846.88,1911.19Z"/><path class="cls-7" d="M2238.37,1928.57a2.56,2.56,0,1,0-2.56-2.55A2.56,2.56,0,0,0,2238.37,1928.57Z"/><path class="cls-7" d="M2255.76,1928.57a2.56,2.56,0,1,0-2.56-2.55A2.55,2.55,0,0,0,2255.76,1928.57Z"/><path class="cls-7" d="M2273.14,1928.57a2.56,2.56,0,1,0-2.55-2.55A2.56,2.56,0,0,0,2273.14,1928.57Z"/><path class="cls-7" d="M2290.53,1928.57A2.56,2.56,0,1,0,2288,1926,2.55,2.55,0,0,0,2290.53,1928.57Z"/><path class="cls-7" d="M2307.91,1928.57a2.56,2.56,0,1,0-2.55-2.55A2.56,2.56,0,0,0,2307.91,1928.57Z"/><path class="cls-7" d="M2325.3,1928.57a2.56,2.56,0,1,0-2.56-2.55A2.55,2.55,0,0,0,2325.3,1928.57Z"/><path class="cls-7" d="M2342.69,1928.57a2.56,2.56,0,1,0-2.56-2.55A2.55,2.55,0,0,0,2342.69,1928.57Z"/><path class="cls-7" d="M2360.07,1928.57a2.56,2.56,0,1,0-2.55-2.55A2.56,2.56,0,0,0,2360.07,1928.57Z"/><path class="cls-7" d="M2377.46,1928.57a2.56,2.56,0,1,0-2.56-2.55A2.55,2.55,0,0,0,2377.46,1928.57Z"/><path class="cls-7" d="M2394.84,1928.57a2.56,2.56,0,1,0-2.55-2.55A2.56,2.56,0,0,0,2394.84,1928.57Z"/><path class="cls-7" d="M2412.23,1928.57a2.56,2.56,0,1,0-2.56-2.55A2.55,2.55,0,0,0,2412.23,1928.57Z"/><path class="cls-7" d="M2429.61,1928.57a2.56,2.56,0,1,0-2.55-2.55A2.55,2.55,0,0,0,2429.61,1928.57Z"/><path class="cls-7" d="M2447,1928.57a2.56,2.56,0,1,0-2.55-2.55A2.56,2.56,0,0,0,2447,1928.57Z"/><path class="cls-7" d="M2464.39,1928.57a2.56,2.56,0,1,0-2.56-2.55A2.55,2.55,0,0,0,2464.39,1928.57Z"/><path class="cls-7" d="M2481.77,1928.57a2.56,2.56,0,1,0-2.55-2.55A2.56,2.56,0,0,0,2481.77,1928.57Z"/><path class="cls-7" d="M2499.16,1928.57a2.56,2.56,0,1,0-2.56-2.55A2.55,2.55,0,0,0,2499.16,1928.57Z"/><path class="cls-7" d="M2516.54,1928.57A2.56,2.56,0,1,0,2514,1926,2.56,2.56,0,0,0,2516.54,1928.57Z"/><path class="cls-7" d="M2533.93,1928.57a2.56,2.56,0,1,0-2.56-2.55A2.55,2.55,0,0,0,2533.93,1928.57Z"/><path class="cls-7" d="M2551.32,1928.57a2.56,2.56,0,1,0-2.56-2.55A2.55,2.55,0,0,0,2551.32,1928.57Z"/><path class="cls-7" d="M2568.7,1928.57a2.56,2.56,0,1,0-2.55-2.55A2.56,2.56,0,0,0,2568.7,1928.57Z"/><path class="cls-7" d="M2586.09,1928.57a2.56,2.56,0,1,0-2.56-2.55A2.55,2.55,0,0,0,2586.09,1928.57Z"/><path class="cls-7" d="M2603.47,1928.57a2.56,2.56,0,1,0-2.55-2.55A2.56,2.56,0,0,0,2603.47,1928.57Z"/><path class="cls-7" d="M2620.86,1928.57a2.56,2.56,0,1,0-2.56-2.55A2.55,2.55,0,0,0,2620.86,1928.57Z"/><path class="cls-7" d="M2638.24,1928.57a2.56,2.56,0,1,0-2.55-2.55A2.55,2.55,0,0,0,2638.24,1928.57Z"/><path class="cls-7" d="M2655.63,1928.57a2.56,2.56,0,1,0-2.55-2.55A2.56,2.56,0,0,0,2655.63,1928.57Z"/><path class="cls-7" d="M2673,1928.57a2.56,2.56,0,1,0-2.56-2.55A2.55,2.55,0,0,0,2673,1928.57Z"/><path class="cls-7" d="M2690.4,1928.57a2.56,2.56,0,1,0-2.55-2.55A2.56,2.56,0,0,0,2690.4,1928.57Z"/><path class="cls-7" d="M2707.79,1928.57a2.56,2.56,0,1,0-2.56-2.55A2.55,2.55,0,0,0,2707.79,1928.57Z"/><path class="cls-7" d="M2725.17,1928.57a2.56,2.56,0,1,0-2.55-2.55A2.55,2.55,0,0,0,2725.17,1928.57Z"/><path class="cls-7" d="M2742.56,1928.57A2.56,2.56,0,1,0,2740,1926,2.56,2.56,0,0,0,2742.56,1928.57Z"/><path class="cls-7" d="M2760,1928.57a2.56,2.56,0,1,0-2.56-2.55A2.55,2.55,0,0,0,2760,1928.57Z"/><path class="cls-7" d="M2777.33,1928.57a2.56,2.56,0,1,0-2.55-2.55A2.56,2.56,0,0,0,2777.33,1928.57Z"/><path class="cls-7" d="M2794.72,1928.57a2.56,2.56,0,1,0-2.56-2.55A2.55,2.55,0,0,0,2794.72,1928.57Z"/><path class="cls-7" d="M2812.1,1928.57a2.56,2.56,0,1,0-2.55-2.55A2.56,2.56,0,0,0,2812.1,1928.57Z"/><path class="cls-7" d="M2829.49,1928.57a2.56,2.56,0,1,0-2.56-2.55A2.55,2.55,0,0,0,2829.49,1928.57Z"/><path class="cls-7" d="M2846.88,1928.57a2.56,2.56,0,1,0-2.56-2.55A2.55,2.55,0,0,0,2846.88,1928.57Z"/><circle class="cls-7" cx="2238.37" cy="1943.4" r="2.56"/><path class="cls-7" d="M2255.76,1946a2.56,2.56,0,1,0-2.56-2.56A2.56,2.56,0,0,0,2255.76,1946Z"/><circle class="cls-7" cx="2273.14" cy="1943.4" r="2.56"/><path class="cls-7" d="M2290.53,1946a2.56,2.56,0,1,0-2.56-2.56A2.56,2.56,0,0,0,2290.53,1946Z"/><circle class="cls-7" cx="2307.91" cy="1943.4" r="2.56"/><circle class="cls-7" cx="2325.3" cy="1943.4" r="2.56"/><circle class="cls-7" cx="2342.69" cy="1943.4" r="2.56"/><circle class="cls-7" cx="2360.07" cy="1943.4" r="2.56"/><circle class="cls-7" cx="2377.46" cy="1943.4" r="2.56"/><circle class="cls-7" cx="2394.84" cy="1943.4" r="2.56"/><path class="cls-7" d="M2412.23,1946a2.56,2.56,0,1,0-2.56-2.56A2.56,2.56,0,0,0,2412.23,1946Z"/><circle class="cls-7" cx="2429.61" cy="1943.4" r="2.56"/><path class="cls-7" d="M2447,1946a2.56,2.56,0,1,0-2.55-2.56A2.56,2.56,0,0,0,2447,1946Z"/><circle class="cls-7" cx="2464.39" cy="1943.4" r="2.56"/><circle class="cls-7" cx="2481.77" cy="1943.4" r="2.56"/><circle class="cls-7" cx="2499.16" cy="1943.4" r="2.56"/><circle class="cls-7" cx="2516.54" cy="1943.4" r="2.56"/><circle class="cls-7" cx="2533.93" cy="1943.4" r="2.56"/><circle class="cls-7" cx="2551.32" cy="1943.4" r="2.56"/><path class="cls-7" d="M2568.7,1946a2.56,2.56,0,1,0-2.55-2.56A2.56,2.56,0,0,0,2568.7,1946Z"/><circle class="cls-7" cx="2586.09" cy="1943.4" r="2.56"/><path class="cls-7" d="M2603.47,1946a2.56,2.56,0,1,0-2.55-2.56A2.56,2.56,0,0,0,2603.47,1946Z"/><circle class="cls-7" cx="2620.86" cy="1943.4" r="2.56"/><circle class="cls-7" cx="2638.24" cy="1943.4" r="2.56"/><circle class="cls-7" cx="2655.63" cy="1943.4" r="2.56"/><circle class="cls-7" cx="2673.02" cy="1943.4" r="2.56"/><circle class="cls-7" cx="2690.4" cy="1943.4" r="2.56"/><circle class="cls-7" cx="2707.79" cy="1943.4" r="2.56"/><path class="cls-7" d="M2725.17,1946a2.56,2.56,0,1,0-2.55-2.56A2.56,2.56,0,0,0,2725.17,1946Z"/><circle class="cls-7" cx="2742.56" cy="1943.4" r="2.56"/><path class="cls-7" d="M2760,1946a2.56,2.56,0,1,0-2.56-2.56A2.56,2.56,0,0,0,2760,1946Z"/><circle class="cls-7" cx="2777.33" cy="1943.4" r="2.56"/><circle class="cls-7" cx="2794.72" cy="1943.4" r="2.56"/><circle class="cls-7" cx="2812.1" cy="1943.4" r="2.56"/><circle class="cls-7" cx="2829.49" cy="1943.4" r="2.56"/><circle class="cls-7" cx="2846.88" cy="1943.4" r="2.56"/><circle class="cls-7" cx="2708.29" cy="370.87" r="3.17"/><circle class="cls-7" cx="2729.86" cy="370.87" r="3.17"/><circle class="cls-7" cx="2751.43" cy="370.87" r="3.17"/><circle class="cls-7" cx="2773" cy="370.87" r="3.17"/><path class="cls-7" d="M2794.57,374a3.17,3.17,0,1,0-3.17-3.17A3.17,3.17,0,0,0,2794.57,374Z"/><circle class="cls-7" cx="2816.14" cy="370.87" r="3.17"/><path class="cls-7" d="M2837.71,374a3.17,3.17,0,1,0-3.17-3.17A3.17,3.17,0,0,0,2837.71,374Z"/><circle class="cls-7" cx="2859.28" cy="370.87" r="3.17"/><path class="cls-7" d="M2708.29,395.61a3.17,3.17,0,1,0-3.17-3.17A3.17,3.17,0,0,0,2708.29,395.61Z"/><path class="cls-7" d="M2729.86,395.61a3.17,3.17,0,1,0-3.17-3.17A3.17,3.17,0,0,0,2729.86,395.61Z"/><path class="cls-7" d="M2751.43,395.61a3.17,3.17,0,1,0-3.17-3.17A3.17,3.17,0,0,0,2751.43,395.61Z"/><path class="cls-7" d="M2773,395.61a3.17,3.17,0,1,0-3.17-3.17A3.17,3.17,0,0,0,2773,395.61Z"/><path class="cls-7" d="M2794.57,395.61a3.17,3.17,0,1,0-3.17-3.17A3.17,3.17,0,0,0,2794.57,395.61Z"/><path class="cls-7" d="M2816.14,395.61a3.17,3.17,0,1,0-3.17-3.17A3.17,3.17,0,0,0,2816.14,395.61Z"/><path class="cls-7" d="M2837.71,395.61a3.17,3.17,0,1,0-3.17-3.17A3.17,3.17,0,0,0,2837.71,395.61Z"/><path class="cls-7" d="M2859.28,395.61a3.17,3.17,0,1,0-3.17-3.17A3.17,3.17,0,0,0,2859.28,395.61Z"/><circle class="cls-7" cx="2708.29" cy="414" r="3.17"/><circle class="cls-7" cx="2729.86" cy="414" r="3.17"/><circle class="cls-7" cx="2751.43" cy="414" r="3.17"/><circle class="cls-7" cx="2773" cy="414" r="3.17"/><path class="cls-7" d="M2794.57,417.17a3.17,3.17,0,1,0-3.17-3.17A3.16,3.16,0,0,0,2794.57,417.17Z"/><circle class="cls-7" cx="2816.14" cy="414" r="3.17"/><path class="cls-7" d="M2837.71,417.17a3.17,3.17,0,1,0-3.17-3.17A3.16,3.16,0,0,0,2837.71,417.17Z"/><circle class="cls-7" cx="2859.28" cy="414" r="3.17"/><circle class="cls-7" cx="2708.29" cy="435.57" r="3.17"/><circle class="cls-7" cx="2729.86" cy="435.57" r="3.17"/><circle class="cls-7" cx="2751.43" cy="435.57" r="3.17"/><circle class="cls-7" cx="2773" cy="435.57" r="3.17"/><path class="cls-7" d="M2794.57,438.74a3.17,3.17,0,1,0-3.17-3.17A3.16,3.16,0,0,0,2794.57,438.74Z"/><circle class="cls-7" cx="2816.14" cy="435.57" r="3.17"/><path class="cls-7" d="M2837.71,438.74a3.17,3.17,0,1,0-3.17-3.17A3.16,3.16,0,0,0,2837.71,438.74Z"/><circle class="cls-7" cx="2859.28" cy="435.57" r="3.17"/><circle class="cls-7" cx="2708.29" cy="457.14" r="3.17"/><circle class="cls-7" cx="2729.86" cy="457.14" r="3.17"/><circle class="cls-7" cx="2751.43" cy="457.14" r="3.17"/><circle class="cls-7" cx="2773" cy="457.14" r="3.17"/><path class="cls-7" d="M2794.57,460.31a3.17,3.17,0,1,0-3.17-3.17A3.17,3.17,0,0,0,2794.57,460.31Z"/><circle class="cls-7" cx="2816.14" cy="457.14" r="3.17"/><path class="cls-7" d="M2837.71,460.31a3.17,3.17,0,1,0-3.17-3.17A3.17,3.17,0,0,0,2837.71,460.31Z"/><circle class="cls-7" cx="2859.28" cy="457.14" r="3.17"/><circle class="cls-7" cx="2708.29" cy="478.71" r="3.17"/><circle class="cls-7" cx="2729.86" cy="478.71" r="3.17"/><circle class="cls-7" cx="2751.43" cy="478.71" r="3.17"/><circle class="cls-7" cx="2773" cy="478.71" r="3.17"/><path class="cls-7" d="M2794.57,481.88a3.17,3.17,0,1,0-3.17-3.17A3.17,3.17,0,0,0,2794.57,481.88Z"/><circle class="cls-7" cx="2816.14" cy="478.71" r="3.17"/><path class="cls-7" d="M2837.71,481.88a3.17,3.17,0,1,0-3.17-3.17A3.17,3.17,0,0,0,2837.71,481.88Z"/><circle class="cls-7" cx="2859.28" cy="478.71" r="3.17"/><circle class="cls-7" cx="2708.29" cy="500.28" r="3.17"/><circle class="cls-7" cx="2729.86" cy="500.28" r="3.17"/><circle class="cls-7" cx="2751.43" cy="500.28" r="3.17"/><circle class="cls-7" cx="2773" cy="500.28" r="3.17"/><path class="cls-7" d="M2794.57,503.45a3.17,3.17,0,1,0-3.17-3.17A3.17,3.17,0,0,0,2794.57,503.45Z"/><circle class="cls-7" cx="2816.14" cy="500.28" r="3.17"/><path class="cls-7" d="M2837.71,503.45a3.17,3.17,0,1,0-3.17-3.17A3.17,3.17,0,0,0,2837.71,503.45Z"/><circle class="cls-7" cx="2859.28" cy="500.28" r="3.17"/><circle class="cls-7" cx="2708.29" cy="521.85" r="3.17"/><circle class="cls-7" cx="2729.86" cy="521.85" r="3.17"/><circle class="cls-7" cx="2751.43" cy="521.85" r="3.17"/><circle class="cls-7" cx="2773" cy="521.85" r="3.17"/><path class="cls-7" d="M2794.57,525a3.17,3.17,0,1,0-3.17-3.17A3.17,3.17,0,0,0,2794.57,525Z"/><circle class="cls-7" cx="2816.14" cy="521.85" r="3.17"/><path class="cls-7" d="M2837.71,525a3.17,3.17,0,1,0-3.17-3.17A3.17,3.17,0,0,0,2837.71,525Z"/><circle class="cls-7" cx="2859.28" cy="521.85" r="3.17"/><path class="cls-7" d="M2708.29,546.59a3.17,3.17,0,1,0-3.17-3.17A3.17,3.17,0,0,0,2708.29,546.59Z"/><path class="cls-7" d="M2729.86,546.59a3.17,3.17,0,1,0-3.17-3.17A3.17,3.17,0,0,0,2729.86,546.59Z"/><path class="cls-7" d="M2751.43,546.59a3.17,3.17,0,1,0-3.17-3.17A3.17,3.17,0,0,0,2751.43,546.59Z"/><path class="cls-7" d="M2773,546.59a3.17,3.17,0,1,0-3.17-3.17A3.17,3.17,0,0,0,2773,546.59Z"/><path class="cls-7" d="M2794.57,546.59a3.17,3.17,0,1,0-3.17-3.17A3.17,3.17,0,0,0,2794.57,546.59Z"/><path class="cls-7" d="M2816.14,546.59a3.17,3.17,0,1,0-3.17-3.17A3.17,3.17,0,0,0,2816.14,546.59Z"/><path class="cls-7" d="M2837.71,546.59a3.17,3.17,0,1,0-3.17-3.17A3.17,3.17,0,0,0,2837.71,546.59Z"/><path class="cls-7" d="M2859.28,546.59a3.17,3.17,0,1,0-3.17-3.17A3.17,3.17,0,0,0,2859.28,546.59Z"/><circle class="cls-7" cx="2708.29" cy="564.99" r="3.17"/><circle class="cls-7" cx="2729.86" cy="564.99" r="3.17"/><circle class="cls-7" cx="2751.43" cy="564.99" r="3.17"/><circle class="cls-7" cx="2773" cy="564.99" r="3.17"/><path class="cls-7" d="M2794.57,568.16a3.17,3.17,0,1,0-3.17-3.17A3.17,3.17,0,0,0,2794.57,568.16Z"/><circle class="cls-7" cx="2816.14" cy="564.99" r="3.17"/><path class="cls-7" d="M2837.71,568.16a3.17,3.17,0,1,0-3.17-3.17A3.17,3.17,0,0,0,2837.71,568.16Z"/><circle class="cls-7" cx="2859.28" cy="564.99" r="3.17"/><path class="cls-7" d="M2708.29,589.73a3.17,3.17,0,1,0-3.17-3.17A3.17,3.17,0,0,0,2708.29,589.73Z"/><path class="cls-7" d="M2729.86,589.73a3.17,3.17,0,1,0-3.17-3.17A3.17,3.17,0,0,0,2729.86,589.73Z"/><path class="cls-7" d="M2751.43,589.73a3.17,3.17,0,1,0-3.17-3.17A3.17,3.17,0,0,0,2751.43,589.73Z"/><path class="cls-7" d="M2773,589.73a3.17,3.17,0,1,0-3.17-3.17A3.17,3.17,0,0,0,2773,589.73Z"/><path class="cls-7" d="M2794.57,589.73a3.17,3.17,0,1,0-3.17-3.17A3.17,3.17,0,0,0,2794.57,589.73Z"/><path class="cls-7" d="M2816.14,589.73a3.17,3.17,0,1,0-3.17-3.17A3.17,3.17,0,0,0,2816.14,589.73Z"/><path class="cls-7" d="M2837.71,589.73a3.17,3.17,0,1,0-3.17-3.17A3.17,3.17,0,0,0,2837.71,589.73Z"/><path class="cls-7" d="M2859.28,589.73a3.17,3.17,0,1,0-3.17-3.17A3.17,3.17,0,0,0,2859.28,589.73Z"/><circle class="cls-7" cx="2708.29" cy="608.13" r="3.17"/><circle class="cls-7" cx="2729.86" cy="608.13" r="3.17"/><circle class="cls-7" cx="2751.43" cy="608.13" r="3.17"/><circle class="cls-7" cx="2773" cy="608.13" r="3.17"/><path class="cls-7" d="M2794.57,611.3a3.17,3.17,0,1,0-3.17-3.17A3.17,3.17,0,0,0,2794.57,611.3Z"/><circle class="cls-7" cx="2816.14" cy="608.13" r="3.17"/><path class="cls-7" d="M2837.71,611.3a3.17,3.17,0,1,0-3.17-3.17A3.17,3.17,0,0,0,2837.71,611.3Z"/><circle class="cls-7" cx="2859.28" cy="608.13" r="3.17"/><path class="cls-7" d="M2708.29,632.87a3.17,3.17,0,1,0-3.17-3.17A3.17,3.17,0,0,0,2708.29,632.87Z"/><path class="cls-7" d="M2729.86,632.87a3.17,3.17,0,1,0-3.17-3.17A3.17,3.17,0,0,0,2729.86,632.87Z"/><path class="cls-7" d="M2751.43,632.87a3.17,3.17,0,1,0-3.17-3.17A3.17,3.17,0,0,0,2751.43,632.87Z"/><path class="cls-7" d="M2773,632.87a3.17,3.17,0,1,0-3.17-3.17A3.17,3.17,0,0,0,2773,632.87Z"/><path class="cls-7" d="M2794.57,632.87a3.17,3.17,0,1,0-3.17-3.17A3.17,3.17,0,0,0,2794.57,632.87Z"/><path class="cls-7" d="M2816.14,632.87a3.17,3.17,0,1,0-3.17-3.17A3.17,3.17,0,0,0,2816.14,632.87Z"/><path class="cls-7" d="M2837.71,632.87a3.17,3.17,0,1,0-3.17-3.17A3.17,3.17,0,0,0,2837.71,632.87Z"/><path class="cls-7" d="M2859.28,632.87a3.17,3.17,0,1,0-3.17-3.17A3.17,3.17,0,0,0,2859.28,632.87Z"/><circle class="cls-7" cx="2708.29" cy="651.27" r="3.17"/><circle class="cls-7" cx="2729.86" cy="651.27" r="3.17"/><circle class="cls-7" cx="2751.43" cy="651.27" r="3.17"/><circle class="cls-7" cx="2773" cy="651.27" r="3.17"/><path class="cls-7" d="M2794.57,654.44a3.17,3.17,0,1,0-3.17-3.17A3.17,3.17,0,0,0,2794.57,654.44Z"/><circle class="cls-7" cx="2816.14" cy="651.27" r="3.17"/><path class="cls-7" d="M2837.71,654.44a3.17,3.17,0,1,0-3.17-3.17A3.17,3.17,0,0,0,2837.71,654.44Z"/><circle class="cls-7" cx="2859.28" cy="651.27" r="3.17"/><circle class="cls-7" cx="2708.29" cy="672.84" r="3.17"/><circle class="cls-7" cx="2729.86" cy="672.84" r="3.17"/><circle class="cls-7" cx="2751.43" cy="672.84" r="3.17"/><circle class="cls-7" cx="2773" cy="672.84" r="3.17"/><path class="cls-7" d="M2794.57,676a3.17,3.17,0,1,0-3.17-3.17A3.17,3.17,0,0,0,2794.57,676Z"/><circle class="cls-7" cx="2816.14" cy="672.84" r="3.17"/><path class="cls-7" d="M2837.71,676a3.17,3.17,0,1,0-3.17-3.17A3.17,3.17,0,0,0,2837.71,676Z"/><circle class="cls-7" cx="2859.28" cy="672.84" r="3.17"/><circle class="cls-7" cx="2708.29" cy="694.41" r="3.17"/><circle class="cls-7" cx="2729.86" cy="694.41" r="3.17"/><circle class="cls-7" cx="2751.43" cy="694.41" r="3.17"/><circle class="cls-7" cx="2773" cy="694.41" r="3.17"/><path class="cls-7" d="M2794.57,697.58a3.17,3.17,0,1,0-3.17-3.17A3.17,3.17,0,0,0,2794.57,697.58Z"/><circle class="cls-7" cx="2816.14" cy="694.41" r="3.17"/><path class="cls-7" d="M2837.71,697.58a3.17,3.17,0,1,0-3.17-3.17A3.17,3.17,0,0,0,2837.71,697.58Z"/><circle class="cls-7" cx="2859.28" cy="694.41" r="3.17"/><circle class="cls-7" cx="2708.29" cy="715.98" r="3.17"/><circle class="cls-7" cx="2729.86" cy="715.98" r="3.17"/><circle class="cls-7" cx="2751.43" cy="715.98" r="3.17"/><circle class="cls-7" cx="2773" cy="715.98" r="3.17"/><path class="cls-7" d="M2794.57,719.15a3.17,3.17,0,1,0-3.17-3.17A3.17,3.17,0,0,0,2794.57,719.15Z"/><circle class="cls-7" cx="2816.14" cy="715.98" r="3.17"/><path class="cls-7" d="M2837.71,719.15a3.17,3.17,0,1,0-3.17-3.17A3.17,3.17,0,0,0,2837.71,719.15Z"/><circle class="cls-7" cx="2859.28" cy="715.98" r="3.17"/><circle class="cls-7" cx="2708.29" cy="737.55" r="3.17"/><circle class="cls-7" cx="2729.86" cy="737.55" r="3.17"/><circle class="cls-7" cx="2751.43" cy="737.55" r="3.17"/><circle class="cls-7" cx="2773" cy="737.55" r="3.17"/><path class="cls-7" d="M2794.57,740.72a3.17,3.17,0,1,0-3.17-3.17A3.17,3.17,0,0,0,2794.57,740.72Z"/><circle class="cls-7" cx="2816.14" cy="737.55" r="3.17"/><path class="cls-7" d="M2837.71,740.72a3.17,3.17,0,1,0-3.17-3.17A3.17,3.17,0,0,0,2837.71,740.72Z"/><circle class="cls-7" cx="2859.28" cy="737.55" r="3.17"/><circle class="cls-7" cx="2708.29" cy="759.12" r="3.17"/><circle class="cls-7" cx="2729.86" cy="759.12" r="3.17"/><circle class="cls-7" cx="2751.43" cy="759.12" r="3.17"/><circle class="cls-7" cx="2773" cy="759.12" r="3.17"/><path class="cls-7" d="M2794.57,762.29a3.17,3.17,0,1,0-3.17-3.17A3.17,3.17,0,0,0,2794.57,762.29Z"/><circle class="cls-7" cx="2816.14" cy="759.12" r="3.17"/><path class="cls-7" d="M2837.71,762.29a3.17,3.17,0,1,0-3.17-3.17A3.17,3.17,0,0,0,2837.71,762.29Z"/><circle class="cls-7" cx="2859.28" cy="759.12" r="3.17"/><path class="cls-7" d="M2708.29,783.86a3.17,3.17,0,1,0-3.17-3.17A3.17,3.17,0,0,0,2708.29,783.86Z"/><path class="cls-7" d="M2729.86,783.86a3.17,3.17,0,1,0-3.17-3.17A3.17,3.17,0,0,0,2729.86,783.86Z"/><path class="cls-7" d="M2751.43,783.86a3.17,3.17,0,1,0-3.17-3.17A3.17,3.17,0,0,0,2751.43,783.86Z"/><path class="cls-7" d="M2773,783.86a3.17,3.17,0,1,0-3.17-3.17A3.17,3.17,0,0,0,2773,783.86Z"/><path class="cls-7" d="M2794.57,783.86a3.17,3.17,0,1,0-3.17-3.17A3.17,3.17,0,0,0,2794.57,783.86Z"/><path class="cls-7" d="M2816.14,783.86a3.17,3.17,0,1,0-3.17-3.17A3.17,3.17,0,0,0,2816.14,783.86Z"/><path class="cls-7" d="M2837.71,783.86a3.17,3.17,0,1,0-3.17-3.17A3.17,3.17,0,0,0,2837.71,783.86Z"/><path class="cls-7" d="M2859.28,783.86a3.17,3.17,0,1,0-3.17-3.17A3.17,3.17,0,0,0,2859.28,783.86Z"/><circle class="cls-7" cx="2708.29" cy="802.26" r="3.17"/><circle class="cls-7" cx="2729.86" cy="802.26" r="3.17"/><circle class="cls-7" cx="2751.43" cy="802.26" r="3.17"/><circle class="cls-7" cx="2773" cy="802.26" r="3.17"/><path class="cls-7" d="M2794.57,805.43a3.17,3.17,0,1,0-3.17-3.17A3.17,3.17,0,0,0,2794.57,805.43Z"/><circle class="cls-7" cx="2816.14" cy="802.26" r="3.17"/><path class="cls-7" d="M2837.71,805.43a3.17,3.17,0,1,0-3.17-3.17A3.17,3.17,0,0,0,2837.71,805.43Z"/><circle class="cls-7" cx="2859.28" cy="802.26" r="3.17"/><path class="cls-7" d="M2708.29,827a3.17,3.17,0,1,0-3.17-3.17A3.17,3.17,0,0,0,2708.29,827Z"/><path class="cls-7" d="M2729.86,827a3.17,3.17,0,1,0-3.17-3.17A3.17,3.17,0,0,0,2729.86,827Z"/><path class="cls-7" d="M2751.43,827a3.17,3.17,0,1,0-3.17-3.17A3.17,3.17,0,0,0,2751.43,827Z"/><path class="cls-7" d="M2773,827a3.17,3.17,0,1,0-3.17-3.17A3.17,3.17,0,0,0,2773,827Z"/><path class="cls-7" d="M2794.57,827a3.17,3.17,0,1,0-3.17-3.17A3.17,3.17,0,0,0,2794.57,827Z"/><path class="cls-7" d="M2816.14,827a3.17,3.17,0,1,0-3.17-3.17A3.17,3.17,0,0,0,2816.14,827Z"/><path class="cls-7" d="M2837.71,827a3.17,3.17,0,1,0-3.17-3.17A3.17,3.17,0,0,0,2837.71,827Z"/><path class="cls-7" d="M2859.28,827a3.17,3.17,0,1,0-3.17-3.17A3.17,3.17,0,0,0,2859.28,827Z"/><circle class="cls-7" cx="1056.36" cy="629.7" r="3.17"/><circle class="cls-7" cx="1077.93" cy="629.7" r="3.17"/><circle class="cls-7" cx="1099.5" cy="629.7" r="3.17"/><circle class="cls-7" cx="1121.06" cy="629.7" r="3.17"/><path class="cls-7" d="M1142.63,632.87a3.17,3.17,0,1,0-3.17-3.17A3.16,3.16,0,0,0,1142.63,632.87Z"/><circle class="cls-7" cx="1164.2" cy="629.7" r="3.17"/><path class="cls-7" d="M1185.77,632.87a3.17,3.17,0,1,0-3.17-3.17A3.17,3.17,0,0,0,1185.77,632.87Z"/><circle class="cls-7" cx="1207.34" cy="629.7" r="3.17"/><path class="cls-7" d="M1056.36,654.44a3.17,3.17,0,1,0-3.17-3.17A3.17,3.17,0,0,0,1056.36,654.44Z"/><path class="cls-7" d="M1077.93,654.44a3.17,3.17,0,1,0-3.17-3.17A3.17,3.17,0,0,0,1077.93,654.44Z"/><path class="cls-7" d="M1099.5,654.44a3.17,3.17,0,1,0-3.17-3.17A3.17,3.17,0,0,0,1099.5,654.44Z"/><path class="cls-7" d="M1121.06,654.44a3.17,3.17,0,1,0-3.17-3.17A3.16,3.16,0,0,0,1121.06,654.44Z"/><path class="cls-7" d="M1142.63,654.44a3.17,3.17,0,1,0-3.17-3.17A3.16,3.16,0,0,0,1142.63,654.44Z"/><path class="cls-7" d="M1164.2,654.44a3.17,3.17,0,1,0-3.17-3.17A3.17,3.17,0,0,0,1164.2,654.44Z"/><path class="cls-7" d="M1185.77,654.44a3.17,3.17,0,1,0-3.17-3.17A3.17,3.17,0,0,0,1185.77,654.44Z"/><path class="cls-7" d="M1207.34,654.44a3.17,3.17,0,1,0-3.17-3.17A3.17,3.17,0,0,0,1207.34,654.44Z"/><circle class="cls-7" cx="1056.36" cy="672.84" r="3.17"/><circle class="cls-7" cx="1077.93" cy="672.84" r="3.17"/><circle class="cls-7" cx="1099.5" cy="672.84" r="3.17"/><circle class="cls-7" cx="1121.06" cy="672.84" r="3.17"/><path class="cls-7" d="M1142.63,676a3.17,3.17,0,1,0-3.17-3.17A3.16,3.16,0,0,0,1142.63,676Z"/><circle class="cls-7" cx="1164.2" cy="672.84" r="3.17"/><path class="cls-7" d="M1185.77,676a3.17,3.17,0,1,0-3.17-3.17A3.17,3.17,0,0,0,1185.77,676Z"/><circle class="cls-7" cx="1207.34" cy="672.84" r="3.17"/><circle class="cls-7" cx="1056.36" cy="694.41" r="3.17"/><circle class="cls-7" cx="1077.93" cy="694.41" r="3.17"/><circle class="cls-7" cx="1099.5" cy="694.41" r="3.17"/><circle class="cls-7" cx="1121.06" cy="694.41" r="3.17"/><path class="cls-7" d="M1142.63,697.58a3.17,3.17,0,1,0-3.17-3.17A3.16,3.16,0,0,0,1142.63,697.58Z"/><circle class="cls-7" cx="1164.2" cy="694.41" r="3.17"/><path class="cls-7" d="M1185.77,697.58a3.17,3.17,0,1,0-3.17-3.17A3.17,3.17,0,0,0,1185.77,697.58Z"/><circle class="cls-7" cx="1207.34" cy="694.41" r="3.17"/><circle class="cls-7" cx="1056.36" cy="715.98" r="3.17"/><circle class="cls-7" cx="1077.93" cy="715.98" r="3.17"/><circle class="cls-7" cx="1099.5" cy="715.98" r="3.17"/><circle class="cls-7" cx="1121.06" cy="715.98" r="3.17"/><path class="cls-7" d="M1142.63,719.15a3.17,3.17,0,1,0-3.17-3.17A3.16,3.16,0,0,0,1142.63,719.15Z"/><circle class="cls-7" cx="1164.2" cy="715.98" r="3.17"/><path class="cls-7" d="M1185.77,719.15a3.17,3.17,0,1,0-3.17-3.17A3.17,3.17,0,0,0,1185.77,719.15Z"/><circle class="cls-7" cx="1207.34" cy="715.98" r="3.17"/><circle class="cls-7" cx="1056.36" cy="737.55" r="3.17"/><circle class="cls-7" cx="1077.93" cy="737.55" r="3.17"/><circle class="cls-7" cx="1099.5" cy="737.55" r="3.17"/><circle class="cls-7" cx="1121.06" cy="737.55" r="3.17"/><path class="cls-7" d="M1142.63,740.72a3.17,3.17,0,1,0-3.17-3.17A3.16,3.16,0,0,0,1142.63,740.72Z"/><circle class="cls-7" cx="1164.2" cy="737.55" r="3.17"/><path class="cls-7" d="M1185.77,740.72a3.17,3.17,0,1,0-3.17-3.17A3.17,3.17,0,0,0,1185.77,740.72Z"/><circle class="cls-7" cx="1207.34" cy="737.55" r="3.17"/><circle class="cls-7" cx="1056.36" cy="759.12" r="3.17"/><circle class="cls-7" cx="1077.93" cy="759.12" r="3.17"/><circle class="cls-7" cx="1099.5" cy="759.12" r="3.17"/><circle class="cls-7" cx="1121.06" cy="759.12" r="3.17"/><path class="cls-7" d="M1142.63,762.29a3.17,3.17,0,1,0-3.17-3.17A3.16,3.16,0,0,0,1142.63,762.29Z"/><circle class="cls-7" cx="1164.2" cy="759.12" r="3.17"/><path class="cls-7" d="M1185.77,762.29a3.17,3.17,0,1,0-3.17-3.17A3.17,3.17,0,0,0,1185.77,762.29Z"/><circle class="cls-7" cx="1207.34" cy="759.12" r="3.17"/><circle class="cls-7" cx="1056.36" cy="780.69" r="3.17"/><circle class="cls-7" cx="1077.93" cy="780.69" r="3.17"/><circle class="cls-7" cx="1099.5" cy="780.69" r="3.17"/><circle class="cls-7" cx="1121.06" cy="780.69" r="3.17"/><path class="cls-7" d="M1142.63,783.86a3.17,3.17,0,1,0-3.17-3.17A3.16,3.16,0,0,0,1142.63,783.86Z"/><circle class="cls-7" cx="1164.2" cy="780.69" r="3.17"/><path class="cls-7" d="M1185.77,783.86a3.17,3.17,0,1,0-3.17-3.17A3.17,3.17,0,0,0,1185.77,783.86Z"/><circle class="cls-7" cx="1207.34" cy="780.69" r="3.17"/><path class="cls-7" d="M1056.36,805.43a3.17,3.17,0,1,0-3.17-3.17A3.17,3.17,0,0,0,1056.36,805.43Z"/><path class="cls-7" d="M1077.93,805.43a3.17,3.17,0,1,0-3.17-3.17A3.17,3.17,0,0,0,1077.93,805.43Z"/><path class="cls-7" d="M1099.5,805.43a3.17,3.17,0,1,0-3.17-3.17A3.17,3.17,0,0,0,1099.5,805.43Z"/><path class="cls-7" d="M1121.06,805.43a3.17,3.17,0,1,0-3.17-3.17A3.16,3.16,0,0,0,1121.06,805.43Z"/><path class="cls-7" d="M1142.63,805.43a3.17,3.17,0,1,0-3.17-3.17A3.16,3.16,0,0,0,1142.63,805.43Z"/><path class="cls-7" d="M1164.2,805.43a3.17,3.17,0,1,0-3.17-3.17A3.17,3.17,0,0,0,1164.2,805.43Z"/><path class="cls-7" d="M1185.77,805.43a3.17,3.17,0,1,0-3.17-3.17A3.17,3.17,0,0,0,1185.77,805.43Z"/><path class="cls-7" d="M1207.34,805.43a3.17,3.17,0,1,0-3.17-3.17A3.17,3.17,0,0,0,1207.34,805.43Z"/><circle class="cls-7" cx="1056.36" cy="823.83" r="3.17"/><circle class="cls-7" cx="1077.93" cy="823.83" r="3.17"/><circle class="cls-7" cx="1099.5" cy="823.83" r="3.17"/><circle class="cls-7" cx="1121.06" cy="823.83" r="3.17"/><path class="cls-7" d="M1142.63,827a3.17,3.17,0,1,0-3.17-3.17A3.16,3.16,0,0,0,1142.63,827Z"/><circle class="cls-7" cx="1164.2" cy="823.83" r="3.17"/><path class="cls-7" d="M1185.77,827a3.17,3.17,0,1,0-3.17-3.17A3.17,3.17,0,0,0,1185.77,827Z"/><circle class="cls-7" cx="1207.34" cy="823.83" r="3.17"/><path class="cls-7" d="M1056.36,848.57a3.17,3.17,0,1,0-3.17-3.17A3.17,3.17,0,0,0,1056.36,848.57Z"/><path class="cls-7" d="M1077.93,848.57a3.17,3.17,0,1,0-3.17-3.17A3.17,3.17,0,0,0,1077.93,848.57Z"/><path class="cls-7" d="M1099.5,848.57a3.17,3.17,0,1,0-3.17-3.17A3.17,3.17,0,0,0,1099.5,848.57Z"/><path class="cls-7" d="M1121.06,848.57a3.17,3.17,0,1,0-3.17-3.17A3.16,3.16,0,0,0,1121.06,848.57Z"/><path class="cls-7" d="M1142.63,848.57a3.17,3.17,0,1,0-3.17-3.17A3.16,3.16,0,0,0,1142.63,848.57Z"/><path class="cls-7" d="M1164.2,848.57a3.17,3.17,0,1,0-3.17-3.17A3.17,3.17,0,0,0,1164.2,848.57Z"/><path class="cls-7" d="M1185.77,848.57a3.17,3.17,0,1,0-3.17-3.17A3.17,3.17,0,0,0,1185.77,848.57Z"/><path class="cls-7" d="M1207.34,848.57a3.17,3.17,0,1,0-3.17-3.17A3.17,3.17,0,0,0,1207.34,848.57Z"/><circle class="cls-7" cx="1056.36" cy="866.97" r="3.17"/><circle class="cls-7" cx="1077.93" cy="866.97" r="3.17"/><circle class="cls-7" cx="1099.5" cy="866.97" r="3.17"/><circle class="cls-7" cx="1121.06" cy="866.97" r="3.17"/><path class="cls-7" d="M1142.63,870.14a3.17,3.17,0,1,0-3.17-3.17A3.16,3.16,0,0,0,1142.63,870.14Z"/><circle class="cls-7" cx="1164.2" cy="866.97" r="3.17"/><path class="cls-7" d="M1185.77,870.14a3.17,3.17,0,1,0-3.17-3.17A3.17,3.17,0,0,0,1185.77,870.14Z"/><circle class="cls-7" cx="1207.34" cy="866.97" r="3.17"/><path class="cls-7" d="M1056.36,891.71a3.17,3.17,0,1,0-3.17-3.17A3.17,3.17,0,0,0,1056.36,891.71Z"/><path class="cls-7" d="M1077.93,891.71a3.17,3.17,0,1,0-3.17-3.17A3.17,3.17,0,0,0,1077.93,891.71Z"/><path class="cls-7" d="M1099.5,891.71a3.17,3.17,0,1,0-3.17-3.17A3.17,3.17,0,0,0,1099.5,891.71Z"/><path class="cls-7" d="M1121.06,891.71a3.17,3.17,0,1,0-3.17-3.17A3.16,3.16,0,0,0,1121.06,891.71Z"/><path class="cls-7" d="M1142.63,891.71a3.17,3.17,0,1,0-3.17-3.17A3.16,3.16,0,0,0,1142.63,891.71Z"/><path class="cls-7" d="M1164.2,891.71a3.17,3.17,0,1,0-3.17-3.17A3.17,3.17,0,0,0,1164.2,891.71Z"/><path class="cls-7" d="M1185.77,891.71a3.17,3.17,0,1,0-3.17-3.17A3.17,3.17,0,0,0,1185.77,891.71Z"/><path class="cls-7" d="M1207.34,891.71a3.17,3.17,0,1,0-3.17-3.17A3.17,3.17,0,0,0,1207.34,891.71Z"/><circle class="cls-7" cx="1056.36" cy="910.11" r="3.17"/><circle class="cls-7" cx="1077.93" cy="910.11" r="3.17"/><circle class="cls-7" cx="1099.5" cy="910.11" r="3.17"/><circle class="cls-7" cx="1121.06" cy="910.11" r="3.17"/><path class="cls-7" d="M1142.63,913.28a3.17,3.17,0,1,0-3.17-3.17A3.16,3.16,0,0,0,1142.63,913.28Z"/><circle class="cls-7" cx="1164.2" cy="910.11" r="3.17"/><path class="cls-7" d="M1185.77,913.28a3.17,3.17,0,1,0-3.17-3.17A3.17,3.17,0,0,0,1185.77,913.28Z"/><circle class="cls-7" cx="1207.34" cy="910.11" r="3.17"/><circle class="cls-7" cx="1056.36" cy="931.67" r="3.17"/><circle class="cls-7" cx="1077.93" cy="931.67" r="3.17"/><circle class="cls-7" cx="1099.5" cy="931.67" r="3.17"/><circle class="cls-7" cx="1121.06" cy="931.67" r="3.17"/><path class="cls-7" d="M1142.63,934.84a3.17,3.17,0,1,0-3.17-3.17A3.16,3.16,0,0,0,1142.63,934.84Z"/><circle class="cls-7" cx="1164.2" cy="931.67" r="3.17"/><path class="cls-7" d="M1185.77,934.84a3.17,3.17,0,1,0-3.17-3.17A3.16,3.16,0,0,0,1185.77,934.84Z"/><circle class="cls-7" cx="1207.34" cy="931.67" r="3.17"/><circle class="cls-7" cx="1056.36" cy="953.24" r="3.17"/><circle class="cls-7" cx="1077.93" cy="953.24" r="3.17"/><circle class="cls-7" cx="1099.5" cy="953.24" r="3.17"/><circle class="cls-7" cx="1121.06" cy="953.24" r="3.17"/><path class="cls-7" d="M1142.63,956.41a3.17,3.17,0,1,0-3.17-3.17A3.16,3.16,0,0,0,1142.63,956.41Z"/><circle class="cls-7" cx="1164.2" cy="953.24" r="3.17"/><path class="cls-7" d="M1185.77,956.41a3.17,3.17,0,1,0-3.17-3.17A3.16,3.16,0,0,0,1185.77,956.41Z"/><circle class="cls-7" cx="1207.34" cy="953.24" r="3.17"/><circle class="cls-7" cx="1056.36" cy="974.81" r="3.17"/><circle class="cls-7" cx="1077.93" cy="974.81" r="3.17"/><circle class="cls-7" cx="1099.5" cy="974.81" r="3.17"/><circle class="cls-7" cx="1121.06" cy="974.81" r="3.17"/><path class="cls-7" d="M1142.63,978a3.17,3.17,0,1,0-3.17-3.17A3.16,3.16,0,0,0,1142.63,978Z"/><circle class="cls-7" cx="1164.2" cy="974.81" r="3.17"/><path class="cls-7" d="M1185.77,978a3.17,3.17,0,1,0-3.17-3.17A3.17,3.17,0,0,0,1185.77,978Z"/><circle class="cls-7" cx="1207.34" cy="974.81" r="3.17"/><circle class="cls-7" cx="1056.36" cy="996.38" r="3.17"/><circle class="cls-7" cx="1077.93" cy="996.38" r="3.17"/><circle class="cls-7" cx="1099.5" cy="996.38" r="3.17"/><circle class="cls-7" cx="1121.06" cy="996.38" r="3.17"/><path class="cls-7" d="M1142.63,999.55a3.17,3.17,0,1,0-3.17-3.17A3.16,3.16,0,0,0,1142.63,999.55Z"/><circle class="cls-7" cx="1164.2" cy="996.38" r="3.17"/><path class="cls-7" d="M1185.77,999.55a3.17,3.17,0,1,0-3.17-3.17A3.17,3.17,0,0,0,1185.77,999.55Z"/><circle class="cls-7" cx="1207.34" cy="996.38" r="3.17"/><circle class="cls-7" cx="1056.36" cy="1017.95" r="3.17"/><circle class="cls-7" cx="1077.93" cy="1017.95" r="3.17"/><circle class="cls-7" cx="1099.5" cy="1017.95" r="3.17"/><circle class="cls-7" cx="1121.06" cy="1017.95" r="3.17"/><path class="cls-7" d="M1142.63,1021.12a3.17,3.17,0,1,0-3.17-3.17A3.16,3.16,0,0,0,1142.63,1021.12Z"/><circle class="cls-7" cx="1164.2" cy="1017.95" r="3.17"/><path class="cls-7" d="M1185.77,1021.12a3.17,3.17,0,1,0-3.17-3.17A3.17,3.17,0,0,0,1185.77,1021.12Z"/><circle class="cls-7" cx="1207.34" cy="1017.95" r="3.17"/><path class="cls-7" d="M1056.36,1042.69a3.17,3.17,0,1,0-3.17-3.17A3.17,3.17,0,0,0,1056.36,1042.69Z"/><path class="cls-7" d="M1077.93,1042.69a3.17,3.17,0,1,0-3.17-3.17A3.17,3.17,0,0,0,1077.93,1042.69Z"/><path class="cls-7" d="M1099.5,1042.69a3.17,3.17,0,1,0-3.17-3.17A3.17,3.17,0,0,0,1099.5,1042.69Z"/><path class="cls-7" d="M1121.06,1042.69a3.17,3.17,0,1,0-3.17-3.17A3.16,3.16,0,0,0,1121.06,1042.69Z"/><path class="cls-7" d="M1142.63,1042.69a3.17,3.17,0,1,0-3.17-3.17A3.16,3.16,0,0,0,1142.63,1042.69Z"/><path class="cls-7" d="M1164.2,1042.69a3.17,3.17,0,1,0-3.17-3.17A3.17,3.17,0,0,0,1164.2,1042.69Z"/><path class="cls-7" d="M1185.77,1042.69a3.17,3.17,0,1,0-3.17-3.17A3.17,3.17,0,0,0,1185.77,1042.69Z"/><path class="cls-7" d="M1207.34,1042.69a3.17,3.17,0,1,0-3.17-3.17A3.17,3.17,0,0,0,1207.34,1042.69Z"/><circle class="cls-7" cx="1056.36" cy="1061.09" r="3.17"/><circle class="cls-7" cx="1077.93" cy="1061.09" r="3.17"/><circle class="cls-7" cx="1099.5" cy="1061.09" r="3.17"/><circle class="cls-7" cx="1121.06" cy="1061.09" r="3.17"/><path class="cls-7" d="M1142.63,1064.26a3.17,3.17,0,1,0-3.17-3.17A3.16,3.16,0,0,0,1142.63,1064.26Z"/><circle class="cls-7" cx="1164.2" cy="1061.09" r="3.17"/><path class="cls-7" d="M1185.77,1064.26a3.17,3.17,0,1,0-3.17-3.17A3.17,3.17,0,0,0,1185.77,1064.26Z"/><circle class="cls-7" cx="1207.34" cy="1061.09" r="3.17"/><path class="cls-7" d="M1056.36,1085.83a3.17,3.17,0,1,0-3.17-3.17A3.17,3.17,0,0,0,1056.36,1085.83Z"/><path class="cls-7" d="M1077.93,1085.83a3.17,3.17,0,1,0-3.17-3.17A3.17,3.17,0,0,0,1077.93,1085.83Z"/><path class="cls-7" d="M1099.5,1085.83a3.17,3.17,0,1,0-3.17-3.17A3.17,3.17,0,0,0,1099.5,1085.83Z"/><path class="cls-7" d="M1121.06,1085.83a3.17,3.17,0,1,0-3.17-3.17A3.16,3.16,0,0,0,1121.06,1085.83Z"/><path class="cls-7" d="M1142.63,1085.83a3.17,3.17,0,1,0-3.17-3.17A3.16,3.16,0,0,0,1142.63,1085.83Z"/><path class="cls-7" d="M1164.2,1085.83a3.17,3.17,0,1,0-3.17-3.17A3.17,3.17,0,0,0,1164.2,1085.83Z"/><path class="cls-7" d="M1185.77,1085.83a3.17,3.17,0,1,0-3.17-3.17A3.17,3.17,0,0,0,1185.77,1085.83Z"/><path class="cls-7" d="M1207.34,1085.83a3.17,3.17,0,1,0-3.17-3.17A3.17,3.17,0,0,0,1207.34,1085.83Z"/><rect class="cls-17" width="4087.01" height="2003.04"/></g></g></svg>