<svg xmlns="http://www.w3.org/2000/svg" xmlns:xlink="http://www.w3.org/1999/xlink" viewBox="0 0 200.84178 785.53999"><defs><style>.cls-1{isolation:isolate;}.cls-2{fill:#fff;}.cls-3{fill:url(#Degradado_sin_nombre_86);}.cls-4{opacity:0.05;}.cls-5{fill:url(#Degradado_sin_nombre_86-2);}.cls-6{fill:#66c5ff;}.cls-7{fill:url(#Degradado_sin_nombre_86-3);}.cls-8{mix-blend-mode:color-burn;fill:url(#Degradado_sin_nombre_37);}.cls-9{fill:url(#Degradado_sin_nombre_86-4);}.cls-10{fill:url(#Degradado_sin_nombre_66);}.cls-11{fill:url(#Degradado_sin_nombre_66-2);}.cls-12{mix-blend-mode:color-dodge;}.cls-13{fill:url(#Degradado_sin_nombre_63);}.cls-14{fill:url(#Degradado_sin_nombre_63-2);}.cls-15{mix-blend-mode:overlay;}</style><linearGradient id="Degradado_sin_nombre_86" x1="32.70139" y1="22.96088" x2="54.05685" y2="54.94622" gradientUnits="userSpaceOnUse"><stop offset="0" stop-color="#acfae4" stop-opacity="0.4"/><stop offset="1" stop-color="#acfae4"/></linearGradient><linearGradient id="Degradado_sin_nombre_86-2" x1="12.85633" y1="480.99453" x2="37.13794" y2="517.36256" xlink:href="#Degradado_sin_nombre_86"/><linearGradient id="Degradado_sin_nombre_86-3" x1="134.2849" y1="509.59348" x2="159.67986" y2="579.67252" xlink:href="#Degradado_sin_nombre_86"/><radialGradient id="Degradado_sin_nombre_37" cx="193.1168" cy="581.58067" r="16.08859" gradientTransform="translate(21.04613 -6.57055) rotate(2.06154)" gradientUnits="userSpaceOnUse"><stop offset="0" stop-color="#999" stop-opacity="0.3"/><stop offset="0.6647" stop-color="#e1e1e1" stop-opacity="0.44121"/><stop offset="1" stop-color="#fff" stop-opacity="0.5"/></radialGradient><linearGradient id="Degradado_sin_nombre_86-4" x1="193.17866" y1="586.03595" x2="193.17866" y2="566.42117" gradientTransform="translate(764.35097 367.32185) rotate(88.35934)" xlink:href="#Degradado_sin_nombre_86"/><linearGradient id="Degradado_sin_nombre_66" x1="26.95868" y1="346.58709" x2="50.20278" y2="346.58709" gradientTransform="translate(256.37411 74.23231) rotate(45)" gradientUnits="userSpaceOnUse"><stop offset="0" stop-color="#b8fffb" stop-opacity="0.3"/><stop offset="1" stop-color="#65cccc"/></linearGradient><linearGradient id="Degradado_sin_nombre_66-2" x1="8.74167" y1="385.47024" x2="44.49169" y2="385.47024" gradientTransform="translate(280.36817 94.08402) rotate(45.00073)" xlink:href="#Degradado_sin_nombre_66"/><linearGradient id="Degradado_sin_nombre_63" x1="122.06743" y1="433.24067" x2="162.22388" y2="433.24067" gradientTransform="translate(347.98092 26.3811) rotate(45)" gradientUnits="userSpaceOnUse"><stop offset="0" stop-color="#65cccc"/><stop offset="0.21645" stop-color="#80dddb" stop-opacity="0.77313"/><stop offset="0.44878" stop-color="#98ebe9" stop-opacity="0.56897"/><stop offset="0.6644" stop-color="#aaf6f3" stop-opacity="0.42123"/><stop offset="0.85486" stop-color="#b4fdf9" stop-opacity="0.33155"/><stop offset="1" stop-color="#b8fffb" stop-opacity="0.3"/></linearGradient><linearGradient id="Degradado_sin_nombre_63-2" x1="144.99972" y1="449.87487" x2="193.40211" y2="449.87487" gradientTransform="translate(367.66165 12.11959) rotate(44.99925)" xlink:href="#Degradado_sin_nombre_63"/></defs><title>fondo-onstar-4</title><g class="cls-1"><g id="OBJECTS"><rect class="cls-2" width="200.84178" height="785.53999"/><path class="cls-3" d="M10.86124,47.89361c-1.14668-3.79163.79-7.77951,3.81268-10.06448,3.41875-2.58436,6.472-3.80981,6.77492-8.17939a18.87256,18.87256,0,0,1,.79588-4.74725c1.84385-4.90532,7.42872-4.10345,11.52128-4.442,3.842-.318,6.106-2.75984,9.63206-6.30609.0222-.02238,6.99631-11.15979,11.79384-1.36737a41.37523,41.37523,0,0,1,1.6244,4.34977c1.59286,3.94908,5.29487,3.41315,11.1802,5.20826,7.44865,2.27223,10.63578,10.3289,3.292,13.924-2.8224,1.38182-5.34664,1.80508-8.01551,3.48766-5.45355,3.43809-4.2471,9.17074-8.97489,12.20386a10.115,10.115,0,0,1-6.19238,1.74881c-7.16468-.374-10.20159-2.8659-15.13211-.79464A42.85066,42.85066,0,0,1,26.713,55.51529C20.18353,57.25666,12.66519,53.85766,10.86124,47.89361Z"/><path class="cls-4" d="M5.84246,28.95336c11.99143-4.51546,9.27112-4.60725,16.13991-10.73852,7.10812-6.345,10.17117-2.16778,16.54265-3.15,7.87667-1.214,3.32363-13.51506,9.36617-12.23932,2.24762.47455,2.82562,1.23144,5.64659.92386,1.22426-.13345,4.1008-1.66018,7.95956-.14542A7.5718,7.5718,0,0,1,65.6139,14.01925c-1.44835,2.85512-3.23018,4.436-2.45559,6.95523,1.1444,3.72183,4.14713,8.91981-.3703,11.047-5.03124,2.369-10.99982-1.61593-13.73423,4.26492C46.36872,42.06085,46.894,48.627,41.03558,53.65743c-4.80761,4.12811-9.30516,1.45879-14.50927-1.93687-3.14075-2.04929-5.80069-1.6522-9.35443-.81639a20.78113,20.78113,0,0,1-13.77974-1.8133c-4.54013-2.451-5.93829-8.72056-4.35877-13.6966C.05643,32.17113,2.67833,30.14489,5.84246,28.95336Z"/><path class="cls-5" d="M-11.97638,509.34359c-1.3038-4.31117.8983-8.84547,4.3351-11.44353C-3.7541,494.96159-.2825,493.56823.062,488.59992a21.45809,21.45809,0,0,1,.90492-5.39773c2.09651-5.57745,8.44661-4.66571,13.09994-5.05062,4.36842-.36156,6.94264-3.138,10.95186-7.17016.02524-.02545,7.955-12.68892,13.40985-1.55473a47.04223,47.04223,0,0,1,1.847,4.94578c1.81112,4.49018,6.02038,3.88083,12.71213,5.9219,8.46927,2.58357,12.0931,11.74418,3.74308,15.83184-3.20913,1.57116-6.07925,2.05241-9.11381,3.96555-6.20079,3.90918-4.829,10.42732-10.20464,13.87605a11.50107,11.50107,0,0,1-7.04086,1.98843c-8.1464-.42523-11.59943-3.25859-17.20554-.90353a48.7213,48.7213,0,0,1-7.11851,2.95689C-1.37674,519.98957-9.92526,516.12484-11.97638,509.34359Z"/><path class="cls-4" d="M-17.68284,487.80812c13.6345-5.13418,10.54146-5.23854,18.35142-12.20993,8.08208-7.21436,11.56483-2.46481,18.80934-3.58166,8.95594-1.38032,3.779-15.36691,10.64954-13.91637,2.55559.53958,3.21279,1.40018,6.42029,1.05045,1.392-.15173,4.6627-1.88766,9.05019-.16535a8.60931,8.60931,0,0,1,4.68061,11.84246c-1.6468,3.24633-3.67278,5.04379-2.79206,7.90824,1.30121,4.2318,4.71539,10.142-.421,12.56064-5.72062,2.69357-12.507-1.83735-15.6161,4.84931-3.053,6.5657-2.45575,14.03162-9.11687,19.75126-5.46635,4.69375-10.58016,1.65867-16.49734-2.20226C2.264,511.36482-.76037,511.81632-4.801,512.76665a23.62847,23.62847,0,0,1-15.66786-2.06176c-5.16222-2.7868-6.752-9.91545-4.956-15.57332C-24.26168,491.46679-21.28053,489.16291-17.68284,487.80812Z"/><path class="cls-6" d="M126.15359,421.15877c-10.64752.00075-21.34745-7.13357-24.542-17.41838a53.94655,53.94655,0,0,1-1.32078-5.71071c-.79658-4.11685-1.61978-8.37406-4.43931-11.43864-4.3454-4.72342-11.5118-4.884-18.606-4.35278q-1.72473.129-3.45394.26584c-10.63669.82988-21.63506,1.68869-32.17045-.56134A44.18747,44.18747,0,0,1,25.15013,374.809a30.17871,30.17871,0,0,1-10.88422-13.66221c-3.53748-9.38507-1.40681-19.86631.84445-27.94886,4.05136-14.54451,10.25375-23.10754,18.96231-26.1786,7.62-2.68757,15.7223-.48525,23.55721,1.64447a103.18887,103.18887,0,0,0,10.10054,2.3864A47.30133,47.30133,0,0,0,110.969,294.98049a93.60129,93.60129,0,0,0,5.62222-7.75587c1.59751-2.37082,3.24992-4.82245,5.07275-7.08757,4.65224-5.78161,9.67759-9.1506,14.93762-10.01356,10.188-1.67316,19.1056,5.90436,26.97169,12.59022,18.07434,15.36228,33.13991,21.46707,47.41488,19.20736,13.82038-2.18629,25.86089-13.72793,28.62952-27.44384,2.76812-13.71609-3.85277-29.02454-15.743-36.40016l.13338-.21495a35.14351,35.14351,0,0,1-12.98034,64.309c-7.94415,1.25729-16.46493-.193-25.32524-4.30811-6.9682-3.23682-14.26014-8.1292-22.29325-14.95663-7.82358-6.65-16.68829-14.18722-26.76706-12.53339-5.19582.85289-10.16926,4.19122-14.78147,9.92267-1.816,2.25667-3.46487,4.7039-5.05945,7.07027a93.836,93.836,0,0,1-5.638,7.77667A47.70385,47.70385,0,0,1,74.96109,311.8902a44.71787,44.71787,0,0,1-7.27216-.59049,103.33086,103.33086,0,0,1-10.12523-2.39187c-7.79742-2.11955-15.86064-4.3113-23.407-1.64989-8.62457,3.04162-14.775,11.54884-18.80222,26.00763-2.24139,8.04571-4.36316,18.47535-.85138,27.7917,4.48227,11.895,16.97442,18.46027,27.17034,20.63789,10.49931,2.24241,21.47941,1.38531,32.09829.55665q1.73-.13525,3.455-.26611c7.16048-.53488,14.39306-.3681,18.81061,4.43386,2.86847,3.11775,3.6986,7.41049,4.50206,11.56219a53.78188,53.78188,0,0,0,1.3134,5.68348c3.82752,12.32144,18.5423,20.07509,30.86793,16.26736l.07509.24161A22.49027,22.49027,0,0,1,126.15359,421.15877Z"/><path class="cls-6" d="M103.16527,769.982c-9.17513.00065-18.39542-6.14709-21.14823-15.00967a46.48673,46.48673,0,0,1-1.13815-4.921c-.68642-3.54754-1.39578-7.216-3.82541-9.85684-3.74449-4.07025-9.91989-4.20859-16.0331-3.75086q-1.48623.11112-2.97632.22908c-9.16579.71512-18.64325,1.45517-27.72175-.48372a38.07685,38.07685,0,0,1-14.19323-6.14731A26.00543,26.00543,0,0,1,6.75,718.26875c-3.04831-8.08725-1.21227-17.11909.72767-24.08395,3.49112-12.53322,8.83581-19.91211,16.3401-22.55849,6.56629-2.31591,13.54814-.41814,20.29961,1.41707a88.92316,88.92316,0,0,0,8.70378,2.0564,40.76026,40.76026,0,0,0,37.25929-13.84747,80.65768,80.65768,0,0,0,4.84475-6.68335c1.3766-2.043,2.80051-4.15558,4.37127-6.10747,4.0089-4.98209,8.33932-7.8852,12.872-8.62883,8.77912-1.44179,16.46358,5.08787,23.24191,10.84918,15.57493,13.23791,28.55716,18.49849,40.85811,16.55127a29.94024,29.94024,0,0,0,11.10446-55.01533l.11494-.18522a30.28369,30.28369,0,0,1-11.18535,55.416c-6.8456,1.08342-14.18808-.1663-21.82315-3.71236-6.00459-2.78922-12.28817-7.005-19.21042-12.88836-6.74169-5.73039-14.38055-12.22534-23.06558-10.80021-4.47731.735-8.763,3.61164-12.7374,8.55052-1.56484,1.94461-2.98574,4.05342-4.35981,6.09256a80.86188,80.86188,0,0,1-4.85835,6.70127,41.10714,41.10714,0,0,1-31.19587,14.43165,38.53337,38.53337,0,0,1-6.26652-.50884,89.03834,89.03834,0,0,1-8.72506-2.06111c-6.71916-1.82644-13.66736-3.71511-20.1702-1.42173-7.43191,2.621-12.73186,9.95181-16.20214,22.41116-1.93144,6.93311-3.75981,15.92048-.73365,23.94852,3.86243,10.25009,14.62711,15.90749,23.41309,17.784,9.04741,1.93231,18.50912,1.19373,27.65958.47966q1.49071-.11655,2.97718-.2293c6.17029-.46092,12.40271-.3172,16.20938,3.82072,2.4718,2.68661,3.18714,6.38572,3.87949,9.96331a46.34364,46.34364,0,0,0,1.13178,4.89754c3.29823,10.61757,15.97817,17.299,26.59935,14.01783l.0647.2082A19.37991,19.37991,0,0,1,103.16527,769.982Z"/><path class="cls-6" d="M152.177,205.18036c-5.64863-4.135-6.28446-12.34349-4.48545-18.22042,1.59682-5.21377,4.794-9.78727,7.8858-14.21017.672-.96072,1.36637-1.954,2.03117-2.93568,3.29846-4.86912,7.04563-11.33819,6.74219-18.20428-.15925-3.60325-1.41872-7.079-2.637-10.44037a53.94644,53.94644,0,0,1-2.21882-7.14005,26.96392,26.96392,0,0,1,7.97828-24.95593,54.7818,54.7818,0,0,1,8.05064-5.76722c4.13692-2.60162,8.41479-5.29149,11.11412-9.38833,5.41254-8.21432,2.53172-18.94509-2.4354-25.43925-5.9165-7.73466-15.10019-12.11635-22.44036-15.06981-2.23945-.90119-4.5451-1.76451-6.775-2.59968-6.22049-2.3293-12.65366-4.73826-18.412-8.24966-8.98217-5.47748-14.86746-13.22963-16.14694-21.26864a20.19239,20.19239,0,0,1,2.70206-13.37023,15.45964,15.45964,0,0,1,10.62973-7.679l.04676.28116C124.66264,2.02621,119.35028,12.7035,120.71,21.24606c1.26614,7.95627,7.103,15.63607,16.01335,21.0701,5.73546,3.49721,12.15585,5.90144,18.364,8.22629,2.23106.83551,4.53842,1.69935,6.78176,2.60191,7.37357,2.96685,16.60129,7.37164,22.55951,15.16114,5.02671,6.57154,7.93649,17.43874,2.44762,25.76943-2.73327,4.14838-7.03781,6.85491-11.2004,9.47266a54.57765,54.57765,0,0,0-8.01,5.7358,26.67327,26.67327,0,0,0-7.892,24.687,53.683,53.683,0,0,0,2.2082,7.1019c1.2255,3.38136,2.49221,6.87806,2.65368,10.52476.30679,6.94984-3.46825,13.47155-6.79117,18.37687-.66594.98329-1.36136,1.97769-2.03339,2.939-3.07906,4.40507-6.26338,8.95986-7.84687,14.13053-1.77118,5.78364-1.15535,13.85434,4.38084,17.90695Z"/><path class="cls-7" d="M197.99605,573.41987c-3.83059,5.07668-9.83232,7.35867-10.80581,15.11336-.75739,6.03595.34,14.18115-7.635,17.48141-3.27163,1.35385-5.18175,1.32267-9.01333,1.759-7.13881.81319-7.9.86423-15.69183,6.58895-11.819,8.68363-18.59465-6.50225-29.26-15.17015-4.6475-3.77747-7.19425-5.87885-8.93617-8.64231-4.556-7.22791,2.18568-12.92286,4.60957-16.96418,3.109-5.18376-1.65481-9.38881-1.21673-14.12556,1.03043-11.1544,13.58805,3.85042,23.96011-15.51838a12.37387,12.37387,0,0,1,14.65148-5.84784c8.46033,2.4085,10.53167,10.49613,19.81728,11.62868,1.6234.19809,6.27372.53072,9.1748.99251C198.34777,552.41708,204.9315,564.2283,197.99605,573.41987Z"/><path class="cls-4" d="M130.5609,570.20345c17.37655-6.54329,13.43459-6.67628,23.388-15.561,10.3002-9.19436,14.73884-3.14128,23.97161-4.56465,11.41394-1.75913,4.81623-19.5844,13.57234-17.73576,3.257.68767,4.09456,1.78446,8.18236,1.33876,1.77406-.1934,5.94242-2.40576,11.53408-.21074,5.57194,2.18722,9.09725,8.91865,5.9652,15.09265-2.09878,4.1373-4.68077,6.42808-3.55833,10.07869,1.65831,5.39324,6.00954,12.92554-.53662,16.008-7.29064,3.43285-15.93962-2.3416-19.902,6.18024-3.89091,8.36768-3.12977,17.88262-11.61906,25.17206-6.96658,5.982-13.48393,2.11391-21.02508-2.80667-4.55121-2.96962-8.40569-2.39417-13.55533-1.183a30.11344,30.11344,0,0,1-19.968-2.62759c-6.579-3.55165-8.60506-12.63681-6.31622-19.84749C122.17645,574.86625,125.97579,571.93005,130.5609,570.20345Z"/><circle class="cls-8" cx="193.11679" cy="581.58068" r="16.08857" transform="translate(-20.79614 7.32339) rotate(-2.06154)"/><circle class="cls-9" cx="193.17867" cy="576.93973" r="11.75702" transform="translate(-389.05546 753.5208) rotate(-88.35934)"/><rect class="cls-10" x="22.39379" y="346.33787" width="32.37387" height="0.49843" transform="translate(-233.77405 128.7937) rotate(-45)"/><rect class="cls-11" x="1.58683" y="385.22102" width="50.05968" height="0.49845" transform="translate(-264.77601 131.72615) rotate(-45.00073)"/><g class="cls-12"><rect class="cls-13" x="113.9208" y="433.07063" width="56.44971" height="0.34008" transform="translate(-264.71392 227.40541) rotate(-45)"/></g><g class="cls-12"><rect class="cls-14" x="135.18321" y="449.66692" width="68.03541" height="0.41591" transform="translate(-268.54918 251.40269) rotate(-44.99925)"/></g><path class="cls-6" d="M4.583,601.33584a.84838.84838,0,1,0-.84837-.84839A.84841.84841,0,0,0,4.583,601.33584Z"/><path class="cls-6" d="M10.35556,601.33584a.84838.84838,0,1,0-.84837-.84839A.84839.84839,0,0,0,10.35556,601.33584Z"/><path class="cls-6" d="M16.12812,601.33584a.84838.84838,0,1,0-.84839-.84839A.8484.8484,0,0,0,16.12812,601.33584Z"/><path class="cls-6" d="M21.90066,601.33584a.84838.84838,0,1,0-.84837-.84839A.84839.84839,0,0,0,21.90066,601.33584Z"/><path class="cls-6" d="M27.67322,601.33584a.84838.84838,0,1,0-.84837-.84839A.84839.84839,0,0,0,27.67322,601.33584Z"/><path class="cls-6" d="M33.44576,601.33584a.84838.84838,0,1,0-.84837-.84839A.84839.84839,0,0,0,33.44576,601.33584Z"/><path class="cls-6" d="M39.21832,601.33584a.84838.84838,0,1,0-.84837-.84839A.84839.84839,0,0,0,39.21832,601.33584Z"/><path class="cls-6" d="M44.99086,601.33584a.84838.84838,0,1,0-.84837-.84839A.84839.84839,0,0,0,44.99086,601.33584Z"/><path class="cls-6" d="M50.76342,601.33584a.84838.84838,0,1,0-.84837-.84839A.84839.84839,0,0,0,50.76342,601.33584Z"/><path class="cls-6" d="M56.536,601.33584a.84838.84838,0,1,0-.84837-.84839A.8484.8484,0,0,0,56.536,601.33584Z"/><path class="cls-6" d="M62.30852,601.33584a.84838.84838,0,1,0-.84838-.84839A.84839.84839,0,0,0,62.30852,601.33584Z"/><path class="cls-6" d="M68.08107,601.33584a.84838.84838,0,1,0-.84838-.84839A.8484.8484,0,0,0,68.08107,601.33584Z"/><path class="cls-6" d="M73.85362,601.33584a.84838.84838,0,1,0-.84838-.84839A.84839.84839,0,0,0,73.85362,601.33584Z"/><path class="cls-6" d="M79.62617,601.33584a.84838.84838,0,1,0-.84837-.84839A.84839.84839,0,0,0,79.62617,601.33584Z"/><path class="cls-6" d="M85.39871,601.33584a.84838.84838,0,1,0-.84837-.84839A.84839.84839,0,0,0,85.39871,601.33584Z"/><path class="cls-6" d="M91.17128,601.33584a.84838.84838,0,1,0-.84838-.84839A.84839.84839,0,0,0,91.17128,601.33584Z"/><path class="cls-6" d="M96.94381,601.33584a.84838.84838,0,1,0-.84837-.84839A.84838.84838,0,0,0,96.94381,601.33584Z"/><path class="cls-6" d="M102.71637,601.33584a.84838.84838,0,1,0-.84837-.84839A.84839.84839,0,0,0,102.71637,601.33584Z"/><path class="cls-6" d="M108.48891,601.33584a.84838.84838,0,1,0-.84837-.84839A.84841.84841,0,0,0,108.48891,601.33584Z"/><path class="cls-6" d="M114.26147,601.33584a.84838.84838,0,1,0-.84837-.84839A.84839.84839,0,0,0,114.26147,601.33584Z"/><path class="cls-6" d="M120.034,601.33584a.84838.84838,0,1,0-.84839-.84839A.8484.8484,0,0,0,120.034,601.33584Z"/><path class="cls-6" d="M125.80658,601.33584a.84838.84838,0,1,0-.84837-.84839A.84839.84839,0,0,0,125.80658,601.33584Z"/><path class="cls-6" d="M131.57914,601.33584a.84838.84838,0,1,0-.84838-.84839A.84839.84839,0,0,0,131.57914,601.33584Z"/><path class="cls-6" d="M137.35168,601.33584a.84838.84838,0,1,0-.84837-.84839A.84839.84839,0,0,0,137.35168,601.33584Z"/><path class="cls-6" d="M143.12424,601.33584a.84838.84838,0,1,0-.84838-.84839A.84839.84839,0,0,0,143.12424,601.33584Z"/><path class="cls-6" d="M148.89678,601.33584a.84838.84838,0,1,0-.84837-.84839A.84839.84839,0,0,0,148.89678,601.33584Z"/><path class="cls-6" d="M154.66934,601.33584a.84838.84838,0,1,0-.84838-.84839A.84839.84839,0,0,0,154.66934,601.33584Z"/><path class="cls-6" d="M160.44188,601.33584a.84838.84838,0,1,0-.84837-.84839A.8484.8484,0,0,0,160.44188,601.33584Z"/><path class="cls-6" d="M166.21444,601.33584a.84838.84838,0,1,0-.84838-.84839A.84839.84839,0,0,0,166.21444,601.33584Z"/><path class="cls-6" d="M171.987,601.33584a.84838.84838,0,1,0-.84838-.84839A.8484.8484,0,0,0,171.987,601.33584Z"/><path class="cls-6" d="M177.75954,601.33584a.84838.84838,0,1,0-.84838-.84839A.84839.84839,0,0,0,177.75954,601.33584Z"/><path class="cls-6" d="M183.53209,601.33584a.84838.84838,0,1,0-.84837-.84839A.84839.84839,0,0,0,183.53209,601.33584Z"/><path class="cls-6" d="M189.30463,601.33584a.84838.84838,0,1,0-.84837-.84839A.84839.84839,0,0,0,189.30463,601.33584Z"/><path class="cls-6" d="M195.07719,601.33584a.84838.84838,0,1,0-.84837-.84839A.84839.84839,0,0,0,195.07719,601.33584Z"/><path class="cls-6" d="M200.84973,601.33584a.84838.84838,0,1,0-.84837-.84839A.84839.84839,0,0,0,200.84973,601.33584Z"/><path class="cls-6" d="M4.583,607.10838a.84837.84837,0,1,0-.84837-.84839A.84841.84841,0,0,0,4.583,607.10838Z"/><path class="cls-6" d="M10.35556,607.10838a.84837.84837,0,1,0-.84837-.84839A.84839.84839,0,0,0,10.35556,607.10838Z"/><path class="cls-6" d="M16.12812,607.10838a.84837.84837,0,1,0-.84839-.84839A.8484.8484,0,0,0,16.12812,607.10838Z"/><path class="cls-6" d="M21.90066,607.10838a.84837.84837,0,1,0-.84837-.84839A.84839.84839,0,0,0,21.90066,607.10838Z"/><path class="cls-6" d="M27.67322,607.10838a.84837.84837,0,1,0-.84837-.84839A.84839.84839,0,0,0,27.67322,607.10838Z"/><path class="cls-6" d="M33.44576,607.10838a.84837.84837,0,1,0-.84837-.84839A.84839.84839,0,0,0,33.44576,607.10838Z"/><path class="cls-6" d="M39.21832,607.10838A.84837.84837,0,1,0,38.37,606.26.84839.84839,0,0,0,39.21832,607.10838Z"/><path class="cls-6" d="M44.99086,607.10838a.84837.84837,0,1,0-.84837-.84839A.84839.84839,0,0,0,44.99086,607.10838Z"/><path class="cls-6" d="M50.76342,607.10838a.84837.84837,0,1,0-.84837-.84839A.84839.84839,0,0,0,50.76342,607.10838Z"/><path class="cls-6" d="M56.536,607.10838a.84837.84837,0,1,0-.84837-.84839A.8484.8484,0,0,0,56.536,607.10838Z"/><path class="cls-6" d="M62.30852,607.10838a.84837.84837,0,1,0-.84838-.84839A.84839.84839,0,0,0,62.30852,607.10838Z"/><path class="cls-6" d="M68.08107,607.10838a.84837.84837,0,1,0-.84838-.84839A.8484.8484,0,0,0,68.08107,607.10838Z"/><path class="cls-6" d="M73.85362,607.10838a.84837.84837,0,1,0-.84838-.84839A.84839.84839,0,0,0,73.85362,607.10838Z"/><path class="cls-6" d="M79.62617,607.10838a.84837.84837,0,1,0-.84837-.84839A.84839.84839,0,0,0,79.62617,607.10838Z"/><path class="cls-6" d="M85.39871,607.10838a.84837.84837,0,1,0-.84837-.84839A.84839.84839,0,0,0,85.39871,607.10838Z"/><path class="cls-6" d="M91.17128,607.10838a.84837.84837,0,1,0-.84838-.84839A.84839.84839,0,0,0,91.17128,607.10838Z"/><path class="cls-6" d="M96.94381,607.10838a.84837.84837,0,1,0-.84837-.84839A.84838.84838,0,0,0,96.94381,607.10838Z"/><path class="cls-6" d="M102.71637,607.10838a.84837.84837,0,1,0-.84837-.84839A.84839.84839,0,0,0,102.71637,607.10838Z"/><path class="cls-6" d="M108.48891,607.10838a.84837.84837,0,1,0-.84837-.84839A.84841.84841,0,0,0,108.48891,607.10838Z"/><path class="cls-6" d="M114.26147,607.10838a.84837.84837,0,1,0-.84837-.84839A.84839.84839,0,0,0,114.26147,607.10838Z"/><path class="cls-6" d="M120.034,607.10838a.84837.84837,0,1,0-.84839-.84839A.8484.8484,0,0,0,120.034,607.10838Z"/><path class="cls-6" d="M125.80658,607.10838a.84837.84837,0,1,0-.84837-.84839A.84839.84839,0,0,0,125.80658,607.10838Z"/><path class="cls-6" d="M131.57914,607.10838a.84837.84837,0,1,0-.84838-.84839A.84839.84839,0,0,0,131.57914,607.10838Z"/><path class="cls-6" d="M137.35168,607.10838a.84837.84837,0,1,0-.84837-.84839A.84839.84839,0,0,0,137.35168,607.10838Z"/><path class="cls-6" d="M143.12424,607.10838a.84837.84837,0,1,0-.84838-.84839A.84839.84839,0,0,0,143.12424,607.10838Z"/><path class="cls-6" d="M148.89678,607.10838a.84837.84837,0,1,0-.84837-.84839A.84839.84839,0,0,0,148.89678,607.10838Z"/><path class="cls-6" d="M154.66934,607.10838a.84837.84837,0,1,0-.84838-.84839A.84839.84839,0,0,0,154.66934,607.10838Z"/><path class="cls-6" d="M160.44188,607.10838a.84837.84837,0,1,0-.84837-.84839A.8484.8484,0,0,0,160.44188,607.10838Z"/><path class="cls-6" d="M166.21444,607.10838a.84837.84837,0,1,0-.84838-.84839A.84839.84839,0,0,0,166.21444,607.10838Z"/><path class="cls-6" d="M171.987,607.10838a.84837.84837,0,1,0-.84838-.84839A.8484.8484,0,0,0,171.987,607.10838Z"/><path class="cls-6" d="M177.75954,607.10838a.84837.84837,0,1,0-.84838-.84839A.84839.84839,0,0,0,177.75954,607.10838Z"/><path class="cls-6" d="M183.53209,607.10838a.84837.84837,0,1,0-.84837-.84839A.84839.84839,0,0,0,183.53209,607.10838Z"/><path class="cls-6" d="M189.30463,607.10838a.84837.84837,0,1,0-.84837-.84839A.84839.84839,0,0,0,189.30463,607.10838Z"/><path class="cls-6" d="M195.07719,607.10838a.84837.84837,0,1,0-.84837-.84839A.84839.84839,0,0,0,195.07719,607.10838Z"/><path class="cls-6" d="M200.84973,607.10838a.84837.84837,0,1,0-.84837-.84839A.84839.84839,0,0,0,200.84973,607.10838Z"/><path class="cls-6" d="M4.583,612.88094a.84838.84838,0,1,0-.84837-.84839A.84841.84841,0,0,0,4.583,612.88094Z"/><path class="cls-6" d="M10.35556,612.88094a.84838.84838,0,1,0-.84837-.84839A.84839.84839,0,0,0,10.35556,612.88094Z"/><path class="cls-6" d="M16.12812,612.88094a.84838.84838,0,1,0-.84839-.84839A.8484.8484,0,0,0,16.12812,612.88094Z"/><path class="cls-6" d="M21.90066,612.88094a.84838.84838,0,1,0-.84837-.84839A.84839.84839,0,0,0,21.90066,612.88094Z"/><path class="cls-6" d="M27.67322,612.88094a.84838.84838,0,1,0-.84837-.84839A.84839.84839,0,0,0,27.67322,612.88094Z"/><path class="cls-6" d="M33.44576,612.88094a.84838.84838,0,1,0-.84837-.84839A.84839.84839,0,0,0,33.44576,612.88094Z"/><path class="cls-6" d="M39.21832,612.88094a.84838.84838,0,1,0-.84837-.84839A.84839.84839,0,0,0,39.21832,612.88094Z"/><path class="cls-6" d="M44.99086,612.88094a.84838.84838,0,1,0-.84837-.84839A.84839.84839,0,0,0,44.99086,612.88094Z"/><path class="cls-6" d="M50.76342,612.88094a.84838.84838,0,1,0-.84837-.84839A.84839.84839,0,0,0,50.76342,612.88094Z"/><path class="cls-6" d="M56.536,612.88094a.84838.84838,0,1,0-.84837-.84839A.8484.8484,0,0,0,56.536,612.88094Z"/><path class="cls-6" d="M62.30852,612.88094a.84838.84838,0,1,0-.84838-.84839A.84839.84839,0,0,0,62.30852,612.88094Z"/><path class="cls-6" d="M68.08107,612.88094a.84838.84838,0,1,0-.84838-.84839A.8484.8484,0,0,0,68.08107,612.88094Z"/><path class="cls-6" d="M73.85362,612.88094a.84838.84838,0,1,0-.84838-.84839A.84839.84839,0,0,0,73.85362,612.88094Z"/><path class="cls-6" d="M79.62617,612.88094a.84838.84838,0,1,0-.84837-.84839A.84839.84839,0,0,0,79.62617,612.88094Z"/><path class="cls-6" d="M85.39871,612.88094a.84838.84838,0,1,0-.84837-.84839A.84839.84839,0,0,0,85.39871,612.88094Z"/><path class="cls-6" d="M91.17128,612.88094a.84838.84838,0,1,0-.84838-.84839A.84839.84839,0,0,0,91.17128,612.88094Z"/><path class="cls-6" d="M96.94381,612.88094a.84838.84838,0,1,0-.84837-.84839A.84838.84838,0,0,0,96.94381,612.88094Z"/><path class="cls-6" d="M102.71637,612.88094a.84838.84838,0,1,0-.84837-.84839A.84839.84839,0,0,0,102.71637,612.88094Z"/><path class="cls-6" d="M108.48891,612.88094a.84838.84838,0,1,0-.84837-.84839A.84841.84841,0,0,0,108.48891,612.88094Z"/><path class="cls-6" d="M114.26147,612.88094a.84838.84838,0,1,0-.84837-.84839A.84839.84839,0,0,0,114.26147,612.88094Z"/><path class="cls-6" d="M120.034,612.88094a.84838.84838,0,1,0-.84839-.84839A.8484.8484,0,0,0,120.034,612.88094Z"/><path class="cls-6" d="M125.80658,612.88094a.84838.84838,0,1,0-.84837-.84839A.84839.84839,0,0,0,125.80658,612.88094Z"/><path class="cls-6" d="M131.57914,612.88094a.84838.84838,0,1,0-.84838-.84839A.84839.84839,0,0,0,131.57914,612.88094Z"/><path class="cls-6" d="M137.35168,612.88094a.84838.84838,0,1,0-.84837-.84839A.84839.84839,0,0,0,137.35168,612.88094Z"/><path class="cls-6" d="M143.12424,612.88094a.84838.84838,0,1,0-.84838-.84839A.84839.84839,0,0,0,143.12424,612.88094Z"/><path class="cls-6" d="M148.89678,612.88094a.84838.84838,0,1,0-.84837-.84839A.84839.84839,0,0,0,148.89678,612.88094Z"/><path class="cls-6" d="M154.66934,612.88094a.84838.84838,0,1,0-.84838-.84839A.84839.84839,0,0,0,154.66934,612.88094Z"/><path class="cls-6" d="M160.44188,612.88094a.84838.84838,0,1,0-.84837-.84839A.8484.8484,0,0,0,160.44188,612.88094Z"/><path class="cls-6" d="M166.21444,612.88094a.84838.84838,0,1,0-.84838-.84839A.84839.84839,0,0,0,166.21444,612.88094Z"/><path class="cls-6" d="M171.987,612.88094a.84838.84838,0,1,0-.84838-.84839A.8484.8484,0,0,0,171.987,612.88094Z"/><path class="cls-6" d="M177.75954,612.88094a.84838.84838,0,1,0-.84838-.84839A.84839.84839,0,0,0,177.75954,612.88094Z"/><path class="cls-6" d="M183.53209,612.88094a.84838.84838,0,1,0-.84837-.84839A.84839.84839,0,0,0,183.53209,612.88094Z"/><path class="cls-6" d="M189.30463,612.88094a.84838.84838,0,1,0-.84837-.84839A.84839.84839,0,0,0,189.30463,612.88094Z"/><path class="cls-6" d="M195.07719,612.88094a.84838.84838,0,1,0-.84837-.84839A.84839.84839,0,0,0,195.07719,612.88094Z"/><path class="cls-6" d="M200.84973,612.88094a.84838.84838,0,1,0-.84837-.84839A.84839.84839,0,0,0,200.84973,612.88094Z"/><path class="cls-6" d="M4.583,618.65348a.84837.84837,0,1,0-.84837-.84839A.84841.84841,0,0,0,4.583,618.65348Z"/><path class="cls-6" d="M10.35556,618.65348a.84837.84837,0,1,0-.84837-.84839A.84839.84839,0,0,0,10.35556,618.65348Z"/><path class="cls-6" d="M16.12812,618.65348a.84837.84837,0,1,0-.84839-.84839A.8484.8484,0,0,0,16.12812,618.65348Z"/><path class="cls-6" d="M21.90066,618.65348a.84837.84837,0,1,0-.84837-.84839A.84839.84839,0,0,0,21.90066,618.65348Z"/><path class="cls-6" d="M27.67322,618.65348a.84837.84837,0,1,0-.84837-.84839A.84839.84839,0,0,0,27.67322,618.65348Z"/><path class="cls-6" d="M33.44576,618.65348a.84837.84837,0,1,0-.84837-.84839A.84839.84839,0,0,0,33.44576,618.65348Z"/><path class="cls-6" d="M39.21832,618.65348a.84837.84837,0,1,0-.84837-.84839A.84839.84839,0,0,0,39.21832,618.65348Z"/><path class="cls-6" d="M44.99086,618.65348a.84837.84837,0,1,0-.84837-.84839A.84839.84839,0,0,0,44.99086,618.65348Z"/><path class="cls-6" d="M50.76342,618.65348a.84837.84837,0,1,0-.84837-.84839A.84839.84839,0,0,0,50.76342,618.65348Z"/><path class="cls-6" d="M56.536,618.65348a.84837.84837,0,1,0-.84837-.84839A.8484.8484,0,0,0,56.536,618.65348Z"/><path class="cls-6" d="M62.30852,618.65348a.84837.84837,0,1,0-.84838-.84839A.84839.84839,0,0,0,62.30852,618.65348Z"/><path class="cls-6" d="M68.08107,618.65348a.84837.84837,0,1,0-.84838-.84839A.8484.8484,0,0,0,68.08107,618.65348Z"/><path class="cls-6" d="M73.85362,618.65348a.84837.84837,0,1,0-.84838-.84839A.84839.84839,0,0,0,73.85362,618.65348Z"/><path class="cls-6" d="M79.62617,618.65348a.84837.84837,0,1,0-.84837-.84839A.84839.84839,0,0,0,79.62617,618.65348Z"/><path class="cls-6" d="M85.39871,618.65348a.84837.84837,0,1,0-.84837-.84839A.84839.84839,0,0,0,85.39871,618.65348Z"/><path class="cls-6" d="M91.17128,618.65348a.84837.84837,0,1,0-.84838-.84839A.84839.84839,0,0,0,91.17128,618.65348Z"/><path class="cls-6" d="M96.94381,618.65348a.84837.84837,0,1,0-.84837-.84839A.84838.84838,0,0,0,96.94381,618.65348Z"/><path class="cls-6" d="M102.71637,618.65348a.84837.84837,0,1,0-.84837-.84839A.84839.84839,0,0,0,102.71637,618.65348Z"/><path class="cls-6" d="M108.48891,618.65348a.84837.84837,0,1,0-.84837-.84839A.84841.84841,0,0,0,108.48891,618.65348Z"/><path class="cls-6" d="M114.26147,618.65348a.84837.84837,0,1,0-.84837-.84839A.84839.84839,0,0,0,114.26147,618.65348Z"/><path class="cls-6" d="M120.034,618.65348a.84837.84837,0,1,0-.84839-.84839A.8484.8484,0,0,0,120.034,618.65348Z"/><path class="cls-6" d="M125.80658,618.65348a.84837.84837,0,1,0-.84837-.84839A.84839.84839,0,0,0,125.80658,618.65348Z"/><path class="cls-6" d="M131.57914,618.65348a.84837.84837,0,1,0-.84838-.84839A.84839.84839,0,0,0,131.57914,618.65348Z"/><path class="cls-6" d="M137.35168,618.65348a.84837.84837,0,1,0-.84837-.84839A.84839.84839,0,0,0,137.35168,618.65348Z"/><path class="cls-6" d="M143.12424,618.65348a.84837.84837,0,1,0-.84838-.84839A.84839.84839,0,0,0,143.12424,618.65348Z"/><path class="cls-6" d="M148.89678,618.65348a.84837.84837,0,1,0-.84837-.84839A.84839.84839,0,0,0,148.89678,618.65348Z"/><path class="cls-6" d="M154.66934,618.65348a.84837.84837,0,1,0-.84838-.84839A.84839.84839,0,0,0,154.66934,618.65348Z"/><path class="cls-6" d="M160.44188,618.65348a.84837.84837,0,1,0-.84837-.84839A.8484.8484,0,0,0,160.44188,618.65348Z"/><path class="cls-6" d="M166.21444,618.65348a.84837.84837,0,1,0-.84838-.84839A.84839.84839,0,0,0,166.21444,618.65348Z"/><path class="cls-6" d="M171.987,618.65348a.84837.84837,0,1,0-.84838-.84839A.8484.8484,0,0,0,171.987,618.65348Z"/><path class="cls-6" d="M177.75954,618.65348a.84837.84837,0,1,0-.84838-.84839A.84839.84839,0,0,0,177.75954,618.65348Z"/><path class="cls-6" d="M183.53209,618.65348a.84837.84837,0,1,0-.84837-.84839A.84839.84839,0,0,0,183.53209,618.65348Z"/><path class="cls-6" d="M189.30463,618.65348a.84837.84837,0,1,0-.84837-.84839A.84839.84839,0,0,0,189.30463,618.65348Z"/><path class="cls-6" d="M195.07719,618.65348a.84837.84837,0,1,0-.84837-.84839A.84839.84839,0,0,0,195.07719,618.65348Z"/><path class="cls-6" d="M200.84973,618.65348a.84837.84837,0,1,0-.84837-.84839A.84839.84839,0,0,0,200.84973,618.65348Z"/><path class="cls-6" d="M4.583,624.426a.84838.84838,0,1,0-.84837-.84839A.84841.84841,0,0,0,4.583,624.426Z"/><path class="cls-6" d="M10.35556,624.426a.84838.84838,0,1,0-.84837-.84839A.84839.84839,0,0,0,10.35556,624.426Z"/><path class="cls-6" d="M16.12812,624.426a.84838.84838,0,1,0-.84839-.84839A.8484.8484,0,0,0,16.12812,624.426Z"/><path class="cls-6" d="M21.90066,624.426a.84838.84838,0,1,0-.84837-.84839A.84839.84839,0,0,0,21.90066,624.426Z"/><path class="cls-6" d="M27.67322,624.426a.84838.84838,0,1,0-.84837-.84839A.84839.84839,0,0,0,27.67322,624.426Z"/><path class="cls-6" d="M33.44576,624.426a.84838.84838,0,1,0-.84837-.84839A.84839.84839,0,0,0,33.44576,624.426Z"/><path class="cls-6" d="M39.21832,624.426a.84838.84838,0,1,0-.84837-.84839A.84839.84839,0,0,0,39.21832,624.426Z"/><path class="cls-6" d="M44.99086,624.426a.84838.84838,0,1,0-.84837-.84839A.84839.84839,0,0,0,44.99086,624.426Z"/><path class="cls-6" d="M50.76342,624.426a.84838.84838,0,1,0-.84837-.84839A.84839.84839,0,0,0,50.76342,624.426Z"/><path class="cls-6" d="M56.536,624.426a.84838.84838,0,1,0-.84837-.84839A.8484.8484,0,0,0,56.536,624.426Z"/><path class="cls-6" d="M62.30852,624.426a.84838.84838,0,1,0-.84838-.84839A.84839.84839,0,0,0,62.30852,624.426Z"/><path class="cls-6" d="M68.08107,624.426a.84838.84838,0,1,0-.84838-.84839A.8484.8484,0,0,0,68.08107,624.426Z"/><path class="cls-6" d="M73.85362,624.426a.84838.84838,0,1,0-.84838-.84839A.84839.84839,0,0,0,73.85362,624.426Z"/><path class="cls-6" d="M79.62617,624.426a.84838.84838,0,1,0-.84837-.84839A.84839.84839,0,0,0,79.62617,624.426Z"/><path class="cls-6" d="M85.39871,624.426a.84838.84838,0,1,0-.84837-.84839A.84839.84839,0,0,0,85.39871,624.426Z"/><path class="cls-6" d="M91.17128,624.426a.84838.84838,0,1,0-.84838-.84839A.84839.84839,0,0,0,91.17128,624.426Z"/><path class="cls-6" d="M96.94381,624.426a.84838.84838,0,1,0-.84837-.84839A.84838.84838,0,0,0,96.94381,624.426Z"/><path class="cls-6" d="M102.71637,624.426a.84838.84838,0,1,0-.84837-.84839A.84839.84839,0,0,0,102.71637,624.426Z"/><path class="cls-6" d="M108.48891,624.426a.84838.84838,0,1,0-.84837-.84839A.84841.84841,0,0,0,108.48891,624.426Z"/><path class="cls-6" d="M114.26147,624.426a.84838.84838,0,1,0-.84837-.84839A.84839.84839,0,0,0,114.26147,624.426Z"/><path class="cls-6" d="M120.034,624.426a.84838.84838,0,1,0-.84839-.84839A.8484.8484,0,0,0,120.034,624.426Z"/><path class="cls-6" d="M125.80658,624.426a.84838.84838,0,1,0-.84837-.84839A.84839.84839,0,0,0,125.80658,624.426Z"/><path class="cls-6" d="M131.57914,624.426a.84838.84838,0,1,0-.84838-.84839A.84839.84839,0,0,0,131.57914,624.426Z"/><path class="cls-6" d="M137.35168,624.426a.84838.84838,0,1,0-.84837-.84839A.84839.84839,0,0,0,137.35168,624.426Z"/><path class="cls-6" d="M143.12424,624.426a.84838.84838,0,1,0-.84838-.84839A.84839.84839,0,0,0,143.12424,624.426Z"/><path class="cls-6" d="M148.89678,624.426a.84838.84838,0,1,0-.84837-.84839A.84839.84839,0,0,0,148.89678,624.426Z"/><path class="cls-6" d="M154.66934,624.426a.84838.84838,0,1,0-.84838-.84839A.84839.84839,0,0,0,154.66934,624.426Z"/><path class="cls-6" d="M160.44188,624.426a.84838.84838,0,1,0-.84837-.84839A.8484.8484,0,0,0,160.44188,624.426Z"/><path class="cls-6" d="M166.21444,624.426a.84838.84838,0,1,0-.84838-.84839A.84839.84839,0,0,0,166.21444,624.426Z"/><path class="cls-6" d="M171.987,624.426a.84838.84838,0,1,0-.84838-.84839A.8484.8484,0,0,0,171.987,624.426Z"/><path class="cls-6" d="M177.75954,624.426a.84838.84838,0,1,0-.84838-.84839A.84839.84839,0,0,0,177.75954,624.426Z"/><path class="cls-6" d="M183.53209,624.426a.84838.84838,0,1,0-.84837-.84839A.84839.84839,0,0,0,183.53209,624.426Z"/><path class="cls-6" d="M189.30463,624.426a.84838.84838,0,1,0-.84837-.84839A.84839.84839,0,0,0,189.30463,624.426Z"/><path class="cls-6" d="M195.07719,624.426a.84838.84838,0,1,0-.84837-.84839A.84839.84839,0,0,0,195.07719,624.426Z"/><path class="cls-6" d="M200.84973,624.426a.84838.84838,0,1,0-.84837-.84839A.84839.84839,0,0,0,200.84973,624.426Z"/><path class="cls-6" d="M4.583,630.19858a.84837.84837,0,1,0-.84837-.84837A.8484.8484,0,0,0,4.583,630.19858Z"/><circle class="cls-6" cx="10.35556" cy="629.35021" r="0.84837"/><path class="cls-6" d="M16.12812,630.19858a.84837.84837,0,1,0-.84839-.84837A.8484.8484,0,0,0,16.12812,630.19858Z"/><circle class="cls-6" cx="21.90066" cy="629.35021" r="0.84837"/><circle class="cls-6" cx="27.67322" cy="629.35021" r="0.84837"/><circle class="cls-6" cx="33.44576" cy="629.35021" r="0.84837"/><circle class="cls-6" cx="39.21832" cy="629.35021" r="0.84837"/><circle class="cls-6" cx="44.99086" cy="629.35021" r="0.84837"/><circle class="cls-6" cx="50.76342" cy="629.35021" r="0.84837"/><path class="cls-6" d="M56.536,630.19858a.84837.84837,0,1,0-.84837-.84837A.84839.84839,0,0,0,56.536,630.19858Z"/><circle class="cls-6" cx="62.30852" cy="629.35021" r="0.84837"/><path class="cls-6" d="M68.08107,630.19858a.84837.84837,0,1,0-.84838-.84837A.84839.84839,0,0,0,68.08107,630.19858Z"/><circle class="cls-6" cx="73.85362" cy="629.35021" r="0.84837"/><circle class="cls-6" cx="79.62617" cy="629.35021" r="0.84837"/><circle class="cls-6" cx="85.39871" cy="629.35021" r="0.84837"/><circle class="cls-6" cx="91.17127" cy="629.35021" r="0.84837"/><circle class="cls-6" cx="96.94381" cy="629.35021" r="0.84837"/><circle class="cls-6" cx="102.71637" cy="629.35021" r="0.84837"/><path class="cls-6" d="M108.48891,630.19858a.84837.84837,0,1,0-.84837-.84837A.8484.8484,0,0,0,108.48891,630.19858Z"/><circle class="cls-6" cx="114.26147" cy="629.35021" r="0.84837"/><path class="cls-6" d="M120.034,630.19858a.84837.84837,0,1,0-.84839-.84837A.8484.8484,0,0,0,120.034,630.19858Z"/><circle class="cls-6" cx="125.80658" cy="629.35021" r="0.84837"/><circle class="cls-6" cx="131.57914" cy="629.35021" r="0.84837"/><circle class="cls-6" cx="137.35168" cy="629.35021" r="0.84837"/><circle class="cls-6" cx="143.12424" cy="629.35021" r="0.84837"/><circle class="cls-6" cx="148.89678" cy="629.35021" r="0.84837"/><circle class="cls-6" cx="154.66934" cy="629.35021" r="0.84837"/><path class="cls-6" d="M160.44188,630.19858a.84837.84837,0,1,0-.84837-.84837A.84839.84839,0,0,0,160.44188,630.19858Z"/><circle class="cls-6" cx="166.21444" cy="629.35021" r="0.84837"/><path class="cls-6" d="M171.987,630.19858a.84837.84837,0,1,0-.84838-.84837A.84839.84839,0,0,0,171.987,630.19858Z"/><circle class="cls-6" cx="177.75954" cy="629.35021" r="0.84837"/><circle class="cls-6" cx="183.53209" cy="629.35021" r="0.84837"/><circle class="cls-6" cx="189.30463" cy="629.35021" r="0.84837"/><circle class="cls-6" cx="195.07719" cy="629.35021" r="0.84837"/><circle class="cls-6" cx="200.84973" cy="629.35021" r="0.84837"/><g class="cls-15"><circle class="cls-6" cx="154.62492" cy="106.70595" r="0.51037"/><circle class="cls-6" cx="158.09763" cy="106.70595" r="0.51037"/><circle class="cls-6" cx="161.57033" cy="106.70595" r="0.51037"/><circle class="cls-6" cx="165.04304" cy="106.70595" r="0.51037"/><path class="cls-6" d="M168.51574,107.21633a.51038.51038,0,1,0-.51037-.51038A.5104.5104,0,0,0,168.51574,107.21633Z"/><circle class="cls-6" cx="171.98845" cy="106.70595" r="0.51037"/><path class="cls-6" d="M175.46116,107.21633a.51038.51038,0,1,0-.51038-.51038A.51038.51038,0,0,0,175.46116,107.21633Z"/><circle class="cls-6" cx="178.93386" cy="106.70595" r="0.51037"/><path class="cls-6" d="M154.62492,110.689a.51038.51038,0,1,0-.51037-.51038A.51039.51039,0,0,0,154.62492,110.689Z"/><path class="cls-6" d="M158.09763,110.689a.51038.51038,0,1,0-.51037-.51038A.51039.51039,0,0,0,158.09763,110.689Z"/><path class="cls-6" d="M161.57033,110.689a.51038.51038,0,1,0-.51037-.51038A.51039.51039,0,0,0,161.57033,110.689Z"/><path class="cls-6" d="M165.043,110.689a.51038.51038,0,1,0-.51037-.51038A.51039.51039,0,0,0,165.043,110.689Z"/><path class="cls-6" d="M168.51574,110.689a.51038.51038,0,1,0-.51037-.51038A.5104.5104,0,0,0,168.51574,110.689Z"/><path class="cls-6" d="M171.98845,110.689a.51038.51038,0,1,0-.51037-.51038A.51038.51038,0,0,0,171.98845,110.689Z"/><path class="cls-6" d="M175.46116,110.689a.51038.51038,0,1,0-.51038-.51038A.51039.51039,0,0,0,175.46116,110.689Z"/><path class="cls-6" d="M178.93386,110.689a.51038.51038,0,1,0-.51037-.51038A.51038.51038,0,0,0,178.93386,110.689Z"/><circle class="cls-6" cx="154.62492" cy="113.65136" r="0.51037"/><circle class="cls-6" cx="158.09763" cy="113.65136" r="0.51037"/><circle class="cls-6" cx="161.57033" cy="113.65136" r="0.51037"/><circle class="cls-6" cx="165.04304" cy="113.65136" r="0.51037"/><path class="cls-6" d="M168.51574,114.16174a.51038.51038,0,1,0-.51037-.51038A.5104.5104,0,0,0,168.51574,114.16174Z"/><circle class="cls-6" cx="171.98845" cy="113.65136" r="0.51037"/><path class="cls-6" d="M175.46116,114.16174a.51038.51038,0,1,0-.51038-.51038A.51038.51038,0,0,0,175.46116,114.16174Z"/><circle class="cls-6" cx="178.93386" cy="113.65136" r="0.51037"/><circle class="cls-6" cx="154.62492" cy="117.12407" r="0.51037"/><circle class="cls-6" cx="158.09763" cy="117.12407" r="0.51037"/><circle class="cls-6" cx="161.57033" cy="117.12407" r="0.51037"/><circle class="cls-6" cx="165.04304" cy="117.12407" r="0.51037"/><path class="cls-6" d="M168.51574,117.63445a.51038.51038,0,1,0-.51037-.51038A.5104.5104,0,0,0,168.51574,117.63445Z"/><circle class="cls-6" cx="171.98845" cy="117.12407" r="0.51037"/><path class="cls-6" d="M175.46116,117.63445a.51038.51038,0,1,0-.51038-.51038A.51038.51038,0,0,0,175.46116,117.63445Z"/><circle class="cls-6" cx="178.93386" cy="117.12407" r="0.51037"/><circle class="cls-6" cx="154.62492" cy="120.59677" r="0.51037"/><circle class="cls-6" cx="158.09763" cy="120.59677" r="0.51037"/><circle class="cls-6" cx="161.57033" cy="120.59677" r="0.51037"/><circle class="cls-6" cx="165.04304" cy="120.59677" r="0.51037"/><path class="cls-6" d="M168.51574,121.10714a.51037.51037,0,1,0-.51037-.51037A.51039.51039,0,0,0,168.51574,121.10714Z"/><circle class="cls-6" cx="171.98845" cy="120.59677" r="0.51037"/><path class="cls-6" d="M175.46116,121.10714a.51037.51037,0,1,0-.51038-.51037A.51038.51038,0,0,0,175.46116,121.10714Z"/><circle class="cls-6" cx="178.93386" cy="120.59677" r="0.51037"/><circle class="cls-6" cx="154.62492" cy="124.06948" r="0.51037"/><circle class="cls-6" cx="158.09763" cy="124.06948" r="0.51037"/><circle class="cls-6" cx="161.57033" cy="124.06948" r="0.51037"/><circle class="cls-6" cx="165.04304" cy="124.06948" r="0.51037"/><path class="cls-6" d="M168.51574,124.57985a.51037.51037,0,1,0-.51037-.51037A.51039.51039,0,0,0,168.51574,124.57985Z"/><circle class="cls-6" cx="171.98845" cy="124.06948" r="0.51037"/><path class="cls-6" d="M175.46116,124.57985a.51037.51037,0,1,0-.51038-.51037A.51038.51038,0,0,0,175.46116,124.57985Z"/><circle class="cls-6" cx="178.93386" cy="124.06948" r="0.51037"/><circle class="cls-6" cx="154.62492" cy="127.54218" r="0.51037"/><circle class="cls-6" cx="158.09763" cy="127.54218" r="0.51037"/><circle class="cls-6" cx="161.57033" cy="127.54218" r="0.51037"/><circle class="cls-6" cx="165.04304" cy="127.54218" r="0.51037"/><path class="cls-6" d="M168.51574,128.05255a.51037.51037,0,1,0-.51037-.51037A.51039.51039,0,0,0,168.51574,128.05255Z"/><circle class="cls-6" cx="171.98845" cy="127.54218" r="0.51037"/><path class="cls-6" d="M175.46116,128.05255a.51037.51037,0,1,0-.51038-.51037A.51038.51038,0,0,0,175.46116,128.05255Z"/><circle class="cls-6" cx="178.93386" cy="127.54218" r="0.51037"/><circle class="cls-6" cx="154.62492" cy="131.01489" r="0.51037"/><circle class="cls-6" cx="158.09763" cy="131.01489" r="0.51037"/><circle class="cls-6" cx="161.57033" cy="131.01489" r="0.51037"/><circle class="cls-6" cx="165.04304" cy="131.01489" r="0.51037"/><path class="cls-6" d="M168.51574,131.52526a.51037.51037,0,1,0-.51037-.51037A.51039.51039,0,0,0,168.51574,131.52526Z"/><circle class="cls-6" cx="171.98845" cy="131.01489" r="0.51037"/><path class="cls-6" d="M175.46116,131.52526a.51037.51037,0,1,0-.51038-.51037A.51038.51038,0,0,0,175.46116,131.52526Z"/><circle class="cls-6" cx="178.93386" cy="131.01489" r="0.51037"/><path class="cls-6" d="M154.62492,134.998a.51038.51038,0,1,0-.51037-.51038A.51039.51039,0,0,0,154.62492,134.998Z"/><path class="cls-6" d="M158.09763,134.998a.51038.51038,0,1,0-.51037-.51038A.51039.51039,0,0,0,158.09763,134.998Z"/><path class="cls-6" d="M161.57033,134.998a.51038.51038,0,1,0-.51037-.51038A.51039.51039,0,0,0,161.57033,134.998Z"/><path class="cls-6" d="M165.043,134.998a.51038.51038,0,1,0-.51037-.51038A.51039.51039,0,0,0,165.043,134.998Z"/><path class="cls-6" d="M168.51574,134.998a.51038.51038,0,1,0-.51037-.51038A.5104.5104,0,0,0,168.51574,134.998Z"/><path class="cls-6" d="M171.98845,134.998a.51038.51038,0,1,0-.51037-.51038A.51038.51038,0,0,0,171.98845,134.998Z"/><path class="cls-6" d="M175.46116,134.998a.51038.51038,0,1,0-.51038-.51038A.51038.51038,0,0,0,175.46116,134.998Z"/><path class="cls-6" d="M178.93386,134.998a.51038.51038,0,1,0-.51037-.51038A.51038.51038,0,0,0,178.93386,134.998Z"/><circle class="cls-6" cx="154.62492" cy="137.9603" r="0.51037"/><circle class="cls-6" cx="158.09763" cy="137.9603" r="0.51037"/><circle class="cls-6" cx="161.57033" cy="137.9603" r="0.51037"/><circle class="cls-6" cx="165.04304" cy="137.9603" r="0.51037"/><path class="cls-6" d="M168.51574,138.47067a.51037.51037,0,1,0-.51037-.51037A.51039.51039,0,0,0,168.51574,138.47067Z"/><circle class="cls-6" cx="171.98845" cy="137.9603" r="0.51037"/><path class="cls-6" d="M175.46116,138.47067a.51037.51037,0,1,0-.51038-.51037A.51038.51038,0,0,0,175.46116,138.47067Z"/><circle class="cls-6" cx="178.93386" cy="137.9603" r="0.51037"/><path class="cls-6" d="M154.62492,141.94338a.51038.51038,0,1,0-.51037-.51037A.51038.51038,0,0,0,154.62492,141.94338Z"/><path class="cls-6" d="M158.09763,141.94338a.51038.51038,0,1,0-.51037-.51037A.51038.51038,0,0,0,158.09763,141.94338Z"/><path class="cls-6" d="M161.57033,141.94338a.51038.51038,0,1,0-.51037-.51037A.51038.51038,0,0,0,161.57033,141.94338Z"/><path class="cls-6" d="M165.043,141.94338a.51038.51038,0,1,0-.51037-.51037A.51038.51038,0,0,0,165.043,141.94338Z"/><path class="cls-6" d="M168.51574,141.94338a.51038.51038,0,1,0-.51037-.51037A.51039.51039,0,0,0,168.51574,141.94338Z"/><path class="cls-6" d="M171.98845,141.94338a.51038.51038,0,1,0-.51037-.51037A.51038.51038,0,0,0,171.98845,141.94338Z"/><path class="cls-6" d="M175.46116,141.94338a.51038.51038,0,1,0-.51038-.51037A.51038.51038,0,0,0,175.46116,141.94338Z"/><path class="cls-6" d="M178.93386,141.94338a.51038.51038,0,1,0-.51037-.51037A.51038.51038,0,0,0,178.93386,141.94338Z"/><circle class="cls-6" cx="154.62492" cy="144.90571" r="0.51037"/><circle class="cls-6" cx="158.09763" cy="144.90571" r="0.51037"/><circle class="cls-6" cx="161.57033" cy="144.90571" r="0.51037"/><circle class="cls-6" cx="165.04304" cy="144.90571" r="0.51037"/><path class="cls-6" d="M168.51574,145.41608a.51037.51037,0,1,0-.51037-.51037A.51039.51039,0,0,0,168.51574,145.41608Z"/><circle class="cls-6" cx="171.98845" cy="144.90571" r="0.51037"/><path class="cls-6" d="M175.46116,145.41608a.51037.51037,0,1,0-.51038-.51037A.51038.51038,0,0,0,175.46116,145.41608Z"/><circle class="cls-6" cx="178.93386" cy="144.90571" r="0.51037"/><path class="cls-6" d="M154.62492,148.88879a.51038.51038,0,1,0-.51037-.51037A.51038.51038,0,0,0,154.62492,148.88879Z"/><path class="cls-6" d="M158.09763,148.88879a.51038.51038,0,1,0-.51037-.51037A.51038.51038,0,0,0,158.09763,148.88879Z"/><path class="cls-6" d="M161.57033,148.88879a.51038.51038,0,1,0-.51037-.51037A.51038.51038,0,0,0,161.57033,148.88879Z"/><path class="cls-6" d="M165.043,148.88879a.51038.51038,0,1,0-.51037-.51037A.51038.51038,0,0,0,165.043,148.88879Z"/><path class="cls-6" d="M168.51574,148.88879a.51038.51038,0,1,0-.51037-.51037A.51039.51039,0,0,0,168.51574,148.88879Z"/><path class="cls-6" d="M171.98845,148.88879a.51038.51038,0,1,0-.51037-.51037A.51038.51038,0,0,0,171.98845,148.88879Z"/><path class="cls-6" d="M175.46116,148.88879a.51038.51038,0,1,0-.51038-.51037A.51038.51038,0,0,0,175.46116,148.88879Z"/><path class="cls-6" d="M178.93386,148.88879a.51038.51038,0,1,0-.51037-.51037A.51038.51038,0,0,0,178.93386,148.88879Z"/><circle class="cls-6" cx="154.62492" cy="151.85112" r="0.51037"/><circle class="cls-6" cx="158.09763" cy="151.85112" r="0.51037"/><circle class="cls-6" cx="161.57033" cy="151.85112" r="0.51037"/><circle class="cls-6" cx="165.04304" cy="151.85112" r="0.51037"/><path class="cls-6" d="M168.51574,152.36149a.51037.51037,0,1,0-.51037-.51037A.51039.51039,0,0,0,168.51574,152.36149Z"/><circle class="cls-6" cx="171.98845" cy="151.85112" r="0.51037"/><path class="cls-6" d="M175.46116,152.36149a.51037.51037,0,1,0-.51038-.51037A.51038.51038,0,0,0,175.46116,152.36149Z"/><circle class="cls-6" cx="178.93386" cy="151.85112" r="0.51037"/><circle class="cls-6" cx="154.62492" cy="155.32383" r="0.51037"/><circle class="cls-6" cx="158.09763" cy="155.32383" r="0.51037"/><circle class="cls-6" cx="161.57033" cy="155.32383" r="0.51037"/><circle class="cls-6" cx="165.04304" cy="155.32383" r="0.51037"/><path class="cls-6" d="M168.51574,155.83421a.51038.51038,0,1,0-.51037-.51038A.5104.5104,0,0,0,168.51574,155.83421Z"/><circle class="cls-6" cx="171.98845" cy="155.32383" r="0.51037"/><path class="cls-6" d="M175.46116,155.83421a.51038.51038,0,1,0-.51038-.51038A.51038.51038,0,0,0,175.46116,155.83421Z"/><circle class="cls-6" cx="178.93386" cy="155.32383" r="0.51037"/><circle class="cls-6" cx="154.62492" cy="158.79653" r="0.51037"/><circle class="cls-6" cx="158.09763" cy="158.79653" r="0.51037"/><circle class="cls-6" cx="161.57033" cy="158.79653" r="0.51037"/><circle class="cls-6" cx="165.04304" cy="158.79653" r="0.51037"/><path class="cls-6" d="M168.51574,159.30691a.51038.51038,0,1,0-.51037-.51038A.5104.5104,0,0,0,168.51574,159.30691Z"/><circle class="cls-6" cx="171.98845" cy="158.79653" r="0.51037"/><path class="cls-6" d="M175.46116,159.30691a.51038.51038,0,1,0-.51038-.51038A.51038.51038,0,0,0,175.46116,159.30691Z"/><circle class="cls-6" cx="178.93386" cy="158.79653" r="0.51037"/><circle class="cls-6" cx="154.62492" cy="162.26924" r="0.51037"/><circle class="cls-6" cx="158.09763" cy="162.26924" r="0.51037"/><circle class="cls-6" cx="161.57033" cy="162.26924" r="0.51037"/><circle class="cls-6" cx="165.04304" cy="162.26924" r="0.51037"/><path class="cls-6" d="M168.51574,162.77961a.51037.51037,0,1,0-.51037-.51037A.51039.51039,0,0,0,168.51574,162.77961Z"/><circle class="cls-6" cx="171.98845" cy="162.26924" r="0.51037"/><path class="cls-6" d="M175.46116,162.77961a.51037.51037,0,1,0-.51038-.51037A.51038.51038,0,0,0,175.46116,162.77961Z"/><circle class="cls-6" cx="178.93386" cy="162.26924" r="0.51037"/><circle class="cls-6" cx="154.62492" cy="165.74194" r="0.51037"/><circle class="cls-6" cx="158.09763" cy="165.74194" r="0.51037"/><circle class="cls-6" cx="161.57033" cy="165.74194" r="0.51037"/><circle class="cls-6" cx="165.04304" cy="165.74194" r="0.51037"/><path class="cls-6" d="M168.51574,166.25231a.51037.51037,0,1,0-.51037-.51037A.51039.51039,0,0,0,168.51574,166.25231Z"/><circle class="cls-6" cx="171.98845" cy="165.74194" r="0.51037"/><path class="cls-6" d="M175.46116,166.25231a.51037.51037,0,1,0-.51038-.51037A.51038.51038,0,0,0,175.46116,166.25231Z"/><circle class="cls-6" cx="178.93386" cy="165.74194" r="0.51037"/><circle class="cls-6" cx="154.62492" cy="169.21465" r="0.51037"/><circle class="cls-6" cx="158.09763" cy="169.21465" r="0.51037"/><circle class="cls-6" cx="161.57033" cy="169.21465" r="0.51037"/><circle class="cls-6" cx="165.04304" cy="169.21465" r="0.51037"/><path class="cls-6" d="M168.51574,169.725a.51037.51037,0,1,0-.51037-.51037A.51039.51039,0,0,0,168.51574,169.725Z"/><circle class="cls-6" cx="171.98845" cy="169.21465" r="0.51037"/><path class="cls-6" d="M175.46116,169.725a.51037.51037,0,1,0-.51038-.51037A.51038.51038,0,0,0,175.46116,169.725Z"/><circle class="cls-6" cx="178.93386" cy="169.21465" r="0.51037"/><path class="cls-6" d="M154.62492,173.19773a.51038.51038,0,1,0-.51037-.51038A.51039.51039,0,0,0,154.62492,173.19773Z"/><path class="cls-6" d="M158.09763,173.19773a.51038.51038,0,1,0-.51037-.51038A.51039.51039,0,0,0,158.09763,173.19773Z"/><path class="cls-6" d="M161.57033,173.19773a.51038.51038,0,1,0-.51037-.51038A.51039.51039,0,0,0,161.57033,173.19773Z"/><path class="cls-6" d="M165.043,173.19773a.51038.51038,0,1,0-.51037-.51038A.51039.51039,0,0,0,165.043,173.19773Z"/><path class="cls-6" d="M168.51574,173.19773a.51038.51038,0,1,0-.51037-.51038A.5104.5104,0,0,0,168.51574,173.19773Z"/><path class="cls-6" d="M171.98845,173.19773a.51038.51038,0,1,0-.51037-.51038A.51038.51038,0,0,0,171.98845,173.19773Z"/><path class="cls-6" d="M175.46116,173.19773a.51038.51038,0,1,0-.51038-.51038A.51038.51038,0,0,0,175.46116,173.19773Z"/><path class="cls-6" d="M178.93386,173.19773a.51038.51038,0,1,0-.51037-.51038A.51038.51038,0,0,0,178.93386,173.19773Z"/><circle class="cls-6" cx="154.62492" cy="176.16006" r="0.51037"/><circle class="cls-6" cx="158.09763" cy="176.16006" r="0.51037"/><circle class="cls-6" cx="161.57033" cy="176.16006" r="0.51037"/><circle class="cls-6" cx="165.04304" cy="176.16006" r="0.51037"/><path class="cls-6" d="M168.51574,176.67043a.51037.51037,0,1,0-.51037-.51037A.51039.51039,0,0,0,168.51574,176.67043Z"/><circle class="cls-6" cx="171.98845" cy="176.16006" r="0.51037"/><path class="cls-6" d="M175.46116,176.67043a.51037.51037,0,1,0-.51038-.51037A.51038.51038,0,0,0,175.46116,176.67043Z"/><circle class="cls-6" cx="178.93386" cy="176.16006" r="0.51037"/><path class="cls-6" d="M154.62492,180.14314a.51038.51038,0,1,0-.51037-.51038A.51039.51039,0,0,0,154.62492,180.14314Z"/><path class="cls-6" d="M158.09763,180.14314a.51038.51038,0,1,0-.51037-.51038A.51039.51039,0,0,0,158.09763,180.14314Z"/><path class="cls-6" d="M161.57033,180.14314a.51038.51038,0,1,0-.51037-.51038A.51039.51039,0,0,0,161.57033,180.14314Z"/><path class="cls-6" d="M165.043,180.14314a.51038.51038,0,1,0-.51037-.51038A.51039.51039,0,0,0,165.043,180.14314Z"/><path class="cls-6" d="M168.51574,180.14314a.51038.51038,0,1,0-.51037-.51038A.5104.5104,0,0,0,168.51574,180.14314Z"/><path class="cls-6" d="M171.98845,180.14314a.51038.51038,0,1,0-.51037-.51038A.51038.51038,0,0,0,171.98845,180.14314Z"/><path class="cls-6" d="M175.46116,180.14314a.51038.51038,0,1,0-.51038-.51038A.51038.51038,0,0,0,175.46116,180.14314Z"/><path class="cls-6" d="M178.93386,180.14314a.51038.51038,0,1,0-.51037-.51038A.51038.51038,0,0,0,178.93386,180.14314Z"/></g><g class="cls-15"><circle class="cls-6" cx="154.62492" cy="182.8092" r="0.51037"/><circle class="cls-6" cx="158.09763" cy="182.8092" r="0.51037"/><circle class="cls-6" cx="161.57033" cy="182.8092" r="0.51037"/><circle class="cls-6" cx="165.04304" cy="182.8092" r="0.51037"/><path class="cls-6" d="M168.51574,183.31957a.51037.51037,0,1,0-.51037-.51037A.51039.51039,0,0,0,168.51574,183.31957Z"/><circle class="cls-6" cx="171.98845" cy="182.8092" r="0.51037"/><path class="cls-6" d="M175.46116,183.31957a.51037.51037,0,1,0-.51038-.51037A.51038.51038,0,0,0,175.46116,183.31957Z"/><circle class="cls-6" cx="178.93386" cy="182.8092" r="0.51037"/><path class="cls-6" d="M154.62492,186.79228a.51038.51038,0,1,0-.51037-.51037A.51038.51038,0,0,0,154.62492,186.79228Z"/><path class="cls-6" d="M158.09763,186.79228a.51038.51038,0,1,0-.51037-.51037A.51038.51038,0,0,0,158.09763,186.79228Z"/><path class="cls-6" d="M161.57033,186.79228a.51038.51038,0,1,0-.51037-.51037A.51038.51038,0,0,0,161.57033,186.79228Z"/><path class="cls-6" d="M165.043,186.79228a.51038.51038,0,1,0-.51037-.51037A.51038.51038,0,0,0,165.043,186.79228Z"/><path class="cls-6" d="M168.51574,186.79228a.51038.51038,0,1,0-.51037-.51037A.51039.51039,0,0,0,168.51574,186.79228Z"/><path class="cls-6" d="M171.98845,186.79228a.51038.51038,0,1,0-.51037-.51037A.51038.51038,0,0,0,171.98845,186.79228Z"/><path class="cls-6" d="M175.46116,186.79228a.51038.51038,0,1,0-.51038-.51037A.51038.51038,0,0,0,175.46116,186.79228Z"/><path class="cls-6" d="M178.93386,186.79228a.51038.51038,0,1,0-.51037-.51037A.51038.51038,0,0,0,178.93386,186.79228Z"/><circle class="cls-6" cx="154.62492" cy="189.75461" r="0.51037"/><circle class="cls-6" cx="158.09763" cy="189.75461" r="0.51037"/><circle class="cls-6" cx="161.57033" cy="189.75461" r="0.51037"/><circle class="cls-6" cx="165.04304" cy="189.75461" r="0.51037"/><path class="cls-6" d="M168.51574,190.265a.51037.51037,0,1,0-.51037-.51037A.51039.51039,0,0,0,168.51574,190.265Z"/><circle class="cls-6" cx="171.98845" cy="189.75461" r="0.51037"/><path class="cls-6" d="M175.46116,190.265a.51037.51037,0,1,0-.51038-.51037A.51038.51038,0,0,0,175.46116,190.265Z"/><circle class="cls-6" cx="178.93386" cy="189.75461" r="0.51037"/><circle class="cls-6" cx="154.62492" cy="193.22732" r="0.51037"/><circle class="cls-6" cx="158.09763" cy="193.22732" r="0.51037"/><circle class="cls-6" cx="161.57033" cy="193.22732" r="0.51037"/><circle class="cls-6" cx="165.04304" cy="193.22732" r="0.51037"/><path class="cls-6" d="M168.51574,193.73769a.51037.51037,0,1,0-.51037-.51037A.51039.51039,0,0,0,168.51574,193.73769Z"/><circle class="cls-6" cx="171.98845" cy="193.22732" r="0.51037"/><path class="cls-6" d="M175.46116,193.73769a.51037.51037,0,1,0-.51038-.51037A.51038.51038,0,0,0,175.46116,193.73769Z"/><circle class="cls-6" cx="178.93386" cy="193.22732" r="0.51037"/><circle class="cls-6" cx="154.62492" cy="196.70002" r="0.51037"/><circle class="cls-6" cx="158.09763" cy="196.70002" r="0.51037"/><circle class="cls-6" cx="161.57033" cy="196.70002" r="0.51037"/><circle class="cls-6" cx="165.04304" cy="196.70002" r="0.51037"/><path class="cls-6" d="M168.51574,197.21039a.51037.51037,0,1,0-.51037-.51037A.51039.51039,0,0,0,168.51574,197.21039Z"/><circle class="cls-6" cx="171.98845" cy="196.70002" r="0.51037"/><path class="cls-6" d="M175.46116,197.21039a.51037.51037,0,1,0-.51038-.51037A.51038.51038,0,0,0,175.46116,197.21039Z"/><circle class="cls-6" cx="178.93386" cy="196.70002" r="0.51037"/><circle class="cls-6" cx="154.62492" cy="200.17273" r="0.51037"/><circle class="cls-6" cx="158.09763" cy="200.17273" r="0.51037"/><circle class="cls-6" cx="161.57033" cy="200.17273" r="0.51037"/><circle class="cls-6" cx="165.04304" cy="200.17273" r="0.51037"/><path class="cls-6" d="M168.51574,200.6831a.51037.51037,0,1,0-.51037-.51037A.51039.51039,0,0,0,168.51574,200.6831Z"/><circle class="cls-6" cx="171.98845" cy="200.17273" r="0.51037"/><path class="cls-6" d="M175.46116,200.6831a.51037.51037,0,1,0-.51038-.51037A.51038.51038,0,0,0,175.46116,200.6831Z"/><circle class="cls-6" cx="178.93386" cy="200.17273" r="0.51037"/><circle class="cls-6" cx="154.62492" cy="203.64543" r="0.51037"/><circle class="cls-6" cx="158.09763" cy="203.64543" r="0.51037"/><circle class="cls-6" cx="161.57033" cy="203.64543" r="0.51037"/><circle class="cls-6" cx="165.04304" cy="203.64543" r="0.51037"/><path class="cls-6" d="M168.51574,204.1558a.51037.51037,0,1,0-.51037-.51037A.51039.51039,0,0,0,168.51574,204.1558Z"/><circle class="cls-6" cx="171.98845" cy="203.64543" r="0.51037"/><path class="cls-6" d="M175.46116,204.1558a.51037.51037,0,1,0-.51038-.51037A.51038.51038,0,0,0,175.46116,204.1558Z"/><circle class="cls-6" cx="178.93386" cy="203.64543" r="0.51037"/><circle class="cls-6" cx="154.62492" cy="207.11814" r="0.51037"/><circle class="cls-6" cx="158.09763" cy="207.11814" r="0.51037"/><circle class="cls-6" cx="161.57033" cy="207.11814" r="0.51037"/><circle class="cls-6" cx="165.04304" cy="207.11814" r="0.51037"/><path class="cls-6" d="M168.51574,207.62851a.51037.51037,0,1,0-.51037-.51037A.51039.51039,0,0,0,168.51574,207.62851Z"/><circle class="cls-6" cx="171.98845" cy="207.11814" r="0.51037"/><path class="cls-6" d="M175.46116,207.62851a.51037.51037,0,1,0-.51038-.51037A.51038.51038,0,0,0,175.46116,207.62851Z"/><circle class="cls-6" cx="178.93386" cy="207.11814" r="0.51037"/><path class="cls-6" d="M154.62492,211.10122a.51038.51038,0,1,0-.51037-.51038A.51039.51039,0,0,0,154.62492,211.10122Z"/><path class="cls-6" d="M158.09763,211.10122a.51038.51038,0,1,0-.51037-.51038A.51039.51039,0,0,0,158.09763,211.10122Z"/><path class="cls-6" d="M161.57033,211.10122a.51038.51038,0,1,0-.51037-.51038A.51039.51039,0,0,0,161.57033,211.10122Z"/><path class="cls-6" d="M165.043,211.10122a.51038.51038,0,1,0-.51037-.51038A.51039.51039,0,0,0,165.043,211.10122Z"/><path class="cls-6" d="M168.51574,211.10122a.51038.51038,0,1,0-.51037-.51038A.5104.5104,0,0,0,168.51574,211.10122Z"/><path class="cls-6" d="M171.98845,211.10122a.51038.51038,0,1,0-.51037-.51038A.51038.51038,0,0,0,171.98845,211.10122Z"/><path class="cls-6" d="M175.46116,211.10122a.51038.51038,0,1,0-.51038-.51038A.51038.51038,0,0,0,175.46116,211.10122Z"/><path class="cls-6" d="M178.93386,211.10122a.51038.51038,0,1,0-.51037-.51038A.51038.51038,0,0,0,178.93386,211.10122Z"/><circle class="cls-6" cx="154.62492" cy="214.06355" r="0.51037"/><circle class="cls-6" cx="158.09763" cy="214.06355" r="0.51037"/><circle class="cls-6" cx="161.57033" cy="214.06355" r="0.51037"/><circle class="cls-6" cx="165.04304" cy="214.06355" r="0.51037"/><path class="cls-6" d="M168.51574,214.57392a.51037.51037,0,1,0-.51037-.51037A.51039.51039,0,0,0,168.51574,214.57392Z"/><circle class="cls-6" cx="171.98845" cy="214.06355" r="0.51037"/><path class="cls-6" d="M175.46116,214.57392a.51037.51037,0,1,0-.51038-.51037A.51038.51038,0,0,0,175.46116,214.57392Z"/><circle class="cls-6" cx="178.93386" cy="214.06355" r="0.51037"/><path class="cls-6" d="M154.62492,218.04663a.51038.51038,0,1,0-.51037-.51037A.51038.51038,0,0,0,154.62492,218.04663Z"/><path class="cls-6" d="M158.09763,218.04663a.51038.51038,0,1,0-.51037-.51037A.51038.51038,0,0,0,158.09763,218.04663Z"/><path class="cls-6" d="M161.57033,218.04663a.51038.51038,0,1,0-.51037-.51037A.51038.51038,0,0,0,161.57033,218.04663Z"/><path class="cls-6" d="M165.043,218.04663a.51038.51038,0,1,0-.51037-.51037A.51038.51038,0,0,0,165.043,218.04663Z"/><path class="cls-6" d="M168.51574,218.04663a.51038.51038,0,1,0-.51037-.51037A.51039.51039,0,0,0,168.51574,218.04663Z"/><path class="cls-6" d="M171.98845,218.04663a.51038.51038,0,1,0-.51037-.51037A.51038.51038,0,0,0,171.98845,218.04663Z"/><path class="cls-6" d="M175.46116,218.04663a.51038.51038,0,1,0-.51038-.51037A.51038.51038,0,0,0,175.46116,218.04663Z"/><path class="cls-6" d="M178.93386,218.04663a.51038.51038,0,1,0-.51037-.51037A.51038.51038,0,0,0,178.93386,218.04663Z"/><circle class="cls-6" cx="154.62492" cy="221.00896" r="0.51037"/><circle class="cls-6" cx="158.09763" cy="221.00896" r="0.51037"/><circle class="cls-6" cx="161.57033" cy="221.00896" r="0.51037"/><circle class="cls-6" cx="165.04304" cy="221.00896" r="0.51037"/><path class="cls-6" d="M168.51574,221.51933a.51037.51037,0,1,0-.51037-.51037A.51039.51039,0,0,0,168.51574,221.51933Z"/><circle class="cls-6" cx="171.98845" cy="221.00896" r="0.51037"/><path class="cls-6" d="M175.46116,221.51933a.51037.51037,0,1,0-.51038-.51037A.51038.51038,0,0,0,175.46116,221.51933Z"/><circle class="cls-6" cx="178.93386" cy="221.00896" r="0.51037"/><path class="cls-6" d="M154.62492,224.992a.51038.51038,0,1,0-.51037-.51037A.51038.51038,0,0,0,154.62492,224.992Z"/><path class="cls-6" d="M158.09763,224.992a.51038.51038,0,1,0-.51037-.51037A.51038.51038,0,0,0,158.09763,224.992Z"/><path class="cls-6" d="M161.57033,224.992a.51038.51038,0,1,0-.51037-.51037A.51038.51038,0,0,0,161.57033,224.992Z"/><path class="cls-6" d="M165.043,224.992a.51038.51038,0,1,0-.51037-.51037A.51038.51038,0,0,0,165.043,224.992Z"/><path class="cls-6" d="M168.51574,224.992a.51038.51038,0,1,0-.51037-.51037A.51039.51039,0,0,0,168.51574,224.992Z"/><path class="cls-6" d="M171.98845,224.992a.51038.51038,0,1,0-.51037-.51037A.51038.51038,0,0,0,171.98845,224.992Z"/><path class="cls-6" d="M175.46116,224.992a.51038.51038,0,1,0-.51038-.51037A.51038.51038,0,0,0,175.46116,224.992Z"/><path class="cls-6" d="M178.93386,224.992a.51038.51038,0,1,0-.51037-.51037A.51038.51038,0,0,0,178.93386,224.992Z"/><circle class="cls-6" cx="154.62492" cy="227.95437" r="0.51037"/><circle class="cls-6" cx="158.09763" cy="227.95437" r="0.51037"/><circle class="cls-6" cx="161.57033" cy="227.95437" r="0.51037"/><circle class="cls-6" cx="165.04304" cy="227.95437" r="0.51037"/><path class="cls-6" d="M168.51574,228.46474a.51037.51037,0,1,0-.51037-.51037A.51039.51039,0,0,0,168.51574,228.46474Z"/><circle class="cls-6" cx="171.98845" cy="227.95437" r="0.51037"/><path class="cls-6" d="M175.46116,228.46474a.51037.51037,0,1,0-.51038-.51037A.51038.51038,0,0,0,175.46116,228.46474Z"/><circle class="cls-6" cx="178.93386" cy="227.95437" r="0.51037"/><circle class="cls-6" cx="154.62492" cy="231.42708" r="0.51037"/><circle class="cls-6" cx="158.09763" cy="231.42708" r="0.51037"/><circle class="cls-6" cx="161.57033" cy="231.42708" r="0.51037"/><circle class="cls-6" cx="165.04304" cy="231.42708" r="0.51037"/><path class="cls-6" d="M168.51574,231.93745a.51037.51037,0,1,0-.51037-.51037A.51039.51039,0,0,0,168.51574,231.93745Z"/><circle class="cls-6" cx="171.98845" cy="231.42708" r="0.51037"/><path class="cls-6" d="M175.46116,231.93745a.51037.51037,0,1,0-.51038-.51037A.51038.51038,0,0,0,175.46116,231.93745Z"/><circle class="cls-6" cx="178.93386" cy="231.42708" r="0.51037"/><circle class="cls-6" cx="154.62492" cy="234.89978" r="0.51037"/><circle class="cls-6" cx="158.09763" cy="234.89978" r="0.51037"/><circle class="cls-6" cx="161.57033" cy="234.89978" r="0.51037"/><circle class="cls-6" cx="165.04304" cy="234.89978" r="0.51037"/><path class="cls-6" d="M168.51574,235.41015a.51037.51037,0,1,0-.51037-.51037A.51039.51039,0,0,0,168.51574,235.41015Z"/><circle class="cls-6" cx="171.98845" cy="234.89978" r="0.51037"/><path class="cls-6" d="M175.46116,235.41015a.51037.51037,0,1,0-.51038-.51037A.51038.51038,0,0,0,175.46116,235.41015Z"/><circle class="cls-6" cx="178.93386" cy="234.89978" r="0.51037"/><circle class="cls-6" cx="154.62492" cy="238.37249" r="0.51037"/><circle class="cls-6" cx="158.09763" cy="238.37249" r="0.51037"/><circle class="cls-6" cx="161.57033" cy="238.37249" r="0.51037"/><circle class="cls-6" cx="165.04304" cy="238.37249" r="0.51037"/><path class="cls-6" d="M168.51574,238.88286a.51037.51037,0,1,0-.51037-.51037A.51039.51039,0,0,0,168.51574,238.88286Z"/><circle class="cls-6" cx="171.98845" cy="238.37249" r="0.51037"/><path class="cls-6" d="M175.46116,238.88286a.51037.51037,0,1,0-.51038-.51037A.51038.51038,0,0,0,175.46116,238.88286Z"/><circle class="cls-6" cx="178.93386" cy="238.37249" r="0.51037"/><circle class="cls-6" cx="154.62492" cy="241.84519" r="0.51037"/><circle class="cls-6" cx="158.09763" cy="241.84519" r="0.51037"/><circle class="cls-6" cx="161.57033" cy="241.84519" r="0.51037"/><circle class="cls-6" cx="165.04304" cy="241.84519" r="0.51037"/><path class="cls-6" d="M168.51574,242.35556a.51037.51037,0,1,0-.51037-.51037A.51039.51039,0,0,0,168.51574,242.35556Z"/><circle class="cls-6" cx="171.98845" cy="241.84519" r="0.51037"/><path class="cls-6" d="M175.46116,242.35556a.51037.51037,0,1,0-.51038-.51037A.51038.51038,0,0,0,175.46116,242.35556Z"/><circle class="cls-6" cx="178.93386" cy="241.84519" r="0.51037"/><circle class="cls-6" cx="154.62492" cy="245.3179" r="0.51037"/><circle class="cls-6" cx="158.09763" cy="245.3179" r="0.51037"/><circle class="cls-6" cx="161.57033" cy="245.3179" r="0.51037"/><circle class="cls-6" cx="165.04304" cy="245.3179" r="0.51037"/><path class="cls-6" d="M168.51574,245.82827a.51037.51037,0,1,0-.51037-.51037A.51039.51039,0,0,0,168.51574,245.82827Z"/><circle class="cls-6" cx="171.98845" cy="245.3179" r="0.51037"/><path class="cls-6" d="M175.46116,245.82827a.51037.51037,0,1,0-.51038-.51037A.51038.51038,0,0,0,175.46116,245.82827Z"/><circle class="cls-6" cx="178.93386" cy="245.3179" r="0.51037"/><path class="cls-6" d="M154.62492,249.301a.51038.51038,0,1,0-.51037-.51038A.51039.51039,0,0,0,154.62492,249.301Z"/><path class="cls-6" d="M158.09763,249.301a.51038.51038,0,1,0-.51037-.51038A.51039.51039,0,0,0,158.09763,249.301Z"/><path class="cls-6" d="M161.57033,249.301a.51038.51038,0,1,0-.51037-.51038A.51039.51039,0,0,0,161.57033,249.301Z"/><path class="cls-6" d="M165.043,249.301a.51038.51038,0,1,0-.51037-.51038A.51039.51039,0,0,0,165.043,249.301Z"/><path class="cls-6" d="M168.51574,249.301a.51038.51038,0,1,0-.51037-.51038A.5104.5104,0,0,0,168.51574,249.301Z"/><path class="cls-6" d="M171.98845,249.301a.51038.51038,0,1,0-.51037-.51038A.51038.51038,0,0,0,171.98845,249.301Z"/><path class="cls-6" d="M175.46116,249.301a.51038.51038,0,1,0-.51038-.51038A.51038.51038,0,0,0,175.46116,249.301Z"/><path class="cls-6" d="M178.93386,249.301a.51038.51038,0,1,0-.51037-.51038A.51038.51038,0,0,0,178.93386,249.301Z"/><circle class="cls-6" cx="154.62492" cy="252.26331" r="0.51037"/><circle class="cls-6" cx="158.09763" cy="252.26331" r="0.51037"/><circle class="cls-6" cx="161.57033" cy="252.26331" r="0.51037"/><circle class="cls-6" cx="165.04304" cy="252.26331" r="0.51037"/><path class="cls-6" d="M168.51574,252.77368a.51037.51037,0,1,0-.51037-.51037A.51039.51039,0,0,0,168.51574,252.77368Z"/><circle class="cls-6" cx="171.98845" cy="252.26331" r="0.51037"/><path class="cls-6" d="M175.46116,252.77368a.51037.51037,0,1,0-.51038-.51037A.51038.51038,0,0,0,175.46116,252.77368Z"/><circle class="cls-6" cx="178.93386" cy="252.26331" r="0.51037"/><path class="cls-6" d="M154.62492,256.24639a.51038.51038,0,1,0-.51037-.51038A.51039.51039,0,0,0,154.62492,256.24639Z"/><path class="cls-6" d="M158.09763,256.24639a.51038.51038,0,1,0-.51037-.51038A.51039.51039,0,0,0,158.09763,256.24639Z"/><path class="cls-6" d="M161.57033,256.24639a.51038.51038,0,1,0-.51037-.51038A.51039.51039,0,0,0,161.57033,256.24639Z"/><path class="cls-6" d="M165.043,256.24639a.51038.51038,0,1,0-.51037-.51038A.51039.51039,0,0,0,165.043,256.24639Z"/><path class="cls-6" d="M168.51574,256.24639a.51038.51038,0,1,0-.51037-.51038A.5104.5104,0,0,0,168.51574,256.24639Z"/><path class="cls-6" d="M171.98845,256.24639a.51038.51038,0,1,0-.51037-.51038A.51038.51038,0,0,0,171.98845,256.24639Z"/><path class="cls-6" d="M175.46116,256.24639a.51038.51038,0,1,0-.51038-.51038A.51038.51038,0,0,0,175.46116,256.24639Z"/><path class="cls-6" d="M178.93386,256.24639a.51038.51038,0,1,0-.51037-.51038A.51038.51038,0,0,0,178.93386,256.24639Z"/></g><g class="cls-15"><circle class="cls-6" cx="25.99952" cy="106.70595" r="0.51037"/><circle class="cls-6" cx="29.47223" cy="106.70595" r="0.51037"/><circle class="cls-6" cx="32.94492" cy="106.70595" r="0.51037"/><circle class="cls-6" cx="36.41763" cy="106.70595" r="0.51037"/><path class="cls-6" d="M39.89033,107.21633A.51038.51038,0,1,0,39.38,106.706.5104.5104,0,0,0,39.89033,107.21633Z"/><circle class="cls-6" cx="43.36304" cy="106.70595" r="0.51037"/><path class="cls-6" d="M46.83575,107.21633a.51038.51038,0,1,0-.51038-.51038A.51039.51039,0,0,0,46.83575,107.21633Z"/><circle class="cls-6" cx="50.30845" cy="106.70595" r="0.51037"/><path class="cls-6" d="M25.99952,110.689a.51038.51038,0,1,0-.51038-.51038A.51039.51039,0,0,0,25.99952,110.689Z"/><path class="cls-6" d="M29.47223,110.689a.51038.51038,0,1,0-.51038-.51038A.51039.51039,0,0,0,29.47223,110.689Z"/><path class="cls-6" d="M32.94492,110.689a.51038.51038,0,1,0-.51037-.51038A.51039.51039,0,0,0,32.94492,110.689Z"/><path class="cls-6" d="M36.41763,110.689a.51038.51038,0,1,0-.51037-.51038A.51039.51039,0,0,0,36.41763,110.689Z"/><path class="cls-6" d="M39.89033,110.689a.51038.51038,0,1,0-.51037-.51038A.5104.5104,0,0,0,39.89033,110.689Z"/><path class="cls-6" d="M43.363,110.689a.51038.51038,0,1,0-.51037-.51038A.51039.51039,0,0,0,43.363,110.689Z"/><path class="cls-6" d="M46.83575,110.689a.51038.51038,0,1,0-.51038-.51038A.5104.5104,0,0,0,46.83575,110.689Z"/><path class="cls-6" d="M50.30845,110.689a.51038.51038,0,1,0-.51037-.51038A.51038.51038,0,0,0,50.30845,110.689Z"/><circle class="cls-6" cx="25.99952" cy="113.65136" r="0.51037"/><circle class="cls-6" cx="29.47223" cy="113.65136" r="0.51037"/><circle class="cls-6" cx="32.94492" cy="113.65136" r="0.51037"/><circle class="cls-6" cx="36.41763" cy="113.65136" r="0.51037"/><path class="cls-6" d="M39.89033,114.16174a.51038.51038,0,1,0-.51037-.51038A.5104.5104,0,0,0,39.89033,114.16174Z"/><circle class="cls-6" cx="43.36304" cy="113.65136" r="0.51037"/><path class="cls-6" d="M46.83575,114.16174a.51038.51038,0,1,0-.51038-.51038A.51039.51039,0,0,0,46.83575,114.16174Z"/><circle class="cls-6" cx="50.30845" cy="113.65136" r="0.51037"/><circle class="cls-6" cx="25.99952" cy="117.12407" r="0.51037"/><circle class="cls-6" cx="29.47223" cy="117.12407" r="0.51037"/><circle class="cls-6" cx="32.94492" cy="117.12407" r="0.51037"/><circle class="cls-6" cx="36.41763" cy="117.12407" r="0.51037"/><path class="cls-6" d="M39.89033,117.63445a.51038.51038,0,1,0-.51037-.51038A.5104.5104,0,0,0,39.89033,117.63445Z"/><circle class="cls-6" cx="43.36304" cy="117.12407" r="0.51037"/><path class="cls-6" d="M46.83575,117.63445a.51038.51038,0,1,0-.51038-.51038A.51039.51039,0,0,0,46.83575,117.63445Z"/><circle class="cls-6" cx="50.30845" cy="117.12407" r="0.51037"/><circle class="cls-6" cx="25.99952" cy="120.59677" r="0.51037"/><circle class="cls-6" cx="29.47223" cy="120.59677" r="0.51037"/><circle class="cls-6" cx="32.94492" cy="120.59677" r="0.51037"/><circle class="cls-6" cx="36.41763" cy="120.59677" r="0.51037"/><path class="cls-6" d="M39.89033,121.10714a.51037.51037,0,1,0-.51037-.51037A.51039.51039,0,0,0,39.89033,121.10714Z"/><circle class="cls-6" cx="43.36304" cy="120.59677" r="0.51037"/><path class="cls-6" d="M46.83575,121.10714a.51037.51037,0,1,0-.51038-.51037A.51038.51038,0,0,0,46.83575,121.10714Z"/><circle class="cls-6" cx="50.30845" cy="120.59677" r="0.51037"/><circle class="cls-6" cx="25.99952" cy="124.06948" r="0.51037"/><circle class="cls-6" cx="29.47223" cy="124.06948" r="0.51037"/><circle class="cls-6" cx="32.94492" cy="124.06948" r="0.51037"/><circle class="cls-6" cx="36.41763" cy="124.06948" r="0.51037"/><path class="cls-6" d="M39.89033,124.57985a.51037.51037,0,1,0-.51037-.51037A.51039.51039,0,0,0,39.89033,124.57985Z"/><circle class="cls-6" cx="43.36304" cy="124.06948" r="0.51037"/><path class="cls-6" d="M46.83575,124.57985a.51037.51037,0,1,0-.51038-.51037A.51038.51038,0,0,0,46.83575,124.57985Z"/><circle class="cls-6" cx="50.30845" cy="124.06948" r="0.51037"/><circle class="cls-6" cx="25.99952" cy="127.54218" r="0.51037"/><circle class="cls-6" cx="29.47223" cy="127.54218" r="0.51037"/><circle class="cls-6" cx="32.94492" cy="127.54218" r="0.51037"/><circle class="cls-6" cx="36.41763" cy="127.54218" r="0.51037"/><path class="cls-6" d="M39.89033,128.05255a.51037.51037,0,1,0-.51037-.51037A.51039.51039,0,0,0,39.89033,128.05255Z"/><circle class="cls-6" cx="43.36304" cy="127.54218" r="0.51037"/><path class="cls-6" d="M46.83575,128.05255a.51037.51037,0,1,0-.51038-.51037A.51038.51038,0,0,0,46.83575,128.05255Z"/><circle class="cls-6" cx="50.30845" cy="127.54218" r="0.51037"/><circle class="cls-6" cx="25.99952" cy="131.01489" r="0.51037"/><circle class="cls-6" cx="29.47223" cy="131.01489" r="0.51037"/><circle class="cls-6" cx="32.94492" cy="131.01489" r="0.51037"/><circle class="cls-6" cx="36.41763" cy="131.01489" r="0.51037"/><path class="cls-6" d="M39.89033,131.52526a.51037.51037,0,1,0-.51037-.51037A.51039.51039,0,0,0,39.89033,131.52526Z"/><circle class="cls-6" cx="43.36304" cy="131.01489" r="0.51037"/><path class="cls-6" d="M46.83575,131.52526a.51037.51037,0,1,0-.51038-.51037A.51038.51038,0,0,0,46.83575,131.52526Z"/><circle class="cls-6" cx="50.30845" cy="131.01489" r="0.51037"/><path class="cls-6" d="M25.99952,134.998a.51038.51038,0,1,0-.51038-.51038A.51038.51038,0,0,0,25.99952,134.998Z"/><path class="cls-6" d="M29.47223,134.998a.51038.51038,0,1,0-.51038-.51038A.51038.51038,0,0,0,29.47223,134.998Z"/><path class="cls-6" d="M32.94492,134.998a.51038.51038,0,1,0-.51037-.51038A.51039.51039,0,0,0,32.94492,134.998Z"/><path class="cls-6" d="M36.41763,134.998a.51038.51038,0,1,0-.51037-.51038A.51039.51039,0,0,0,36.41763,134.998Z"/><path class="cls-6" d="M39.89033,134.998a.51038.51038,0,1,0-.51037-.51038A.5104.5104,0,0,0,39.89033,134.998Z"/><path class="cls-6" d="M43.363,134.998a.51038.51038,0,1,0-.51037-.51038A.51039.51039,0,0,0,43.363,134.998Z"/><path class="cls-6" d="M46.83575,134.998a.51038.51038,0,1,0-.51038-.51038A.51039.51039,0,0,0,46.83575,134.998Z"/><path class="cls-6" d="M50.30845,134.998a.51038.51038,0,1,0-.51037-.51038A.51038.51038,0,0,0,50.30845,134.998Z"/><circle class="cls-6" cx="25.99952" cy="137.9603" r="0.51037"/><circle class="cls-6" cx="29.47223" cy="137.9603" r="0.51037"/><circle class="cls-6" cx="32.94492" cy="137.9603" r="0.51037"/><circle class="cls-6" cx="36.41763" cy="137.9603" r="0.51037"/><path class="cls-6" d="M39.89033,138.47067a.51037.51037,0,1,0-.51037-.51037A.51039.51039,0,0,0,39.89033,138.47067Z"/><circle class="cls-6" cx="43.36304" cy="137.9603" r="0.51037"/><path class="cls-6" d="M46.83575,138.47067a.51037.51037,0,1,0-.51038-.51037A.51038.51038,0,0,0,46.83575,138.47067Z"/><circle class="cls-6" cx="50.30845" cy="137.9603" r="0.51037"/><path class="cls-6" d="M25.99952,141.94338a.51038.51038,0,1,0-.51038-.51037A.51038.51038,0,0,0,25.99952,141.94338Z"/><path class="cls-6" d="M29.47223,141.94338a.51038.51038,0,1,0-.51038-.51037A.51038.51038,0,0,0,29.47223,141.94338Z"/><path class="cls-6" d="M32.94492,141.94338a.51038.51038,0,1,0-.51037-.51037A.51038.51038,0,0,0,32.94492,141.94338Z"/><path class="cls-6" d="M36.41763,141.94338a.51038.51038,0,1,0-.51037-.51037A.51038.51038,0,0,0,36.41763,141.94338Z"/><path class="cls-6" d="M39.89033,141.94338A.51038.51038,0,1,0,39.38,141.433.51039.51039,0,0,0,39.89033,141.94338Z"/><path class="cls-6" d="M43.363,141.94338a.51038.51038,0,1,0-.51037-.51037A.51038.51038,0,0,0,43.363,141.94338Z"/><path class="cls-6" d="M46.83575,141.94338a.51038.51038,0,1,0-.51038-.51037A.51039.51039,0,0,0,46.83575,141.94338Z"/><path class="cls-6" d="M50.30845,141.94338a.51038.51038,0,1,0-.51037-.51037A.51038.51038,0,0,0,50.30845,141.94338Z"/><circle class="cls-6" cx="25.99952" cy="144.90571" r="0.51037"/><circle class="cls-6" cx="29.47223" cy="144.90571" r="0.51037"/><circle class="cls-6" cx="32.94492" cy="144.90571" r="0.51037"/><circle class="cls-6" cx="36.41763" cy="144.90571" r="0.51037"/><path class="cls-6" d="M39.89033,145.41608a.51037.51037,0,1,0-.51037-.51037A.51039.51039,0,0,0,39.89033,145.41608Z"/><circle class="cls-6" cx="43.36304" cy="144.90571" r="0.51037"/><path class="cls-6" d="M46.83575,145.41608a.51037.51037,0,1,0-.51038-.51037A.51038.51038,0,0,0,46.83575,145.41608Z"/><circle class="cls-6" cx="50.30845" cy="144.90571" r="0.51037"/><path class="cls-6" d="M25.99952,148.88879a.51038.51038,0,1,0-.51038-.51037A.51038.51038,0,0,0,25.99952,148.88879Z"/><path class="cls-6" d="M29.47223,148.88879a.51038.51038,0,1,0-.51038-.51037A.51038.51038,0,0,0,29.47223,148.88879Z"/><path class="cls-6" d="M32.94492,148.88879a.51038.51038,0,1,0-.51037-.51037A.51038.51038,0,0,0,32.94492,148.88879Z"/><path class="cls-6" d="M36.41763,148.88879a.51038.51038,0,1,0-.51037-.51037A.51038.51038,0,0,0,36.41763,148.88879Z"/><path class="cls-6" d="M39.89033,148.88879a.51038.51038,0,1,0-.51037-.51037A.51039.51039,0,0,0,39.89033,148.88879Z"/><path class="cls-6" d="M43.363,148.88879a.51038.51038,0,1,0-.51037-.51037A.51038.51038,0,0,0,43.363,148.88879Z"/><path class="cls-6" d="M46.83575,148.88879a.51038.51038,0,1,0-.51038-.51037A.51039.51039,0,0,0,46.83575,148.88879Z"/><path class="cls-6" d="M50.30845,148.88879a.51038.51038,0,1,0-.51037-.51037A.51038.51038,0,0,0,50.30845,148.88879Z"/><circle class="cls-6" cx="25.99952" cy="151.85112" r="0.51037"/><circle class="cls-6" cx="29.47223" cy="151.85112" r="0.51037"/><circle class="cls-6" cx="32.94492" cy="151.85112" r="0.51037"/><circle class="cls-6" cx="36.41763" cy="151.85112" r="0.51037"/><path class="cls-6" d="M39.89033,152.36149a.51037.51037,0,1,0-.51037-.51037A.51039.51039,0,0,0,39.89033,152.36149Z"/><circle class="cls-6" cx="43.36304" cy="151.85112" r="0.51037"/><path class="cls-6" d="M46.83575,152.36149a.51037.51037,0,1,0-.51038-.51037A.51038.51038,0,0,0,46.83575,152.36149Z"/><circle class="cls-6" cx="50.30845" cy="151.85112" r="0.51037"/><circle class="cls-6" cx="25.99952" cy="155.32383" r="0.51037"/><circle class="cls-6" cx="29.47223" cy="155.32383" r="0.51037"/><circle class="cls-6" cx="32.94492" cy="155.32383" r="0.51037"/><circle class="cls-6" cx="36.41763" cy="155.32383" r="0.51037"/><path class="cls-6" d="M39.89033,155.83421a.51038.51038,0,1,0-.51037-.51038A.5104.5104,0,0,0,39.89033,155.83421Z"/><circle class="cls-6" cx="43.36304" cy="155.32383" r="0.51037"/><path class="cls-6" d="M46.83575,155.83421a.51038.51038,0,1,0-.51038-.51038A.51039.51039,0,0,0,46.83575,155.83421Z"/><circle class="cls-6" cx="50.30845" cy="155.32383" r="0.51037"/><circle class="cls-6" cx="25.99952" cy="158.79653" r="0.51037"/><circle class="cls-6" cx="29.47223" cy="158.79653" r="0.51037"/><circle class="cls-6" cx="32.94492" cy="158.79653" r="0.51037"/><circle class="cls-6" cx="36.41763" cy="158.79653" r="0.51037"/><path class="cls-6" d="M39.89033,159.30691a.51038.51038,0,1,0-.51037-.51038A.5104.5104,0,0,0,39.89033,159.30691Z"/><circle class="cls-6" cx="43.36304" cy="158.79653" r="0.51037"/><path class="cls-6" d="M46.83575,159.30691a.51038.51038,0,1,0-.51038-.51038A.51039.51039,0,0,0,46.83575,159.30691Z"/><circle class="cls-6" cx="50.30845" cy="158.79653" r="0.51037"/><circle class="cls-6" cx="25.99952" cy="162.26924" r="0.51037"/><circle class="cls-6" cx="29.47223" cy="162.26924" r="0.51037"/><circle class="cls-6" cx="32.94492" cy="162.26924" r="0.51037"/><circle class="cls-6" cx="36.41763" cy="162.26924" r="0.51037"/><path class="cls-6" d="M39.89033,162.77961a.51037.51037,0,1,0-.51037-.51037A.51039.51039,0,0,0,39.89033,162.77961Z"/><circle class="cls-6" cx="43.36304" cy="162.26924" r="0.51037"/><path class="cls-6" d="M46.83575,162.77961a.51037.51037,0,1,0-.51038-.51037A.51038.51038,0,0,0,46.83575,162.77961Z"/><circle class="cls-6" cx="50.30845" cy="162.26924" r="0.51037"/><circle class="cls-6" cx="25.99952" cy="165.74194" r="0.51037"/><circle class="cls-6" cx="29.47223" cy="165.74194" r="0.51037"/><circle class="cls-6" cx="32.94492" cy="165.74194" r="0.51037"/><circle class="cls-6" cx="36.41763" cy="165.74194" r="0.51037"/><path class="cls-6" d="M39.89033,166.25231a.51037.51037,0,1,0-.51037-.51037A.51039.51039,0,0,0,39.89033,166.25231Z"/><circle class="cls-6" cx="43.36304" cy="165.74194" r="0.51037"/><path class="cls-6" d="M46.83575,166.25231a.51037.51037,0,1,0-.51038-.51037A.51038.51038,0,0,0,46.83575,166.25231Z"/><circle class="cls-6" cx="50.30845" cy="165.74194" r="0.51037"/><circle class="cls-6" cx="25.99952" cy="169.21465" r="0.51037"/><circle class="cls-6" cx="29.47223" cy="169.21465" r="0.51037"/><circle class="cls-6" cx="32.94492" cy="169.21465" r="0.51037"/><circle class="cls-6" cx="36.41763" cy="169.21465" r="0.51037"/><path class="cls-6" d="M39.89033,169.725a.51037.51037,0,1,0-.51037-.51037A.51039.51039,0,0,0,39.89033,169.725Z"/><circle class="cls-6" cx="43.36304" cy="169.21465" r="0.51037"/><path class="cls-6" d="M46.83575,169.725a.51037.51037,0,1,0-.51038-.51037A.51038.51038,0,0,0,46.83575,169.725Z"/><circle class="cls-6" cx="50.30845" cy="169.21465" r="0.51037"/><path class="cls-6" d="M25.99952,173.19773a.51038.51038,0,1,0-.51038-.51038A.51038.51038,0,0,0,25.99952,173.19773Z"/><path class="cls-6" d="M29.47223,173.19773a.51038.51038,0,1,0-.51038-.51038A.51038.51038,0,0,0,29.47223,173.19773Z"/><path class="cls-6" d="M32.94492,173.19773a.51038.51038,0,1,0-.51037-.51038A.51039.51039,0,0,0,32.94492,173.19773Z"/><path class="cls-6" d="M36.41763,173.19773a.51038.51038,0,1,0-.51037-.51038A.51039.51039,0,0,0,36.41763,173.19773Z"/><path class="cls-6" d="M39.89033,173.19773a.51038.51038,0,1,0-.51037-.51038A.5104.5104,0,0,0,39.89033,173.19773Z"/><path class="cls-6" d="M43.363,173.19773a.51038.51038,0,1,0-.51037-.51038A.51039.51039,0,0,0,43.363,173.19773Z"/><path class="cls-6" d="M46.83575,173.19773a.51038.51038,0,1,0-.51038-.51038A.51039.51039,0,0,0,46.83575,173.19773Z"/><path class="cls-6" d="M50.30845,173.19773a.51038.51038,0,1,0-.51037-.51038A.51038.51038,0,0,0,50.30845,173.19773Z"/><circle class="cls-6" cx="25.99952" cy="176.16006" r="0.51037"/><circle class="cls-6" cx="29.47223" cy="176.16006" r="0.51037"/><circle class="cls-6" cx="32.94492" cy="176.16006" r="0.51037"/><circle class="cls-6" cx="36.41763" cy="176.16006" r="0.51037"/><path class="cls-6" d="M39.89033,176.67043a.51037.51037,0,1,0-.51037-.51037A.51039.51039,0,0,0,39.89033,176.67043Z"/><circle class="cls-6" cx="43.36304" cy="176.16006" r="0.51037"/><path class="cls-6" d="M46.83575,176.67043a.51037.51037,0,1,0-.51038-.51037A.51038.51038,0,0,0,46.83575,176.67043Z"/><circle class="cls-6" cx="50.30845" cy="176.16006" r="0.51037"/><path class="cls-6" d="M25.99952,180.14314a.51038.51038,0,1,0-.51038-.51038A.51038.51038,0,0,0,25.99952,180.14314Z"/><path class="cls-6" d="M29.47223,180.14314a.51038.51038,0,1,0-.51038-.51038A.51038.51038,0,0,0,29.47223,180.14314Z"/><path class="cls-6" d="M32.94492,180.14314a.51038.51038,0,1,0-.51037-.51038A.51039.51039,0,0,0,32.94492,180.14314Z"/><path class="cls-6" d="M36.41763,180.14314a.51038.51038,0,1,0-.51037-.51038A.51039.51039,0,0,0,36.41763,180.14314Z"/><path class="cls-6" d="M39.89033,180.14314a.51038.51038,0,1,0-.51037-.51038A.5104.5104,0,0,0,39.89033,180.14314Z"/><path class="cls-6" d="M43.363,180.14314a.51038.51038,0,1,0-.51037-.51038A.51039.51039,0,0,0,43.363,180.14314Z"/><path class="cls-6" d="M46.83575,180.14314a.51038.51038,0,1,0-.51038-.51038A.51039.51039,0,0,0,46.83575,180.14314Z"/><path class="cls-6" d="M50.30845,180.14314a.51038.51038,0,1,0-.51037-.51038A.51038.51038,0,0,0,50.30845,180.14314Z"/></g><g class="cls-15"><circle class="cls-6" cx="25.99952" cy="182.8092" r="0.51037"/><circle class="cls-6" cx="29.47223" cy="182.8092" r="0.51037"/><circle class="cls-6" cx="32.94492" cy="182.8092" r="0.51037"/><circle class="cls-6" cx="36.41763" cy="182.8092" r="0.51037"/><path class="cls-6" d="M39.89033,183.31957a.51037.51037,0,1,0-.51037-.51037A.51039.51039,0,0,0,39.89033,183.31957Z"/><circle class="cls-6" cx="43.36304" cy="182.8092" r="0.51037"/><path class="cls-6" d="M46.83575,183.31957a.51037.51037,0,1,0-.51038-.51037A.51038.51038,0,0,0,46.83575,183.31957Z"/><circle class="cls-6" cx="50.30845" cy="182.8092" r="0.51037"/><path class="cls-6" d="M25.99952,186.79228a.51038.51038,0,1,0-.51038-.51037A.51038.51038,0,0,0,25.99952,186.79228Z"/><path class="cls-6" d="M29.47223,186.79228a.51038.51038,0,1,0-.51038-.51037A.51038.51038,0,0,0,29.47223,186.79228Z"/><path class="cls-6" d="M32.94492,186.79228a.51038.51038,0,1,0-.51037-.51037A.51038.51038,0,0,0,32.94492,186.79228Z"/><path class="cls-6" d="M36.41763,186.79228a.51038.51038,0,1,0-.51037-.51037A.51038.51038,0,0,0,36.41763,186.79228Z"/><path class="cls-6" d="M39.89033,186.79228a.51038.51038,0,1,0-.51037-.51037A.51039.51039,0,0,0,39.89033,186.79228Z"/><path class="cls-6" d="M43.363,186.79228a.51038.51038,0,1,0-.51037-.51037A.51038.51038,0,0,0,43.363,186.79228Z"/><path class="cls-6" d="M46.83575,186.79228a.51038.51038,0,1,0-.51038-.51037A.51039.51039,0,0,0,46.83575,186.79228Z"/><path class="cls-6" d="M50.30845,186.79228a.51038.51038,0,1,0-.51037-.51037A.51038.51038,0,0,0,50.30845,186.79228Z"/><circle class="cls-6" cx="25.99952" cy="189.75461" r="0.51037"/><circle class="cls-6" cx="29.47223" cy="189.75461" r="0.51037"/><circle class="cls-6" cx="32.94492" cy="189.75461" r="0.51037"/><circle class="cls-6" cx="36.41763" cy="189.75461" r="0.51037"/><path class="cls-6" d="M39.89033,190.265a.51037.51037,0,1,0-.51037-.51037A.51039.51039,0,0,0,39.89033,190.265Z"/><circle class="cls-6" cx="43.36304" cy="189.75461" r="0.51037"/><path class="cls-6" d="M46.83575,190.265a.51037.51037,0,1,0-.51038-.51037A.51038.51038,0,0,0,46.83575,190.265Z"/><circle class="cls-6" cx="50.30845" cy="189.75461" r="0.51037"/><circle class="cls-6" cx="25.99952" cy="193.22732" r="0.51037"/><circle class="cls-6" cx="29.47223" cy="193.22732" r="0.51037"/><circle class="cls-6" cx="32.94492" cy="193.22732" r="0.51037"/><circle class="cls-6" cx="36.41763" cy="193.22732" r="0.51037"/><path class="cls-6" d="M39.89033,193.73769a.51037.51037,0,1,0-.51037-.51037A.51039.51039,0,0,0,39.89033,193.73769Z"/><circle class="cls-6" cx="43.36304" cy="193.22732" r="0.51037"/><path class="cls-6" d="M46.83575,193.73769a.51037.51037,0,1,0-.51038-.51037A.51038.51038,0,0,0,46.83575,193.73769Z"/><circle class="cls-6" cx="50.30845" cy="193.22732" r="0.51037"/><circle class="cls-6" cx="25.99952" cy="196.70002" r="0.51037"/><circle class="cls-6" cx="29.47223" cy="196.70002" r="0.51037"/><circle class="cls-6" cx="32.94492" cy="196.70002" r="0.51037"/><circle class="cls-6" cx="36.41763" cy="196.70002" r="0.51037"/><path class="cls-6" d="M39.89033,197.21039A.51037.51037,0,1,0,39.38,196.7.51039.51039,0,0,0,39.89033,197.21039Z"/><circle class="cls-6" cx="43.36304" cy="196.70002" r="0.51037"/><path class="cls-6" d="M46.83575,197.21039a.51037.51037,0,1,0-.51038-.51037A.51038.51038,0,0,0,46.83575,197.21039Z"/><circle class="cls-6" cx="50.30845" cy="196.70002" r="0.51037"/><circle class="cls-6" cx="25.99952" cy="200.17273" r="0.51037"/><circle class="cls-6" cx="29.47223" cy="200.17273" r="0.51037"/><circle class="cls-6" cx="32.94492" cy="200.17273" r="0.51037"/><circle class="cls-6" cx="36.41763" cy="200.17273" r="0.51037"/><path class="cls-6" d="M39.89033,200.6831a.51037.51037,0,1,0-.51037-.51037A.51039.51039,0,0,0,39.89033,200.6831Z"/><circle class="cls-6" cx="43.36304" cy="200.17273" r="0.51037"/><path class="cls-6" d="M46.83575,200.6831a.51037.51037,0,1,0-.51038-.51037A.51038.51038,0,0,0,46.83575,200.6831Z"/><circle class="cls-6" cx="50.30845" cy="200.17273" r="0.51037"/><circle class="cls-6" cx="25.99952" cy="203.64543" r="0.51037"/><circle class="cls-6" cx="29.47223" cy="203.64543" r="0.51037"/><circle class="cls-6" cx="32.94492" cy="203.64543" r="0.51037"/><circle class="cls-6" cx="36.41763" cy="203.64543" r="0.51037"/><path class="cls-6" d="M39.89033,204.1558a.51037.51037,0,1,0-.51037-.51037A.51039.51039,0,0,0,39.89033,204.1558Z"/><circle class="cls-6" cx="43.36304" cy="203.64543" r="0.51037"/><path class="cls-6" d="M46.83575,204.1558a.51037.51037,0,1,0-.51038-.51037A.51038.51038,0,0,0,46.83575,204.1558Z"/><circle class="cls-6" cx="50.30845" cy="203.64543" r="0.51037"/><circle class="cls-6" cx="25.99952" cy="207.11814" r="0.51037"/><circle class="cls-6" cx="29.47223" cy="207.11814" r="0.51037"/><circle class="cls-6" cx="32.94492" cy="207.11814" r="0.51037"/><circle class="cls-6" cx="36.41763" cy="207.11814" r="0.51037"/><path class="cls-6" d="M39.89033,207.62851a.51037.51037,0,1,0-.51037-.51037A.51039.51039,0,0,0,39.89033,207.62851Z"/><circle class="cls-6" cx="43.36304" cy="207.11814" r="0.51037"/><path class="cls-6" d="M46.83575,207.62851a.51037.51037,0,1,0-.51038-.51037A.51038.51038,0,0,0,46.83575,207.62851Z"/><circle class="cls-6" cx="50.30845" cy="207.11814" r="0.51037"/><path class="cls-6" d="M25.99952,211.10122a.51038.51038,0,1,0-.51038-.51038A.51038.51038,0,0,0,25.99952,211.10122Z"/><path class="cls-6" d="M29.47223,211.10122a.51038.51038,0,1,0-.51038-.51038A.51038.51038,0,0,0,29.47223,211.10122Z"/><path class="cls-6" d="M32.94492,211.10122a.51038.51038,0,1,0-.51037-.51038A.51039.51039,0,0,0,32.94492,211.10122Z"/><path class="cls-6" d="M36.41763,211.10122a.51038.51038,0,1,0-.51037-.51038A.51039.51039,0,0,0,36.41763,211.10122Z"/><path class="cls-6" d="M39.89033,211.10122a.51038.51038,0,1,0-.51037-.51038A.5104.5104,0,0,0,39.89033,211.10122Z"/><path class="cls-6" d="M43.363,211.10122a.51038.51038,0,1,0-.51037-.51038A.51039.51039,0,0,0,43.363,211.10122Z"/><path class="cls-6" d="M46.83575,211.10122a.51038.51038,0,1,0-.51038-.51038A.51039.51039,0,0,0,46.83575,211.10122Z"/><path class="cls-6" d="M50.30845,211.10122a.51038.51038,0,1,0-.51037-.51038A.51038.51038,0,0,0,50.30845,211.10122Z"/><circle class="cls-6" cx="25.99952" cy="214.06355" r="0.51037"/><circle class="cls-6" cx="29.47223" cy="214.06355" r="0.51037"/><circle class="cls-6" cx="32.94492" cy="214.06355" r="0.51037"/><circle class="cls-6" cx="36.41763" cy="214.06355" r="0.51037"/><path class="cls-6" d="M39.89033,214.57392a.51037.51037,0,1,0-.51037-.51037A.51039.51039,0,0,0,39.89033,214.57392Z"/><circle class="cls-6" cx="43.36304" cy="214.06355" r="0.51037"/><path class="cls-6" d="M46.83575,214.57392a.51037.51037,0,1,0-.51038-.51037A.51038.51038,0,0,0,46.83575,214.57392Z"/><circle class="cls-6" cx="50.30845" cy="214.06355" r="0.51037"/><path class="cls-6" d="M25.99952,218.04663a.51038.51038,0,1,0-.51038-.51037A.51038.51038,0,0,0,25.99952,218.04663Z"/><path class="cls-6" d="M29.47223,218.04663a.51038.51038,0,1,0-.51038-.51037A.51038.51038,0,0,0,29.47223,218.04663Z"/><path class="cls-6" d="M32.94492,218.04663a.51038.51038,0,1,0-.51037-.51037A.51038.51038,0,0,0,32.94492,218.04663Z"/><path class="cls-6" d="M36.41763,218.04663a.51038.51038,0,1,0-.51037-.51037A.51038.51038,0,0,0,36.41763,218.04663Z"/><path class="cls-6" d="M39.89033,218.04663a.51038.51038,0,1,0-.51037-.51037A.51039.51039,0,0,0,39.89033,218.04663Z"/><path class="cls-6" d="M43.363,218.04663a.51038.51038,0,1,0-.51037-.51037A.51038.51038,0,0,0,43.363,218.04663Z"/><path class="cls-6" d="M46.83575,218.04663a.51038.51038,0,1,0-.51038-.51037A.51039.51039,0,0,0,46.83575,218.04663Z"/><path class="cls-6" d="M50.30845,218.04663a.51038.51038,0,1,0-.51037-.51037A.51038.51038,0,0,0,50.30845,218.04663Z"/><circle class="cls-6" cx="25.99952" cy="221.00896" r="0.51037"/><circle class="cls-6" cx="29.47223" cy="221.00896" r="0.51037"/><circle class="cls-6" cx="32.94492" cy="221.00896" r="0.51037"/><circle class="cls-6" cx="36.41763" cy="221.00896" r="0.51037"/><path class="cls-6" d="M39.89033,221.51933A.51037.51037,0,1,0,39.38,221.009.51039.51039,0,0,0,39.89033,221.51933Z"/><circle class="cls-6" cx="43.36304" cy="221.00896" r="0.51037"/><path class="cls-6" d="M46.83575,221.51933a.51037.51037,0,1,0-.51038-.51037A.51038.51038,0,0,0,46.83575,221.51933Z"/><circle class="cls-6" cx="50.30845" cy="221.00896" r="0.51037"/><path class="cls-6" d="M25.99952,224.992a.51038.51038,0,1,0-.51038-.51037A.51038.51038,0,0,0,25.99952,224.992Z"/><path class="cls-6" d="M29.47223,224.992a.51038.51038,0,1,0-.51038-.51037A.51038.51038,0,0,0,29.47223,224.992Z"/><path class="cls-6" d="M32.94492,224.992a.51038.51038,0,1,0-.51037-.51037A.51038.51038,0,0,0,32.94492,224.992Z"/><path class="cls-6" d="M36.41763,224.992a.51038.51038,0,1,0-.51037-.51037A.51038.51038,0,0,0,36.41763,224.992Z"/><path class="cls-6" d="M39.89033,224.992a.51038.51038,0,1,0-.51037-.51037A.51039.51039,0,0,0,39.89033,224.992Z"/><path class="cls-6" d="M43.363,224.992a.51038.51038,0,1,0-.51037-.51037A.51038.51038,0,0,0,43.363,224.992Z"/><path class="cls-6" d="M46.83575,224.992a.51038.51038,0,1,0-.51038-.51037A.51039.51039,0,0,0,46.83575,224.992Z"/><path class="cls-6" d="M50.30845,224.992a.51038.51038,0,1,0-.51037-.51037A.51038.51038,0,0,0,50.30845,224.992Z"/><circle class="cls-6" cx="25.99952" cy="227.95437" r="0.51037"/><circle class="cls-6" cx="29.47223" cy="227.95437" r="0.51037"/><circle class="cls-6" cx="32.94492" cy="227.95437" r="0.51037"/><circle class="cls-6" cx="36.41763" cy="227.95437" r="0.51037"/><path class="cls-6" d="M39.89033,228.46474a.51037.51037,0,1,0-.51037-.51037A.51039.51039,0,0,0,39.89033,228.46474Z"/><circle class="cls-6" cx="43.36304" cy="227.95437" r="0.51037"/><path class="cls-6" d="M46.83575,228.46474a.51037.51037,0,1,0-.51038-.51037A.51038.51038,0,0,0,46.83575,228.46474Z"/><circle class="cls-6" cx="50.30845" cy="227.95437" r="0.51037"/><circle class="cls-6" cx="25.99952" cy="231.42708" r="0.51037"/><circle class="cls-6" cx="29.47223" cy="231.42708" r="0.51037"/><circle class="cls-6" cx="32.94492" cy="231.42708" r="0.51037"/><circle class="cls-6" cx="36.41763" cy="231.42708" r="0.51037"/><path class="cls-6" d="M39.89033,231.93745a.51037.51037,0,1,0-.51037-.51037A.51039.51039,0,0,0,39.89033,231.93745Z"/><circle class="cls-6" cx="43.36304" cy="231.42708" r="0.51037"/><path class="cls-6" d="M46.83575,231.93745a.51037.51037,0,1,0-.51038-.51037A.51038.51038,0,0,0,46.83575,231.93745Z"/><circle class="cls-6" cx="50.30845" cy="231.42708" r="0.51037"/><circle class="cls-6" cx="25.99952" cy="234.89978" r="0.51037"/><circle class="cls-6" cx="29.47223" cy="234.89978" r="0.51037"/><circle class="cls-6" cx="32.94492" cy="234.89978" r="0.51037"/><circle class="cls-6" cx="36.41763" cy="234.89978" r="0.51037"/><path class="cls-6" d="M39.89033,235.41015a.51037.51037,0,1,0-.51037-.51037A.51039.51039,0,0,0,39.89033,235.41015Z"/><circle class="cls-6" cx="43.36304" cy="234.89978" r="0.51037"/><path class="cls-6" d="M46.83575,235.41015a.51037.51037,0,1,0-.51038-.51037A.51038.51038,0,0,0,46.83575,235.41015Z"/><circle class="cls-6" cx="50.30845" cy="234.89978" r="0.51037"/><circle class="cls-6" cx="25.99952" cy="238.37249" r="0.51037"/><circle class="cls-6" cx="29.47223" cy="238.37249" r="0.51037"/><circle class="cls-6" cx="32.94492" cy="238.37249" r="0.51037"/><circle class="cls-6" cx="36.41763" cy="238.37249" r="0.51037"/><path class="cls-6" d="M39.89033,238.88286a.51037.51037,0,1,0-.51037-.51037A.51039.51039,0,0,0,39.89033,238.88286Z"/><circle class="cls-6" cx="43.36304" cy="238.37249" r="0.51037"/><path class="cls-6" d="M46.83575,238.88286a.51037.51037,0,1,0-.51038-.51037A.51038.51038,0,0,0,46.83575,238.88286Z"/><circle class="cls-6" cx="50.30845" cy="238.37249" r="0.51037"/><circle class="cls-6" cx="25.99952" cy="241.84519" r="0.51037"/><circle class="cls-6" cx="29.47223" cy="241.84519" r="0.51037"/><circle class="cls-6" cx="32.94492" cy="241.84519" r="0.51037"/><circle class="cls-6" cx="36.41763" cy="241.84519" r="0.51037"/><path class="cls-6" d="M39.89033,242.35556a.51037.51037,0,1,0-.51037-.51037A.51039.51039,0,0,0,39.89033,242.35556Z"/><circle class="cls-6" cx="43.36304" cy="241.84519" r="0.51037"/><path class="cls-6" d="M46.83575,242.35556a.51037.51037,0,1,0-.51038-.51037A.51038.51038,0,0,0,46.83575,242.35556Z"/><circle class="cls-6" cx="50.30845" cy="241.84519" r="0.51037"/><circle class="cls-6" cx="25.99952" cy="245.3179" r="0.51037"/><circle class="cls-6" cx="29.47223" cy="245.3179" r="0.51037"/><circle class="cls-6" cx="32.94492" cy="245.3179" r="0.51037"/><circle class="cls-6" cx="36.41763" cy="245.3179" r="0.51037"/><path class="cls-6" d="M39.89033,245.82827a.51037.51037,0,1,0-.51037-.51037A.51039.51039,0,0,0,39.89033,245.82827Z"/><circle class="cls-6" cx="43.36304" cy="245.3179" r="0.51037"/><path class="cls-6" d="M46.83575,245.82827a.51037.51037,0,1,0-.51038-.51037A.51038.51038,0,0,0,46.83575,245.82827Z"/><circle class="cls-6" cx="50.30845" cy="245.3179" r="0.51037"/><path class="cls-6" d="M25.99952,249.301a.51038.51038,0,1,0-.51038-.51038A.51038.51038,0,0,0,25.99952,249.301Z"/><path class="cls-6" d="M29.47223,249.301a.51038.51038,0,1,0-.51038-.51038A.51038.51038,0,0,0,29.47223,249.301Z"/><path class="cls-6" d="M32.94492,249.301a.51038.51038,0,1,0-.51037-.51038A.51039.51039,0,0,0,32.94492,249.301Z"/><path class="cls-6" d="M36.41763,249.301a.51038.51038,0,1,0-.51037-.51038A.51039.51039,0,0,0,36.41763,249.301Z"/><path class="cls-6" d="M39.89033,249.301a.51038.51038,0,1,0-.51037-.51038A.5104.5104,0,0,0,39.89033,249.301Z"/><path class="cls-6" d="M43.363,249.301a.51038.51038,0,1,0-.51037-.51038A.51039.51039,0,0,0,43.363,249.301Z"/><path class="cls-6" d="M46.83575,249.301a.51038.51038,0,1,0-.51038-.51038A.51039.51039,0,0,0,46.83575,249.301Z"/><path class="cls-6" d="M50.30845,249.301a.51038.51038,0,1,0-.51037-.51038A.51038.51038,0,0,0,50.30845,249.301Z"/><circle class="cls-6" cx="25.99952" cy="252.26331" r="0.51037"/><circle class="cls-6" cx="29.47223" cy="252.26331" r="0.51037"/><circle class="cls-6" cx="32.94492" cy="252.26331" r="0.51037"/><circle class="cls-6" cx="36.41763" cy="252.26331" r="0.51037"/><path class="cls-6" d="M39.89033,252.77368a.51037.51037,0,1,0-.51037-.51037A.51039.51039,0,0,0,39.89033,252.77368Z"/><circle class="cls-6" cx="43.36304" cy="252.26331" r="0.51037"/><path class="cls-6" d="M46.83575,252.77368a.51037.51037,0,1,0-.51038-.51037A.51038.51038,0,0,0,46.83575,252.77368Z"/><circle class="cls-6" cx="50.30845" cy="252.26331" r="0.51037"/><path class="cls-6" d="M25.99952,256.24639a.51038.51038,0,1,0-.51038-.51038A.51038.51038,0,0,0,25.99952,256.24639Z"/><path class="cls-6" d="M29.47223,256.24639a.51038.51038,0,1,0-.51038-.51038A.51038.51038,0,0,0,29.47223,256.24639Z"/><path class="cls-6" d="M32.94492,256.24639a.51038.51038,0,1,0-.51037-.51038A.51039.51039,0,0,0,32.94492,256.24639Z"/><path class="cls-6" d="M36.41763,256.24639a.51038.51038,0,1,0-.51037-.51038A.51039.51039,0,0,0,36.41763,256.24639Z"/><path class="cls-6" d="M39.89033,256.24639A.51038.51038,0,1,0,39.38,255.736.5104.5104,0,0,0,39.89033,256.24639Z"/><path class="cls-6" d="M43.363,256.24639a.51038.51038,0,1,0-.51037-.51038A.51039.51039,0,0,0,43.363,256.24639Z"/><path class="cls-6" d="M46.83575,256.24639a.51038.51038,0,1,0-.51038-.51038A.51039.51039,0,0,0,46.83575,256.24639Z"/><path class="cls-6" d="M50.30845,256.24639a.51038.51038,0,1,0-.51037-.51038A.51038.51038,0,0,0,50.30845,256.24639Z"/></g></g></g></svg>